<svg width="114" height="157" fill="none" xmlns="http://www.w3.org/2000/svg"><path d="M101.842 3.5A75.82 75.82 0 0 0 84.812.34l10.095 10.095 6.935-6.934z" fill="#022169"/><path d="M101.842 3.5A75.82 75.82 0 0 0 84.812.34l10.095 10.095 6.935-6.934z" fill="url(#paint0_radial)"/><path d="M27.602 50.916L44.36 34.159l16.928 16.927 16.759-16.757L94.94 51.22l17.132-17.13 17.201 17.198 15.228-15.227a80.53 80.53 0 0 0-5.813-7.851l-9.415 9.415-17.201-17.199-17.132 17.13-16.894-16.892-16.758 16.757L44.36 20.495 27.602 37.252l-16.69-16.723L0 31.44v13.664l10.912-10.91 16.69 16.723z" fill="#022169"/><path d="M27.602 50.916L44.36 34.159l16.928 16.927 16.759-16.757L94.94 51.22l17.132-17.13 17.201 17.198 15.228-15.227a80.53 80.53 0 0 0-5.813-7.851l-9.415 9.415-17.201-17.199-17.132 17.13-16.894-16.892-16.758 16.757L44.36 20.495 27.602 37.252l-16.69-16.723L0 31.44v13.664l10.912-10.91 16.69 16.723z" fill="url(#paint1_radial)"/><path d="M71.554.068C64.688.034 57.855 0 50.99 0l10.3 10.299L71.553.068z" fill="#022169"/><path d="M71.554.068C64.688.034 57.855 0 50.99 0l10.3 10.299L71.553.068z" fill="url(#paint2_radial)"/><path d="M40.145 147.036a74.88 74.88 0 0 0 14.787 6.424l-10.606-10.604-4.18 4.18z" fill="#022169"/><path d="M40.145 147.036a74.88 74.88 0 0 0 14.787 6.424l-10.606-10.604-4.18 4.18z" fill="url(#paint3_radial)"/><path d="M27.602 30.522L44.36 13.766l16.928 16.926 16.759-16.756L94.94 30.828l17.132-17.13 17.201 17.198 6.22-6.22a77.291 77.291 0 0 0-4.487-4.35c-7.376-6.628-15.432-11.659-24.135-15.058l-11.93 11.93L78.046.272 61.289 17.029 44.36.102 27.602 16.859 10.912.136 0 11.046V24.71L10.912 13.8l16.69 16.722z" fill="#022169"/><path d="M27.602 30.522L44.36 13.766l16.928 16.926 16.759-16.756L94.94 30.828l17.132-17.13 17.201 17.198 6.22-6.22a77.291 77.291 0 0 0-4.487-4.35c-7.376-6.628-15.432-11.659-24.135-15.058l-11.93 11.93L78.046.272 61.289 17.029 44.36.102 27.602 16.859 10.912.136 0 11.046V24.71L10.912 13.8l16.69 16.722z" fill="url(#paint4_radial)"/><path d="M37.732 0C31.002 0 24.27.034 17.54.034l10.062 10.06L37.732 0z" fill="#022169"/><path d="M37.732 0C31.002 0 24.27.034 17.54.034l10.062 10.06L37.732 0z" fill="url(#paint5_radial)"/><path d="M94.941 153.188l17.132-17.13 8.668 8.667a76.87 76.87 0 0 0 7.887-5.778l-16.555-16.553-17.132 17.131-16.894-16.893-16.758 16.757-16.929-16.927-16.214 16.213c2.55 2.141 5.133 4.079 7.852 5.812l8.362-8.361 16.928 16.926 16.759-16.756 16.894 16.892z" fill="#022169"/><path d="M94.941 153.188l17.132-17.13 8.668 8.667a76.87 76.87 0 0 0 7.887-5.778l-16.555-16.553-17.132 17.131-16.894-16.893-16.758 16.757-16.929-16.927-16.214 16.213c2.55 2.141 5.133 4.079 7.852 5.812l8.362-8.361 16.928 16.926 16.759-16.756 16.894 16.892z" fill="url(#paint6_radial)"/><path d="M4.25.068H1.02C.714.068.408.102 0 .136V4.35L4.25.068z" fill="#022169"/><path d="M4.25.068H1.02C.714.068.408.102 0 .136V4.35L4.25.068z" fill="url(#paint7_radial)"/><path d="M78.047 143.026l-12.85 12.847a81.76 81.76 0 0 0 8.737.986c5.779.34 11.49.068 17.098-.85l-12.985-12.983z" fill="#022169"/><path d="M78.047 143.026l-12.85 12.847a81.76 81.76 0 0 0 8.737.986c5.779.34 11.49.068 17.098-.85l-12.985-12.983z" fill="url(#paint8_radial)"/><path d="M112.073 142.788l-10.877 10.876c.034 0 .034 0 .068-.034 5.405-1.665 10.503-3.807 15.262-6.424l-4.453-4.418z" fill="#022169"/><path d="M112.073 142.788l-10.877 10.876c.034 0 .034 0 .068-.034 5.405-1.665 10.503-3.807 15.262-6.424l-4.453-4.418z" fill="url(#paint9_radial)"/><path d="M146.508 101.933l-17.234 17.232-17.201-17.198-17.132 17.13-16.894-16.892-16.758 16.756-16.929-16.926-16.758 16.756-16.69-16.688-5.371 5.37a72.477 72.477 0 0 0 4.385 9.279l.986-.986 16.69 16.689 16.758-16.757 16.928 16.927 16.759-16.757 16.894 16.893 17.132-17.131 17.201 17.199 17.234-17.233.782.782a72.578 72.578 0 0 0 4.351-9.313l-5.133-5.132z" fill="#022169"/><path d="M146.508 101.933l-17.234 17.232-17.201-17.198-17.132 17.13-16.894-16.892-16.758 16.756-16.929-16.926-16.758 16.756-16.69-16.688-5.371 5.37a72.477 72.477 0 0 0 4.385 9.279l.986-.986 16.69 16.689 16.758-16.757 16.928 16.927 16.759-16.757 16.894 16.893 17.132-17.131 17.201 17.199 17.234-17.233.782.782a72.578 72.578 0 0 0 4.351-9.313l-5.133-5.132z" fill="url(#paint10_radial)"/><path d="M146.508 81.54l-17.234 17.232-17.201-17.199-17.132 17.131-16.894-16.893-16.758 16.757L44.36 81.641 27.602 98.398 10.912 81.71l-9.824 9.822c.306 1.87.714 3.74 1.155 5.609a74.313 74.313 0 0 0 1.53 5.37l7.139-7.138 16.69 16.689L44.36 95.305l16.928 16.927 16.759-16.757 16.894 16.893 17.132-17.13 17.201 17.198 17.234-17.233 6.866 6.866c1.122-3.569 1.972-7.274 2.584-11.08l-9.45-9.45z" fill="#022169"/><path d="M146.508 81.54l-17.234 17.232-17.201-17.199-17.132 17.131-16.894-16.893-16.758 16.757L44.36 81.641 27.602 98.398 10.912 81.71l-9.824 9.822c.306 1.87.714 3.74 1.155 5.609a74.313 74.313 0 0 0 1.53 5.37l7.139-7.138 16.69 16.689L44.36 95.305l16.928 16.927 16.759-16.757 16.894 16.893 17.132-17.13 17.201 17.198 17.234-17.233 6.866 6.866c1.122-3.569 1.972-7.274 2.584-11.08l-9.45-9.45z" fill="url(#paint11_radial)"/><path d="M156.672 71.309l-10.164-10.163-17.234 17.233-17.201-17.199-17.132 17.13-16.894-16.892-16.758 16.757L44.36 61.248 27.602 78.005l-16.69-16.689L.034 72.193v6.831c0 2.176.102 4.35.306 6.526l10.606-10.604 16.69 16.688 16.758-16.756 16.928 16.926 16.759-16.756L94.975 91.94l17.132-17.13 17.201 17.198 17.234-17.232 10.198 10.196a79.932 79.932 0 0 0-.068-13.663z" fill="#022169"/><path d="M156.672 71.309l-10.164-10.163-17.234 17.233-17.201-17.199-17.132 17.13-16.894-16.892-16.758 16.757L44.36 61.248 27.602 78.005l-16.69-16.689L.034 72.193v6.831c0 2.176.102 4.35.306 6.526l10.606-10.604 16.69 16.688 16.758-16.756 16.928 16.926 16.759-16.756L94.975 91.94l17.132-17.13 17.201 17.198 17.234-17.232 10.198 10.196a79.932 79.932 0 0 0-.068-13.663z" fill="url(#paint12_radial)"/><path d="M148.241 42.486l-1.733-1.733-17.234 17.232-17.201-17.198-17.132 17.13-16.894-16.892L61.289 57.78 44.36 40.855 27.602 57.61l-16.69-16.688L0 51.833v13.664L10.878 54.62l16.69 16.689 16.758-16.757L61.254 71.48l16.759-16.757 16.894 16.893 17.132-17.13 17.201 17.198 17.234-17.233 9.008 9.007a73.882 73.882 0 0 0-.578-2.65 78.448 78.448 0 0 0-6.663-18.32z" fill="#022169"/><path d="M148.241 42.486l-1.733-1.733-17.234 17.232-17.201-17.198-17.132 17.13-16.894-16.892L61.289 57.78 44.36 40.855 27.602 57.61l-16.69-16.688L0 51.833v13.664L10.878 54.62l16.69 16.689 16.758-16.757L61.254 71.48l16.759-16.757 16.894 16.893 17.132-17.13 17.201 17.198 17.234-17.233 9.008 9.007a73.882 73.882 0 0 0-.578-2.65 78.448 78.448 0 0 0-6.663-18.32z" fill="url(#paint13_radial)"/><defs><radialGradient id="paint0_radial" cx="0" cy="0" r="1" gradientUnits="userSpaceOnUse" gradientTransform="matrix(157.05919 157.01643 -156.974 157.01675 0 0)"><stop stop-color="#fff"/><stop offset="0" stop-color="#fff" stop-opacity=".4"/><stop offset=".961" stop-color="#fff" stop-opacity="0"/></radialGradient><radialGradient id="paint1_radial" cx="0" cy="0" r="1" gradientUnits="userSpaceOnUse" gradientTransform="matrix(157.05919 157.01643 -156.974 157.01675 0 0)"><stop stop-color="#fff"/><stop offset="0" stop-color="#fff" stop-opacity=".4"/><stop offset=".961" stop-color="#fff" stop-opacity="0"/></radialGradient><radialGradient id="paint2_radial" cx="0" cy="0" r="1" gradientUnits="userSpaceOnUse" gradientTransform="matrix(157.05919 157.01643 -156.974 157.01675 0 0)"><stop stop-color="#fff"/><stop offset="0" stop-color="#fff" stop-opacity=".4"/><stop offset=".961" stop-color="#fff" stop-opacity="0"/></radialGradient><radialGradient id="paint3_radial" cx="0" cy="0" r="1" gradientUnits="userSpaceOnUse" gradientTransform="matrix(157.05919 157.01643 -156.974 157.01675 0 0)"><stop stop-color="#fff"/><stop offset="0" stop-color="#fff" stop-opacity=".4"/><stop offset=".961" stop-color="#fff" stop-opacity="0"/></radialGradient><radialGradient id="paint4_radial" cx="0" cy="0" r="1" gradientUnits="userSpaceOnUse" gradientTransform="matrix(157.05919 157.01643 -156.974 157.01675 0 0)"><stop stop-color="#fff"/><stop offset="0" stop-color="#fff" stop-opacity=".4"/><stop offset=".961" stop-color="#fff" stop-opacity="0"/></radialGradient><radialGradient id="paint5_radial" cx="0" cy="0" r="1" gradientUnits="userSpaceOnUse" gradientTransform="matrix(157.05919 157.01643 -156.974 157.01675 0 0)"><stop stop-color="#fff"/><stop offset="0" stop-color="#fff" stop-opacity=".4"/><stop offset=".961" stop-color="#fff" stop-opacity="0"/></radialGradient><radialGradient id="paint6_radial" cx="0" cy="0" r="1" gradientUnits="userSpaceOnUse" gradientTransform="matrix(157.05919 157.01643 -156.974 157.01675 0 0)"><stop stop-color="#fff"/><stop offset="0" stop-color="#fff" stop-opacity=".4"/><stop offset=".961" stop-color="#fff" stop-opacity="0"/></radialGradient><radialGradient id="paint7_radial" cx="0" cy="0" r="1" gradientUnits="userSpaceOnUse" gradientTransform="matrix(157.05919 157.01643 -156.974 157.01675 0 0)"><stop stop-color="#fff"/><stop offset="0" stop-color="#fff" stop-opacity=".4"/><stop offset=".961" stop-color="#fff" stop-opacity="0"/></radialGradient><radialGradient id="paint8_radial" cx="0" cy="0" r="1" gradientUnits="userSpaceOnUse" gradientTransform="matrix(157.05919 157.01643 -156.974 157.01675 0 0)"><stop stop-color="#fff"/><stop offset="0" stop-color="#fff" stop-opacity=".4"/><stop offset=".961" stop-color="#fff" stop-opacity="0"/></radialGradient><radialGradient id="paint9_radial" cx="0" cy="0" r="1" gradientUnits="userSpaceOnUse" gradientTransform="matrix(157.05919 157.01643 -156.974 157.01675 0 0)"><stop stop-color="#fff"/><stop offset="0" stop-color="#fff" stop-opacity=".4"/><stop offset=".961" stop-color="#fff" stop-opacity="0"/></radialGradient><radialGradient id="paint10_radial" cx="0" cy="0" r="1" gradientUnits="userSpaceOnUse" gradientTransform="matrix(157.05919 157.01643 -156.974 157.01675 0 0)"><stop stop-color="#fff"/><stop offset="0" stop-color="#fff" stop-opacity=".4"/><stop offset=".961" stop-color="#fff" stop-opacity="0"/></radialGradient><radialGradient id="paint11_radial" cx="0" cy="0" r="1" gradientUnits="userSpaceOnUse" gradientTransform="matrix(157.05919 157.01643 -156.974 157.01675 0 0)"><stop stop-color="#fff"/><stop offset="0" stop-color="#fff" stop-opacity=".4"/><stop offset=".961" stop-color="#fff" stop-opacity="0"/></radialGradient><radialGradient id="paint12_radial" cx="0" cy="0" r="1" gradientUnits="userSpaceOnUse" gradientTransform="matrix(157.05919 157.01643 -156.974 157.01675 0 0)"><stop stop-color="#fff"/><stop offset="0" stop-color="#fff" stop-opacity=".4"/><stop offset=".961" stop-color="#fff" stop-opacity="0"/></radialGradient><radialGradient id="paint13_radial" cx="0" cy="0" r="1" gradientUnits="userSpaceOnUse" gradientTransform="matrix(157.05919 157.01643 -156.974 157.01675 0 0)"><stop stop-color="#fff"/><stop offset="0" stop-color="#fff" stop-opacity=".4"/><stop offset=".961" stop-color="#fff" stop-opacity="0"/></radialGradient></defs></svg>