<svg width="30" height="96" fill="none" xmlns="http://www.w3.org/2000/svg"><path d="M22.762 92.724a.91.91 0 0 1-.379-.087.856.856 0 0 1-.408-1.15c.7-1.466 1.283-5.232 1.458-6.554.059-.46.497-.806.992-.748a.879.879 0 0 1 .76.977c-.03.202-.672 5.06-1.635 7.073a.861.861 0 0 1-.788.489zM14.738 6.677c-2.655 0-4.435-.373-4.551-.402l.379-1.696c.029 0 3.676.747 8.199.057l.262 1.696a26.533 26.533 0 0 1-4.289.345z" fill="#233E7C"/><path d="M18.736 95.454c-1.926 0-2.684-1.034-3.326-1.868-.263-.345-.496-.661-.817-.949-.788-.719-2.014.259-2.13.374-.321.316-1.197.977-1.372 1.121l-.058.058c-1.226.776-4.377 1.523-7.411-1.18C.004 89.763.12 80.765.12 80.39c0-.144.03-15.15 0-17.02-.029-.747-.437-18.686.438-21.849.671-2.444.554-3.45.35-5.117-.029-.316-.087-.661-.116-1.035a60.9 60.9 0 0 1-.263-4.83c.087-12.477 8.111-21.13 9.57-22.597v-.546l-.437-.172c-.409-.144-.642-.547-.555-.95a.856.856 0 0 1 .496-.632c-.029-.057-.029-.143-.058-.2-.175-1.553-.03-3.365.087-3.853C9.837.582 10.858.41 11.237.324c.35-.058 2.86-.317 3.414-.317.496-.028 1.08.03 1.896.115.292.03.584.058.934.087 1.81.143 2.101 1.063 2.13 1.408.321 2.33.146 3.508.088 3.91 0 .058-.03.115-.03.173a.798.798 0 0 1 .497.661c.058.431-.175.834-.584.949l-.409.115v.258c1.46 1.467 9.483 10.12 9.57 22.569 0 .114 0 2.5-.262 4.858a6.756 6.756 0 0 1-.117.863c-.204 1.725-.35 2.76.35 5.26.876 3.163.468 21.103.438 21.879v1.725c0 .057-.029 5.95 0 14.805.03 9.2-.7 11.27-2.45 12.679-1.226.977-2.714.805-3.619.575-.7 1.322-1.955 2.242-3.413 2.472-.088.029-.205.029-.292.029a.37.37 0 0 0-.175.029h-.088c-.146.028-.262.028-.38.028zm-4.815-4.8c.613 0 1.255.2 1.839.718.437.403.758.834 1.05 1.208.613.805.934 1.236 2.13 1.178.088 0 .175-.028.233-.028.059 0 .088 0 .146-.03h.03c1.02-.143 1.954-.948 2.334-2.012a.595.595 0 0 1 .175-.287.748.748 0 0 1 .262-.259.977.977 0 0 1 .847-.057s1.575.69 2.567-.087c1.05-.805 1.838-2.184 1.81-11.298-.03-8.769 0-14.662 0-14.806V63.14c.116-5.146.291-18.974-.38-21.389-.788-2.846-.613-4.14-.38-5.922.03-.259.059-.546.117-.863.263-2.242.263-4.628.263-4.657-.088-12.65-9.162-21.447-9.25-21.533a1.032 1.032 0 0 1-.204-.288l-.058-.143c-.058-.115-.058-.23-.058-.345l.029-1.15v-.058c-.03-.057-.03-.143-.03-.201l-.029-.834c0-.287.088-.575.321-.747.088-.058.205-.115.321-.144.059-.776.03-1.696-.116-2.76a2.416 2.416 0 0 0-.584-.115c-.35-.029-.671-.057-.963-.086a15.047 15.047 0 0 0-1.634-.115c-.583.029-2.918.259-3.18.287a.695.695 0 0 0-.233.058 15.595 15.595 0 0 0-.059 2.76c.292.144.525.431.525.776v.805a.78.78 0 0 1 .088.374v1.38c0 .086-.03.172-.059.258l-.058.173c-.058.144-.117.259-.233.345-.088.086-9.162 8.883-9.25 21.562 0 0 .03 2.386.263 4.657.03.345.088.69.117 1.006.204 1.754.35 3.019-.409 5.779-.67 2.415-.496 16.243-.38 21.36.03 1.898 0 16.445 0 17.078-.028 2.386.41 9.084 2.89 11.327 2.684 2.386 5.018 1.178 5.28 1.006a77.774 77.774 0 0 0 1.197-.949l.03-.029c.583-.546 1.604-1.15 2.684-1.15z" fill="#233E7C"/><path d="M7.005 77.946a.678.678 0 0 1-.409-.115c-.262-.143-.408-.373-.466-.66L3.65 58.482a.92.92 0 0 1 .262-.747c5.544-5.233 10.825-5.175 14.268-4.198 3.443.95 5.836 2.99 6.71 3.795l.06.058a.756.756 0 0 1 .233.632l-1.11 17.595a.9.9 0 0 1-.466.718c-.262.144-.613.115-.875-.028-5.281-3.335-15.26 1.466-15.377 1.523-.087.087-.204.115-.35.115zM5.459 58.713L7.734 75.82c2.685-1.121 9.717-3.651 14.706-1.581l.992-15.87c-1.984-1.754-9.512-7.302-17.973.345zm9.484-10.263C6.802 48.45.879 47.3.79 47.3a.875.875 0 0 1-.7-1.006.886.886 0 0 1 1.021-.69c.117.029 13.16 2.53 26.99 0a.886.886 0 0 1 1.02.69.875.875 0 0 1-.7 1.006c-4.726.863-9.365 1.15-13.48 1.15zm-.583 34.7c-8.024 0-13.364-1.984-13.714-2.1a.867.867 0 0 1-.496-1.12.889.889 0 0 1 1.138-.489c.117.058 11.934 4.399 26.756-.029.467-.143.963.115 1.08.575a.83.83 0 0 1-.584 1.064 48.89 48.89 0 0 1-14.18 2.099z" fill="#233E7C"/><path d="M7.735 70.903c-1.692 0-2.276-.633-2.48-.92a.84.84 0 0 1 .292-1.179.869.869 0 0 1 1.138.201c.146.087 1.488.834 6.681-1.293 7.207-2.961 10.825 1.753 10.884 1.81.291.375.204.92-.175 1.208a.89.89 0 0 1-1.226-.172c-.117-.144-2.889-3.651-8.782-1.236-3.006 1.207-5.019 1.58-6.332 1.58z" fill="#233E7C"/></svg>