<svg width="22" height="65" fill="none" xmlns="http://www.w3.org/2000/svg"><path d="M11.264 41.832c5.693 0 9.366-1.208 9.58-1.303l-.58-1.812c-.093.032-8.052 2.67-18.796-.032l-.429 1.844a40.878 40.878 0 0 0 10.225 1.303zm.186-15.636c5.694 0 9.367-1.208 9.581-1.303l-.581-1.812c-.092.032-8.051 2.67-18.796-.032l-.428 1.844a40.878 40.878 0 0 0 10.224 1.303z" fill="#D6D6D6"/><path d="M10.958 39.385h.214c2.541-.159 4.47-2.67 4.561-2.796a.884.884 0 0 0 .184-.54l.03-.795c.031-.54-.367-.985-.887-.985s-.95.38-.95.921l-.03.477c-.55.636-1.806 1.78-3.03 1.843-1.225.064-2.572-1.112-3.214-1.811v-.477c0-.54-.429-.953-.95-.922-.52 0-.918.445-.887.986l.03.826c0 .222.092.413.215.572.214.254 2.265 2.701 4.714 2.701zM6.83 32.393c.521 0 .919-.445.919-.985l-.061-1.939c.918.064 2.265 0 3.428-.476a8.024 8.024 0 0 0 3.214.667h.03l-.06 1.685c-.03.54.367.985.887.985.49.032.95-.382.95-.922l.122-2.765c0-.286-.092-.54-.306-.73a.883.883 0 0 0-.735-.255c-2.143.286-3.612-.572-3.612-.572a.886.886 0 0 0-.888 0c-1.194.667-3.122.509-3.765.381-.275-.063-.551.032-.765.223a.906.906 0 0 0-.306.762l.03 2.988c0 .54.398.953.919.953z" fill="#D6D6D6"/><path d="M4.747 36.143h2.174c.52 0 .918-.413.918-.953s-.398-.954-.918-.954H5.665v-2.034c.337.064.674.128 1.041.16.49.063.95-.319 1.01-.827.062-.509-.306-.985-.795-1.049a28.734 28.734 0 0 1-1.99-.35.842.842 0 0 0-.765.191.965.965 0 0 0-.337.731v4.132c0 .54.398.953.918.953zm10.285 0h2.265c.52 0 .919-.413.919-.953v-4.132a.964.964 0 0 0-.337-.73.842.842 0 0 0-.765-.191s-.796.159-2.051.286c-.49.063-.857.54-.796 1.048.061.509.52.89 1.01.827.398-.064.765-.096 1.072-.127v2.065h-1.347c-.52 0-.919.414-.919.954s.46.953.95.953z" fill="#D6D6D6"/><path d="M6.919 36.144h8.112c.52 0 .918-.413.918-.954 0-.54-.398-.953-.918-.953H6.919c-.52 0-.918.413-.918.953s.398.954.918.954zm3.551-3.56c1.837 0 3.52-.127 4.806-.286.49-.064.858-.54.796-1.049-.06-.508-.52-.89-1.01-.826-2.081.254-5.173.445-8.173.064-.49-.064-.949.317-1.01.826-.061.508.306.985.796 1.049 1.286.19 2.571.222 3.796.222zM5.048 63.06a.822.822 0 0 0 .398-.095c.46-.222.643-.794.398-1.27-.49-1.018-.918-3.656-1.04-4.577a.94.94 0 0 0-1.041-.826c-.49.063-.857.54-.796 1.08.061.382.52 3.718 1.224 5.18.184.318.52.509.857.509zm6.219-56.092c2.602 0 4.377-.381 4.469-.413l-.398-1.875c-.03 0-3.551.763-7.959.064l-.275 1.875c1.53.254 2.938.35 4.163.35z" fill="#D6D6D6"/><path d="M7.867 65c1.5 0 2.112-.794 2.633-1.43.183-.223.336-.445.55-.636.43-.381 1.194.255 1.225.255.245.222.888.699 1.01.794.03.032.061.032.061.064.123.063 2.786 1.684 5.694-.858 1.225-1.081 2.051-3.083 2.449-5.975a17.254 17.254 0 0 0-.153-5.467 43.138 43.138 0 0 0-.429-2.065c-.214-.763-.49-3.592-.03-5.72.06-.255.122-.51.183-.764.46-2.034.95-4.131.643-6.102-.245-1.557-.092-9.693 0-12.839.184-.73.919-4.1-.949-6.928l-4.959-9.185v-.508l.398-.127c.429-.16.643-.604.582-1.05a.989.989 0 0 0-.49-.666c0-.064.03-.096.03-.128.184-1.62.062-3.464-.03-3.972C16.101.613 15.03.422 14.693.358a75.43 75.43 0 0 0-3.367-.35c-.49-.031-1.04.032-1.806.096-.275.032-.612.063-.949.095-1.745.159-2.05 1.112-2.112 1.494-.306 2.352-.153 3.623-.092 4.036 0 .032 0 .095.03.127-.244.127-.428.381-.49.7-.06.476.185.92.613 1.048l.367.127v.413l-5.142 9.058C-.184 19.998.459 23.367.643 24.098c.03 3.146 0 11.282-.276 12.84-.336 1.97.092 4.068.52 6.101.062.255.093.509.154.763.428 2.13.061 4.958-.153 5.72-.215.732-.582 2.543-.796 3.529a3.69 3.69 0 0 0-.092.794c0 6.356.46 7.723 1.96 8.899.826.635 1.836.667 2.632.508.581.953 1.53 1.59 2.602 1.716.122.032.275.032.398.032h.275zm3.52-4.132c-.52 0-1.04.16-1.5.573-.336.317-.581.635-.826.921-.429.572-.582.763-1.347.731-.092 0-.184 0-.276-.032-.642-.095-1.193-.572-1.469-1.24-.061-.126-.122-.221-.153-.285a.788.788 0 0 0-.398-.318.98.98 0 0 0-.735 0s-1.01.445-1.591-.032c-.674-.54-1.225-.953-1.225-7.373 0-.095.03-.318.062-.413.153-.763.55-2.67.734-3.369.306-1.048.674-4.195.184-6.642-.061-.254-.092-.508-.153-.763-.398-1.938-.796-3.75-.52-5.37.367-2.035.305-12.173.305-13.317 0-.095 0-.159-.03-.254 0-.032-.827-3.114.826-5.434.031-.032.031-.064.062-.064l5.265-9.344a.96.96 0 0 0 .122-.508l-.03-1.367v-.063c.03-.064.03-.127.03-.223l.03-.858c0-.317-.091-.635-.336-.826a.944.944 0 0 0-.306-.159c-.03-.54-.061-1.43.122-2.701.092-.032.245-.064.46-.096.367-.031.673-.063.98-.095.703-.032 1.224-.063 1.56-.063.551.031 2.847.286 3.092.317.03 0 .092.032.153.032.061.509.123 1.653.061 2.701a.96.96 0 0 0-.52.859v.826a.873.873 0 0 0-.092.381v1.4c0 .158.03.317.122.476l5.143 9.44c0 .03.03.063.061.063 1.592 2.383.704 5.402.704 5.434-.03.095-.03.16-.03.255-.03 1.144-.306 11.25 0 13.316.245 1.589-.184 3.432-.643 5.339l-.184.762c-.55 2.448-.245 5.594.03 6.643.062.222.185.762.399 1.938a15.09 15.09 0 0 1 .122 4.83c-.306 2.353-.949 4.037-1.806 4.768-1.775 1.557-3.306.826-3.52.7-.276-.223-.704-.541-.827-.668-.49-.382-1.285-.827-2.112-.827z" fill="#D6D6D6"/></svg>