<svg width="26" height="84" fill="none" xmlns="http://www.w3.org/2000/svg"><path d="M16.573 83.88c-1.737 0-2.457-.86-3.014-1.56-.23-.255-.426-.51-.688-.733-.59-.478-1.573.287-1.573.287-.262.254-1.048.796-1.18.891-.032.032-.065.032-.065.064-.13.063-3.21 1.815-6.585-.955C.291 79.294.291 72.448.323 71.652c0-.095.033-12.004 0-13.469-.032-1.305.164-2.292.263-2.643L.258 34.493c-.82-4.808.557-8.183.753-8.597L7.661 8.16v-.573l-.425-.16c-.459-.159-.72-.604-.622-1.05.065-.287.229-.542.49-.669 0-.032-.032-.095-.032-.127-.196-1.56-.033-3.407.066-3.885C7.334.613 8.448.422 8.84.36c.394-.065 2.95-.32 3.54-.351.492-.032 1.082.031 1.933.095.295.032.623.064 1.016.096 1.867.159 2.195 1.114 2.228 1.496.327 2.325.13 3.566.098 3.98 0 .032 0 .064-.033.128a.876.876 0 0 1 .492.7c.065.478-.197.924-.656 1.051l-.393.064v.477l7.011 16.685c2.293 4.808 1.54 8.757 1.376 9.521v20.92c.131.35.262.923.262 2.006 0 .064-.033 6.91 0 13.883.033 7.42-.622 9.107-2.228 10.253-1.048.764-2.293.7-3.112.541a4.172 4.172 0 0 1-3.014 1.91c-.164.033-.295.033-.459.033-.13.031-.229.031-.327.031zm-4.16-4.363c.589 0 1.179.16 1.736.605.393.35.688.669.95.987.524.637.72.892 1.67.828.131 0 .23-.032.328-.032a2.228 2.228 0 0 0 1.802-1.433c.065-.127.13-.254.196-.286.099-.16.263-.255.426-.319.262-.095.524-.095.787 0 0 0 1.244.51 1.998-.031.819-.605 1.474-1.624 1.441-8.725-.032-7.005 0-13.851 0-13.915 0-.477-.032-1.019-.098-1.21a1.051 1.051 0 0 1-.164-.541v-21.27c0-.096 0-.16.033-.255 0-.032.95-3.79-1.212-8.375 0 0 0-.031-.033-.031L15.197 8.638c-.066-.128-.066-.255-.066-.383l.033-1.337v-.064c-.033-.063-.033-.127-.033-.222l-.032-.828c0-.287.13-.605.36-.765.098-.063.197-.127.295-.159.033-.541.065-1.4-.098-2.706a2.523 2.523 0 0 0-.492-.096c-.393-.032-.72-.063-1.015-.095-.754-.064-1.278-.128-1.638-.096-.59.032-3.015.287-3.277.319-.032 0-.098.031-.163.031-.066.51-.131 1.624-.066 2.643.328.16.524.478.524.86v.796a.829.829 0 0 1 .099.382V8.32a.92.92 0 0 1-.066.319L2.813 26.564c0 .032-.033.032-.033.064s-1.408 3.152-.622 7.61v.16l.328 21.238c0 .095 0 .191-.033.255 0 0-.262.923-.23 2.26.033 1.497 0 13.024 0 13.533-.032 1.879.36 7.037 2.425 8.725 2.162 1.751 4.03.923 4.292.796.327-.223.851-.605.982-.733.623-.477 1.54-.955 2.49-.955z" fill="#233E7C"/><path d="M12.611 58.31c-6.781 0-11.106-1.496-11.368-1.591l.688-1.783c.098.032 9.534 3.28 22.278-.032l.524 1.847a48.237 48.237 0 0 1-12.122 1.56zm-.198-21.684c-6.748 0-11.105-1.496-11.368-1.592l.688-1.783-.327.892.327-.892c.099.032 9.534 3.28 22.278-.032l.524 1.847a48.422 48.422 0 0 1-12.122 1.56zm.001-29.708c-2.752 0-4.62-.383-4.718-.414l.426-1.879c.033 0 3.768.764 8.387.064l.295 1.878c-1.605.255-3.112.35-4.39.35zm7.468 74.828a.928.928 0 0 1-.426-.095.905.905 0 0 1-.426-1.274c.59-1.114 1.081-4.075 1.245-5.094.066-.51.557-.892 1.114-.828a.976.976 0 0 1 .852 1.082c-.066.414-.59 4.076-1.442 5.7-.23.318-.557.51-.917.51zM12.97 54.044h-.262c-3.309-.191-5.897-3.312-6.028-3.44a.85.85 0 0 1-.197-.54l-.032-1.02a.932.932 0 0 1 .95-.987c.524-.032 1.015.383 1.015.924l.033.7c.59.637 2.392 2.388 4.39 2.516 1.802.095 3.8-1.56 4.652-2.452l.033-.732c0-.542.458-.956 1.015-.924.557 0 .983.446.95.987l-.032 1.083a.901.901 0 0 1-.23.573c-.164.064-3.014 3.312-6.257 3.312zm5.636-8.916s-.033 0 0 0a.978.978 0 0 1-.983-.987l.066-2.738c-1.245.095-3.244.063-4.914-.637-.787.35-2.457.923-4.685.86l.098 2.42a.932.932 0 0 1-.95.986c-.524.032-1.016-.382-1.016-.923l-.163-3.503a.91.91 0 0 1 .327-.732.985.985 0 0 1 .786-.255c3.047.383 5.078-.764 5.078-.764.295-.159.656-.159.983 0 1.671.892 4.39.669 5.308.51a.963.963 0 0 1 .819.223.88.88 0 0 1 .327.764l-.098 3.853c0 .51-.459.923-.983.923z" fill="#233E7C"/><path d="M21.422 49.936h-2.948c-.557 0-.983-.414-.983-.955 0-.541.426-.955.983-.955h1.965v-3.153c-.557.096-1.114.191-1.703.255a.98.98 0 0 1-1.082-.828c-.065-.51.328-.987.852-1.05.95-.128 1.868-.255 2.72-.446.294-.064.59 0 .819.19.229.192.36.447.36.733v5.286c0 .477-.426.923-.983.923zm-13.989 0h-3.08c-.556 0-.982-.414-.982-.955v-5.286c0-.286.131-.541.36-.732.23-.191.525-.255.82-.191 0 0 1.113.191 2.784.382.524.064.917.541.852 1.05a.98.98 0 0 1-1.081.829c-.688-.064-1.31-.16-1.77-.223v3.184h2.097c.557 0 .983.414.983.955a1 1 0 0 1-.983.987z" fill="#233E7C"/><path d="M18.474 49.936H7.434c-.557 0-.983-.414-.983-.955 0-.542.426-.956.983-.956h11.04c.557 0 .983.414.983.956 0 .54-.426.955-.983.955zm-4.848-4.522c-2.457 0-4.75-.19-6.519-.382-.524-.064-.917-.541-.852-1.05a.98.98 0 0 1 1.081-.829c2.85.319 7.077.574 11.172.096a.98.98 0 0 1 1.08.828c.066.51-.327.987-.85 1.05a47.157 47.157 0 0 1-5.112.287z" fill="#233E7C"/></svg>