<svg width="126" height="173" viewBox="0 0 126 173" fill="none" xmlns="http://www.w3.org/2000/svg">
<path d="M99.9305 172.02C100.755 160.11 110.722 150.635 122.862 150.635H125.522V147.976C125.522 135.317 135.826 125.017 148.491 125.017L151.226 124.98V122.283C151.226 110.336 160.368 100.523 172.021 99.3994C173.408 90.1486 173.333 80.9727 171.722 71.8342C169.436 74.8304 168.087 78.5383 168.087 82.5832V90.4857H160.181C150.402 90.4857 142.458 98.4256 142.458 108.201V116.066L134.515 116.178C124.698 116.178 116.754 124.118 116.754 133.893V141.796H108.848C99.0687 141.796 91.1253 149.736 91.1253 159.511V167.414H83.1818C78.7979 167.414 74.7887 169.024 71.6787 171.646C74.9011 172.208 78.1609 172.582 81.4957 172.769C87.7156 173.256 93.8605 172.957 99.9305 172.02Z" fill="#549141"/>
<path d="M99.9305 172.02C100.755 160.11 110.722 150.635 122.862 150.635H125.522V147.976C125.522 135.317 135.826 125.017 148.491 125.017L151.226 124.98V122.283C151.226 110.336 160.368 100.523 172.021 99.3994C173.408 90.1486 173.333 80.9727 171.722 71.8342C169.436 74.8304 168.087 78.5383 168.087 82.5832V90.4857H160.181C150.402 90.4857 142.458 98.4256 142.458 108.201V116.066L134.515 116.178C124.698 116.178 116.754 124.118 116.754 133.893V141.796H108.848C99.0687 141.796 91.1253 149.736 91.1253 159.511V167.414H83.1818C78.7979 167.414 74.7887 169.024 71.6787 171.646C74.9011 172.208 78.1609 172.582 81.4957 172.769C87.7156 173.256 93.8605 172.957 99.9305 172.02Z" fill="url(#paint0_radial)"/>
<path d="M41.1038 120.186H43.7641V117.527C43.7641 104.868 54.0682 94.5681 66.7328 94.5681H69.3931V91.909C69.3931 79.2499 79.6972 68.9504 92.3618 68.9504L95.097 68.913V66.2164C95.097 53.5574 105.401 43.2579 118.066 43.2579H120.726V40.5987C120.726 29.5127 128.632 20.2245 139.086 18.0897C134.74 14.7189 130.206 11.7976 125.447 9.36318C117.691 11.2733 111.921 18.2769 111.921 26.5914V34.4939H104.015C94.2352 34.4939 86.2917 42.4339 86.2917 52.2091V60.0742L78.3483 60.1865C68.5313 60.1865 60.5878 68.1265 60.5878 77.9016V85.7667H52.6818C42.9023 85.7667 34.9589 93.7067 34.9589 103.482V111.384H27.0528C18.285 111.384 11.016 117.751 9.59217 126.103C12.0651 130.935 14.9877 135.504 18.36 139.774C19.9712 128.725 29.5633 120.186 41.1038 120.186Z" fill="#549141"/>
<path d="M41.1038 120.186H43.7641V117.527C43.7641 104.868 54.0682 94.5681 66.7328 94.5681H69.3931V91.909C69.3931 79.2499 79.6972 68.9504 92.3618 68.9504L95.097 68.913V66.2164C95.097 53.5574 105.401 43.2579 118.066 43.2579H120.726V40.5987C120.726 29.5127 128.632 20.2245 139.086 18.0897C134.74 14.7189 130.206 11.7976 125.447 9.36318C117.691 11.2733 111.921 18.2769 111.921 26.5914V34.4939H104.015C94.2352 34.4939 86.2917 42.4339 86.2917 52.2091V60.0742L78.3483 60.1865C68.5313 60.1865 60.5878 68.1265 60.5878 77.9016V85.7667H52.6818C42.9023 85.7667 34.9589 93.7067 34.9589 103.482V111.384H27.0528C18.285 111.384 11.016 117.751 9.59217 126.103C12.0651 130.935 14.9877 135.504 18.36 139.774C19.9712 128.725 29.5633 120.186 41.1038 120.186Z" fill="url(#paint1_radial)"/>
<path d="M69.1308 148.238H71.7911V145.579C71.7911 132.92 82.0951 122.62 94.7597 122.62H97.4201V119.961C97.4201 107.302 107.724 97.0026 120.389 97.0026L123.124 96.9651V94.2685C123.124 81.6095 133.428 71.31 146.093 71.31H148.753V68.6509C148.753 58.9132 154.86 50.5612 163.441 47.2279C161.605 43.6324 159.544 40.1868 157.184 36.9284C147.629 37.1906 139.948 45.0182 139.948 54.6435V62.5461H132.042C122.262 62.5461 114.319 70.486 114.319 80.2612V88.1263L106.375 88.2386C96.5583 88.2386 88.6148 96.1786 88.6148 105.954V113.856H80.7088C70.9293 113.856 62.9858 121.796 62.9858 131.571V139.474H55.0798C45.3003 139.474 37.3568 147.414 37.3568 157.189V157.676C40.6167 159.961 43.9514 161.946 47.3986 163.743C50.546 154.717 59.089 148.238 69.1308 148.238Z" fill="#549141"/>
<path d="M69.1308 148.238H71.7911V145.579C71.7911 132.92 82.0951 122.62 94.7597 122.62H97.4201V119.961C97.4201 107.302 107.724 97.0026 120.389 97.0026L123.124 96.9651V94.2685C123.124 81.6095 133.428 71.31 146.093 71.31H148.753V68.6509C148.753 58.9132 154.86 50.5612 163.441 47.2279C161.605 43.6324 159.544 40.1868 157.184 36.9284C147.629 37.1906 139.948 45.0182 139.948 54.6435V62.5461H132.042C122.262 62.5461 114.319 70.486 114.319 80.2612V88.1263L106.375 88.2386C96.5583 88.2386 88.6148 96.1786 88.6148 105.954V113.856H80.7088C70.9293 113.856 62.9858 121.796 62.9858 131.571V139.474H55.0798C45.3003 139.474 37.3568 147.414 37.3568 157.189V157.676C40.6167 159.961 43.9514 161.946 47.3986 163.743C50.546 154.717 59.089 148.238 69.1308 148.238Z" fill="url(#paint2_radial)"/>
<path d="M83.1817 162.245H85.842V159.586C85.842 146.927 96.1461 136.627 108.811 136.627H111.471V133.968C111.471 121.309 121.775 111.01 134.44 111.01L137.175 110.972V108.238C137.175 95.5793 147.479 85.2798 160.144 85.2798H162.804V82.6207C162.804 75.8792 165.727 69.8118 170.373 65.6171C169.174 60.8606 167.637 56.2914 165.727 51.9469C158.907 54.4188 154.036 60.973 154.036 68.6133V76.5159H146.13C136.351 76.5159 128.407 84.4558 128.407 94.231V102.096L120.464 102.208C110.647 102.208 102.703 110.148 102.703 119.924V127.826H94.7972C85.0177 127.826 77.0742 135.766 77.0742 145.541V153.444H69.1682C61.2247 153.444 54.4428 158.725 52.2321 165.953C56.5411 167.826 60.9999 169.324 65.6086 170.447C69.8052 165.466 76.1 162.245 83.1817 162.245Z" fill="#549141"/>
<path d="M83.1817 162.245H85.842V159.586C85.842 146.927 96.1461 136.627 108.811 136.627H111.471V133.968C111.471 121.309 121.775 111.01 134.44 111.01L137.175 110.972V108.238C137.175 95.5793 147.479 85.2798 160.144 85.2798H162.804V82.6207C162.804 75.8792 165.727 69.8118 170.373 65.6171C169.174 60.8606 167.637 56.2914 165.727 51.9469C158.907 54.4188 154.036 60.973 154.036 68.6133V76.5159H146.13C136.351 76.5159 128.407 84.4558 128.407 94.231V102.096L120.464 102.208C110.647 102.208 102.703 110.148 102.703 119.924V127.826H94.7972C85.0177 127.826 77.0742 135.766 77.0742 145.541V153.444H69.1682C61.2247 153.444 54.4428 158.725 52.2321 165.953C56.5411 167.826 60.9999 169.324 65.6086 170.447C69.8052 165.466 76.1 162.245 83.1817 162.245Z" fill="url(#paint3_radial)"/>
<path d="M171.085 104.793C162.804 106.291 156.509 113.557 156.509 122.246V130.111L148.566 130.223C138.749 130.223 130.805 138.163 130.805 147.938V155.841H122.899C114.019 155.841 106.638 162.395 105.364 170.934C107.462 170.447 109.56 169.923 111.658 169.286C122.749 165.878 132.604 160.635 141.184 153.593C143.47 147.713 148.116 143.032 153.961 140.672C154.261 140.298 154.523 139.961 154.823 139.586C162.916 129.212 168.349 117.601 171.085 104.793Z" fill="#549141"/>
<path d="M171.085 104.793C162.804 106.291 156.509 113.557 156.509 122.246V130.111L148.566 130.223C138.749 130.223 130.805 138.163 130.805 147.938V155.841H122.899C114.019 155.841 106.638 162.395 105.364 170.934C107.462 170.447 109.56 169.923 111.658 169.286C122.749 165.878 132.604 160.635 141.184 153.593C143.47 147.713 148.116 143.032 153.961 140.672C154.261 140.298 154.523 139.961 154.823 139.586C162.916 129.212 168.349 117.601 171.085 104.793Z" fill="url(#paint4_radial)"/>
<path d="M0 0.149793C0 0.599225 0 0.898847 0 1.19847C0 6.14223 0 11.086 0 16.0297C1.9484 8.5392 7.53132 2.54677 14.7254 0.0748871C10.1916 0.0748871 5.65786 0.0748871 1.12408 0.0748871C0.824324 0.0748871 0.4871 0.11234 0 0.149793Z" fill="#549141"/>
<path d="M0 0.149793C0 0.599225 0 0.898847 0 1.19847C0 6.14223 0 11.086 0 16.0297C1.9484 8.5392 7.53132 2.54677 14.7254 0.0748871C10.1916 0.0748871 5.65786 0.0748871 1.12408 0.0748871C0.824324 0.0748871 0.4871 0.11234 0 0.149793Z" fill="url(#paint5_radial)"/>
<path d="M4.49631 21.76V29.6625H0C0 33.4453 0 37.2654 0 41.0482C3.18489 39.4003 6.78194 38.4265 10.6413 38.4265H13.3016V35.7673C13.3016 23.1083 23.6056 12.8088 36.2702 12.8088L39.0055 12.7714V10.0748C39.0055 6.47932 39.8298 3.07112 41.3286 0C37.6191 0 33.9097 0 30.2002 0.0374527V3.93253L22.2567 4.04489C12.4773 4.04489 4.49631 11.9849 4.49631 21.76Z" fill="#549141"/>
<path d="M4.49631 21.76V29.6625H0C0 33.4453 0 37.2654 0 41.0482C3.18489 39.4003 6.78194 38.4265 10.6413 38.4265H13.3016V35.7673C13.3016 23.1083 23.6056 12.8088 36.2702 12.8088L39.0055 12.7714V10.0748C39.0055 6.47932 39.8298 3.07112 41.3286 0C37.6191 0 33.9097 0 30.2002 0.0374527V3.93253L22.2567 4.04489C12.4773 4.04489 4.49631 11.9849 4.49631 21.76Z" fill="url(#paint6_radial)"/>
<path d="M55.1173 134.231H57.7776V131.571C57.7776 118.912 68.0816 108.613 80.7462 108.613H83.4065V105.954C83.4065 93.2947 93.7106 82.9952 106.375 82.9952L109.11 82.9578V80.2612C109.11 67.6022 119.415 57.3027 132.079 57.3027H134.739V54.6435C134.739 43.4077 142.833 34.0446 153.512 32.0596C150.851 28.8386 147.929 25.7675 144.744 22.8836H143.695C133.915 22.8836 125.972 30.8236 125.972 40.5988V48.5013H118.066C108.286 48.5013 100.343 56.4413 100.343 66.2164V74.0815L92.3992 74.1939C82.5822 74.1939 74.6387 82.1338 74.6387 91.909V99.8115H66.7327C56.9532 99.8115 49.0098 107.751 49.0098 117.527V125.429H41.1037C31.3243 125.429 23.3808 133.369 23.3808 143.144V145.541C25.4416 147.751 27.6523 149.848 30.0128 151.871C30.7997 152.545 31.5865 153.219 32.4109 153.856C33.9471 142.77 43.5392 134.231 55.1173 134.231Z" fill="#549141"/>
<path d="M55.1173 134.231H57.7776V131.571C57.7776 118.912 68.0816 108.613 80.7462 108.613H83.4065V105.954C83.4065 93.2947 93.7106 82.9952 106.375 82.9952L109.11 82.9578V80.2612C109.11 67.6022 119.415 57.3027 132.079 57.3027H134.739V54.6435C134.739 43.4077 142.833 34.0446 153.512 32.0596C150.851 28.8386 147.929 25.7675 144.744 22.8836H143.695C133.915 22.8836 125.972 30.8236 125.972 40.5988V48.5013H118.066C108.286 48.5013 100.343 56.4413 100.343 66.2164V74.0815L92.3992 74.1939C82.5822 74.1939 74.6387 82.1338 74.6387 91.909V99.8115H66.7327C56.9532 99.8115 49.0098 107.751 49.0098 117.527V125.429H41.1037C31.3243 125.429 23.3808 133.369 23.3808 143.144V145.541C25.4416 147.751 27.6523 149.848 30.0128 151.871C30.7997 152.545 31.5865 153.219 32.4109 153.856C33.9471 142.77 43.5392 134.231 55.1173 134.231Z" fill="url(#paint7_radial)"/>
<path d="M27.0528 106.178H29.7131V103.519C29.7131 90.8603 40.0172 80.5608 52.6818 80.5608H55.3421V77.9016C55.3421 65.2426 65.6461 54.9431 78.3107 54.9431L81.046 54.9057V52.2091C81.046 39.5501 91.35 29.2506 104.015 29.2506H106.675V26.5914C106.675 17.8275 111.583 10.2246 118.815 6.32951C113.382 4.1198 107.687 2.50933 101.804 1.49811C99.3685 4.53178 97.9072 8.38941 97.9072 12.5841V20.4866H90.0012C80.2217 20.4866 72.2782 28.4266 72.2782 38.2018V46.0668L64.3347 46.1792C54.5178 46.1792 46.5743 54.1192 46.5743 63.8943V71.7969H38.6683C28.8888 71.7969 20.9453 79.7368 20.9453 89.512V97.3771H13.0393C8.58044 97.3771 4.49629 99.025 1.38634 101.759C1.72357 103.519 2.09826 105.28 2.51042 107.04C3.52209 111.235 4.83352 115.242 6.36976 119.1C10.1167 111.459 17.9852 106.178 27.0528 106.178Z" fill="#549141"/>
<path d="M27.0528 106.178H29.7131V103.519C29.7131 90.8603 40.0172 80.5608 52.6818 80.5608H55.3421V77.9016C55.3421 65.2426 65.6461 54.9431 78.3107 54.9431L81.046 54.9057V52.2091C81.046 39.5501 91.35 29.2506 104.015 29.2506H106.675V26.5914C106.675 17.8275 111.583 10.2246 118.815 6.32951C113.382 4.1198 107.687 2.50933 101.804 1.49811C99.3685 4.53178 97.9072 8.38941 97.9072 12.5841V20.4866H90.0012C80.2217 20.4866 72.2782 28.4266 72.2782 38.2018V46.0668L64.3347 46.1792C54.5178 46.1792 46.5743 54.1192 46.5743 63.8943V71.7969H38.6683C28.8888 71.7969 20.9453 79.7368 20.9453 89.512V97.3771H13.0393C8.58044 97.3771 4.49629 99.025 1.38634 101.759C1.72357 103.519 2.09826 105.28 2.51042 107.04C3.52209 111.235 4.83352 115.242 6.36976 119.1C10.1167 111.459 17.9852 106.178 27.0528 106.178Z" fill="url(#paint8_radial)"/>
<path d="M1.68612 78.1264V75.4672C1.68612 62.8082 11.9902 52.5087 24.6548 52.5087H27.3151V49.8121C27.3151 37.1531 37.6191 26.8536 50.2837 26.8536L53.019 26.8161V24.1195C53.019 11.4605 63.3231 1.16103 75.9877 1.16103H78.648V0.0749054C68.269 0 57.8525 0 47.4361 0C45.4502 2.84641 44.2887 6.32951 44.2887 10.0748V17.9398L36.3452 18.0522C26.5282 18.0522 18.5848 25.9922 18.5848 35.7673V43.6699H10.6413C6.66953 43.6699 2.99754 44.9807 0 47.2279C0 57.5274 0 67.8269 0 78.1264H1.68612Z" fill="#549141"/>
<path d="M1.68612 78.1264V75.4672C1.68612 62.8082 11.9902 52.5087 24.6548 52.5087H27.3151V49.8121C27.3151 37.1531 37.6191 26.8536 50.2837 26.8536L53.019 26.8161V24.1195C53.019 11.4605 63.3231 1.16103 75.9877 1.16103H78.648V0.0749054C68.269 0 57.8525 0 47.4361 0C45.4502 2.84641 44.2887 6.32951 44.2887 10.0748V17.9398L36.3452 18.0522C26.5282 18.0522 18.5848 25.9922 18.5848 35.7673V43.6699H10.6413C6.66953 43.6699 2.99754 44.9807 0 47.2279C0 57.5274 0 67.8269 0 78.1264H1.68612Z" fill="url(#paint9_radial)"/>
<path d="M15.6997 92.1337V89.4745C15.6997 76.8155 26.0037 66.516 38.6683 66.516H41.3286V63.8569C41.3286 51.1979 51.6327 40.8984 64.2973 40.8984L67.0325 40.8609V38.1643C67.0325 25.5053 77.3366 15.2058 90.0012 15.2058H92.6615V12.5467C92.6615 8.20214 93.8605 4.15725 95.9588 0.674149C93.261 0.41198 90.4883 0.262169 87.7156 0.224716C86.4416 0.224716 85.1677 0.187264 83.8562 0.187264V6.36696H75.9502C66.1707 6.36696 58.2273 14.3069 58.2273 24.0821V31.9472L50.2838 32.0595C40.4668 32.0595 32.5234 39.9995 32.5234 49.7747V57.6772H24.6548C14.8753 57.6772 6.93185 65.6172 6.93185 75.3923V83.2948H0.0375059C0.0375059 84.5308 0.0375059 85.8042 0.0375059 87.0401C0.0375059 89.9614 0.224852 92.8827 0.524606 95.804C4.12166 93.4445 8.43062 92.0962 13.0393 92.0962H15.6997V92.1337Z" fill="#549141"/>
<path d="M15.6997 92.1337V89.4745C15.6997 76.8155 26.0037 66.516 38.6683 66.516H41.3286V63.8569C41.3286 51.1979 51.6327 40.8984 64.2973 40.8984L67.0325 40.8609V38.1643C67.0325 25.5053 77.3366 15.2058 90.0012 15.2058H92.6615V12.5467C92.6615 8.20214 93.8605 4.15725 95.9588 0.674149C93.261 0.41198 90.4883 0.262169 87.7156 0.224716C86.4416 0.224716 85.1677 0.187264 83.8562 0.187264V6.36696H75.9502C66.1707 6.36696 58.2273 14.3069 58.2273 24.0821V31.9472L50.2838 32.0595C40.4668 32.0595 32.5234 39.9995 32.5234 49.7747V57.6772H24.6548C14.8753 57.6772 6.93185 65.6172 6.93185 75.3923V83.2948H0.0375059C0.0375059 84.5308 0.0375059 85.8042 0.0375059 87.0401C0.0375059 89.9614 0.224852 92.8827 0.524606 95.804C4.12166 93.4445 8.43062 92.0962 13.0393 92.0962H15.6997V92.1337Z" fill="url(#paint10_radial)"/>
<defs>
<radialGradient id="paint0_radial" cx="0" cy="0" r="1" gradientUnits="userSpaceOnUse" gradientTransform="rotate(44.9922) scale(244.718 244.652)">
<stop stop-color="white"/>
<stop offset="0.0001" stop-color="white" stop-opacity="0.4"/>
<stop offset="0.961326" stop-color="white" stop-opacity="0"/>
</radialGradient>
<radialGradient id="paint1_radial" cx="0" cy="0" r="1" gradientUnits="userSpaceOnUse" gradientTransform="rotate(44.9922) scale(244.718 244.652)">
<stop stop-color="white"/>
<stop offset="0.0001" stop-color="white" stop-opacity="0.4"/>
<stop offset="0.961326" stop-color="white" stop-opacity="0"/>
</radialGradient>
<radialGradient id="paint2_radial" cx="0" cy="0" r="1" gradientUnits="userSpaceOnUse" gradientTransform="rotate(44.9922) scale(244.718 244.652)">
<stop stop-color="white"/>
<stop offset="0.0001" stop-color="white" stop-opacity="0.4"/>
<stop offset="0.961326" stop-color="white" stop-opacity="0"/>
</radialGradient>
<radialGradient id="paint3_radial" cx="0" cy="0" r="1" gradientUnits="userSpaceOnUse" gradientTransform="rotate(44.9922) scale(244.718 244.652)">
<stop stop-color="white"/>
<stop offset="0.0001" stop-color="white" stop-opacity="0.4"/>
<stop offset="0.961326" stop-color="white" stop-opacity="0"/>
</radialGradient>
<radialGradient id="paint4_radial" cx="0" cy="0" r="1" gradientUnits="userSpaceOnUse" gradientTransform="rotate(44.9922) scale(244.718 244.652)">
<stop stop-color="white"/>
<stop offset="0.0001" stop-color="white" stop-opacity="0.4"/>
<stop offset="0.961326" stop-color="white" stop-opacity="0"/>
</radialGradient>
<radialGradient id="paint5_radial" cx="0" cy="0" r="1" gradientUnits="userSpaceOnUse" gradientTransform="rotate(44.9922) scale(244.718 244.652)">
<stop stop-color="white"/>
<stop offset="0.0001" stop-color="white" stop-opacity="0.4"/>
<stop offset="0.961326" stop-color="white" stop-opacity="0"/>
</radialGradient>
<radialGradient id="paint6_radial" cx="0" cy="0" r="1" gradientUnits="userSpaceOnUse" gradientTransform="rotate(44.9922) scale(244.718 244.652)">
<stop stop-color="white"/>
<stop offset="0.0001" stop-color="white" stop-opacity="0.4"/>
<stop offset="0.961326" stop-color="white" stop-opacity="0"/>
</radialGradient>
<radialGradient id="paint7_radial" cx="0" cy="0" r="1" gradientUnits="userSpaceOnUse" gradientTransform="rotate(44.9922) scale(244.718 244.652)">
<stop stop-color="white"/>
<stop offset="0.0001" stop-color="white" stop-opacity="0.4"/>
<stop offset="0.961326" stop-color="white" stop-opacity="0"/>
</radialGradient>
<radialGradient id="paint8_radial" cx="0" cy="0" r="1" gradientUnits="userSpaceOnUse" gradientTransform="rotate(44.9922) scale(244.718 244.652)">
<stop stop-color="white"/>
<stop offset="0.0001" stop-color="white" stop-opacity="0.4"/>
<stop offset="0.961326" stop-color="white" stop-opacity="0"/>
</radialGradient>
<radialGradient id="paint9_radial" cx="0" cy="0" r="1" gradientUnits="userSpaceOnUse" gradientTransform="rotate(44.9922) scale(244.718 244.652)">
<stop stop-color="white"/>
<stop offset="0.0001" stop-color="white" stop-opacity="0.4"/>
<stop offset="0.961326" stop-color="white" stop-opacity="0"/>
</radialGradient>
<radialGradient id="paint10_radial" cx="0" cy="0" r="1" gradientUnits="userSpaceOnUse" gradientTransform="rotate(44.9922) scale(244.718 244.652)">
<stop stop-color="white"/>
<stop offset="0.0001" stop-color="white" stop-opacity="0.4"/>
<stop offset="0.961326" stop-color="white" stop-opacity="0"/>
</radialGradient>
</defs>
</svg>
