<svg width="271" height="271" viewBox="0 0 271 271" fill="none" xmlns="http://www.w3.org/2000/svg">
<g id="Drop-4">
<path d="M156.539 269.465C157.83 250.809 173.443 235.965 192.46 235.965H196.627V231.8C196.627 211.97 212.768 195.836 232.607 195.836L236.892 195.777V191.553C236.892 172.838 251.213 157.467 269.467 155.707C271.639 141.215 271.521 126.842 268.997 112.526C265.417 117.22 263.304 123.028 263.304 129.364V141.743H250.92C235.6 141.743 223.157 154.181 223.157 169.494V181.814L210.714 181.99C195.336 181.99 182.892 194.428 182.892 209.741V222.12H170.508C155.189 222.12 142.745 234.557 142.745 249.87V262.249H130.302C123.435 262.249 117.154 264.772 112.283 268.879C117.331 269.759 122.437 270.345 127.661 270.639C137.404 271.401 147.03 270.932 156.539 269.465Z" fill="#FABB2B"/>
<path d="M156.539 269.465C157.83 250.809 173.443 235.965 192.46 235.965H196.627V231.8C196.627 211.97 212.768 195.836 232.607 195.836L236.892 195.777V191.553C236.892 172.838 251.213 157.467 269.467 155.707C271.639 141.215 271.521 126.842 268.997 112.526C265.417 117.22 263.304 123.028 263.304 129.364V141.743H250.92C235.6 141.743 223.157 154.181 223.157 169.494V181.814L210.714 181.99C195.336 181.99 182.892 194.428 182.892 209.741V222.12H170.508C155.189 222.12 142.745 234.557 142.745 249.87V262.249H130.302C123.435 262.249 117.154 264.772 112.283 268.879C117.331 269.759 122.437 270.345 127.661 270.639C137.404 271.401 147.03 270.932 156.539 269.465Z" fill="url(#paint0_radial)"/>
<path d="M64.3881 188.268H68.5554V184.102C68.5554 164.272 84.6964 148.138 104.535 148.138H108.702V143.973C108.702 124.143 124.844 108.009 144.682 108.009L148.967 107.95V103.726C148.967 83.8962 165.108 67.7624 184.947 67.7624H189.114V63.5969C189.114 46.2309 201.499 31.6811 217.875 28.337C211.066 23.0568 203.964 18.4806 196.51 14.6672C184.36 17.6593 175.321 28.6303 175.321 41.6548V54.0339H162.936C147.617 54.0339 135.174 66.4716 135.174 81.7842V94.1046L122.731 94.2806C107.353 94.2806 94.9093 106.718 94.9093 122.031V134.351H82.5247C67.2054 134.351 54.7621 146.789 54.7621 162.102V174.481H42.3776C28.643 174.481 17.2563 184.454 15.0259 197.538C18.8997 205.106 23.4779 212.263 28.7604 218.952C31.2843 201.644 46.3101 188.268 64.3881 188.268Z" fill="#FABB2B"/>
<path d="M64.3881 188.268H68.5554V184.102C68.5554 164.272 84.6964 148.138 104.535 148.138H108.702V143.973C108.702 124.143 124.844 108.009 144.682 108.009L148.967 107.95V103.726C148.967 83.8962 165.108 67.7624 184.947 67.7624H189.114V63.5969C189.114 46.2309 201.499 31.6811 217.875 28.337C211.066 23.0568 203.964 18.4806 196.51 14.6672C184.36 17.6593 175.321 28.6303 175.321 41.6548V54.0339H162.936C147.617 54.0339 135.174 66.4716 135.174 81.7842V94.1046L122.731 94.2806C107.353 94.2806 94.9093 106.718 94.9093 122.031V134.351H82.5247C67.2054 134.351 54.7621 146.789 54.7621 162.102V174.481H42.3776C28.643 174.481 17.2563 184.454 15.0259 197.538C18.8997 205.106 23.4779 212.263 28.7604 218.952C31.2843 201.644 46.3101 188.268 64.3881 188.268Z" fill="url(#paint1_radial)"/>
<path d="M108.292 232.211H112.459V228.045C112.459 208.215 128.6 192.081 148.439 192.081H152.606V187.916C152.606 168.086 168.747 151.952 188.586 151.952L192.871 151.893V147.669C192.871 127.839 209.012 111.705 228.85 111.705H233.018V107.54C233.018 92.2859 242.585 79.2028 256.026 73.9813C253.15 68.3491 249.922 62.9516 246.224 57.8474C231.257 58.2581 219.224 70.5198 219.224 85.5977V97.9768H206.84C191.521 97.9768 179.077 110.415 179.077 125.727V138.048L166.634 138.224C151.256 138.224 138.813 150.661 138.813 165.974V178.353H126.428C111.109 178.353 98.6656 190.791 98.6656 206.103V218.482H86.2811C70.9618 218.482 58.5185 230.92 58.5185 246.233V246.995C63.6249 250.574 68.8488 253.684 74.2487 256.5C79.179 242.36 92.5614 232.211 108.292 232.211Z" fill="#FABB2B"/>
<path d="M108.292 232.211H112.459V228.045C112.459 208.215 128.6 192.081 148.439 192.081H152.606V187.916C152.606 168.086 168.747 151.952 188.586 151.952L192.871 151.893V147.669C192.871 127.839 209.012 111.705 228.85 111.705H233.018V107.54C233.018 92.2859 242.585 79.2028 256.026 73.9813C253.15 68.3491 249.922 62.9516 246.224 57.8474C231.257 58.2581 219.224 70.5198 219.224 85.5977V97.9768H206.84C191.521 97.9768 179.077 110.415 179.077 125.727V138.048L166.634 138.224C151.256 138.224 138.813 150.661 138.813 165.974V178.353H126.428C111.109 178.353 98.6656 190.791 98.6656 206.103V218.482H86.2811C70.9618 218.482 58.5185 230.92 58.5185 246.233V246.995C63.6249 250.574 68.8488 253.684 74.2487 256.5C79.179 242.36 92.5614 232.211 108.292 232.211Z" fill="url(#paint2_radial)"/>
<path d="M130.302 254.153H134.469V249.987C134.469 230.157 150.61 214.023 170.449 214.023H174.616V209.858C174.616 190.028 190.757 173.894 210.596 173.894L214.881 173.835V169.553C214.881 149.723 231.022 133.589 250.861 133.589H255.028V129.423C255.028 118.863 259.606 109.358 266.884 102.788C265.006 95.3366 262.6 88.179 259.606 81.3735C248.924 85.2456 241.294 95.5126 241.294 107.481V119.86H228.909C213.59 119.86 201.146 132.298 201.146 147.61V159.931L188.703 160.107C173.325 160.107 160.882 172.545 160.882 187.857V200.236H148.497C133.178 200.236 120.735 212.674 120.735 227.987V240.366H108.35C95.907 240.366 85.2832 248.638 81.8203 259.961C88.5701 262.894 95.5548 265.241 102.774 267.001C109.348 259.198 119.209 254.153 130.302 254.153Z" fill="#FABB2B"/>
<path d="M130.302 254.153H134.469V249.987C134.469 230.157 150.61 214.023 170.449 214.023H174.616V209.858C174.616 190.028 190.757 173.894 210.596 173.894L214.881 173.835V169.553C214.881 149.723 231.022 133.589 250.861 133.589H255.028V129.423C255.028 118.863 259.606 109.358 266.884 102.788C265.006 95.3366 262.6 88.179 259.606 81.3735C248.924 85.2456 241.294 95.5126 241.294 107.481V119.86H228.909C213.59 119.86 201.146 132.298 201.146 147.61V159.931L188.703 160.107C173.325 160.107 160.882 172.545 160.882 187.857V200.236H148.497C133.178 200.236 120.735 212.674 120.735 227.987V240.366H108.35C95.907 240.366 85.2832 248.638 81.8203 259.961C88.5701 262.894 95.5548 265.241 102.774 267.001C109.348 259.198 119.209 254.153 130.302 254.153Z" fill="url(#paint3_radial)"/>
<path d="M268 164.155C255.028 166.502 245.167 177.883 245.167 191.495V203.815L232.724 203.991C217.346 203.991 204.903 216.429 204.903 231.741V244.12H192.518C178.608 244.12 167.045 254.387 165.049 267.764C168.336 267.001 171.623 266.18 174.91 265.182C192.284 259.844 207.72 251.63 221.161 240.6C224.742 231.389 232.02 224.056 241.176 220.36C241.646 219.773 242.057 219.245 242.526 218.658C255.204 202.407 263.715 184.22 268 164.155Z" fill="#FABB2B"/>
<path d="M268 164.155C255.028 166.502 245.167 177.883 245.167 191.495V203.815L232.724 203.991C217.346 203.991 204.903 216.429 204.903 231.741V244.12H192.518C178.608 244.12 167.045 254.387 165.049 267.764C168.336 267.001 171.623 266.18 174.91 265.182C192.284 259.844 207.72 251.63 221.161 240.6C224.742 231.389 232.02 224.056 241.176 220.36C241.646 219.773 242.057 219.245 242.526 218.658C255.204 202.407 263.715 184.22 268 164.155Z" fill="url(#paint4_radial)"/>
<path d="M0 0.234646C0 0.938671 0 1.40802 0 1.87737C0 9.62164 0 17.3659 0 25.1102C3.05212 13.3764 11.7976 3.98944 23.067 0.117309C15.9649 0.117309 8.86289 0.117309 1.76084 0.117309C1.29128 0.117309 0.76303 0.175977 0 0.234646Z" fill="#FABB2B"/>
<path d="M0 0.234646C0 0.938671 0 1.40802 0 1.87737C0 9.62164 0 17.3659 0 25.1102C3.05212 13.3764 11.7976 3.98944 23.067 0.117309C15.9649 0.117309 8.86289 0.117309 1.76084 0.117309C1.29128 0.117309 0.76303 0.175977 0 0.234646Z" fill="url(#paint5_radial)"/>
<path d="M7.04335 34.0865V46.4656H0C0 52.3912 0 58.3754 0 64.3009C4.98904 61.7195 10.6237 60.1941 16.6693 60.1941H20.8366V56.0286C20.8366 36.1986 36.9776 20.0647 56.8164 20.0647L61.1011 20.006V15.7819C61.1011 10.1497 62.3924 4.81083 64.7402 0C58.9294 0 53.1186 0 47.3079 0.0586687V6.16021L34.8646 6.33622C19.5453 6.33622 7.04335 18.774 7.04335 34.0865Z" fill="#FABB2B"/>
<path d="M7.04335 34.0865V46.4656H0C0 52.3912 0 58.3754 0 64.3009C4.98904 61.7195 10.6237 60.1941 16.6693 60.1941H20.8366V56.0286C20.8366 36.1986 36.9776 20.0647 56.8164 20.0647L61.1011 20.006V15.7819C61.1011 10.1497 62.3924 4.81083 64.7402 0C58.9294 0 53.1186 0 47.3079 0.0586687V6.16021L34.8646 6.33622C19.5453 6.33622 7.04335 18.774 7.04335 34.0865Z" fill="url(#paint6_radial)"/>
<path d="M86.3397 210.269H90.507V206.103C90.507 186.273 106.648 170.139 126.487 170.139H130.654V165.974C130.654 146.144 146.795 130.01 166.634 130.01L170.919 129.951V125.727C170.919 105.897 187.06 89.7632 206.898 89.7632H211.066V85.5977C211.066 67.9971 223.744 53.3299 240.472 50.2205C236.305 45.175 231.726 40.3641 226.737 35.8466H225.094C209.775 35.8466 197.331 48.2844 197.331 63.5969V75.976H184.947C169.627 75.976 157.184 88.4138 157.184 103.726V116.047L144.741 116.223C129.363 116.223 116.92 128.661 116.92 143.973V156.352H104.535C89.2158 156.352 76.7725 168.79 76.7725 184.102V196.482H64.3879C49.0686 196.482 36.6254 208.919 36.6254 224.232V227.987C39.8536 231.448 43.3166 234.734 47.0143 237.902C48.2469 238.958 49.4795 240.014 50.7708 241.011C53.1773 223.645 68.2031 210.269 86.3397 210.269Z" fill="#FABB2B"/>
<path d="M86.3397 210.269H90.507V206.103C90.507 186.273 106.648 170.139 126.487 170.139H130.654V165.974C130.654 146.144 146.795 130.01 166.634 130.01L170.919 129.951V125.727C170.919 105.897 187.06 89.7632 206.898 89.7632H211.066V85.5977C211.066 67.9971 223.744 53.3299 240.472 50.2205C236.305 45.175 231.726 40.3641 226.737 35.8466H225.094C209.775 35.8466 197.331 48.2844 197.331 63.5969V75.976H184.947C169.627 75.976 157.184 88.4138 157.184 103.726V116.047L144.741 116.223C129.363 116.223 116.92 128.661 116.92 143.973V156.352H104.535C89.2158 156.352 76.7725 168.79 76.7725 184.102V196.482H64.3879C49.0686 196.482 36.6254 208.919 36.6254 224.232V227.987C39.8536 231.448 43.3166 234.734 47.0143 237.902C48.2469 238.958 49.4795 240.014 50.7708 241.011C53.1773 223.645 68.2031 210.269 86.3397 210.269Z" fill="url(#paint7_radial)"/>
<path d="M42.3775 166.326H46.5448V162.16C46.5448 142.33 62.6858 126.196 82.5246 126.196H86.6919V122.031C86.6919 102.201 102.833 86.067 122.672 86.067L126.956 86.0083V81.7842C126.956 61.9541 143.097 45.8203 162.936 45.8203H167.104V41.6548C167.104 27.9263 174.793 16.0166 186.121 9.91501C177.61 6.45356 168.688 3.9308 159.473 2.34675C155.658 7.09891 153.369 13.1418 153.369 19.7127V32.0918H140.984C125.665 32.0918 113.222 44.5295 113.222 59.8421V72.1625L100.779 72.3385C85.4007 72.3385 72.9574 84.7763 72.9574 100.089V112.468H60.5728C45.2535 112.468 32.8103 124.906 32.8103 140.218V152.539H20.4257C13.441 152.539 7.04333 155.12 2.17167 159.403C2.69992 162.16 3.28687 164.918 3.93251 167.675C5.51727 174.246 7.57158 180.524 9.97806 186.566C15.8475 174.598 28.1734 166.326 42.3775 166.326Z" fill="#FABB2B"/>
<path d="M42.3775 166.326H46.5448V162.16C46.5448 142.33 62.6858 126.196 82.5246 126.196H86.6919V122.031C86.6919 102.201 102.833 86.067 122.672 86.067L126.956 86.0083V81.7842C126.956 61.9541 143.097 45.8203 162.936 45.8203H167.104V41.6548C167.104 27.9263 174.793 16.0166 186.121 9.91501C177.61 6.45356 168.688 3.9308 159.473 2.34675C155.658 7.09891 153.369 13.1418 153.369 19.7127V32.0918H140.984C125.665 32.0918 113.222 44.5295 113.222 59.8421V72.1625L100.779 72.3385C85.4007 72.3385 72.9574 84.7763 72.9574 100.089V112.468H60.5728C45.2535 112.468 32.8103 124.906 32.8103 140.218V152.539H20.4257C13.441 152.539 7.04333 155.12 2.17167 159.403C2.69992 162.16 3.28687 164.918 3.93251 167.675C5.51727 174.246 7.57158 180.524 9.97806 186.566C15.8475 174.598 28.1734 166.326 42.3775 166.326Z" fill="url(#paint8_radial)"/>
<path d="M2.64126 122.383V118.217C2.64126 98.3874 18.7823 82.2535 38.6211 82.2535H42.7884V78.0294C42.7884 58.1994 58.9294 42.0655 78.7682 42.0655L83.0529 42.0068V37.7826C83.0529 17.9526 99.1939 1.81873 119.033 1.81873H123.2V0.117337C106.942 0 90.6245 0 74.3074 0C71.1966 4.45882 69.377 9.91501 69.377 15.7819V28.1023L56.9338 28.2783C41.5558 28.2783 29.1125 40.7161 29.1125 56.0286V68.4077H16.6693C10.4476 68.4077 4.69557 70.4611 0 73.9812C0 90.1151 0 106.249 0 122.383H2.64126Z" fill="#FABB2B"/>
<path d="M2.64126 122.383V118.217C2.64126 98.3874 18.7823 82.2535 38.6211 82.2535H42.7884V78.0294C42.7884 58.1994 58.9294 42.0655 78.7682 42.0655L83.0529 42.0068V37.7826C83.0529 17.9526 99.1939 1.81873 119.033 1.81873H123.2V0.117337C106.942 0 90.6245 0 74.3074 0C71.1966 4.45882 69.377 9.91501 69.377 15.7819V28.1023L56.9338 28.2783C41.5558 28.2783 29.1125 40.7161 29.1125 56.0286V68.4077H16.6693C10.4476 68.4077 4.69557 70.4611 0 73.9812C0 90.1151 0 106.249 0 122.383H2.64126Z" fill="url(#paint9_radial)"/>
<path d="M24.5931 144.325V140.16C24.5931 120.33 40.7341 104.196 60.5729 104.196H64.7402V100.03C64.7402 80.2001 80.8812 64.0662 100.72 64.0662L105.005 64.0076V59.7834C105.005 39.9534 121.146 23.8195 140.985 23.8195H145.152V19.654C145.152 12.8484 147.03 6.51223 150.317 1.05604C146.091 0.645356 141.748 0.410681 137.404 0.352012C135.409 0.352012 133.413 0.293344 131.359 0.293344V9.97368H118.974C103.655 9.97368 91.2115 22.4114 91.2115 37.724V50.0444L78.7682 50.2204C63.3903 50.2204 50.947 62.6582 50.947 77.9707V90.3498H38.6211C23.3018 90.3498 10.8586 102.788 10.8586 118.1V130.479H0.0587519C0.0587519 132.415 0.0587519 134.41 0.0587519 136.346C0.0587519 140.922 0.352225 145.498 0.821782 150.075C6.45647 146.378 13.2063 144.266 20.4258 144.266H24.5931V144.325Z" fill="#FABB2B"/>
<path d="M24.5931 144.325V140.16C24.5931 120.33 40.7341 104.196 60.5729 104.196H64.7402V100.03C64.7402 80.2001 80.8812 64.0662 100.72 64.0662L105.005 64.0076V59.7834C105.005 39.9534 121.146 23.8195 140.985 23.8195H145.152V19.654C145.152 12.8484 147.03 6.51223 150.317 1.05604C146.091 0.645356 141.748 0.410681 137.404 0.352012C135.409 0.352012 133.413 0.293344 131.359 0.293344V9.97368H118.974C103.655 9.97368 91.2115 22.4114 91.2115 37.724V50.0444L78.7682 50.2204C63.3903 50.2204 50.947 62.6582 50.947 77.9707V90.3498H38.6211C23.3018 90.3498 10.8586 102.788 10.8586 118.1V130.479H0.0587519C0.0587519 132.415 0.0587519 134.41 0.0587519 136.346C0.0587519 140.922 0.352225 145.498 0.821782 150.075C6.45647 146.378 13.2063 144.266 20.4258 144.266H24.5931V144.325Z" fill="url(#paint10_radial)"/>
</g>
<defs>
<radialGradient id="paint0_radial" cx="0" cy="0" r="1" gradientUnits="userSpaceOnUse" gradientTransform="rotate(44.9922) scale(383.345 383.241)">
<stop stop-color="white"/>
<stop offset="0.0001" stop-color="white" stop-opacity="0.4"/>
<stop offset="0.961326" stop-color="white" stop-opacity="0"/>
</radialGradient>
<radialGradient id="paint1_radial" cx="0" cy="0" r="1" gradientUnits="userSpaceOnUse" gradientTransform="rotate(44.9922) scale(383.345 383.241)">
<stop stop-color="white"/>
<stop offset="0.0001" stop-color="white" stop-opacity="0.4"/>
<stop offset="0.961326" stop-color="white" stop-opacity="0"/>
</radialGradient>
<radialGradient id="paint2_radial" cx="0" cy="0" r="1" gradientUnits="userSpaceOnUse" gradientTransform="rotate(44.9922) scale(383.345 383.241)">
<stop stop-color="white"/>
<stop offset="0.0001" stop-color="white" stop-opacity="0.4"/>
<stop offset="0.961326" stop-color="white" stop-opacity="0"/>
</radialGradient>
<radialGradient id="paint3_radial" cx="0" cy="0" r="1" gradientUnits="userSpaceOnUse" gradientTransform="rotate(44.9922) scale(383.345 383.241)">
<stop stop-color="white"/>
<stop offset="0.0001" stop-color="white" stop-opacity="0.4"/>
<stop offset="0.961326" stop-color="white" stop-opacity="0"/>
</radialGradient>
<radialGradient id="paint4_radial" cx="0" cy="0" r="1" gradientUnits="userSpaceOnUse" gradientTransform="rotate(44.9922) scale(383.345 383.241)">
<stop stop-color="white"/>
<stop offset="0.0001" stop-color="white" stop-opacity="0.4"/>
<stop offset="0.961326" stop-color="white" stop-opacity="0"/>
</radialGradient>
<radialGradient id="paint5_radial" cx="0" cy="0" r="1" gradientUnits="userSpaceOnUse" gradientTransform="rotate(44.9922) scale(383.345 383.241)">
<stop stop-color="white"/>
<stop offset="0.0001" stop-color="white" stop-opacity="0.4"/>
<stop offset="0.961326" stop-color="white" stop-opacity="0"/>
</radialGradient>
<radialGradient id="paint6_radial" cx="0" cy="0" r="1" gradientUnits="userSpaceOnUse" gradientTransform="rotate(44.9922) scale(383.345 383.241)">
<stop stop-color="white"/>
<stop offset="0.0001" stop-color="white" stop-opacity="0.4"/>
<stop offset="0.961326" stop-color="white" stop-opacity="0"/>
</radialGradient>
<radialGradient id="paint7_radial" cx="0" cy="0" r="1" gradientUnits="userSpaceOnUse" gradientTransform="rotate(44.9922) scale(383.345 383.241)">
<stop stop-color="white"/>
<stop offset="0.0001" stop-color="white" stop-opacity="0.4"/>
<stop offset="0.961326" stop-color="white" stop-opacity="0"/>
</radialGradient>
<radialGradient id="paint8_radial" cx="0" cy="0" r="1" gradientUnits="userSpaceOnUse" gradientTransform="rotate(44.9922) scale(383.345 383.241)">
<stop stop-color="white"/>
<stop offset="0.0001" stop-color="white" stop-opacity="0.4"/>
<stop offset="0.961326" stop-color="white" stop-opacity="0"/>
</radialGradient>
<radialGradient id="paint9_radial" cx="0" cy="0" r="1" gradientUnits="userSpaceOnUse" gradientTransform="rotate(44.9922) scale(383.345 383.241)">
<stop stop-color="white"/>
<stop offset="0.0001" stop-color="white" stop-opacity="0.4"/>
<stop offset="0.961326" stop-color="white" stop-opacity="0"/>
</radialGradient>
<radialGradient id="paint10_radial" cx="0" cy="0" r="1" gradientUnits="userSpaceOnUse" gradientTransform="rotate(44.9922) scale(383.345 383.241)">
<stop stop-color="white"/>
<stop offset="0.0001" stop-color="white" stop-opacity="0.4"/>
<stop offset="0.961326" stop-color="white" stop-opacity="0"/>
</radialGradient>
</defs>
</svg>
