<svg width="232" height="232" viewBox="0 0 232 232" fill="none" xmlns="http://www.w3.org/2000/svg">
<g id="blue-cone-broken-linear">
<path d="M150.492 5.17325C142.455 2.71219 134.067 1.10497 125.326 0.502258L140.245 15.4193L150.492 5.17325Z" fill="#022169"/>
<path d="M150.492 5.17325C142.455 2.71219 134.067 1.10497 125.326 0.502258L140.245 15.4193L150.492 5.17325Z" fill="url(#paint0_radial)"/>
<path d="M40.7876 75.2382L65.5514 50.4769L90.5665 75.4894L115.33 50.7281L140.295 75.6903L165.612 50.3765L191.028 75.7907L213.532 53.2896C210.92 49.2715 208.057 45.4041 204.942 41.6874L191.028 55.6L165.612 30.1857L140.295 55.4995L115.33 30.5373L90.5665 55.2986L65.5514 30.2862L40.7876 55.0475L16.1241 30.3364L0 46.4589C0 53.1891 0 59.9194 0 66.6496L16.1241 50.5272L40.7876 75.2382Z" fill="#022169"/>
<path d="M40.7876 75.2382L65.5514 50.4769L90.5665 75.4894L115.33 50.7281L140.295 75.6903L165.612 50.3765L191.028 75.7907L213.532 53.2896C210.92 49.2715 208.057 45.4041 204.942 41.6874L191.028 55.6L165.612 30.1857L140.295 55.4995L115.33 30.5373L90.5665 55.2986L65.5514 30.2862L40.7876 55.0475L16.1241 30.3364L0 46.4589C0 53.1891 0 59.9194 0 66.6496L16.1241 50.5272L40.7876 75.2382Z" fill="url(#paint1_radial)"/>
<path d="M105.736 0.100452C95.5896 0.0502258 85.4931 0 75.3465 0L90.5665 15.2184L105.736 0.100452Z" fill="#022169"/>
<path d="M105.736 0.100452C95.5896 0.0502258 85.4931 0 75.3465 0L90.5665 15.2184L105.736 0.100452Z" fill="url(#paint2_radial)"/>
<path d="M59.3228 217.277C66.305 221.244 73.5885 224.409 81.1733 226.769L65.5013 211.099L59.3228 217.277Z" fill="#022169"/>
<path d="M59.3228 217.277C66.305 221.244 73.5885 224.409 81.1733 226.769L65.5013 211.099L59.3228 217.277Z" fill="url(#paint3_radial)"/>
<path d="M40.7876 45.1028L65.5514 20.3415L90.5665 45.3539L115.33 20.5926L140.295 45.5548L165.612 20.241L191.028 45.6552L200.221 36.4639C198.111 34.254 195.901 32.0943 193.59 30.035C182.69 20.241 170.785 12.8076 157.926 7.78502L140.295 25.4143L115.33 0.401831L90.5665 25.1631L65.5514 0.150702L40.7876 24.912L16.1241 0.200928L0 16.3234C0 23.0536 0 29.7839 0 36.5141L16.1241 20.3917L40.7876 45.1028Z" fill="#022169"/>
<path d="M40.7876 45.1028L65.5514 20.3415L90.5665 45.3539L115.33 20.5926L140.295 45.5548L165.612 20.241L191.028 45.6552L200.221 36.4639C198.111 34.254 195.901 32.0943 193.59 30.035C182.69 20.241 170.785 12.8076 157.926 7.78502L140.295 25.4143L115.33 0.401831L90.5665 25.1631L65.5514 0.150702L40.7876 24.912L16.1241 0.200928L0 16.3234C0 23.0536 0 29.7839 0 36.5141L16.1241 20.3917L40.7876 45.1028Z" fill="url(#paint4_radial)"/>
<path d="M55.7565 0C45.8107 0 35.865 0.0502258 25.9192 0.0502258L40.7876 14.9171L55.7565 0Z" fill="#022169"/>
<path d="M55.7565 0C45.8107 0 35.865 0.0502258 25.9192 0.0502258L40.7876 14.9171L55.7565 0Z" fill="url(#paint5_radial)"/>
<path d="M140.295 226.368L165.612 201.054L178.421 213.861C182.489 211.25 186.357 208.437 190.074 205.323L165.612 180.863L140.295 206.177L115.33 181.215L90.5665 205.976L65.5515 180.963L41.5913 204.921C45.3586 208.085 49.1762 210.948 53.1946 213.51L65.5515 201.154L90.5665 226.167L115.33 201.405L140.295 226.368Z" fill="#022169"/>
<path d="M140.295 226.368L165.612 201.054L178.421 213.861C182.489 211.25 186.357 208.437 190.074 205.323L165.612 180.863L140.295 206.177L115.33 181.215L90.5665 205.976L65.5515 180.963L41.5913 204.921C45.3586 208.085 49.1762 210.948 53.1946 213.51L65.5515 201.154L90.5665 226.167L115.33 201.405L140.295 226.368Z" fill="url(#paint6_radial)"/>
<path d="M6.27887 0.100427C4.67148 0.100427 3.11432 0.100427 1.50693 0.100427C1.05485 0.100427 0.602772 0.150653 0 0.200879C0 0.803588 0 1.20539 0 1.6072C0 3.21442 0 4.82165 0 6.42887L6.27887 0.100427Z" fill="#022169"/>
<path d="M6.27887 0.100427C4.67148 0.100427 3.11432 0.100427 1.50693 0.100427C1.05485 0.100427 0.602772 0.150653 0 0.200879C0 0.803588 0 1.20539 0 1.6072C0 3.21442 0 4.82165 0 6.42887L6.27887 0.100427Z" fill="url(#paint7_radial)"/>
<path d="M115.33 211.35L96.3431 230.335C100.562 231.038 104.882 231.541 109.252 231.792C117.792 232.294 126.231 231.892 134.519 230.536L115.33 211.35Z" fill="#022169"/>
<path d="M115.33 211.35L96.3431 230.335C100.562 231.038 104.882 231.541 109.252 231.792C117.792 232.294 126.231 231.892 134.519 230.536L115.33 211.35Z" fill="url(#paint8_radial)"/>
<path d="M165.612 210.998L149.538 227.071C149.588 227.071 149.588 227.071 149.638 227.02C157.625 224.559 165.159 221.395 172.192 217.528L165.612 210.998Z" fill="#022169"/>
<path d="M165.612 210.998L149.538 227.071C149.588 227.071 149.588 227.071 149.638 227.02C157.625 224.559 165.159 221.395 172.192 217.528L165.612 210.998Z" fill="url(#paint9_radial)"/>
<path d="M216.496 150.627L191.028 176.091L165.612 150.677L140.295 175.991L115.33 151.029L90.5665 175.79L65.5515 150.778L40.7876 175.539L16.1242 150.878L8.18768 158.814C10.0462 163.585 12.2062 168.156 14.6675 172.525L16.1242 171.069L40.7876 195.73L65.5515 170.968L90.5665 195.981L115.33 171.22L140.295 196.182L165.612 170.868L191.028 196.282L216.496 170.818L217.651 171.973C220.112 167.553 222.272 162.932 224.08 158.211L216.496 150.627Z" fill="#022169"/>
<path d="M216.496 150.627L191.028 176.091L165.612 150.677L140.295 175.991L115.33 151.029L90.5665 175.79L65.5515 150.778L40.7876 175.539L16.1242 150.878L8.18768 158.814C10.0462 163.585 12.2062 168.156 14.6675 172.525L16.1242 171.069L40.7876 195.73L65.5515 170.968L90.5665 195.981L115.33 171.22L140.295 196.182L165.612 170.868L191.028 196.282L216.496 170.818L217.651 171.973C220.112 167.553 222.272 162.932 224.08 158.211L216.496 150.627Z" fill="url(#paint10_radial)"/>
<path d="M216.496 120.492L191.028 145.956L165.612 120.542L140.295 145.856L115.33 120.893L90.5665 145.655L65.5514 120.642L40.7875 145.404L16.1241 120.743L1.60737 135.258C2.05945 138.02 2.66222 140.783 3.31522 143.545C3.96822 146.207 4.72169 148.869 5.57562 151.481L16.1241 140.933L40.7875 165.594L65.5514 140.833L90.5665 165.845L115.33 141.084L140.295 166.046L165.612 140.733L191.028 166.147L216.496 140.682L226.642 150.828C228.3 145.554 229.556 140.08 230.46 134.454L216.496 120.492Z" fill="#022169"/>
<path d="M216.496 120.492L191.028 145.956L165.612 120.542L140.295 145.856L115.33 120.893L90.5665 145.655L65.5514 120.642L40.7875 145.404L16.1241 120.743L1.60737 135.258C2.05945 138.02 2.66222 140.783 3.31522 143.545C3.96822 146.207 4.72169 148.869 5.57562 151.481L16.1241 140.933L40.7875 165.594L65.5514 140.833L90.5665 165.845L115.33 141.084L140.295 166.046L165.612 140.733L191.028 166.147L216.496 140.682L226.642 150.828C228.3 145.554 229.556 140.08 230.46 134.454L216.496 120.492Z" fill="url(#paint11_radial)"/>
<path d="M231.515 105.374L216.496 90.3561L191.029 115.821L165.612 90.4063L140.295 115.72L115.33 90.7579L90.5665 115.519L65.5515 90.5068L40.7876 115.268L16.1242 90.6072L0.05028 106.679C0.05028 110.045 0.05028 113.41 0.05028 116.775C0.05028 119.989 0.200973 123.204 0.502359 126.418L16.1744 110.748L40.8378 135.409L65.6017 110.647L90.6168 135.66L115.381 110.898L140.345 135.861L165.662 110.547L191.079 135.961L216.546 110.497L231.615 125.564C232.168 118.834 232.117 112.104 231.515 105.374Z" fill="#022169"/>
<path d="M231.515 105.374L216.496 90.3561L191.029 115.821L165.612 90.4063L140.295 115.72L115.33 90.7579L90.5665 115.519L65.5515 90.5068L40.7876 115.268L16.1242 90.6072L0.05028 106.679C0.05028 110.045 0.05028 113.41 0.05028 116.775C0.05028 119.989 0.200973 123.204 0.502359 126.418L16.1744 110.748L40.8378 135.409L65.6017 110.647L90.6168 135.66L115.381 110.898L140.345 135.861L165.662 110.547L191.079 135.961L216.546 110.497L231.615 125.564C232.168 118.834 232.117 112.104 231.515 105.374Z" fill="url(#paint12_radial)"/>
<path d="M219.057 62.7822L216.496 60.2206L191.028 85.6851L165.612 60.2709L140.295 85.5846L115.33 60.6224L90.5665 85.3837L65.5514 60.3713L40.7876 85.1326L16.1241 60.4718L0 76.5942C0 83.3245 0 90.0547 0 96.785L16.0739 80.7127L40.7373 105.374L65.5012 80.6123L90.5162 105.625L115.28 80.8634L140.245 105.826L165.561 80.5118L190.978 105.926L216.445 80.4616L229.757 93.7714C229.505 92.4656 229.204 91.1597 228.903 89.8538C226.692 80.2105 223.377 71.2201 219.057 62.7822Z" fill="#022169"/>
<path d="M219.057 62.7822L216.496 60.2206L191.028 85.6851L165.612 60.2709L140.295 85.5846L115.33 60.6224L90.5665 85.3837L65.5514 60.3713L40.7876 85.1326L16.1241 60.4718L0 76.5942C0 83.3245 0 90.0547 0 96.785L16.0739 80.7127L40.7373 105.374L65.5012 80.6123L90.5162 105.625L115.28 80.8634L140.245 105.826L165.561 80.5118L190.978 105.926L216.445 80.4616L229.757 93.7714C229.505 92.4656 229.204 91.1597 228.903 89.8538C226.692 80.2105 223.377 71.2201 219.057 62.7822Z" fill="url(#paint13_radial)"/>
</g>
<defs>
<radialGradient id="paint0_radial" cx="0" cy="0" r="1" gradientUnits="userSpaceOnUse" gradientTransform="rotate(44.9922) scale(328.177 328.088)">
<stop stop-color="white"/>
<stop offset="0.0001" stop-color="white" stop-opacity="0.4"/>
<stop offset="0.961326" stop-color="white" stop-opacity="0"/>
</radialGradient>
<radialGradient id="paint1_radial" cx="0" cy="0" r="1" gradientUnits="userSpaceOnUse" gradientTransform="rotate(44.9922) scale(328.177 328.088)">
<stop stop-color="white"/>
<stop offset="0.0001" stop-color="white" stop-opacity="0.4"/>
<stop offset="0.961326" stop-color="white" stop-opacity="0"/>
</radialGradient>
<radialGradient id="paint2_radial" cx="0" cy="0" r="1" gradientUnits="userSpaceOnUse" gradientTransform="rotate(44.9922) scale(328.177 328.088)">
<stop stop-color="white"/>
<stop offset="0.0001" stop-color="white" stop-opacity="0.4"/>
<stop offset="0.961326" stop-color="white" stop-opacity="0"/>
</radialGradient>
<radialGradient id="paint3_radial" cx="0" cy="0" r="1" gradientUnits="userSpaceOnUse" gradientTransform="rotate(44.9922) scale(328.177 328.088)">
<stop stop-color="white"/>
<stop offset="0.0001" stop-color="white" stop-opacity="0.4"/>
<stop offset="0.961326" stop-color="white" stop-opacity="0"/>
</radialGradient>
<radialGradient id="paint4_radial" cx="0" cy="0" r="1" gradientUnits="userSpaceOnUse" gradientTransform="rotate(44.9922) scale(328.177 328.088)">
<stop stop-color="white"/>
<stop offset="0.0001" stop-color="white" stop-opacity="0.4"/>
<stop offset="0.961326" stop-color="white" stop-opacity="0"/>
</radialGradient>
<radialGradient id="paint5_radial" cx="0" cy="0" r="1" gradientUnits="userSpaceOnUse" gradientTransform="rotate(44.9922) scale(328.177 328.088)">
<stop stop-color="white"/>
<stop offset="0.0001" stop-color="white" stop-opacity="0.4"/>
<stop offset="0.961326" stop-color="white" stop-opacity="0"/>
</radialGradient>
<radialGradient id="paint6_radial" cx="0" cy="0" r="1" gradientUnits="userSpaceOnUse" gradientTransform="rotate(44.9922) scale(328.177 328.088)">
<stop stop-color="white"/>
<stop offset="0.0001" stop-color="white" stop-opacity="0.4"/>
<stop offset="0.961326" stop-color="white" stop-opacity="0"/>
</radialGradient>
<radialGradient id="paint7_radial" cx="0" cy="0" r="1" gradientUnits="userSpaceOnUse" gradientTransform="rotate(44.9922) scale(328.177 328.088)">
<stop stop-color="white"/>
<stop offset="0.0001" stop-color="white" stop-opacity="0.4"/>
<stop offset="0.961326" stop-color="white" stop-opacity="0"/>
</radialGradient>
<radialGradient id="paint8_radial" cx="0" cy="0" r="1" gradientUnits="userSpaceOnUse" gradientTransform="rotate(44.9922) scale(328.177 328.088)">
<stop stop-color="white"/>
<stop offset="0.0001" stop-color="white" stop-opacity="0.4"/>
<stop offset="0.961326" stop-color="white" stop-opacity="0"/>
</radialGradient>
<radialGradient id="paint9_radial" cx="0" cy="0" r="1" gradientUnits="userSpaceOnUse" gradientTransform="rotate(44.9922) scale(328.177 328.088)">
<stop stop-color="white"/>
<stop offset="0.0001" stop-color="white" stop-opacity="0.4"/>
<stop offset="0.961326" stop-color="white" stop-opacity="0"/>
</radialGradient>
<radialGradient id="paint10_radial" cx="0" cy="0" r="1" gradientUnits="userSpaceOnUse" gradientTransform="rotate(44.9922) scale(328.177 328.088)">
<stop stop-color="white"/>
<stop offset="0.0001" stop-color="white" stop-opacity="0.4"/>
<stop offset="0.961326" stop-color="white" stop-opacity="0"/>
</radialGradient>
<radialGradient id="paint11_radial" cx="0" cy="0" r="1" gradientUnits="userSpaceOnUse" gradientTransform="rotate(44.9922) scale(328.177 328.088)">
<stop stop-color="white"/>
<stop offset="0.0001" stop-color="white" stop-opacity="0.4"/>
<stop offset="0.961326" stop-color="white" stop-opacity="0"/>
</radialGradient>
<radialGradient id="paint12_radial" cx="0" cy="0" r="1" gradientUnits="userSpaceOnUse" gradientTransform="rotate(44.9922) scale(328.177 328.088)">
<stop stop-color="white"/>
<stop offset="0.0001" stop-color="white" stop-opacity="0.4"/>
<stop offset="0.961326" stop-color="white" stop-opacity="0"/>
</radialGradient>
<radialGradient id="paint13_radial" cx="0" cy="0" r="1" gradientUnits="userSpaceOnUse" gradientTransform="rotate(44.9922) scale(328.177 328.088)">
<stop stop-color="white"/>
<stop offset="0.0001" stop-color="white" stop-opacity="0.4"/>
<stop offset="0.961326" stop-color="white" stop-opacity="0"/>
</radialGradient>
</defs>
</svg>
