<svg width="45" height="44" fill="none" xmlns="http://www.w3.org/2000/svg"><path d="M44.5 0H0v44h44.5V0z" fill="#DC4B3E"/><path d="M8.006 22.012c-.181-4.64 3.98-8.928 8.736-8.984 2.424-.202 4.782.717 6.617 2.217a42.161 42.161 0 0 1-2.336 2.354c-1.615-.958-3.56-1.688-5.446-1.04-3.046.847-4.887 4.357-3.762 7.266.933 3.037 4.717 4.704 7.681 3.428 1.536-.537 2.547-1.92 2.99-3.407-1.759-.034-3.519-.013-5.278-.061-.003-1.022-.01-2.04-.003-3.063 2.933-.004 5.872-.012 8.81.014.18 2.504-.198 5.186-1.864 7.196-2.284 2.87-6.503 3.712-9.934 2.587-3.643-1.169-6.29-4.752-6.211-8.507zm23.728-3.867h2.617c.005.855.013 1.713.017 2.569.877.008 1.756.012 2.632.017v2.56c-.876.005-1.755.01-2.632.013-.007.859-.012 1.714-.017 2.574-.875-.004-1.751 0-2.622 0-.009-.86-.009-1.715-.017-2.57a502.11 502.11 0 0 0-2.63-.016v-2.56c.874-.006 1.75-.01 2.63-.018.005-.856.013-1.714.022-2.57z" fill="#fff"/></svg>