<svg width="451" height="228" fill="none" xmlns="http://www.w3.org/2000/svg"><path d="M16.083 4.07s2.29-3.991 6.89-4.002L53.223 0s4.598-.01 6.906 3.97L75.31 30.163s2.311 3.977.017 7.969L60.265 64.387s-2.294 3.995-6.892 4.005l-30.252.068s-4.599.01-6.903-3.974L1.031 38.296s-2.308-3.982-.017-7.968L16.084 4.07z" fill="#fff"/><path d="M21.26 10.138s1.726-3.009 5.193-3.015l22.804-.052s3.465-.008 5.206 2.994l11.444 19.743s1.743 2.996.014 6.007L54.566 55.607s-1.73 3.011-5.197 3.02l-22.803.05s-3.467.01-5.203-2.994L9.913 35.94s-1.739-3.002-.013-6.008l11.36-19.794zM173.807 139.4h-20.626c-1.193 0-2.265-.798-2.265-1.997v-93.75c0-1.067.929-1.734 2.265-1.865l20.626-2.532c1.449-.135 2.123.933 2.123 1.995v96.152c0 1.197-.932 1.997-2.123 1.997zm91.166-80.566h-40.71v27.034h36.323c1.193 0 2.122.798 2.122 1.995v13.852c0 1.198-.929 1.996-2.122 1.996h-36.323v33.558c0 1.198-1.072 2.131-2.392 2.131h-20.228c-1.201 0-2.391-.933-2.391-2.131v-94.15c0-1.198 1.19-2.133 2.391-2.133h63.33c1.204 0 2.136.803 2.136 2.003v13.846c0 1.2-.932 2-2.136 2zm48.623 82.03c-18.62 0-33.387-4.263-35.649-5.058-1.593-.533-2.796-1.464-2.262-4.398l1.864-10.388c.27-1.994 1.991-2.66 3.855-2.13 3.067.668 16.51 4.532 28.082 4.532 9.974 0 17.286-2.404 17.286-11.319 0-9.722-8.902-10.388-20.21-12.252-13.445-2.131-31.935-6.394-31.935-29.43 0-24.103 16.496-30.898 38.715-30.898 15.568 0 29.142 3.597 32.197 4.53 1.734.531 3.325 1.464 2.924 3.865l-1.994 10.918c-.259 1.2-1.061 2.527-3.465 1.995-8.907-1.995-17.679-3.994-26.738-3.994-8.643 0-16.628 1.597-16.628 10.788 0 9.322 9.448 10.121 20.486 11.852 15.296 2.397 32.197 5.594 32.197 30.893-.005 23.039-18.357 30.494-38.725 30.494zm-159.28 48.206h-2.854c-.288 0-.546-.224-.546-.48v-22.782c0-.289.191-.417.447-.448l3.015-.419c.319-.032.45.224.45.45v23.199c0 .256-.225.48-.512.48zm20.133 0h-2.66c-.322 0-.512-.193-.512-.481V177.07c0-1.989-.737-2.631-2.63-2.631-2.085 0-4.261.547-4.744.675v13.477c0 .289-.191.48-.48.48h-2.659c-.289 0-.514-.193-.514-.48v-13.638c0-1.22.415-1.702 2.147-2.247 1.634-.481 4.521-.898 6.572-.898 3.909 0 5.961 1.091 5.961 4.78v12.003c-.002.287-.193.479-.481.479zm14.459-.93c.096.418-.065.579-.323.675-.575.193-1.987.577-3.972.577-3.433 0-5.162-1.38-5.162-4.813v-16.942c0-.352.159-.48.514-.547l2.598-.545c.382-.063.543.193.543.482v5.197h4.872c.288 0 .483.193.483.482v1.765c0 .289-.195.48-.483.48h-4.872v9.659c0 1.539.707 2.084 2.374 2.084.961 0 2.052-.225 2.627-.353.256-.064.419.066.48.323l.321 1.476zm17.762-6.257c0 .289-.191.609-.543.609h-11.158c.032 1.573.418 2.472 1.186 3.208.898.867 2.212 1.155 4.136 1.155 1.828 0 3.238-.384 4.583-.77.096-.031.195-.031.227-.031.192 0 .352.031.415.354l.323 1.444a.676.676 0 0 1 .032.193c0 .223-.16.352-.355.449-1.184.482-3.334.996-5.705.996-6.283 0-8.528-2.664-8.528-8.794 0-5.808 1.477-8.886 7.76-8.886 3.269 0 5.225.898 6.379 2.566.994 1.444 1.282 3.465 1.282 5.968 0 .417 0 1.058-.034 1.539zm-3.941-4.973c-.48-1.895-1.538-2.505-3.686-2.505-2.34 0-3.366.642-3.784 2.438-.256.996-.256 2.054-.29 3.113h8.048c0-1.09-.032-2.084-.288-3.046zm7.984-1.99c0-1.313.575-1.73 1.956-2.181 1.377-.448 3.685-.867 6.312-.899.384 0 .736.065.736.547v1.829c0 .257-.063.482-.447.482-1.987 0-3.686.192-4.906.513v13.382c0 .288-.191.48-.48.48h-2.693c-.289 0-.48-.193-.48-.48V174.92h.002zm26.003 14.15h-2.659c-.323 0-.514-.193-.514-.481V177.07c0-1.989-.736-2.631-2.63-2.631-2.085 0-4.261.547-4.744.675v13.477c0 .289-.191.48-.48.48h-2.659c-.289 0-.512-.193-.512-.48v-13.638c0-1.22.414-1.702 2.147-2.247 1.634-.481 4.52-.898 6.572-.898 3.909 0 5.961 1.091 5.961 4.78v12.003c-.002.287-.193.479-.482.479zm16.094-.033c-1.055.256-2.566.451-4.327.451-3.206 0-7.598-.256-7.598-5.39 0-4.205 2.502-4.557 5.322-5.039l5.833-.962v-1.186c0-.963-.063-1.669-.993-2.054-.547-.225-1.378-.322-2.628-.322-2.307 0-4.52.642-5.612.898-.161.033-.191.033-.224.033a.39.39 0 0 1-.384-.289l-.384-1.765c-.063-.321.161-.48.352-.547.898-.289 3.752-1.057 6.891-1.057 2.279 0 3.784.321 4.778.868 1.668.929 1.828 2.438 1.828 4.138v8.888c0 2.341-.64 2.823-2.854 3.335zm-.768-8.406l-4.874.801c-1.312.226-2.564.417-2.564 2.599 0 2.761 2.245 2.952 3.976 2.952 1.316 0 2.531-.191 3.462-.512v-5.84zm17.921 7.509c.095.418-.065.579-.321.675-.575.193-1.987.577-3.972.577-3.433 0-5.162-1.38-5.162-4.813v-16.942c0-.352.157-.48.512-.547l2.598-.545c.382-.063.543.193.543.482v5.197h4.872c.288 0 .483.193.483.482v1.765c0 .289-.195.48-.483.48h-4.872v9.659c0 1.539.706 2.084 2.374 2.084.961 0 2.052-.225 2.627-.353.256-.064.419.066.48.323l.321 1.476zm6.637-18.355h-2.275c-.419 0-.675-.224-.675-.641v-3.561c0-.417.256-.641.675-.641h2.275c.418 0 .674.224.674.641v3.561c-.001.417-.257.641-.674.641zm.19 19.284h-2.628c-.319 0-.512-.193-.512-.48v-15.724c0-.256.224-.447.512-.447h2.628c.288 0 .483.191.483.447v15.724c0 .289-.193.48-.483.48zm12.633.419c-6.954 0-7.821-3.947-7.821-8.825 0-4.909.867-8.855 7.821-8.855 6.958 0 7.789 3.946 7.789 8.855 0 4.878-.831 8.825-7.789 8.825zm0-15.049c-3.909 0-4.071 2.277-4.071 6.224 0 3.915.16 6.192 4.071 6.192 3.88 0 4.041-2.277 4.041-6.192 0-3.947-.161-6.224-4.041-6.224zm25.842 14.631h-2.659c-.323 0-.512-.193-.512-.481V177.07c0-1.989-.74-2.631-2.631-2.631-2.081 0-4.264.547-4.744.675v13.477c0 .289-.191.48-.479.48h-2.66c-.29 0-.514-.193-.514-.48v-13.638c0-1.22.419-1.702 2.148-2.247 1.633-.481 4.52-.898 6.572-.898 3.909 0 5.961 1.091 5.961 4.78v12.003c0 .287-.192.479-.482.479zm16.096-.033c-1.059.256-2.564.451-4.328.451-3.205 0-7.597-.256-7.597-5.39 0-4.205 2.502-4.557 5.322-5.039l5.833-.962v-1.186c0-.963-.063-1.669-.994-2.054-.546-.225-1.377-.322-2.63-.322-2.308 0-4.519.642-5.609.898-.159.033-.192.033-.224.033a.388.388 0 0 1-.384-.289l-.384-1.765c-.065-.321.16-.48.351-.547.898-.289 3.752-1.057 6.895-1.057 2.276 0 3.781.321 4.775.868 1.667.929 1.828 2.438 1.828 4.138v8.888c0 2.341-.642 2.823-2.854 3.335zm-.77-8.406l-4.874.801c-1.314.226-2.564.417-2.564 2.599 0 2.761 2.245 2.952 3.976 2.952 1.314 0 2.535-.191 3.462-.512v-5.84zm15.002 7.831c.033.159-.063.417-.256.48-.352.161-1.249.419-2.659.419-2.532 0-3.944-1.35-3.944-3.851v-19.509c0-.354.159-.482.48-.547l2.631-.513h.124c.256 0 .418.192.418.481v19.862c0 1.155.707 1.381 1.349 1.381.48 0 .833-.098 1.186-.129.157 0 .287.031.352.289l.319 1.637zm-179.867 18.551H154.83v8.248h9.87c.29 0 .514.223.514.48v2.182c0 .29-.224.514-.514.514h-9.87v8.632c0 .29-.256.514-.546.514h-2.822c-.288 0-.546-.224-.546-.514v-22.685c0-.289.256-.513.546-.513h14.264c.288 0 .514.224.514.513v2.117a.508.508 0 0 1-.514.512zm18.372 13.38c0 .291-.191.608-.546.608h-11.154c.031 1.574.415 2.473 1.185 3.209.898.867 2.212 1.155 4.136 1.155 1.828 0 3.238-.384 4.583-.77.099-.031.195-.031.224-.031.195 0 .355.031.418.354l.323 1.443c.031.128.03.159.03.193 0 .224-.158.352-.351.45-1.187.482-3.334.996-5.705.996-6.283 0-8.528-2.664-8.528-8.793 0-5.807 1.476-8.888 7.76-8.888 3.269 0 5.225.899 6.379 2.567.993 1.443 1.282 3.465 1.282 5.968-.003.417-.003 1.059-.036 1.539zm-3.943-4.973c-.48-1.894-1.538-2.505-3.686-2.505-2.34 0-3.366.642-3.784 2.438-.256.994-.256 2.054-.287 3.113h8.045c.002-1.09-.03-2.085-.288-3.046zm18.854 12.128c-1.058.256-2.564.451-4.327.451-3.206 0-7.598-.257-7.598-5.391 0-4.205 2.502-4.557 5.322-5.039l5.833-.962v-1.187c0-.964-.063-1.668-.993-2.054-.546-.225-1.378-.323-2.631-.323-2.308 0-4.518.643-5.609.899-.159.033-.191.033-.224.033a.389.389 0 0 1-.384-.289l-.384-1.765c-.066-.321.161-.48.352-.547.898-.287 3.752-1.058 6.895-1.058 2.275 0 3.781.322 4.774.867 1.668.929 1.828 2.438 1.828 4.138v8.888c0 2.346-.64 2.826-2.854 3.339zm-.768-8.405l-4.874.801c-1.314.226-2.563.417-2.563 2.599 0 2.761 2.244 2.951 3.975 2.951 1.315 0 2.535-.191 3.462-.513v-5.838zm17.921 7.507c.096.418-.063.579-.319.674-.579.194-1.989.578-3.977.578-3.43 0-5.159-1.381-5.159-4.813v-16.943c0-.352.16-.48.514-.546l2.594-.545c.388-.064.547.193.547.481v5.196h4.871c.289 0 .48.195.48.482v1.765c0 .289-.191.48-.48.48h-4.871v9.659c0 1.539.706 2.084 2.374 2.084.961 0 2.052-.225 2.627-.353.256-.063.418.066.483.323l.316 1.478zm10.777 1.349c-5.356 0-7.341-1.991-7.341-6.385V211.41c0-.352.191-.513.513-.578l2.599-.512c.384-.065.546.193.546.482v11.037c0 2.438.831 3.561 3.685 3.561 3.334 0 3.686-1.605 3.686-3.593V211.41c0-.352.16-.513.513-.578l2.598-.512c.385-.065.547.193.547.482v10.781c-.004 3.654-1.32 6.416-7.346 6.416zm11.864-14.569c0-1.315.575-1.731 1.953-2.182 1.38-.447 3.688-.866 6.315-.898.385 0 .74.065.74.546v1.83c0 .257-.065.482-.451.482-1.989 0-3.685.193-4.906.513v13.381c0 .289-.191.481-.48.481h-2.692c-.29 0-.479-.194-.479-.481V213.43zm26.193 6.963c0 .291-.191.608-.546.608h-11.154c.031 1.574.415 2.473 1.185 3.209.898.867 2.212 1.155 4.136 1.155 1.828 0 3.238-.384 4.584-.77.099-.031.194-.031.223-.031.195 0 .355.031.418.354l.323 1.443a.746.746 0 0 1 .029.193c0 .224-.159.352-.352.45-1.186.482-3.333.996-5.704.996-6.284 0-8.529-2.664-8.529-8.793 0-5.807 1.477-8.888 7.759-8.888 3.269 0 5.225.899 6.379 2.567.993 1.443 1.282 3.465 1.282 5.968 0 .417 0 1.059-.033 1.539zm-3.941-4.973c-.48-1.894-1.538-2.505-3.686-2.505-2.34 0-3.366.642-3.784 2.438-.256.994-.256 2.054-.287 3.113h8.045c0-1.09-.032-2.085-.288-3.046zm20.357 11.904c-1.249.321-2.883.675-5.158.675-6.253 0-8.049-2.438-8.049-8.792 0-5.871 1.572-8.889 7.246-8.889 2.209 0 3.88.417 4.65.61l-.322-1.894v-4.492c0-.354.16-.515.479-.578l2.598-.512c.384-.065.547.193.547.48v20.889c-.002.996-.067 1.99-1.991 2.503zm-1.633-13.925a15.907 15.907 0 0 0-3.558-.449c-3.045 0-4.298.803-4.298 6.161 0 5.647 1.476 6.257 4.392 6.257 1.668 0 3.141-.352 3.462-.448v-11.521h.002zm25.589 14.535c-4.008 0-7.147-.929-7.789-1.155-.322-.096-.479-.352-.479-.608 0-.033 0-.065.029-.193l.384-1.798a.476.476 0 0 1 .479-.384c.033 0 .099 0 .256.031.675.128 3.88 1.059 7.119 1.059 2.726 0 5.353-.866 5.353-3.884 0-2.983-2.532-3.304-5.833-3.784-3.561-.482-8.045-1.381-8.045-6.802 0-5.519 4.26-6.899 9.006-6.899 3.719 0 6.763.833 7.47 1.09.351.128.575.449.514.77l-.419 1.861c-.032.225-.351.384-.575.354-1.186-.257-3.752-.997-6.83-.997-2.499 0-5.29.546-5.29 3.435 0 2.918 2.887 3.369 5.837 3.784 3.781.547 8.14.996 8.14 6.9.002 5.648-4.615 7.22-9.327 7.22zm23.081-1.284c.096.418-.065.579-.323.674-.575.194-1.985.578-3.972.578-3.433 0-5.162-1.381-5.162-4.813v-16.943c0-.352.157-.48.512-.546l2.598-.545c.383-.064.543.193.543.481v5.196h4.872c.288 0 .483.195.483.482v1.765c0 .289-.195.48-.483.48h-4.872v9.659c0 1.539.707 2.084 2.373 2.084.961 0 2.052-.225 2.627-.353.256-.063.418.066.48.323l.324 1.478zm14.3.898c-1.058.256-2.564.451-4.327.451-3.206 0-7.598-.257-7.598-5.391 0-4.205 2.503-4.557 5.323-5.039l5.832-.962v-1.187c0-.964-.063-1.668-.993-2.054-.546-.225-1.378-.323-2.631-.323-2.307 0-4.518.643-5.609.899-.158.033-.191.033-.223.033a.388.388 0 0 1-.384-.289l-.384-1.765c-.065-.321.16-.48.351-.547.898-.287 3.752-1.058 6.895-1.058 2.275 0 3.781.322 4.774.867 1.668.929 1.828 2.438 1.828 4.138v8.888c0 2.346-.641 2.826-2.854 3.339zm-.77-8.405l-4.873.801c-1.316.226-2.564.417-2.564 2.599 0 2.761 2.245 2.951 3.976 2.951 1.314 0 2.535-.191 3.461-.513v-5.838zm22.347 8.438h-2.66c-.322 0-.512-.193-.512-.48v-11.519c0-1.989-.737-2.631-2.63-2.631-2.085 0-4.261.546-4.744.674v13.478c0 .289-.191.48-.481.48h-2.66c-.288 0-.512-.193-.512-.48v-13.638c0-1.22.415-1.702 2.147-2.247 1.634-.482 4.52-.899 6.572-.899 3.909 0 5.961 1.092 5.961 4.781v12.003c-.002.285-.191.478-.481.478zm17.537-.257c-1.249.321-2.883.675-5.162.675-6.249 0-8.045-2.438-8.045-8.792 0-5.871 1.572-8.889 7.246-8.889 2.213 0 3.877.417 4.647.61l-.319-1.894v-4.492c0-.354.16-.515.479-.578l2.598-.512c.385-.065.547.193.547.48v20.889c-.002.996-.067 1.99-1.991 2.503zm-1.633-13.925a15.907 15.907 0 0 0-3.558-.449c-3.047 0-4.298.803-4.298 6.161 0 5.647 1.477 6.257 4.392 6.257 1.668 0 3.143-.352 3.462-.448v-11.521h.002zm19.398 14.149c-1.055.256-2.564.451-4.327.451-3.206 0-7.598-.257-7.598-5.391 0-4.205 2.503-4.557 5.323-5.039l5.832-.962v-1.187c0-.964-.063-1.668-.993-2.054-.546-.225-1.378-.323-2.627-.323-2.308 0-4.52.643-5.613.899-.16.033-.191.033-.223.033a.39.39 0 0 1-.384-.289l-.385-1.765c-.063-.321.161-.48.352-.547.898-.287 3.752-1.058 6.891-1.058 2.279 0 3.785.322 4.778.867 1.668.929 1.828 2.438 1.828 4.138v8.888c0 2.346-.642 2.826-2.854 3.339zm-.77-8.405l-4.873.801c-1.313.226-2.566.417-2.566 2.599 0 2.761 2.247 2.951 3.976 2.951 1.316 0 2.531-.191 3.462-.513v-5.838h.001zm8.148-5.713c0-1.315.575-1.731 1.956-2.182 1.377-.447 3.685-.866 6.312-.898.384 0 .736.065.736.546v1.83c0 .257-.061.482-.447.482-1.985 0-3.686.193-4.906.513v13.381c0 .289-.191.481-.48.481h-2.693c-.289 0-.48-.194-.48-.481V213.43h.002zm24.014 13.894c-1.25.321-2.884.675-5.162.675-6.251 0-8.045-2.438-8.045-8.792 0-5.871 1.572-8.889 7.246-8.889 2.212 0 3.876.417 4.646.61l-.319-1.894v-4.492c0-.354.16-.515.48-.578l2.598-.512c.384-.065.546.193.546.48v20.889c-.002.996-.067 1.99-1.99 2.503zm-1.634-13.925a15.895 15.895 0 0 0-3.557-.449c-3.047 0-4.297.803-4.297 6.161 0 5.647 1.477 6.257 4.392 6.257 1.668 0 3.143-.352 3.462-.448v-11.521zm13.661 14.599c-2.788 0-5.353-.835-5.804-1.026-.16-.067-.352-.226-.287-.452l.352-1.7c.063-.225.16-.353.352-.353.032 0 .095 0 .223.032.355.096 2.564.834 4.939.834 2.115 0 3.557-.673 3.557-2.375 0-2.149-1.572-2.117-3.718-2.503-2.275-.384-5.546-.929-5.546-5.006 0-4.395 3.913-5.135 6.734-5.135 2.66 0 4.744.578 5.191.706.256.065.384.224.352.48l-.287 1.734c-.032.224-.195.32-.451.287-.384-.063-2.563-.545-4.359-.545-1.828 0-3.558.448-3.558 2.213 0 1.861 1.73 2.054 3.718 2.343 2.66.416 5.546.866 5.546 5.101.004 4.178-3.171 5.365-6.954 5.365z" fill="#05305E"/><path d="M71.577 101.712s1.726-3.008 5.193-3.015l22.805-.052s3.464-.008 5.203 2.992l11.447 19.743s1.74 2.997.014 6.008l-11.357 19.792s-1.729 3.01-5.193 3.019l-22.807.051s-3.467.009-5.203-2.997l-11.447-19.739s-1.74-3.002-.013-6.007l11.358-19.795zm.002-59.759s1.725-3.008 5.192-3.017l22.806-.051s3.463-.009 5.203 2.992l11.447 19.742s1.738 2.999.013 6.008l-11.356 19.792s-1.729 3.01-5.193 3.02l-22.807.05s-3.467.01-5.203-2.996L60.234 67.75s-1.743-3-.014-6.007l11.359-19.79z" fill="#B2B9C8"/></svg>