<svg width="119" height="157" fill="none" xmlns="http://www.w3.org/2000/svg"><path d="M0 0h119v157H0z"/><path d="M0 0h119v157H0z"/><path d="M8.663 132.044v1.264H5.88v7.139H4.3v-7.139H1.518v-1.264h7.145zm4.047 0c.758 0 1.327.253 1.833.695.442.443.695 1.011.695 1.769 0 .695-.253 1.327-.695 1.769-.443.443-1.075.695-1.834.695h-1.454v3.538H9.737v-8.466h2.972zm-.38 3.602c.38 0 .758-.127.948-.316.253-.19.316-.506.316-.885 0-.758-.442-1.137-1.39-1.137h-1.076v2.338h1.202zm7.904-3.602l3.54 8.403h-1.643l-.822-2.021h-3.541l-.759 2.021h-1.58l3.287-8.403h1.518zm-2.024 5.118h2.593l-1.328-3.285-1.265 3.285z" fill="#fff"/><path d="M28.643 132.044l2.72 7.013h.885v2.907H30.73v-1.517h-5.501v1.517h-1.518v-2.907h.949l2.53-7.013h1.453zm-2.466 7.013h3.605l-1.897-5.18-1.708 5.18zm8.41-7.013v5.876l4.932-5.876h.822v8.403h-1.517v-5.686l-4.932 5.686h-.76v-8.403h1.455zm8.853 0v7.013h4.046v-7.013h1.518v7.013h1.265v2.907H48.75v-1.517h-6.892v-8.403h1.58zm9.294 0h-1.517v8.403h1.517v-8.403zm1.391-2.337c.19 0 .38.063.57.252a.802.802 0 0 1 .252.569c0 .189-.063.379-.19.568a.574.574 0 0 1-.505.253c-.19 0-.38-.063-.57-.253a.798.798 0 0 1-.252-.568c0-.19.063-.379.253-.569.063-.189.252-.252.442-.252zm1.77 10.74h-1.517v-8.403h1.518v8.403zm.19-10.74c.19 0 .38.063.506.252a.802.802 0 0 1 .253.569c0 .189-.063.379-.19.568-.126.19-.316.253-.569.253-.19 0-.379-.063-.569-.253a.798.798 0 0 1-.253-.568c0-.19.064-.379.253-.569a.776.776 0 0 1 .57-.252zm10.94 2.337v1.264h-2.783v7.139h-1.58v-7.139h-2.783v-1.264h7.146zm4.046 0l3.541 8.403h-1.644l-.822-2.021h-3.54l-.76 2.021h-1.58l3.288-8.403h1.517zm-2.023 5.118h2.592l-1.328-3.285-1.264 3.285zm15.049-5.118v8.403h-1.518v-3.348h-.316c-.506 0-.948.126-1.265.379-.316.253-.632.695-.948 1.327l-.822 1.642h-1.77l.885-1.706c.253-.568.569-1.01.822-1.326.253-.316.569-.569.885-.758-1.138-.38-1.707-1.075-1.707-2.149 0-.758.253-1.39.758-1.832.506-.442 1.202-.632 2.087-.632h2.909zm-4.173 2.464c0 .379.126.695.379.948s.632.316 1.075.316h1.138v-2.527h-1.138a2.02 2.02 0 0 0-1.138.316c-.19.252-.316.568-.316.947zm7.208-2.464v3.349h.063c.316 0 .632-.064.759-.19.19-.126.316-.253.506-.505.126-.253.316-.506.442-.948.19-.505.443-.885.633-1.137.19-.253.379-.379.695-.506.253-.126.57-.126 1.012-.126h.38v1.264c-.317 0-.57 0-.696.063-.127.063-.253.189-.38.316-.126.126-.253.442-.38.821-.315.758-.695 1.2-1.2 1.453.379.19.695.442 1.011.758.316.379.632.885.949 1.58L92 140.321h-1.708l-.948-1.959c-.253-.442-.443-.821-.696-1.074a2.579 2.579 0 0 0-.632-.569c-.253-.126-.506-.189-.885-.189v3.791h-1.518v-8.277h1.518zm7.271 0h-1.517v8.403h1.517v-8.403zm5.755-.126c.442 0 .885.063 1.327.19.443.126.886.315 1.391.568v1.516a6.135 6.135 0 0 0-1.327-.631 4.478 4.478 0 0 0-1.328-.19c-.57 0-1.075.126-1.518.379-.442.253-.822.569-1.075 1.011-.253.442-.379.948-.379 1.516 0 .569.126 1.074.38 1.517.252.442.632.758 1.074 1.01.443.253.949.38 1.518.38.442 0 .822-.064 1.264-.19.38-.126.886-.379 1.518-.695v1.516a5.638 5.638 0 0 1-1.454.632c-.443.127-.949.19-1.518.19-.822 0-1.58-.19-2.276-.506-.632-.379-1.202-.884-1.58-1.516-.38-.632-.57-1.39-.57-2.148 0-.821.19-1.58.57-2.275.378-.695.948-1.2 1.58-1.579.822-.505 1.58-.695 2.403-.695zm10.685.126v1.264h-2.845v7.139h-1.518v-7.139h-2.845v-1.264h7.208zm2.466 0v3.286h1.265c.885 0 1.58.252 2.149.695.506.442.822 1.074.822 1.895 0 .758-.252 1.39-.758 1.832-.506.443-1.202.695-2.087.695h-2.908v-8.403h1.517zm1.328 7.14c.379 0 .695-.127.948-.379.253-.253.316-.569.316-.948s-.126-.695-.379-.948a1.29 1.29 0 0 0-.948-.379h-1.328v2.59h1.391v.064zM36.61 152.641v-.695h.696c.19 0 .316-.064.443-.064a.873.873 0 0 0 .252-.189c.064-.063.064-.19.064-.316 0-.189-.064-.316-.253-.379a1.958 1.958 0 0 0-.696-.126c-.253 0-.506.063-.759.126-.252.063-.442.19-.632.253v-.758c.063-.064.19-.127.316-.19.127-.063.253-.126.38-.126.126-.064.253-.064.442-.064.127 0 .253-.063.38-.063.253 0 .442 0 .695.063.19.064.38.127.57.253.189.127.315.19.379.379.063.127.126.316.126.506 0 .252-.063.505-.253.695-.19.189-.38.316-.632.379.126 0 .253.063.38.126.126.063.252.126.315.253.064.126.19.189.253.316.063.126.063.252.063.442 0 .253-.063.505-.19.632a1.479 1.479 0 0 1-.442.442c-.19.126-.38.19-.632.19-.253.063-.443.063-.696.063H36.8c-.126 0-.316-.063-.443-.063-.126-.064-.316-.064-.442-.127-.127-.063-.253-.126-.316-.189v-.885c.063.063.19.127.316.19s.253.126.38.126c.126.063.252.063.379.126.126 0 .252.064.316.064.38 0 .695-.064.885-.19.19-.126.316-.253.316-.505 0-.127-.063-.19-.063-.316a.877.877 0 0 0-.253-.19c-.127-.063-.19-.063-.316-.126-.127 0-.253-.063-.38-.063h-.569zm8.473-4.865h-.948v6.823h.948v-6.823zm2.909 6.886l-.632-.695a5.733 5.733 0 0 0 1.328-1.137c.38-.442.632-.947.758-1.39-.316.19-.695.316-1.075.316-.505 0-.948-.189-1.327-.568a1.96 1.96 0 0 1-.57-1.39c0-.569.19-1.074.57-1.454.38-.379.885-.568 1.454-.568.632 0 1.201.253 1.58.695.443.442.633 1.074.633 1.769 0 .821-.253 1.643-.759 2.527-.506.758-1.138 1.453-1.96 1.895zm1.707-4.233c.064-.252.064-.442.064-.505 0-.379-.127-.695-.317-.948-.252-.252-.505-.379-.822-.379-.316 0-.569.127-.758.316-.19.19-.316.506-.316.821 0 .316.126.569.316.759.253.189.505.315.822.315.253 0 .632-.126 1.011-.379zm3.351 4.233l-.632-.695a5.733 5.733 0 0 0 1.328-1.137c.38-.442.632-.947.759-1.39-.317.19-.696.316-1.075.316-.506 0-.949-.189-1.328-.568a1.96 1.96 0 0 1-.57-1.39c0-.569.19-1.074.57-1.454.38-.379.885-.568 1.454-.568.632 0 1.202.253 1.58.695.444.442.633 1.074.633 1.769 0 .821-.253 1.643-.759 2.527-.505.758-1.201 1.453-1.96 1.895zm1.644-4.233c.063-.252.063-.442.063-.505a1.55 1.55 0 0 0-.316-.948c-.19-.252-.506-.379-.822-.379-.316 0-.569.127-.758.316-.19.19-.317.506-.317.821 0 .316.127.569.317.759.253.189.505.315.822.315.316 0 .632-.126 1.011-.379zm1.961-2.653h4.426l-3.098 6.886-.886-.315 2.53-5.623h-2.972v-.948zm9.485 2.338c.821 0 1.453.189 1.896.568.443.379.632.948.632 1.706 0 .316-.063.632-.19.948-.126.253-.252.505-.505.758-.19.19-.443.379-.696.505-.253.127-.569.19-.948.19-.127 0-.316 0-.443-.063-.126-.063-.316-.063-.506-.127V157h-.885v-6.823h1.644v-.063zm-.633.821v2.78c.253.126.569.19.822.19.19 0 .38-.064.569-.127.19-.063.316-.189.443-.316.126-.126.252-.316.316-.505.063-.19.126-.379.126-.632s-.063-.442-.126-.632c-.064-.189-.19-.316-.316-.442a1.93 1.93 0 0 0-.443-.316c-.19-.063-.38-.126-.57-.126h-.821v.126zm6.323-.885c.38 0 .696.063.949.19.316.126.569.253.758.505.19.19.38.443.506.758.127.253.19.569.19.948s-.063.695-.19.948a2.274 2.274 0 0 1-.506.758c-.19.189-.442.379-.758.505-.316.127-.633.19-1.012.19-.316 0-.695-.063-.948-.19-.317-.126-.57-.252-.76-.505a2.277 2.277 0 0 1-.505-.758 2.536 2.536 0 0 1-.19-.948c0-.316.063-.632.19-.884.126-.253.316-.506.506-.759.19-.189.442-.379.759-.505.316-.253.632-.253 1.011-.253zm-.063.758c-.19 0-.38.064-.57.127-.189.063-.315.189-.442.316a1.92 1.92 0 0 0-.316.442c-.063.189-.126.379-.126.569 0 .252.063.442.126.631.063.19.19.379.316.506.127.126.253.253.443.316s.38.126.569.126c.253 0 .443-.063.632-.126.19-.063.38-.19.506-.316a1.38 1.38 0 0 0 .316-.506c.064-.189.127-.442.127-.631 0-.19-.063-.443-.127-.632-.063-.19-.19-.316-.316-.506a1.393 1.393 0 0 0-.506-.316c-.19.064-.38 0-.632 0zm4.489 1.138c.19 0 .38-.064.506-.127.127-.126.253-.252.38-.442l.252-.505c.064-.127.127-.253.253-.316.064-.064.127-.19.253-.19.063-.063.19-.063.253-.126h.57v.821h-.19c-.127 0-.19 0-.253.063a.877.877 0 0 0-.19.253l-.253.379a.877.877 0 0 1-.19.253l-.19.189c-.063.063-.126.063-.189.127-.063.063-.127.063-.19.063.127.063.19.063.316.126.064.063.19.127.253.19.064.063.19.189.253.316.063.126.19.252.253.442l.696 1.263h-1.012l-.632-1.2c-.127-.253-.316-.505-.506-.569-.19-.126-.38-.189-.506-.189h-.126v1.958h-.822v-4.485h.885v1.832h.126v-.126zm7.145-1.832l-3.224 6.823h-1.012l1.58-3.285-1.77-3.538h1.012l1.201 2.527 1.202-2.527h1.01zM59.5 118.903C26.683 118.903 0 92.241 0 59.451V0h59.5C92.317 0 119 26.662 119 59.452s-26.683 59.451-59.5 59.451zM3.288 3.285v56.166c0 30.958 25.229 56.167 56.212 56.167 30.983 0 56.212-25.209 56.212-56.166 0-30.958-25.229-56.167-56.212-56.167H3.288z" fill="#022169"/><path d="M30.793 72.72a4.47 4.47 0 0 1-.316 1.642c-.19.505-.506.948-.948 1.327-.443.379-.949.632-1.581.884-.633.19-1.454.316-2.466.316h-3.478c-.253 0-.443-.063-.569-.19-.126-.126-.253-.379-.253-.694V64.316c0-.315.063-.505.253-.631.127-.127.316-.19.57-.19h7.524c.063 0 .126 0 .19.063.063.063.126.063.126.19.063.063.063.19.063.316v1.011c0 .126-.063.252-.063.316-.063.063-.063.126-.127.189-.063.063-.126.063-.19.063h-5.627v3.349h2.213c.885 0 1.58.063 2.087.252.569.19 1.011.443 1.39.759.38.316.696.695.886 1.2.253.379.316.948.316 1.516zm-2.719.189c0-.316-.063-.569-.126-.822a2.27 2.27 0 0 0-.443-.631 1.507 1.507 0 0 0-.695-.38 5.675 5.675 0 0 0-1.138-.126h-1.708v3.854h1.77c.443 0 .823-.063 1.076-.126.253-.063.506-.19.695-.38.19-.189.316-.378.443-.631.063-.19.126-.442.126-.758zm10.37.315c-.316.758-.569 1.39-.885 1.896a6.628 6.628 0 0 1-.949 1.2c-.316.316-.695.506-1.075.632-.379.126-.821.19-1.327.19-.19 0-.38 0-.57-.064-.19 0-.316-.063-.505-.126-.127-.063-.316-.063-.38-.126-.126-.064-.19-.127-.253-.127-.063-.063-.126-.126-.126-.19-.063-.063-.063-.126-.063-.252s-.063-.19-.063-.38v-.568c0-.379 0-.695.063-.884.063-.19.126-.253.253-.253.063 0 .126 0 .19.063a.48.48 0 0 0 .252.127c.127.063.253.126.38.126.126.063.316.063.505.063.127 0 .253 0 .38-.063.126-.063.253-.063.38-.19.126-.063.189-.19.315-.379.127-.19.253-.379.38-.631l-4.426-8.846c-.127-.189-.127-.379-.19-.505 0-.126 0-.253.126-.316.064-.063.19-.126.443-.126.19 0 .443-.063.759-.063h.759c.19 0 .316.063.442.063.127.063.19.126.253.19.063.063.127.189.19.315l1.897 4.107.569 1.327c.19.442.38.884.506 1.326.126-.442.253-.947.442-1.326.127-.443.316-.885.506-1.39l1.518-4.107c.063-.126.063-.19.126-.253s.127-.126.253-.126c.127-.063.253-.063.443-.063h.758c.317 0 .57 0 .76.063.189 0 .315.063.379.126.063.064.126.127.126.253s-.063.253-.126.38l-3.415 8.907zm13.848 2.654c.063.253.126.442.126.569 0 .126 0 .252-.063.315-.063.064-.19.127-.38.127h-1.58c-.19 0-.316 0-.443-.063-.126-.064-.19-.064-.19-.127-.063-.063-.063-.126-.126-.19l-.885-2.716h-4.995l-.822 2.653c0 .127-.064.19-.127.253s-.126.127-.19.127c-.126.063-.253.063-.442.063H40.72c-.19 0-.316-.063-.379-.127-.063-.063-.063-.19-.063-.316s.063-.315.126-.568l4.11-11.94c.063-.127.063-.19.127-.254a.88.88 0 0 1 .253-.19c.126-.062.316-.062.506-.062h1.77c.253 0 .443.063.569.063.127.063.253.126.316.19a.482.482 0 0 1 .127.315l4.11 11.878zm-6.07-9.856l-1.897 5.75h3.793l-1.897-5.75zm15.998 8.845v.443c0 .126 0 .252-.064.316 0 .063-.063.19-.063.252-.064.064-.064.127-.19.19-.063.063-.19.19-.443.316-.19.126-.505.252-.822.379-.316.126-.695.19-1.075.316a7.915 7.915 0 0 1-1.327.126c-.886 0-1.708-.126-2.466-.442-.76-.253-1.328-.695-1.897-1.264-.506-.568-.886-1.263-1.202-2.148-.252-.821-.379-1.832-.379-2.97 0-1.136.127-2.147.443-3.032.316-.884.695-1.642 1.264-2.211a5.307 5.307 0 0 1 1.96-1.39c.76-.316 1.581-.442 2.53-.442.379 0 .695 0 1.075.063.316.063.632.126.948.253.316.126.569.19.759.379.253.126.38.252.506.316a.84.84 0 0 0 .19.252c.063.063.063.127.063.253s.063.19.063.316v1.011c0 .126-.064.252-.064.379-.063.063-.063.126-.126.19-.063.063-.126.063-.19.063-.126 0-.253-.064-.379-.19a5.564 5.564 0 0 0-.632-.38c-.253-.126-.57-.252-.886-.378-.316-.126-.758-.19-1.264-.19a3.22 3.22 0 0 0-1.391.316c-.443.19-.759.506-1.075.948-.316.379-.506.884-.633 1.453-.126.569-.252 1.2-.252 1.959 0 .82.063 1.453.252 2.084.19.57.38 1.075.696 1.454.316.379.632.631 1.075.82.443.19.885.254 1.454.254.506 0 .886-.064 1.265-.19a6.165 6.165 0 0 0 1.517-.758c.19-.126.317-.19.38-.19s.126 0 .19.064c.063 0 .063.063.126.19 0 .062.063.189.063.378v.442zm10.432 0v.443c0 .126 0 .252-.063.316 0 .063-.063.19-.063.252-.063.064-.063.127-.19.19-.063.063-.253.19-.442.316-.19.126-.506.252-.823.379-.316.126-.695.19-1.074.316-.38.063-.822.126-1.328.126-.885 0-1.707-.126-2.466-.442-.759-.253-1.328-.695-1.897-1.264-.506-.568-.885-1.263-1.201-2.148-.253-.821-.38-1.832-.38-2.97 0-1.136.127-2.147.443-3.032.316-.884.695-1.642 1.264-2.211a5.307 5.307 0 0 1 1.96-1.39c.76-.316 1.581-.442 2.53-.442.38 0 .695 0 1.075.063.316.063.632.126.948.253.316.126.57.19.759.379.253.126.38.252.506.316a.87.87 0 0 0 .19.252c.063.063.063.127.063.253s.063.19.063.316v1.011c0 .126-.063.252-.063.379-.064.063-.064.126-.127.19-.063.063-.126.063-.19.063-.126 0-.252-.064-.379-.19a5.564 5.564 0 0 0-.632-.38c-.253-.126-.57-.252-.886-.378-.316-.126-.758-.19-1.264-.19a3.22 3.22 0 0 0-1.391.316c-.443.19-.759.506-1.075.948-.316.379-.506.884-.632 1.453-.127.569-.253 1.2-.253 1.959 0 .82.063 1.453.253 2.084.19.57.379 1.075.695 1.454.316.379.633.631 1.075.82.443.19.885.254 1.391.254s.885-.064 1.265-.19a6.165 6.165 0 0 0 1.517-.758c.19-.126.317-.19.38-.19s.126 0 .19.064c.063 0 .063.063.126.19 0 .062.063.189.063.378.063 0 .063.19.063.442zm13.342-4.865c0 1.138-.127 2.085-.38 2.97a5.715 5.715 0 0 1-1.201 2.21 5.053 5.053 0 0 1-2.023 1.39 7.534 7.534 0 0 1-2.782.506c-1.012 0-1.96-.126-2.72-.379a4.37 4.37 0 0 1-1.896-1.263c-.506-.569-.886-1.264-1.139-2.148-.252-.885-.379-1.896-.379-3.096 0-1.074.127-2.085.38-2.97.252-.884.695-1.58 1.2-2.21a5.051 5.051 0 0 1 2.024-1.39 7.534 7.534 0 0 1 2.782-.506c1.012 0 1.897.126 2.656.379.759.253 1.391.695 1.96 1.263.506.569.886 1.264 1.202 2.148.19.948.316 1.959.316 3.096zm-2.846.19c0-.695-.063-1.327-.19-1.959a5.395 5.395 0 0 0-.568-1.516 2.232 2.232 0 0 0-1.075-.948c-.443-.253-1.012-.316-1.644-.316-.633 0-1.202.127-1.644.38-.443.252-.822.568-1.075 1.01a5.794 5.794 0 0 0-.57 1.453 7.99 7.99 0 0 0-.189 1.77c0 .758.063 1.39.19 1.958a5.37 5.37 0 0 0 .569 1.516c.253.442.632.758 1.075.948.442.19 1.011.316 1.644.316.695 0 1.201-.127 1.644-.38.442-.252.822-.568 1.075-1.01.253-.442.442-.948.569-1.516.19-.443.19-1.074.19-1.706zm14.986 6.318c0 .063 0 .126-.064.19-.063.063-.126.126-.19.126-.126.063-.252.063-.379.063h-1.264c-.19 0-.316-.063-.38-.063-.126-.063-.19-.063-.19-.127-.063-.063-.063-.126-.063-.19v-5.433H90.42v5.434c0 .063 0 .126-.064.19-.063.063-.126.126-.19.126-.126.063-.252.063-.379.063h-1.264c-.19 0-.316-.063-.443-.063-.126-.063-.19-.063-.19-.127-.063-.063-.063-.126-.063-.19V63.812c0-.063 0-.127.063-.19.064-.063.127-.126.19-.126.127-.063.253-.063.443-.063s.38-.063.632-.063c.253 0 .506 0 .632.063.19 0 .316.063.38.063.126.063.19.063.19.126.063.063.063.127.063.19v4.928h4.995v-4.93c0-.063 0-.127.063-.19s.127-.126.19-.126c.126-.063.253-.063.38-.063.189 0 .379-.063.631-.063.253 0 .506 0 .633.063.19 0 .316.063.38.063.126.063.189.063.189.126.063.063.063.127.063.19v12.7h.19zM70.755 24.577c.442 0 .885.126 1.264.316.443.252.76.568.949.947.253.442.316.885.316 1.327 0 .442-.126.884-.316 1.327-.253.442-.57.758-.949 1.01-.442.253-.822.38-1.264.38-.443 0-.885-.127-1.265-.38-.442-.252-.759-.568-.948-1.01-.253-.442-.316-.885-.316-1.327 0-.442.126-.885.316-1.327.253-.442.569-.758.948-.947a2.88 2.88 0 0 1 1.265-.316zm0 .442c-.38 0-.696.063-1.075.316a1.73 1.73 0 0 0-.822.821c-.19.38-.316.695-.316 1.074 0 .38.126.758.316 1.074.19.316.442.632.822.822.316.19.695.315 1.075.315s.759-.126 1.075-.315c.316-.19.632-.443.822-.822.19-.379.316-.695.316-1.074 0-.379-.127-.758-.316-1.074a1.729 1.729 0 0 0-.822-.821 1.767 1.767 0 0 0-1.075-.316zm-1.012 3.601v-2.906h1.012c.316 0 .569 0 .759.063.126.063.252.126.379.253a.913.913 0 0 1 .126.442.77.77 0 0 1-.253.569.966.966 0 0 1-.632.252c.127.064.19.127.253.127.127.126.253.316.443.568l.38.569h-.57l-.253-.442c-.19-.38-.38-.569-.506-.695-.063-.064-.19-.127-.38-.064h-.252v1.264h-.506zm.506-1.643h.569c.253 0 .443-.063.57-.126.126-.063.126-.19.126-.316 0-.063 0-.19-.064-.253-.063-.063-.126-.126-.19-.126-.063-.063-.252-.063-.442-.063h-.506v.884h-.063zm-12.203-4.169S43.44 35.128 43.44 45.742s6.512 14.657 14.606 14.657c8.03 0 14.606-3.98 14.606-14.657-.063-10.614-14.606-22.934-14.606-22.934zm0 34.369c-5.628 0-11.445-2.654-11.445-10.993 0-7.455 8.283-15.668 8.283-15.668s-1.011 4.738 4.047 11.561c2.15 2.907 5.185 5.497 5.185 9.35 0 2.275-1.58 5.75-6.07 5.75zm-16.883-7.645c0 1.264-.19 2.401-.632 3.475a7.532 7.532 0 0 1-1.897 2.717c-.822.758-1.897 1.39-3.225 1.832-1.265.443-2.972.632-4.995.632h-7.84c-.507 0-.886-.126-1.202-.442-.316-.253-.443-.758-.443-1.453V32.032c0-.632.127-1.074.443-1.39.316-.253.695-.442 1.138-.442h17.515c.19 0 .316.126.38.252a.978.978 0 0 1 .126.506c0 .19 0 .442-.127.758-.063.316-.19.632-.38 1.074-.126.38-.252.632-.379.885-.126.252-.316.442-.442.631-.127.127-.443.38-.885.38H26.304v6.95h5.311c1.707 0 3.162.189 4.3.505 1.138.379 2.087.884 2.845 1.516.759.695 1.391 1.516 1.77 2.464.443 1.074.633 2.211.633 3.411zm-5.564.38c0-.632-.127-1.2-.316-1.706a3.648 3.648 0 0 0-.822-1.264c-.38-.379-.886-.632-1.455-.821-.569-.19-1.39-.253-2.34-.253h-4.299v8.087h4.363c.885 0 1.644-.063 2.213-.253.57-.19 1.075-.442 1.454-.758.38-.316.696-.758.949-1.263.19-.569.253-1.138.253-1.77zm62.535 7.581c0 .127-.063.253-.126.38-.064.126-.253.189-.443.252s-.506.126-.885.19c-.38.063-.822.063-1.391.063-.57 0-1.012 0-1.391-.063-.38-.064-.633-.127-.886-.19a1.347 1.347 0 0 1-.442-.253c-.063-.126-.127-.252-.127-.379V46.121H80.935v11.372c0 .127-.063.253-.126.38-.063.126-.253.189-.443.252s-.505.126-.885.19c-.38.063-.822.063-1.391.063-.57 0-1.012 0-1.391-.063-.38-.064-.632-.127-.885-.19-.19-.063-.38-.19-.443-.253-.063-.126-.126-.252-.126-.379V31.021c0-.126.063-.253.126-.379s.253-.19.443-.253.506-.126.885-.19c.38-.062.822-.062 1.391-.062.57 0 1.012 0 1.391.063.38.063.632.126.885.19.19.063.38.189.443.252.063.127.126.253.126.38v10.297h11.508V31.021c0-.126.064-.253.127-.379s.253-.19.442-.253c.19-.063.506-.126.886-.19.379-.062.822-.062 1.39-.062.57 0 1.012 0 1.392.063.38.063.632.126.885.19.19.063.38.189.443.252.063.127.126.253.126.38v26.471zM32.311 96.159v-8.34h5.059v1.074h-3.92v2.274h1.58c.443 0 .822.064 1.138.19.38.126.632.253.885.505.253.19.443.506.57.759.126.315.19.694.19 1.074 0 .379-.064.758-.19 1.074a1.725 1.725 0 0 1-.57.758 4.03 4.03 0 0 1-.885.505 3.57 3.57 0 0 1-1.138.19h-2.719v-.063zm1.138-3.918v2.843h1.77c.254 0 .443-.063.633-.126s.38-.19.506-.316.253-.252.316-.442.126-.38.126-.569c0-.442-.126-.821-.442-1.074-.316-.252-.759-.379-1.328-.379h-1.58v.063zm10.686-4.422v1.074h-3.351v2.527h3.288v1.074h-3.288v2.59h3.477v1.075h-4.616v-8.34h4.49zm1.834 8.34v-8.34h2.276c.443 0 .822.063 1.075.19.316.126.569.315.759.505.19.19.316.442.442.695.127.252.127.505.127.758 0 .442-.127.821-.316 1.074-.19.316-.506.505-.949.695.316.063.57.126.822.253.253.126.443.316.633.442.19.19.316.379.379.632.063.252.126.505.126.758s-.063.505-.126.758c-.127.253-.253.505-.443.695-.19.19-.506.38-.822.505-.316.127-.758.19-1.264.19h-2.72v.19zm1.138-7.266v2.527h.759c.569 0 1.011-.126 1.264-.316.253-.19.38-.568.38-1.01 0-.127 0-.317-.064-.443-.063-.126-.126-.253-.252-.379-.127-.126-.253-.19-.443-.253s-.38-.126-.632-.126h-1.012zm0 3.601v2.654h1.454c.316 0 .633-.064.822-.127.19-.063.38-.19.506-.316.127-.126.19-.252.253-.442.063-.126.063-.316.063-.442 0-.19-.063-.38-.126-.506s-.19-.316-.316-.379c-.127-.126-.317-.19-.57-.252a2.722 2.722 0 0 0-.758-.127h-1.328v-.063zm10.37-4.675v1.074h-3.351v2.527h3.224v1.074h-3.224v2.59h3.477v1.075h-4.616v-8.34h4.49zm1.707 0h2.466c.442 0 .822.063 1.138.19.316.126.569.315.759.505.19.19.379.442.442.758.127.316.127.632.127.948 0 .316-.064.631-.19.947a2 2 0 0 1-.506.758c-.253.19-.506.38-.822.506-.316.126-.759.19-1.201.19h-1.202v3.6h-1.138V87.82h.127zm1.138 1.074v2.59h1.264c.19 0 .38 0 .57-.063.19-.063.316-.126.442-.253.127-.126.19-.252.253-.442s.126-.379.126-.569c0-.126 0-.315-.063-.442-.063-.126-.126-.316-.253-.442-.126-.126-.253-.19-.442-.316-.19-.063-.38-.126-.633-.126h-1.264v.063zm6.513-1.074h-1.138v8.403h1.138v-8.403zm9.042 7.266v2.59h-1.138v-1.516H69.49v1.516h-1.2v-2.59h.695l2.592-7.33h.822l2.782 7.33h.696zm-3.857-5.56l-1.897 5.56h3.857l-1.96-5.56zm5.311-1.706c.253 0 .506 0 .759.063.19.063.442.19.569.316.19.126.316.316.506.569.126.252.316.568.442.947.127.316.253.569.38.758.126.19.253.316.38.443.126.126.252.19.379.19.126.062.252.062.442.062V87.82h1.138v3.412c.127 0 .316 0 .443-.064l.38-.19a2.76 2.76 0 0 0 .379-.442c.126-.189.253-.442.379-.758.127-.379.316-.695.443-.947a1.49 1.49 0 0 1 .506-.569c.19-.126.379-.253.569-.316.252-.063.442-.063.758-.063h.19v1.074c-.253 0-.443 0-.632.063a1.02 1.02 0 0 0-.443.253 1.02 1.02 0 0 0-.253.442 4.22 4.22 0 0 1-.253.632c-.063.126-.126.316-.19.442a1.92 1.92 0 0 1-.316.443c-.126.126-.252.252-.316.379-.126.126-.253.19-.38.252.19.064.317.127.444.19.126.063.252.19.316.253.126.126.19.252.316.379.126.126.19.316.316.568l1.77 3.033h-1.39l-1.455-2.527a5.539 5.539 0 0 0-.38-.632 2.662 2.662 0 0 0-.379-.442 1.02 1.02 0 0 0-.442-.253c-.127-.063-.317-.063-.443-.063v3.98h-1.138v-3.98c-.19 0-.316 0-.443.063-.126.063-.253.126-.442.253a2.712 2.712 0 0 0-.38.442c-.126.19-.253.379-.38.632l-1.453 2.527h-1.328l1.77-3.033c.19-.379.443-.631.633-.884.252-.253.505-.38.758-.506-.126-.063-.253-.126-.38-.252-.126-.127-.252-.253-.315-.38-.127-.126-.19-.252-.316-.442-.064-.126-.127-.316-.19-.442-.063-.253-.19-.442-.253-.632s-.19-.316-.253-.442c-.126-.126-.253-.19-.443-.253s-.379-.063-.632-.063V87.82h.253z" fill="#fff"/></svg>