<svg width="512" height="610" fill="none" xmlns="http://www.w3.org/2000/svg"><path d="M256.398 609.616c-1.018-.905-1.779-1.514-2.464-2.199-59.095-59.085-118.642-117.769-177.147-177.394C33.077 385.463 9.855 331.19 6.5 268.818c-2.813-52.222 9.77-100.759 37.257-145.224a249.649 249.649 0 0 1 77.574-78.428A249.813 249.813 0 0 1 225.15 7.807c52.495-6.405 102.201 2.782 149.119 27.56a243.773 243.773 0 0 1 68.77 54.263c37.538 42.405 58.398 91.826 62.582 148.264 3.868 52.963-8.148 102.38-35.542 147.957a239.061 239.061 0 0 1-35.806 45.844 112002.707 112002.707 0 0 1-175.727 175.773l-2.148 2.148z" fill="#022169" fill-opacity=".4"/><path d="M256.398 609.616c-1.018-.905-1.779-1.514-2.464-2.199-59.095-59.085-118.642-117.769-177.147-177.394C33.077 385.463 9.855 331.19 6.5 268.818c-2.813-52.222 9.77-100.759 37.257-145.224a249.649 249.649 0 0 1 77.574-78.428A249.813 249.813 0 0 1 225.15 7.807c52.495-6.405 102.201 2.782 149.119 27.56a243.773 243.773 0 0 1 68.77 54.263c37.538 42.405 58.398 91.826 62.582 148.264 3.868 52.963-8.148 102.38-35.542 147.957a239.061 239.061 0 0 1-35.806 45.844 112002.707 112002.707 0 0 1-175.727 175.773l-2.148 2.148z" fill="url(#paint0_linear)" fill-opacity=".2"/><defs><linearGradient id="paint0_linear" x1="257.01" y1="610.778" x2="257.685" y2="-99.998" gradientUnits="userSpaceOnUse"><stop stop-color="#fff"/><stop offset="0" stop-color="#fff"/><stop offset=".961" stop-color="#fff" stop-opacity="0"/></linearGradient></defs></svg>