<svg width="95" height="88" fill="none" xmlns="http://www.w3.org/2000/svg"><path d="M38.608 38.745c.042-.042.042-.127.084-.17-.084.043-.127.043-.211.085.042 0 .084.043.127.085 0-.042 0-.042 0 0z" fill="#005934"/><path d="M94.095 13.057c-.55-1.344-1.606-.378-2.325-.042-2.662 1.3-5.24 2.686-7.86 4.071-.803.42-1.48 1.05-2.325-.084-2.07-2.854-5.198-4.533-7.691-6.925-5.368-5.205-11.918-7.892-19.356-8.605-.93-.084-2.451-.63-2.578.713-.17 1.595 1.479.924 2.282 1.008 11.495.755 18.933 8.1 26.71 15.53-4.354 2.728-8.537 4.827-11.96 8.06-1.438 1.342-2.79 1.594-4.523.209-3.296-2.644-6.762-2.686-10.776-.965-6.805 2.938-13.82 5.288-20.751 7.975-2.282.881-4.48 1.972-6.677 2.98-2.029.965-2.663 2.602-2.282 4.785.802 4.24 1.14 8.688 5.536 11.165.296.168.465.63.845 1.091-5.114 3.064-10.185 6.044-15.257 9.066-3.592 2.141-3.76 2.183-5.24-1.804-3.085-8.311-5.071-16.664-3-25.688 1.098-4.743 3.338-8.815 5.282-13.096.38-.84 1.944-1.931.507-2.77-1.225-.714-1.394 1.007-1.944 1.762-1.606 2.015-2.155 4.534-3.296 6.8-2.959 5.625-3.381 11.92-3.17 17.923.211 6.254 2.325 12.508 5.24 18.217.72 1.385.423 1.888-.76 2.56-2.536 1.47-4.945 3.232-7.692 4.323-.634.252-1.394.756-.845 1.595.423.672 1.141.294 1.648 0 2.24-1.217 4.607-2.224 6.593-3.735 2.367-1.847 3.761-1.47 5.114 1.05 3.888 7.219 10.185 11.584 17.792 14.354 2.578.924 5.198 1.763 7.988 1.889.633.042 1.605.294 1.732-.713.127-1.008-.718-.966-1.437-1.05-11.284-1.511-19.905-6.968-25.695-16.831-.887-1.553-.253-1.847.76-2.435 5.072-2.98 10.228-5.918 15.173-9.066 1.69-1.05 2.409-.588 3.38.713 1.987 2.687 4.1 5.289 6.382 7.724 1.648 1.762 2.874 1.762 4.607.335 2.282-1.847 4.944-3.19 7.565-4.533 8.114-4.071 15.594-9.15 23.117-14.145 4.522-3.022 4.015-11.543-.719-14.103-1.436-.756-2.831-1.595-4.268-2.309-1.014-.504-1.099-.881-.169-1.72 3.761-3.233 7.988-5.71 12.256-8.144.211-.546.676-.671 1.183-.671 3.128-1.68 6.297-3.316 9.382-4.995.677-.294 1.987-.378 1.522-1.47zM33.49 52.092c-.507.378-1.098 1.176-1.817.42-2.324-2.434-5.874-4.197-5.071-8.73 2.24 2.392 4.395 4.617 6.508 6.883.423.378 1.141.84.38 1.427zm5.663 9.654c-1.775-2.266-3.55-4.49-5.282-6.757-.55-.714.211-1.008.676-1.386.676-.503 1.141-.461 1.817.126 2.282 2.099 3 4.743 3.508 7.514-.254.21-.465.335-.719.503zm32.162-14.733c-8.918 5.667-18.13 10.788-27.26 16.119-.887.503-1.436.713-1.774-.504-.042-.084-.042-.21-.085-.294-1.986-7.136-3.507-5.876 3.677-9.024 9.72-4.282 18.342-10.368 27.808-15.069.634-.294 1.184-.672 1.902-1.091 1.226 4.743-.465 7.471-4.268 9.864zm-1.648-15.236c.76.252 1.479.462 1.944 1.175 1.183.714 2.366 1.385 3.634 2.183a42.58 42.58 0 0 1-7.987 4.407c-8.284 5.709-17.54 9.696-26.414 14.355-1.733.924-2.113-.126-2.916-.923-1.395-1.385.296-1.553.887-2.14.296-.295.676-.463.972-.714.592-.504 1.69-.924.972-1.847-.718-.924-1.521-.042-2.028.461-2.325 2.267-3.973 1.596-5.79-.797-1.775-2.35-3.888-4.407-5.959-6.506-1.395-1.47-1.099-2.392.676-3.19 1.564-.714 3.085-1.553 4.691-2.183 7.776-2.98 15.553-5.918 23.329-8.814 2.958-1.134 7.1-.126 9.128 2.14.507.588 0 1.134.127 1.721 1.69-.125 3.297-.251 4.734.672z" fill="#005934"/><path d="M85.853 25.606c-1.437.63-.042 2.14.38 3.148 3.846 9.108 3.55 18.594 1.141 27.66-2.577 9.949-9.297 17.504-17.834 23.338-.803.546-2.79.84-1.986 2.099.845 1.26 2.155-.21 3.127-.755 6.508-3.652 10.608-9.613 14.707-15.489 4.776-6.8 5.114-14.69 5.24-24.051.339-3.82-.802-8.814-2.915-13.6-.38-.923-.254-3.064-1.86-2.35z" fill="#095B37"/><path d="M69.245 75.597c1.014-1.26-.845-1.679-1.437-2.476-.254-.294-.634-.546-1.014-.63-2.494-.546-2.282-2.183-1.522-3.904.254-.587 1.268-1.091.254-1.679-1.099-.63-1.564.336-2.07 1.092-.888 1.3.168 3.022-1.1 4.407-.93-1.26-.845-3.61-2.873-3.358-3.128.378-1.818 3.694-2.959 5.54-1.606-1.133-1.986-3.61-4.395-3.273v1.133a367.513 367.513 0 0 0 3.423 4.197c.719.882.719 1.68-.38 2.225-.719.378-1.775.546-.972 1.595.634.797 1.563.252 2.197-.126 1.268-.714 1.522-2.057 1.775-3.358.38-1.889.423-3.861 1.606-6.254.423 3.022 2.325 4.617 3.255 6.716.295.713.93 1.301 1.648.881.803-.461.126-1.175-.043-1.847-.21-.881-1.732-1.72-.507-2.602.846-.588 1.902.252 2.747.798.719.503 1.395 2.14 2.367.923z" fill="#0E5D3A"/><path d="M17.01 22.038c-.677.882.042 1.511.549 2.099.676.84 1.479 1.637 2.24 2.518-1.184.42-2.029-.378-3.043-.378-1.014 0-2.155-.21-2.578 1.008-.423 1.217.507 1.847 1.394 2.35 1.86 1.05 3.677 2.057 5.537 3.107.465.251 1.014.461 1.352-.042.465-.63.127-1.134-.465-1.47-1.31-.713-2.45-1.762-4.606-2.14 1.944-.672 2.916.126 4.015.21.845.042 1.944.84 2.578-.084.803-1.176-.803-1.302-1.226-2.015-.423-.672-1.268-1.175-1.141-2.393a98.133 98.133 0 0 1 2.874 1.637c.55.294 1.14.714 1.606.084.634-.84-.127-1.3-.719-1.637a123.293 123.293 0 0 0-6.17-3.232c-.76-.42-1.606-.377-2.198.378z" fill="#0C5C39"/><path d="M22.628 11.713c2.071-1.47 3.466-3.652 5.875-4.785C34.419 4.24 40.59 2.73 47.056 2.562c.76 0 1.902.336 1.944-.797C49.084.59 47.943.84 47.183.799c-.423-.042-.803 0-1.226 0-9.086 1.008-18.004 2.435-24.596 9.654-.55.588-2.114.798-1.268 1.89.93 1.216 1.817-.085 2.535-.63z" fill="#0E5D3A"/><path d="M46.17 11.964c-.254-2.35.507-3.945-.127-5.54-.211-.546-.423-.965-1.057-.714-.295.126-.676.546-.718.84-.085 2.518-.085 5.037-.127 7.555 0 .672.296 1.217.888 1.47.803.335 1.352-.169 1.775-.798.972-1.511 1.944-3.064 3.17-4.995.633 2.182-.804 3.82-.212 5.498.169.42.55.966.93 1.05.634.168.887-.42.845-.966-.211-2.224.845-4.365.465-6.631-.127-.798-.085-1.68-1.057-1.973-.93-.294-1.521.294-1.986 1.007-.845 1.301-1.69 2.519-2.79 4.197z" fill="#15603D"/><path d="M52.045 71.315c-1.775-.377-2.874-.042-2.705 2.141.127 1.301-.296 2.644-.084 3.904.253 1.553-.254 1.805-1.649 2.014-1.86.294-1.775-.797-1.817-1.93-.042-1.511-.042-3.023-.042-4.534 0-.713.127-1.595-.803-1.679-1.057-.125-.972.84-.972 1.512-.042 1.72 0 3.441 0 5.162.042 2.435.93 3.82 3.761 3.358.888-.168 2.367-.462 2.578 1.133.085.672.17 1.386.845 1.386.888.042.972-.84 1.1-1.553.253-1.134-.043-2.057-.55-3.106-1.014-2.183-1.268-4.534.38-6.674-.423-.378-.38-.756-.042-1.134z" fill="#1C623F"/><path d="M52.04 72.449v-1.134c-.337.378-.38.756 0 1.134z" fill="#1C623F"/><path d="M13.463 41.682c0 .713-.338 1.133-1.098 1.175-.888.084-1.31-.294-1.31-1.217 0-1.008.042-1.973.464-2.98.212-.546.127-1.26-.634-1.47-.845-.21-.887.462-1.14 1.05-2.03 4.66-1.015 6.296 4.099 6.38h.93c3.972.42 3.972.42 4.268-3.778-.042-1.007 1.056-3.106-.803-3.232-1.395-.126-.592 2.225-1.057 3.4-.084.168 0 .42-.042.588-.211.546.507 1.595-.803 1.511-.972-.042-.803-.923-1.099-1.553-.591-1.217.677-3.652-.887-3.61-1.86.126-.93 2.35-.888 3.736z" fill="#115E3B"/><path d="M11.39 54.274c-.55.336-1.14.63-.845 1.385.211.588.803.504 1.31.378 2.493-.546 4.945-1.05 7.438-1.637.719-.168 1.902-.294 1.48-1.427-.381-1.05-1.395-.546-2.072-.252-1.732.756-2.873.714-2.958-1.595-.042-1.553 1.184-1.343 2.029-1.763.76-.336 2.155-.294 1.86-1.511-.339-1.511-1.48-.294-2.24-.294-2.156 0-4.227.546-6.255 1.217-.761.252-1.902.168-1.818 1.218.127 1.259 1.268.545 2.071.671 2.113-.545 3.128.462 2.663 2.519-.254 1.049-1.818.63-2.663 1.091z" fill="#175F3C"/><path d="M33.195 19.73c1.267-.84 1.944-2.015 1.817-3.568-.042-.714-.042-1.595-.972-1.637-.972-.042-.888.84-.888 1.553 0 1.385-.507 2.56-2.113 2.183-1.817-.462-3.043-1.763-2.874-3.736.17-1.553 1.268-2.099 2.325-1.889 1.14.42 1.944.756 2.282-.126.296-.84-.592-1.133-1.226-1.469-1.056-.588-2.028-.671-3.085.126-1.268.923-2.324 1.847-2.155 3.652.211 2.182 1.226 3.735 3.17 4.785 1.225.671 2.45.923 3.719.126z" fill="#135F3C"/><path d="M62.566 9.152c-2.197-.797-4.353-1.51-6.128-2.14-1.056-.126-1.521.126-1.648.671-.169.588.338.966.845 1.05 2.282.335 1.818 1.636 1.437 3.231-.253 1.008-.76 1.847-1.014 2.813-.254.965-1.226 2.392.211 2.812 1.226.336 1.099-1.301 1.48-2.183.337-.84.887-1.637 1.014-2.476.253-2.015.718-3.4 3.127-2.14.507.251.972.251 1.226-.378.169-.588-.043-1.05-.55-1.26z" fill="#19603E"/><path d="M41.054 8.396c.212-.042.38-.42.507-.587.085-1.05-.634-1.133-1.225-.966-2.071.504-4.1 1.092-6.128 1.68-.719.21-1.437.587-1.057 1.468.296.714 1.014.504 1.564.252 1.986-.923 2.493.126 2.705 1.847.127.882.507 1.763.718 2.603.254.923-.422 2.728 1.31 2.392 1.31-.252.465-1.889.465-2.896 0-.504-.169-1.008-.338-1.47-.55-1.804-1.564-3.735 1.48-4.323z" fill="#1E6340"/><path d="M63.747 82.27c-3.677 1.47-7.523 2.435-11.368 3.485-.634.168-1.184.42-1.057 1.175.127.84.845.797 1.437.63 3.888-1.176 7.776-2.393 11.622-3.568.507-.168.888-.504 1.014-1.175-.253-.798-.93-.798-1.648-.546z" fill="#1C603E"/><path d="M21.531 16.288c-.295.251-.633.377-.676.587-.169.546.085.966.507 1.301 1.86 1.805 3.72 3.652 5.621 5.457.423.42.93 1.007 1.522.504.76-.63.253-1.26-.296-1.763-1.775-1.763-3.55-3.568-5.367-5.289-.38-.336-.846-.504-1.31-.797z" fill="#175F3D"/><path d="M14.728 18.26c.846.084 4.015-3.61 3.677-4.365-.169-.42-.591-.671-.93-.42-1.479 1.008-2.873 2.141-3.423 3.946-.084.336.17.84.676.84z" fill="#266546"/><path d="M45.96 85.335c-.972.336-2.874-.63-2.958 1.007-.085 1.511 1.775.882 2.705.84 1.014-.042 2.916.671 2.873-1.134-.042-1.343-1.648-.545-2.62-.713z" fill="#2D6A4A"/><path d="M82.01 20.275a151.11 151.11 0 0 1 1.987 3.568c.338.546.802 1.007 1.436.63.634-.378.38-1.05.17-1.595-.508-1.302-1.437-2.31-2.41-3.317-.253.462-.633.714-1.183.714z" fill="#2D6849"/><path d="M82.01 20.275c.55 0 .93-.252 1.184-.671-.508-.042-.972.126-1.184.671z" fill="#2D6849"/><path d="M67.004 35.26a.802.802 0 0 1-.338-.084c-.127.294-.212.545-.338.84.126.167.21.335.338.461.042-.042.042-.084.084-.126 1.902-.755 2.79-2.98 4.903-3.4-.465-.713-1.226-.923-1.944-1.175.803 2.476-.972 2.938-2.705 3.484z" fill="#1A613F"/><path d="M66.669 36.477c.042.084.127.168.169.252 2.24-.462 3.592-2.057 4.818-3.778-2.113.42-3 2.645-4.903 3.4-.042.042-.084.084-.084.126z" fill="#1A613F"/><path d="M66.834 34.84c-.042.126-.084.21-.127.336.127.042.212.042.339.084 1.732-.504 3.507-1.007 2.662-3.442.127 2.015-1.648 2.309-2.874 3.022zm-.252 32.446c.043 2.728 2.325 4.911 5.072 4.827 2.535-.042 4.057-1.72 4.015-4.323-.043-2.603-2.663-5.121-5.114-4.995-2.325.126-4.015 2.015-3.973 4.491zm7.185.63c.169 1.385-.592 2.392-2.113 2.392-1.944 0-3.043-1.133-3.17-2.98-.127-1.47.634-2.518 2.282-2.728 1.86.294 2.747 1.637 3 3.316z" fill="#1A613F"/><path d="M67.175 12.636c.507-.42 1.057-.84.592-1.427-.55-.714-1.31-.336-1.902.084-1.352 1.007-1.733 2.686-2.662 4.03-.719 1.09-2.494 2.056-1.522 3.567.972 1.553 2.79 2.225 4.184 2.518 1.733.168 2.705-.293 3.128-1.51.507-1.512-.043-2.897-1.31-3.694-1.86-1.092-2.41-2.141-.508-3.568zm.085 6.296c-.17.881-.888.84-1.353.588-.845-.378-2.113-.504-2.155-1.68-.042-.587.465-1.51 1.31-1.133.972.42 2.029.966 2.198 2.225z" fill="#175F3C"/><path d="M76.724 56.205c-2.578-.84-3.338 1.175-4.437 2.728-.55.755-1.268 1.595-.127 2.309 2.24 1.385 4.522 2.686 6.804 4.03.38.209.888.25 1.057-.21.127-.295.084-1.008-.043-1.05-2.535-1.175-2.408-2.98-1.436-4.66.126-1.762-.423-2.686-1.818-3.147zm.043 3.022c-.212.755-.465 1.553-1.48 1.637-.464-.336-1.352-.42-1.14-1.175.253-.798.591-1.847 1.774-1.763.719.042 1.015.63.846 1.3z" fill="#115E3B"/><path d="M59.987 30.307c-3.085 1.133-6.424 1.763-8.664 4.533-.042.042-.042.084-.084.126.422.462.76 1.008.887 1.68.803.377 1.564.797 2.367 1.174 1.437.042 2.874.042 4.31.084 1.269-.797.72-2.014.466-3.148 1.817-.042 2.535 1.47 3.803 1.847.507.294 1.014.63 1.522.924h.042c.422-.042.803.126 1.183.335l.085.084c.253-.42.422-.84.633-1.259-.169-.084-.295-.21-.422-.336-.423.504-.803-.042-1.014-.42-.38-.713.169-1.007.591-1.384-.591-.966-1.521-1.763-1.437-2.98-1.014.041-1.86-.504-2.831-.798-.465-.21-1.014-.588-1.437-.462zm-7.438 3.526c2.029-.084 3.423.168 4.606 1.889-2.197.797-3.254-.294-4.606-1.89zm11.2-.294c-1.903-.168-3.55-.126-4.692-2.183 1.986.084 3.466.42 4.691 2.183z" fill="#065C37"/><path d="M54.623 37.905c-.043-.042-.086-.042-.128-.085.042.043.085.085.128.085zm11.194-.043a1.707 1.707 0 0 0-1.183-.336h-.042c.084.042.169.126.253.168.212.252.423.462.677.714.126-.126.253-.294.38-.462-.042-.042-.042-.084-.085-.084zm-14.49-3.022c2.198-2.77 5.579-3.4 8.664-4.533.38-.126.972.252 1.437.378.93.294 1.775.84 2.831.797 0-.126.043-.252.043-.378-2.325-1.007-4.607-2.686-7.27-.797-1.352.965-2.62 1.973-4.521 1.889-1.353-.084-1.649 1.217-1.564 2.434.127.084.211.21.338.336 0-.042.042-.084.042-.126zm14.582 3.064c.295.252.718.42 1.014.672.169-.042.296-.168.423-.378.38-.63-.254-1.007-.508-1.469a.601.601 0 0 1-.253-.084c-.254.42-.423.881-.676 1.26z" fill="#065C37"/><path d="M65.527 38.366c.465 0 .972.336 1.394.21-.295-.252-.718-.42-1.014-.672a1.314 1.314 0 0 1-.38.462zm-1.269-6.842c-.085 1.218.845 2.057 1.437 2.98.169-.125.296-.293.338-.461a84.866 84.866 0 0 0-1.564-2.603c-.042.042-.127.042-.169.042 0 .042-.042.042-.042.042z" fill="#065C37"/><path d="M64.256 31.525h.043c.084 0 .126-.042.169-.042-.085-.126-.127-.21-.212-.336v.378zm2.287 5.12c.042-.042.042-.126.084-.168-.127-.168-.211-.336-.338-.462-.085.126-.127.21-.211.294.169.168.296.252.465.336zm.292.085c-.042-.085-.127-.169-.169-.253-.042.042-.084.084-.084.168.042.042.126.084.253.084z" fill="#065C37"/><path d="M36.493 37.904c.76 1.385 2.07 2.183 3.043 3.274.718.798 1.733 1.721.803 2.855-1.057 1.259-2.282.88-3.508.041-1.648-1.133-2.663-2.938-4.818-4.49 1.015 1.552 1.986 2.266 2.705 3.19 1.733 2.056 3.592 3.567 6.466 1.678 1.902-1.259 3.38.924 5.156.882h.211v-.168c-1.648-1.217-3.296-2.477-4.902-3.694-.972-.965-2.747-1.133-3.043-2.812l-.084-.084c-.803.168-1.268-.504-2.03-.672z" fill="#135D3B"/><path d="M46.552 45.376h-.212c-1.775.042-3.254-2.141-5.155-.882-2.874 1.889-4.734.378-6.467-1.679-.76-.923-1.732-1.637-2.704-3.19 2.113 1.553 3.17 3.358 4.818 4.491 1.225.84 2.493 1.176 3.507-.042.972-1.175-.042-2.056-.803-2.854-.972-1.091-2.324-1.847-3.043-3.274.719.168 1.226.84 1.987.756-.55-.504-1.099-1.05-1.69-1.511-.508-.42-1.057-1.26-1.776-.462-.634.714 0 1.26.508 1.805 1.183 1.133 2.408 2.183 3.465 3.4.423.504 2.155.797.76 1.973-.802.671-1.648.965-2.577-.168-1.353-1.637-3-2.98-4.438-4.533-.422-.462-.803-1.05-1.479-.588-.845.587-.338 1.385.085 1.847 1.479 1.637 3.212 3.064 4.648 4.743 1.226 1.385 2.325 1.679 3.973.713 1.564-.923 3.212-1.847 4.776.21.464.63 1.267.588 1.817-.126a1.562 1.562 0 0 0 0-.63z" fill="#135D3B"/><path d="M42.493 40.758c1.564.127 2.747 1.218 4.1 1.847 1.648.756 1.31 1.637.211 2.435 0 .042.042.042.042.084v.252c.761 0 1.522-.042 2.325.042-.719-2.603-1.86-4.995-3.762-7.01-.422-.42-.55-1.05-.295-1.679.042-.042.126-.084.169-.126-.127-.126-.254-.252-.38-.336-.508.378-.761.84-.846 1.47-.17 1.636-1.183 1.72-2.367 1.09-.972-.545-1.944-.755-2.958-.251-.042.042-.042.126-.084.168 1.479.252 2.746.965 3.845 2.014z" fill="#135F3C"/><path d="M41.644 38.786c1.184.63 2.198.587 2.367-1.092.084-.63.38-1.09.845-1.469-.127-.126-.253-.21-.38-.335-3.635-.336.465 2.56-2.155 3.106-.677.167-1.987-4.03-3.635-.462 1.014-.504 1.944-.294 2.958.252zm7.486 6.631c-.76-.084-1.522 0-2.325-.041 0 .21-.084.377-.21.545.929.84 1.774 0 2.62-.168 0-.126-.043-.21-.085-.336z" fill="#135F3C"/><path d="M46.846 45.124c0-.042-.043-.042-.043-.084-.084.042-.169.126-.253.168v.168h.296v-.252zm-.296.252c0 .168.042.378.042.546.127-.168.211-.336.211-.546h-.253zm1.267-5.079c-.93-1.133-2.324-1.93-2.493-3.61-.043-.042-.085-.042-.085-.084-.042.042-.127.084-.169.126-.254.63-.127 1.26.296 1.68 1.902 2.014 3.043 4.406 3.761 7.009.085 0 .127.042.212.084.591-2.015-.254-3.652-1.522-5.205z" fill="#135F3C"/><path d="M49.13 45.417l.128.38a.777.777 0 0 0 .084-.295.324.324 0 0 0-.211-.085z" fill="#135F3C"/><path d="M45.369 36.519c1.099-.714 1.986.126 2.578.881 2.282 3.023 4.902 2.729 7.733 1.302a.582.582 0 0 0-.169-.126c-.253 0-.464-.042-.718-.084-1.056-.21-2.029-.672-2.79-1.47a2.16 2.16 0 0 1-.295-.335c-.718 0-1.183-.378-1.352-1.133-1.733-.546-3.34.293-4.987.587v.378z" fill="#135D3B"/><path d="M45.326 36.141c1.648-.294 3.212-1.133 4.987-.587 0-.042-.043-.126-.043-.168-.55-.798-1.056-3.19-2.113-1.134-.93 1.847-1.268.756-2.113.462-1.14-.42-1.352.42-1.563 1.218.507-.168.76-.085.845.21zm6.337.546c.085.126.17.252.296.336.803.755 1.733 1.217 2.79 1.469.253.042.464.042.718.084-.296-.21-.592-.42-.846-.63-.042-.042-.084-.042-.126-.084-.803-.378-1.564-.797-2.367-1.175h-.465z" fill="#135D3B"/><path d="M47.947 37.358c-.55-.755-1.437-1.553-2.578-.881v.168c2.324.84 3.592 3.106 5.705 4.197.718.378 1.944 1.008 1.902.084-.042-2.308.93-1.133 1.817-.881.845.252 1.395-.042 1.437-.966-.211-.126-.38-.294-.592-.42-2.831 1.428-5.451 1.721-7.691-1.3zm-2.627-1.217c-.127.042-.297.042-.423.042l-.042.042c.126.127.253.253.38.337.042-.042.084-.042.127-.084 0-.126 0-.253-.043-.337z" fill="#135D3B"/><path d="M44.903 36.184c.127 0 .296-.042.423-.042-.085-.294-.338-.379-.846-.21.127.126.254.21.38.336 0-.042.043-.042.043-.084zm.467.335c-.042.042-.085.042-.127.084.042.043.085.043.085.085.042-.085.042-.127.042-.169z" fill="#135D3B"/><path d="M62.484 38.156c-3.677 2.645-7.227 5.54-11.157 7.808-.17.084-.338.21-.507.335 1.014.252 1.775-.671 2.535-1.175 3.804-2.309 7.016-5.457 10.989-7.513a4.626 4.626 0 0 1-1.268-.294c-.043.378-.296.63-.592.84z" fill="#19603D"/><path d="M53.398 45.166c-.803.461-1.521 1.385-2.536 1.175-.422.252-.845.378-1.267-.294-.17 2.687 1.394 1.68 2.409.966 4.353-3.023 8.621-6.17 12.89-9.277-.17 0-.339-.042-.508-.042-3.972 2.015-7.184 5.163-10.988 7.472zm9.72-7.807c.423.168.845.252 1.268.294.084-.042.169-.084.211-.126-.507-.294-1.014-.63-1.521-.924.127.294.127.504.042.756z" fill="#19603D"/><path d="M64.385 37.653c.169 0 .338.042.507.042-.085-.042-.17-.126-.254-.169l-.253.127zm-1.9.503c.296-.21.55-.503.634-.84a3.873 3.873 0 0 1-.591-.293c-4.015 3.19-7.988 6.464-12.594 8.772.084.042.169.126.253.21.254.168.465.252.676.294.17-.126.338-.252.508-.336 3.888-2.266 7.438-5.12 11.114-7.807z" fill="#19603D"/><path d="M50.817 46.341a1.841 1.841 0 0 1-.676-.294c-.084-.084-.17-.126-.254-.21-.126.042-.253.126-.338.168.423.714.888.588 1.268.336zm12.301-8.982c.085-.21.085-.462-.042-.756-.169.168-.38.294-.55.462.212.126.381.21.592.294z" fill="#19603D"/><path d="M56.023 38.62c0-.043-.044-.043-.088-.086l.088.086z" fill="#ABBEB2"/><path d="M38.562 38.702s.046.046 0 0c.046.046.046.046 0 0z" fill="#E7ECE9"/></svg>