<svg width="45" height="44" fill="none" xmlns="http://www.w3.org/2000/svg"><path d="M44.5 0H0v44h44.5V0z" fill="#55ACEE"/><path d="M35 15.13a9.706 9.706 0 0 1-2.71.716 4.593 4.593 0 0 0 2.075-2.514 9.669 9.669 0 0 1-2.997 1.103A4.798 4.798 0 0 0 27.924 13c-2.606 0-4.719 2.034-4.719 4.544 0 .356.042.703.122 1.036-3.922-.19-7.399-1.999-9.726-4.748a4.396 4.396 0 0 0-.639 2.284c0 1.577.833 2.968 2.1 3.782a4.836 4.836 0 0 1-2.138-.568v.057c0 2.202 1.626 4.038 3.785 4.456a4.895 4.895 0 0 1-2.131.078c.6 1.805 2.343 3.119 4.408 3.156a9.701 9.701 0 0 1-5.86 1.945c-.381 0-.757-.021-1.126-.063A13.73 13.73 0 0 0 19.233 31c8.68 0 13.426-6.924 13.426-12.93 0-.196-.004-.392-.014-.587A9.392 9.392 0 0 0 35 15.13z" fill="#fff"/></svg>