<svg width="109" height="106" viewBox="0 0 109 106" fill="none" xmlns="http://www.w3.org/2000/svg">
<g id="white-cone">
<path d="M0 0.0917735C0 0.367128 0 0.550697 0 0.734266C0 3.80905 0 6.88384 0 9.98157C5.59368 9.98157 10.1489 5.55296 10.1489 0.11472C10.1489 0.0917735 10.1489 0.0688273 10.1489 0.0458811C7.0098 0.0458811 3.87073 0.0458811 0.731662 0.0458811C0.519244 0.0458811 0.306826 0.0688273 0 0.0917735Z" fill="white"/>
<path d="M13.4531 0.114697C13.4531 7.3198 7.41103 13.194 0 13.194C0 15.9476 0 18.7011 0 21.4546C12.1078 21.4546 21.9499 11.8861 21.9499 0.114697C21.9499 0.0917511 21.9499 0.0458587 21.9499 0.0229126C19.1176 0.0229126 16.2854 0.0229126 13.4531 0.0458587C13.4531 0.0458587 13.4531 0.0917511 13.4531 0.114697Z" fill="white"/>
<path d="M25.2542 0.114731C25.2542 13.653 13.9252 24.6671 0 24.6671C0 27.4207 0 30.1742 0 32.9278C18.5984 32.9278 33.7509 18.1963 33.7509 0.114731C33.7509 0.0688385 33.7509 0.0458923 33.7509 0C30.9186 0 28.0864 0 25.2542 0C25.2542 0.0458923 25.2542 0.0688385 25.2542 0.114731Z" fill="white"/>
<path d="M37.0552 0.114731C37.0552 19.9861 20.4393 36.1402 0 36.1402C0 38.8938 0 41.6473 0 44.4008C25.1125 44.4008 45.5519 24.5295 45.5519 0.114731C45.5519 0.0917847 45.5519 0.0688385 45.5519 0.0229462C42.7196 0.0229462 39.8874 0 37.0552 0C37.0552 0.0458923 37.0552 0.0688385 37.0552 0.114731Z" fill="white"/>
<path d="M108.428 45.4564C108.215 43.9878 107.932 42.5192 107.554 41.0507C106.799 37.9071 105.784 34.9011 104.533 32.0558C103.495 35.2683 102.291 38.4578 100.922 41.5785C95.3993 54.2677 87.5163 65.649 77.4382 75.4241C67.3601 85.1991 55.6535 92.8861 42.6252 98.2555C39.439 99.5634 36.2055 100.734 32.9248 101.72C37.2912 103.556 41.9172 104.818 46.7792 105.461C74.3699 93.8498 96.5322 72.2804 108.428 45.4564Z" fill="white"/>
<path d="M102.386 27.719C100.238 23.887 97.6179 20.3533 94.4789 17.0949C93.2279 23.7263 91.2218 30.2201 88.5075 36.4844C83.6691 47.6133 76.7537 57.5949 67.9266 66.1768C59.0994 74.7586 48.8326 81.4819 37.3856 86.1858C30.9894 88.8246 24.3573 90.7521 17.5835 91.9683C18.0083 92.3583 18.4332 92.7255 18.8816 93.0926C21.9263 95.6626 25.1597 97.8425 28.5348 99.6323C64.2683 89.9261 92.4727 62.4824 102.386 27.719Z" fill="white"/>
<path d="M85.8169 83.5241C76.3289 92.7485 65.5192 100.275 53.5766 105.988C59.2647 106.103 64.8347 105.369 70.2868 103.74C81.3089 100.458 90.3957 94.3547 97.4763 85.5434C103.235 78.3841 106.846 70.3071 108.31 61.3122C108.805 58.2145 109.041 55.1167 108.994 52.0419C103.117 63.6986 95.3285 74.2538 85.8169 83.5241Z" fill="white"/>
<path d="M57.3529 0.137643C56.6684 0.114697 55.984 0.0917511 55.2995 0.0688049C53.1517 0.0458587 51.0039 0.0229126 48.8562 0.0229126C48.8562 0.0458587 48.8562 0.0688049 48.8562 0.0917511C48.8562 26.2733 26.9535 47.5903 0 47.5903C0 49.5178 0 51.4223 0 53.3498C0 54.1759 0.023602 55.0249 0.070806 55.851C31.6503 55.828 57.3293 30.8396 57.3529 0.137643Z" fill="white"/>
<path d="M91.5994 14.2955C91.387 14.089 91.1509 13.9054 90.9385 13.6989C88.6491 11.7025 86.2889 9.93569 83.8343 8.37535C83.0083 16.5212 80.9313 24.4377 77.627 31.987C73.3786 41.7391 67.3129 50.5045 59.5715 58.0309C51.83 65.5572 42.814 71.4544 32.7832 75.5847C25.0417 78.7742 16.9226 80.7935 8.59111 81.5966C10.3613 84.2813 12.391 86.7824 14.6804 89.1459C54.1194 83.0422 85.3449 52.6615 91.5994 14.2955Z" fill="white"/>
<path d="M80.6953 6.53965C78.0283 5.09404 75.2668 3.87789 72.411 2.91415C71.7029 20.6745 64.2447 37.2875 51.24 49.9309C38.2825 62.5283 21.2654 69.7564 3.06826 70.4906C4.08315 73.313 5.28685 75.9977 6.72657 78.5447C46.0475 75.3782 77.4854 44.768 80.6953 6.53965Z" fill="white"/>
<path d="M69.1303 1.92747C66.3925 1.19319 63.5602 0.688374 60.6572 0.390074C60.5864 16.0394 54.2846 30.7479 42.8849 41.8079C31.5087 52.868 16.427 58.9946 0.35403 59.0864C0.613652 61.2663 1.01489 63.4462 1.55773 65.6031C1.69934 66.1768 1.86456 66.7504 2.02977 67.3241C38.6129 66.2685 68.1626 37.494 69.1303 1.92747Z" fill="white"/>
</g>
</svg>
