<svg width="218" height="218" fill="none" xmlns="http://www.w3.org/2000/svg"><path d="M72.025 0H53.901l11.044 29.73L0 53.892v18.122l86.799-32.279L72.025 0z" fill="#FABB2B"/><path d="M72.025 0H53.901l11.044 29.73L0 53.892v18.122l86.799-32.279L72.025 0z" fill="url(#paint0_radial)"/><path d="M122.717.944c-3.965-.472-8.024-.708-12.13-.755-2.124 0-4.201-.047-6.325-.047l21.334 57.384L0 104.245v5.569c0 4.106.236 8.211.755 12.317L147.45 67.578 122.717.944z" fill="#FABB2B"/><path d="M122.717.944c-3.965-.472-8.024-.708-12.13-.755-2.124 0-4.201-.047-6.325-.047l21.334 57.384L0 104.245v5.569c0 4.106.236 8.211.755 12.317L147.45 67.578 122.717.944z" fill="url(#paint1_radial)"/><path d="M0 .189V21.66l26.1-9.72L21.665.046H1.416C1.038.094.614.142 0 .19z" fill="#FABB2B"/><path d="M0 .189V21.66l26.1-9.72L21.665.046H1.416C1.038.094.614.142 0 .19z" fill="url(#paint2_radial)"/><path d="M46.821 0C40.78 0 34.738 0 28.697.047L34.55 15.81 0 28.692v18.122l56.45-21L46.82 0z" fill="#FABB2B"/><path d="M46.821 0C40.78 0 34.738 0 28.697.047L34.55 15.81 0 28.692v18.122l56.45-21L46.82 0z" fill="url(#paint3_radial)"/><path d="M150.611 8.211c-6.513-2.737-13.357-4.766-20.39-6.087l25.771 69.324-154.198 57.29c.377 2.076.85 4.105 1.321 6.182.897 3.539 1.888 6.984 3.068 10.335l171.615-63.803-27.187-73.24z" fill="#FABB2B"/><path d="M150.611 8.211c-6.513-2.737-13.357-4.766-20.39-6.087l25.771 69.324-154.198 57.29c.377 2.076.85 4.105 1.321 6.182.897 3.539 1.888 6.984 3.068 10.335l171.615-63.803-27.187-73.24z" fill="url(#paint4_radial)"/><path d="M97.23.094C91.188.047 85.147.047 79.058.047l16.236 43.605L0 79.045v18.122l117.1-43.558L97.23.094z" fill="#FABB2B"/><path d="M97.23.094C91.188.047 85.147.047 79.058.047l16.236 43.605L0 79.045v18.122l117.1-43.558L97.23.094z" fill="url(#paint5_radial)"/><path d="M101.053 217.693c.519.047 1.085.094 1.652.094 12.885.803 25.534-.66 37.9-4.483 17.653-5.427 32.756-14.535 45.405-27.229l-84.957 31.618z" fill="#FABB2B"/><path d="M101.053 217.693c.519.047 1.085.094 1.652.094 12.885.803 25.534-.66 37.9-4.483 17.653-5.427 32.756-14.535 45.405-27.229l-84.957 31.618z" fill="url(#paint6_radial)"/><path d="M183.887 30.06c-.661-.613-1.322-1.273-2.03-1.887-7.127-6.418-14.726-11.75-22.75-15.95l27.187 73.052L8.543 151.341a102.636 102.636 0 0 0 7.835 15.196l191.769-71.259-24.26-65.218z" fill="#FABB2B"/><path d="M183.887 30.06c-.661-.613-1.322-1.273-2.03-1.887-7.127-6.418-14.726-11.75-22.75-15.95l27.187 73.052L8.543 151.341a102.636 102.636 0 0 0 7.835 15.196l191.769-71.259-24.26-65.218z" fill="url(#paint7_radial)"/><path d="M209.043 152.38L61.547 207.217c8.071 3.964 16.614 6.795 25.582 8.588l108.038-40.159c5.664-7.268 10.289-15.054 13.876-23.266z" fill="#FABB2B"/><path d="M209.043 152.38L61.547 207.217c8.071 3.964 16.614 6.795 25.582 8.588l108.038-40.159c5.664-7.268 10.289-15.054 13.876-23.266z" fill="url(#paint8_radial)"/><path d="M216.595 126.095c.095-.614.189-1.227.283-1.793L37.334 191.03c.142.142.283.236.425.378 5.145 4.436 10.478 8.305 16.048 11.609l158.352-58.895c1.982-5.805 3.492-11.798 4.436-18.027z" fill="#FABB2B"/><path d="M216.595 126.095c.095-.614.189-1.227.283-1.793L37.334 191.03c.142.142.283.236.425.378 5.145 4.436 10.478 8.305 16.048 11.609l158.352-58.895c1.982-5.805 3.492-11.798 4.436-18.027z" fill="url(#paint9_radial)"/><path d="M215.132 84.378c-3.634-15.337-10.053-29.07-19.257-41.104l20.767 55.875-196.44 73.099c3.492 4.861 7.41 9.438 11.752 13.78l185.774-69.088c.755-10.901-.047-21.755-2.596-32.562z" fill="#FABB2B"/><path d="M215.132 84.378c-3.634-15.337-10.053-29.07-19.257-41.104l20.767 55.875-196.44 73.099c3.492 4.861 7.41 9.438 11.752 13.78l185.774-69.088c.755-10.901-.047-21.755-2.596-32.562z" fill="url(#paint10_radial)"/><defs><radialGradient id="paint0_radial" cx="0" cy="0" r="1" gradientUnits="userSpaceOnUse" gradientTransform="rotate(44.992) scale(308.373 308.29)"><stop stop-color="#fff"/><stop offset="0" stop-color="#fff" stop-opacity=".4"/><stop offset=".961" stop-color="#fff" stop-opacity="0"/></radialGradient><radialGradient id="paint1_radial" cx="0" cy="0" r="1" gradientUnits="userSpaceOnUse" gradientTransform="rotate(44.992) scale(308.373 308.29)"><stop stop-color="#fff"/><stop offset="0" stop-color="#fff" stop-opacity=".4"/><stop offset=".961" stop-color="#fff" stop-opacity="0"/></radialGradient><radialGradient id="paint2_radial" cx="0" cy="0" r="1" gradientUnits="userSpaceOnUse" gradientTransform="rotate(44.992) scale(308.373 308.29)"><stop stop-color="#fff"/><stop offset="0" stop-color="#fff" stop-opacity=".4"/><stop offset=".961" stop-color="#fff" stop-opacity="0"/></radialGradient><radialGradient id="paint3_radial" cx="0" cy="0" r="1" gradientUnits="userSpaceOnUse" gradientTransform="rotate(44.992) scale(308.373 308.29)"><stop stop-color="#fff"/><stop offset="0" stop-color="#fff" stop-opacity=".4"/><stop offset=".961" stop-color="#fff" stop-opacity="0"/></radialGradient><radialGradient id="paint4_radial" cx="0" cy="0" r="1" gradientUnits="userSpaceOnUse" gradientTransform="rotate(44.992) scale(308.373 308.29)"><stop stop-color="#fff"/><stop offset="0" stop-color="#fff" stop-opacity=".4"/><stop offset=".961" stop-color="#fff" stop-opacity="0"/></radialGradient><radialGradient id="paint5_radial" cx="0" cy="0" r="1" gradientUnits="userSpaceOnUse" gradientTransform="rotate(44.992) scale(308.373 308.29)"><stop stop-color="#fff"/><stop offset="0" stop-color="#fff" stop-opacity=".4"/><stop offset=".961" stop-color="#fff" stop-opacity="0"/></radialGradient><radialGradient id="paint6_radial" cx="0" cy="0" r="1" gradientUnits="userSpaceOnUse" gradientTransform="rotate(44.992) scale(308.373 308.29)"><stop stop-color="#fff"/><stop offset="0" stop-color="#fff" stop-opacity=".4"/><stop offset=".961" stop-color="#fff" stop-opacity="0"/></radialGradient><radialGradient id="paint7_radial" cx="0" cy="0" r="1" gradientUnits="userSpaceOnUse" gradientTransform="rotate(44.992) scale(308.373 308.29)"><stop stop-color="#fff"/><stop offset="0" stop-color="#fff" stop-opacity=".4"/><stop offset=".961" stop-color="#fff" stop-opacity="0"/></radialGradient><radialGradient id="paint8_radial" cx="0" cy="0" r="1" gradientUnits="userSpaceOnUse" gradientTransform="rotate(44.992) scale(308.373 308.29)"><stop stop-color="#fff"/><stop offset="0" stop-color="#fff" stop-opacity=".4"/><stop offset=".961" stop-color="#fff" stop-opacity="0"/></radialGradient><radialGradient id="paint9_radial" cx="0" cy="0" r="1" gradientUnits="userSpaceOnUse" gradientTransform="rotate(44.992) scale(308.373 308.29)"><stop stop-color="#fff"/><stop offset="0" stop-color="#fff" stop-opacity=".4"/><stop offset=".961" stop-color="#fff" stop-opacity="0"/></radialGradient><radialGradient id="paint10_radial" cx="0" cy="0" r="1" gradientUnits="userSpaceOnUse" gradientTransform="rotate(44.992) scale(308.373 308.29)"><stop stop-color="#fff"/><stop offset="0" stop-color="#fff" stop-opacity=".4"/><stop offset=".961" stop-color="#fff" stop-opacity="0"/></radialGradient></defs></svg>