<svg width="167" height="167" fill="none" xmlns="http://www.w3.org/2000/svg"><path d="M0 .145v15.581c8.57 0 15.55-6.977 15.55-15.545V.072H1.12C.796.072.471.108 0 .145z" fill="#022169"/><path d="M0 .145v15.581c8.57 0 15.55-6.977 15.55-15.545V.072H1.12C.796.072.471.108 0 .145z" fill="url(#paint0_radial)"/><path d="M20.612.18c0 11.352-9.257 20.607-20.612 20.607V33.8c18.55 0 33.63-15.075 33.63-33.62V.036c-4.34 0-8.679 0-13.018.036v.109z" fill="#022169"/><path d="M20.612.18c0 11.352-9.257 20.607-20.612 20.607V33.8c18.55 0 33.63-15.075 33.63-33.62V.036c-4.34 0-8.679 0-13.018.036v.109z" fill="url(#paint1_radial)"/><path d="M38.692.18c0 21.33-17.357 38.682-38.692 38.682v13.015c28.495 0 51.71-23.21 51.71-51.696V0H38.692v.18z" fill="#022169"/><path d="M38.692.18c0 21.33-17.357 38.682-38.692 38.682v13.015c28.495 0 51.71-23.21 51.71-51.696V0H38.692v.18z" fill="url(#paint2_radial)"/><path d="M56.773.18c0 31.308-25.458 56.758-56.773 56.758v13.014c38.475 0 69.79-31.306 69.79-69.771V.036C65.451.036 61.112 0 56.773 0v.18z" fill="#022169"/><path d="M56.773.18c0 31.308-25.458 56.758-56.773 56.758v13.014c38.475 0 69.79-31.306 69.79-69.771V.036C65.451.036 61.112 0 56.773 0v.18z" fill="url(#paint3_radial)"/><path d="M166.123 71.615a66.827 66.827 0 0 0-1.338-6.94 85.557 85.557 0 0 0-4.628-14.172 162.814 162.814 0 0 1-5.533 15.003c-8.462 19.991-20.539 37.922-35.98 53.322-15.441 15.401-33.377 27.511-53.338 35.971-4.881 2.06-9.835 3.904-14.862 5.459a80.666 80.666 0 0 0 21.227 5.892c42.272-18.292 76.227-52.274 94.452-94.535z" fill="#022169"/><path d="M166.123 71.615a66.827 66.827 0 0 0-1.338-6.94 85.557 85.557 0 0 0-4.628-14.172 162.814 162.814 0 0 1-5.533 15.003c-8.462 19.991-20.539 37.922-35.98 53.322-15.441 15.401-33.377 27.511-53.338 35.971-4.881 2.06-9.835 3.904-14.862 5.459a80.666 80.666 0 0 0 21.227 5.892c42.272-18.292 76.227-52.274 94.452-94.535z" fill="url(#paint4_radial)"/><path d="M156.866 43.67a81.199 81.199 0 0 0-12.114-16.738c-1.917 10.448-4.99 20.679-9.149 30.548-7.413 17.533-18.008 33.26-31.532 46.78-13.524 13.52-29.254 24.112-46.792 31.523a145.001 145.001 0 0 1-30.34 9.11 46.42 46.42 0 0 0 1.99 1.772c4.665 4.049 9.619 7.483 14.79 10.303 54.747-15.292 97.959-58.529 113.147-113.297z" fill="#022169"/><path d="M156.866 43.67a81.199 81.199 0 0 0-12.114-16.738c-1.917 10.448-4.99 20.679-9.149 30.548-7.413 17.533-18.008 33.26-31.532 46.78-13.524 13.52-29.254 24.112-46.792 31.523a145.001 145.001 0 0 1-30.34 9.11 46.42 46.42 0 0 0 1.99 1.772c4.665 4.049 9.619 7.483 14.79 10.303 54.747-15.292 97.959-58.529 113.147-113.297z" fill="url(#paint5_radial)"/><path d="M131.481 131.59c-14.537 14.533-31.098 26.39-49.396 35.392 8.715.18 17.249-.976 25.602-3.543 16.887-5.17 30.809-14.786 41.657-28.668 8.824-11.279 14.356-24.004 16.598-38.175.76-4.88 1.121-9.761 1.049-14.605-9.004 18.364-20.937 34.994-35.51 49.599z" fill="#022169"/><path d="M131.481 131.59c-14.537 14.533-31.098 26.39-49.396 35.392 8.715.18 17.249-.976 25.602-3.543 16.887-5.17 30.809-14.786 41.657-28.668 8.824-11.279 14.356-24.004 16.598-38.175.76-4.88 1.121-9.761 1.049-14.605-9.004 18.364-20.937 34.994-35.51 49.599z" fill="url(#paint6_radial)"/><path d="M87.87.217L84.726.108a902.27 902.27 0 0 0-9.872-.072v.109c0 41.248-33.557 74.832-74.853 74.832v9.074c0 1.302.036 2.64.108 3.94C48.492 87.956 87.835 48.588 87.871.218z" fill="#022169"/><path d="M87.87.217L84.726.108a902.27 902.27 0 0 0-9.872-.072v.109c0 41.248-33.557 74.832-74.853 74.832v9.074c0 1.302.036 2.64.108 3.94C48.492 87.956 87.835 48.588 87.871.218z" fill="url(#paint7_radial)"/><path d="M140.34 22.522c-.325-.325-.687-.614-1.012-.94a90.224 90.224 0 0 0-10.885-8.387 126.335 126.335 0 0 1-9.51 37.2A128.783 128.783 0 0 1 91.27 91.426a128.832 128.832 0 0 1-41.043 27.656 126.886 126.886 0 0 1-37.064 9.471c2.712 4.23 5.821 8.17 9.329 11.894 60.425-9.616 108.266-57.48 117.848-117.925z" fill="#022169"/><path d="M140.34 22.522c-.325-.325-.687-.614-1.012-.94a90.224 90.224 0 0 0-10.885-8.387 126.335 126.335 0 0 1-9.51 37.2A128.783 128.783 0 0 1 91.27 91.426a128.832 128.832 0 0 1-41.043 27.656 126.886 126.886 0 0 1-37.064 9.471c2.712 4.23 5.821 8.17 9.329 11.894 60.425-9.616 108.266-57.48 117.848-117.925z" fill="url(#paint8_radial)"/><path d="M123.634 10.303a79.782 79.782 0 0 0-12.692-5.712c-1.085 27.981-12.512 54.154-32.437 74.074-19.852 19.847-45.924 31.234-73.804 32.391 1.555 4.447 3.399 8.676 5.605 12.689 60.244-4.989 108.41-53.214 113.328-113.442z" fill="#022169"/><path d="M123.634 10.303a79.782 79.782 0 0 0-12.692-5.712c-1.085 27.981-12.512 54.154-32.437 74.074-19.852 19.847-45.924 31.234-73.804 32.391 1.555 4.447 3.399 8.676 5.605 12.689 60.244-4.989 108.41-53.214 113.328-113.442z" fill="url(#paint9_radial)"/><path d="M105.915 3.037C101.721 1.88 97.381 1.085 92.933.615c-.108 24.655-9.763 47.827-27.229 65.252C48.274 83.292 25.168 92.944.542 93.09a83.76 83.76 0 0 0 1.845 10.267c.217.904.47 1.807.723 2.711 56.05-1.663 101.323-46.996 102.805-103.03z" fill="#022169"/><path d="M105.915 3.037C101.721 1.88 97.381 1.085 92.933.615c-.108 24.655-9.763 47.827-27.229 65.252C48.274 83.292 25.168 92.944.542 93.09a83.76 83.76 0 0 0 1.845 10.267c.217.904.47 1.807.723 2.711 56.05-1.663 101.323-46.996 102.805-103.03z" fill="url(#paint10_radial)"/><defs><radialGradient id="paint0_radial" cx="0" cy="0" r="1" gradientUnits="userSpaceOnUse" gradientTransform="matrix(167.06328 167.0178 -166.97255 167.01802 0 0)"><stop stop-color="#fff"/><stop offset="0" stop-color="#fff" stop-opacity=".4"/><stop offset=".961" stop-color="#fff" stop-opacity="0"/></radialGradient><radialGradient id="paint1_radial" cx="0" cy="0" r="1" gradientUnits="userSpaceOnUse" gradientTransform="matrix(167.06328 167.0178 -166.97255 167.01802 0 0)"><stop stop-color="#fff"/><stop offset="0" stop-color="#fff" stop-opacity=".4"/><stop offset=".961" stop-color="#fff" stop-opacity="0"/></radialGradient><radialGradient id="paint2_radial" cx="0" cy="0" r="1" gradientUnits="userSpaceOnUse" gradientTransform="matrix(167.06328 167.0178 -166.97255 167.01802 0 0)"><stop stop-color="#fff"/><stop offset="0" stop-color="#fff" stop-opacity=".4"/><stop offset=".961" stop-color="#fff" stop-opacity="0"/></radialGradient><radialGradient id="paint3_radial" cx="0" cy="0" r="1" gradientUnits="userSpaceOnUse" gradientTransform="matrix(167.06328 167.0178 -166.97255 167.01802 0 0)"><stop stop-color="#fff"/><stop offset="0" stop-color="#fff" stop-opacity=".4"/><stop offset=".961" stop-color="#fff" stop-opacity="0"/></radialGradient><radialGradient id="paint4_radial" cx="0" cy="0" r="1" gradientUnits="userSpaceOnUse" gradientTransform="matrix(167.06328 167.0178 -166.97255 167.01802 0 0)"><stop stop-color="#fff"/><stop offset="0" stop-color="#fff" stop-opacity=".4"/><stop offset=".961" stop-color="#fff" stop-opacity="0"/></radialGradient><radialGradient id="paint5_radial" cx="0" cy="0" r="1" gradientUnits="userSpaceOnUse" gradientTransform="matrix(167.06328 167.0178 -166.97255 167.01802 0 0)"><stop stop-color="#fff"/><stop offset="0" stop-color="#fff" stop-opacity=".4"/><stop offset=".961" stop-color="#fff" stop-opacity="0"/></radialGradient><radialGradient id="paint6_radial" cx="0" cy="0" r="1" gradientUnits="userSpaceOnUse" gradientTransform="matrix(167.06328 167.0178 -166.97255 167.01802 0 0)"><stop stop-color="#fff"/><stop offset="0" stop-color="#fff" stop-opacity=".4"/><stop offset=".961" stop-color="#fff" stop-opacity="0"/></radialGradient><radialGradient id="paint7_radial" cx="0" cy="0" r="1" gradientUnits="userSpaceOnUse" gradientTransform="matrix(167.06328 167.0178 -166.97255 167.01802 0 0)"><stop stop-color="#fff"/><stop offset="0" stop-color="#fff" stop-opacity=".4"/><stop offset=".961" stop-color="#fff" stop-opacity="0"/></radialGradient><radialGradient id="paint8_radial" cx="0" cy="0" r="1" gradientUnits="userSpaceOnUse" gradientTransform="matrix(167.06328 167.0178 -166.97255 167.01802 0 0)"><stop stop-color="#fff"/><stop offset="0" stop-color="#fff" stop-opacity=".4"/><stop offset=".961" stop-color="#fff" stop-opacity="0"/></radialGradient><radialGradient id="paint9_radial" cx="0" cy="0" r="1" gradientUnits="userSpaceOnUse" gradientTransform="matrix(167.06328 167.0178 -166.97255 167.01802 0 0)"><stop stop-color="#fff"/><stop offset="0" stop-color="#fff" stop-opacity=".4"/><stop offset=".961" stop-color="#fff" stop-opacity="0"/></radialGradient><radialGradient id="paint10_radial" cx="0" cy="0" r="1" gradientUnits="userSpaceOnUse" gradientTransform="matrix(167.06328 167.0178 -166.97255 167.01802 0 0)"><stop stop-color="#fff"/><stop offset="0" stop-color="#fff" stop-opacity=".4"/><stop offset=".961" stop-color="#fff" stop-opacity="0"/></radialGradient></defs></svg>