<svg width="21" height="66" fill="none" xmlns="http://www.w3.org/2000/svg"><path d="M10.552 7.085c-2.586 0-4.3-.35-4.397-.382l.388-1.88c.033 0 3.395.701 7.824.064l.291 1.88c-1.487.255-2.877.318-4.106.318zm4.687 56.745a.996.996 0 0 1-.42-.096.949.949 0 0 1-.453-1.274c.355-.701.743-2.677.873-3.728a.954.954 0 0 1 1.099-.797c.517.064.905.574.808 1.084-.032.318-.453 3.09-1.067 4.3-.13.32-.485.51-.84.51z" fill="#D6D6D6"/><path d="M12.555 65.454c-1.422 0-2.036-.669-2.521-1.242-.162-.191-.324-.382-.55-.542-.388-.287-1.067.191-1.067.223-.13.096-.647.478-.938.67-.646.541-1.972 1.114-4.3-.638-1.196-.956-2.004-2.676-2.392-5.13-.032-.095-.485-2.867.097-4.747.065-.286.13-.541.13-.764l-.13-18.161c0-.127-.032-.255-.097-.446 0-.032-.032-.032-.032-.064-.388-1.306-.291-2.485.355-4.206.55-1.433.324-2.612.065-3.058-.259-.542-.485-1.083-.614-1.593v-.032c-.518-2.294-.97-7.041 1.972-13.127.065-.127 1.325-2.612 3.233-4.62.065-.063.065-.127.065-.127v-.16l-.065-.031c-.032 0-.065-.032-.097-.032-.42-.223-.647-.67-.55-1.115.033-.16.13-.319.227-.446a.903.903 0 0 1-.065-.287c-.162-1.434-.032-3.154.097-3.632C5.637 1.19 6.638.968 7.027.904c.42-.095 2.877-.318 3.427-.35.485-.032 1.1.032 1.94.095.258.032.582.032.905.064 1.843.128 2.134 1.052 2.199 1.434.226 1.466.226 2.74.064 3.696-.032.127-.064.255-.13.35.066.128.13.255.162.383.065.446-.129.86-.517 1.083v.16c0 .063.065.19.13.286 1.745 1.975 2.845 4.429 2.91 4.524 2.521 5.64 2.327 10.1 1.745 12.84-.097.446-.29.988-.55 1.561-.161.383-.387 1.53.065 3.123.485 1.688.55 2.835.291 3.982a2.119 2.119 0 0 0-.097.542l.42 18.033c0 .319.033.605.162.956.033.096.065.223.097.382.162.67.323 1.498.291 1.944-.162 5.289-.679 6.531-2.198 7.55-.873.606-1.843.574-2.522.447a3.523 3.523 0 0 1-2.522 1.434h-.097c-.065 0-.162.031-.29.031h-.357zm-3.33-3.79c.485 0 1.003.127 1.488.509.355.255.582.541.808.796.42.478.55.606 1.228.574h.097c.065 0 .13-.032.227-.032a1.668 1.668 0 0 0 1.293-.956c.065-.127.13-.223.226-.318l.033-.032a1.02 1.02 0 0 1 .194-.16.922.922 0 0 1 .905-.095s.937.35 1.487-.032c.647-.446 1.196-.828 1.358-6.054v-.063c0-.128-.097-.797-.226-1.37-.033-.064-.033-.128-.065-.223-.162-.542-.259-1.02-.259-1.53l-.42-18.033c0-.382.097-.733.162-1.02.161-.669.161-1.465-.291-3.058-.55-1.976-.324-3.569.064-4.397.227-.478.356-.828.42-1.179.453-2.007.809-6.213-1.616-11.66 0 0-1.067-2.327-2.619-4.08l-.064-.063c-.13-.16-.518-.733-.518-1.402v-.732c0-.064 0-.128.033-.224-.033-.095-.033-.19-.065-.286l-.032-.478v-.064c0-.446.258-.796.646-.988.065-.637.033-1.465-.097-2.39a1.357 1.357 0 0 0-.452-.063c-.324-.032-.647-.064-.906-.064a21.215 21.215 0 0 0-1.68-.095c-.615.032-2.878.255-3.17.287-.096.095-.16.095-.225.127-.065.446-.13 1.434-.065 2.326.323.191.517.541.517.924v.637c.065.127.065.255.065.414v.733c0 .51-.194.956-.55 1.402l-.032.032c-1.714 1.816-2.91 4.142-2.91 4.173-2.651 5.512-2.263 9.75-1.81 11.82.097.383.258.797.485 1.212.484.956.743 2.676 0 4.588-.55 1.465-.518 2.198-.324 2.963.13.382.194.733.194 1.051l.13 18.16c0 .415-.065.83-.194 1.307-.388 1.243-.162 3.25-.033 3.919.291 1.944.873 3.314 1.681 3.919.97.733 1.65.892 1.843.7.065-.063.13-.095.162-.127.032 0 .032-.032.065-.032.129-.063.614-.414.776-.541.387-.319 1.163-.733 2.036-.733zm5.076 1.114z" fill="#D6D6D6"/><path d="M15.046 31.395c-.905 0-1.584-.16-2.328-.35-.84-.191-1.714-.415-3.104-.415-1.228 0-1.94.192-2.65.383-.745.191-1.488.414-2.555.255-1.908-.255-2.651-1.402-2.813-2.04l1.875-.445v-.032c0 .032.194.51 1.229.669.647.095 1.1-.032 1.746-.223a10.113 10.113 0 0 1 3.168-.478c1.617 0 2.716.255 3.557.478.679.16 1.196.287 1.875.287 1.228 0 2.101-1.052 2.101-1.052l1.52 1.179c-.033.064-1.423 1.784-3.621 1.784zm-4.753 24.692c-5.108 0-8.503-.987-8.729-1.051l.55-1.816-.291.924.29-.924c.065.032 7.437 2.166 16.683 0l.453 1.848a39.62 39.62 0 0 1-8.956 1.02zM5.8 52.392a.987.987 0 0 1-.517-.16.944.944 0 0 1-.453-.7l-1.196-9.654c-.032-.351.097-.701.42-.893.227-.159 5.4-3.632 12.286-.51.356.16.582.542.55.925l-.582 9.622c-.032.286-.162.541-.388.7-.226.16-.517.224-.776.192-.032 0-4.72-.924-9.053.446-.097.032-.194.032-.29.032zm-.161-10.1l.97 7.933c3.168-.765 6.24-.542 7.791-.35l.485-7.87c-4.494-1.816-7.985-.382-9.246.287z" fill="#D6D6D6"/><path d="M7.187 47.333c-1.81 0-2.425-.765-2.619-1.083l1.682-.956a.395.395 0 0 0-.065-.096s.808.637 3.847-.318c4.688-1.53 6.208.446 6.337.669L14.752 46.6s0 .032.033.032c0 0-.905-.988-4.17.064-1.456.446-2.587.637-3.428.637z" fill="#D6D6D6"/></svg>