<svg width="30" height="96" fill="none" xmlns="http://www.w3.org/2000/svg"><path d="M14.766 63.28c-7.99 0-13.11-1.883-13.422-2.003l.686-1.673-.343.837.343-.837c.125.03 11.363 4.124 26.502-.03l.531 1.733c-5.338 1.465-10.207 1.973-14.297 1.973zm-.248-27.109c-7.99 0-13.11-1.883-13.422-2.002l.686-1.674-.343.837.343-.837c.125.03 11.363 4.125 26.502-.03l.53 1.734a52.961 52.961 0 0 1-14.296 1.972zM23.38 92.54a.997.997 0 0 1-.405-.09.88.88 0 0 1-.437-1.195c.718-1.435 1.311-5.17 1.498-6.486.063-.478.531-.836 1.062-.777.5.06.874.508.811 1.016-.03.21-.686 5.022-1.654 6.994-.187.329-.53.538-.874.538zm-1.502-45.728s-.031 0 0 0a.925.925 0 0 1-.936-.927l.093-3.766c-1.436.12-3.995.18-6.087-.777-.905.419-2.996 1.196-5.806 1.076l.125 3.348c.031.508-.374.926-.905.926-.53.03-.968-.358-.968-.867l-.187-4.363a.85.85 0 0 1 .312-.688.985.985 0 0 1 .75-.239c3.652.479 6.118-.956 6.149-.986.28-.18.655-.18.967 0 2.467 1.375 6.368.688 6.4.658.28-.06.561.03.78.209a.94.94 0 0 1 .343.717l-.125 4.812c0 .478-.405.867-.905.867zM15.2 57.93h-.312c-3.84-.21-6.867-4.065-6.992-4.215a.79.79 0 0 1-.187-.508l-.063-1.285c-.031-.508.375-.926.905-.926.531-.03.968.358.968.866l.031.987c.625.717 2.872 3.138 5.4 3.287 2.498.15 5.058-2.45 5.744-3.257l.031-1.017c0-.508.438-.896.968-.866.53 0 .937.418.905.926l-.03 1.345c0 .18-.063.389-.188.538-.094.15-3.403 4.125-7.18 4.125z" fill="#D6D6D6"/><path d="M25.22 52.789h-3.496c-.531 0-.937-.389-.937-.897s.406-.896.937-.896h2.56v-4.573a25.79 25.79 0 0 1-2.28.358c-.499.06-.998-.268-1.06-.777a.898.898 0 0 1 .81-1.016c1.156-.15 2.248-.328 3.247-.568.281-.06.562 0 .812.18a.894.894 0 0 1 .343.717v6.575c0 .508-.437.897-.936.897z" fill="#D6D6D6"/><path d="M21.723 52.79H8.613c-.531 0-.937-.39-.937-.897 0-.508.406-.897.936-.897h13.11c.531 0 .937.389.937.897s-.437.896-.936.896zm-5.775-5.65c-2.934 0-5.618-.209-7.71-.448-.5-.06-.874-.508-.811-.986.062-.478.53-.837 1.03-.777 3.371.388 8.428.717 13.266.12.5-.06 1 .268 1.062.776a.914.914 0 0 1-.812 1.017 58.573 58.573 0 0 1-6.024.299z" fill="#D6D6D6"/><path d="M8.614 52.79H4.962c-.53 0-.937-.39-.937-.897v-6.576a.88.88 0 0 1 .344-.687c.218-.18.5-.24.78-.18 0 0 1.311.24 3.34.479.5.06.874.508.812.986-.063.478-.53.837-1.03.777-.968-.12-1.748-.209-2.341-.299v4.633h2.715c.53 0 .937.388.937.896 0 .509-.437.867-.968.867z" fill="#D6D6D6"/><path d="M19.447 95.23c-1.966 0-2.778-1.017-3.433-1.854-.25-.328-.5-.657-.843-.956-.843-.717-2.091.359-2.123.359a35.974 35.974 0 0 1-1.404 1.106c-.032.03-.063.03-.063.06-1.248.776-4.464 1.524-7.616-1.166C.312 89.58.406 80.644.406 80.256c0-.15.031-15.004 0-16.827-.031-1.644.219-2.899.312-3.258l-.406-26.39c-1.03-6.187.812-10.461.874-10.64 0-.03.032-.06.032-.09L9.77 8.376a.888.888 0 0 0 .062-.328V7.33l-.437-.15a.885.885 0 0 1-.593-.986.879.879 0 0 1 .5-.627c-.032-.06-.032-.12-.032-.18-.187-1.494-.031-3.287.063-3.765C9.52.576 10.614.396 10.988.337c.406-.06 2.934-.33 3.496-.33.5-.03 1.093.03 1.904.12.313.03.625.06 1 .09 1.81.15 2.122 1.076 2.184 1.435.344 2.241.156 3.467.094 3.885 0 .06-.031.09-.031.15.25.119.468.358.5.657.062.448-.188.867-.625.986l-.406.12v.658l8.928 13.628c.03.03.062.09.062.12 2.716 6.007 1.78 10.908 1.592 11.745v26.272c.219.508.312 1.315.312 2.42 0 .06-.031 8.608 0 17.365.031 9.116-.718 11.178-2.528 12.583-1.249.956-2.747.837-3.652.597-.75 1.316-2.03 2.242-3.528 2.421-.187.03-.374.03-.562.06-.03-.09-.156-.09-.28-.09zm-4.932-4.872c.656 0 1.311.209 1.936.717.468.389.78.837 1.092 1.196.625.806.937 1.195 2.154 1.135.156 0 .281-.03.406-.03 1.03-.149 1.935-.896 2.341-1.942a.858.858 0 0 1 .187-.3.802.802 0 0 1 .437-.328c.25-.09.531-.09.75.03 0 0 1.56.687 2.56-.09 1.06-.807 1.84-2.152 1.81-11.178-.031-8.757 0-17.304 0-17.394 0-.658-.063-1.435-.125-1.674-.125-.15-.156-.329-.156-.508v-26.57c0-.06 0-.15.031-.21 0-.059 1.186-4.781-1.436-10.64L17.45 8.855c-.032-.03-.032-.06-.032-.09-.062-.089-.156-.298-.156-.896l.032-1.136v-.06c-.032-.06-.032-.149-.032-.209l-.03-.806c0-.3.093-.598.343-.778.093-.06.218-.12.312-.149.03-.508.062-1.375-.125-2.66-.094-.03-.25-.06-.5-.09-.374-.03-.718-.06-1.03-.09a13.517 13.517 0 0 0-1.623-.119c-.593.03-2.997.27-3.246.299-.063 0-.125.03-.188.03-.062.478-.125 1.614-.062 2.66.312.15.53.448.53.807v.777a.77.77 0 0 1 .094.359v1.405c0 .149-.062.657-.25 1.045 0 0 0 .03-.03.03L2.902 23.888c-.156.418-1.654 4.274-.718 9.683v.12l.406 26.54c0 .09 0 .15-.031.24 0 0-.312 1.195-.281 2.928.031 1.853 0 16.259 0 16.887-.031 2.36.437 8.966 2.965 11.178 2.685 2.33 5.026 1.165 5.307 1.016.375-.3 1.03-.777 1.217-.957.656-.597 1.686-1.165 2.747-1.165z" fill="#D6D6D6"/><path d="M14.579 6.673c-2.716 0-4.558-.359-4.683-.389l.406-1.763c.032 0 3.715.747 8.335.06l.28 1.763c-1.591.24-3.058.329-4.338.329z" fill="#D6D6D6"/></svg>