<svg width="203" height="247" fill="none" xmlns="http://www.w3.org/2000/svg"><path d="M98.675 245.601c1.177-17.004 15.407-30.533 32.74-30.533h3.799v-3.797c0-18.073 14.711-32.778 32.793-32.778l3.905-.054v-3.85c0-17.058 13.053-31.068 29.691-32.672 1.979-13.208 1.872-26.309-.428-39.356a25.164 25.164 0 0 0-5.189 15.347v11.283h-11.288c-13.963 0-25.304 11.336-25.304 25.292v11.23l-11.341.16c-14.016 0-25.358 11.336-25.358 25.293v11.282h-11.287c-13.963 0-25.304 11.337-25.304 25.293v11.283H74.762c-6.259 0-11.983 2.299-16.423 6.042 4.6.803 9.255 1.337 14.016 1.605 8.88.695 17.654.267 26.32-1.07z" fill="#022169"/><path d="M98.675 245.601c1.177-17.004 15.407-30.533 32.74-30.533h3.799v-3.797c0-18.073 14.711-32.778 32.793-32.778l3.905-.054v-3.85c0-17.058 13.053-31.068 29.691-32.672 1.979-13.208 1.872-26.309-.428-39.356a25.164 25.164 0 0 0-5.189 15.347v11.283h-11.288c-13.963 0-25.304 11.336-25.304 25.292v11.23l-11.341.16c-14.016 0-25.358 11.336-25.358 25.293v11.282h-11.287c-13.963 0-25.304 11.337-25.304 25.293v11.283H74.762c-6.259 0-11.983 2.299-16.423 6.042 4.6.803 9.255 1.337 14.016 1.605 8.88.695 17.654.267 26.32-1.07z" fill="url(#paint0_radial)"/><path d="M14.686 171.595h3.798v-3.797c0-18.074 14.712-32.779 32.794-32.779h3.798v-3.796c0-18.074 14.711-32.78 32.793-32.78l3.905-.053v-3.85c0-18.074 14.712-32.779 32.794-32.779h3.798v-3.796c0-15.828 11.288-29.09 26.213-32.138-6.205-4.812-12.678-8.983-19.472-12.459-11.074 2.727-19.313 12.727-19.313 24.598v11.283h-11.287c-13.963 0-25.304 11.336-25.304 25.292v11.23l-11.342.16c-14.016 0-25.357 11.336-25.357 25.293v11.229H31.216c-13.962 0-25.304 11.336-25.304 25.293v11.283H-5.375c-12.519 0-22.897 9.09-24.93 21.014a118.676 118.676 0 0 0 12.518 19.518c2.3-15.774 15.996-27.966 32.473-27.966z" fill="#022169"/><path d="M14.686 171.595h3.798v-3.797c0-18.074 14.712-32.779 32.794-32.779h3.798v-3.796c0-18.074 14.711-32.78 32.793-32.78l3.905-.053v-3.85c0-18.074 14.712-32.779 32.794-32.779h3.798v-3.796c0-15.828 11.288-29.09 26.213-32.138-6.205-4.812-12.678-8.983-19.472-12.459-11.074 2.727-19.313 12.727-19.313 24.598v11.283h-11.287c-13.963 0-25.304 11.336-25.304 25.292v11.23l-11.342.16c-14.016 0-25.357 11.336-25.357 25.293v11.229H31.216c-13.962 0-25.304 11.336-25.304 25.293v11.283H-5.375c-12.519 0-22.897 9.09-24.93 21.014a118.676 118.676 0 0 0 12.518 19.518c2.3-15.774 15.996-27.966 32.473-27.966z" fill="url(#paint1_radial)"/><path d="M54.701 211.646H58.5v-3.797c0-18.073 14.712-32.779 32.794-32.779h3.798v-3.796c0-18.074 14.712-32.779 32.793-32.779l3.906-.053v-3.851c0-18.073 14.711-32.778 32.793-32.778h3.798v-3.797c0-13.903 8.72-25.828 20.971-30.587-2.621-5.133-5.564-10.053-8.934-14.705-13.642.375-24.608 11.55-24.608 25.293V89.3h-11.288c-13.963 0-25.304 11.336-25.304 25.293v11.229l-11.341.16c-14.016 0-25.358 11.337-25.358 25.293v11.283H71.232c-13.963 0-25.304 11.336-25.304 25.293v11.282H34.64c-13.963 0-25.304 11.337-25.304 25.293v.695c4.654 3.262 9.415 6.096 14.337 8.663 4.494-12.887 16.691-22.138 31.028-22.138z" fill="#022169"/><path d="M54.701 211.646H58.5v-3.797c0-18.073 14.712-32.779 32.794-32.779h3.798v-3.796c0-18.074 14.712-32.779 32.793-32.779l3.906-.053v-3.851c0-18.073 14.711-32.778 32.793-32.778h3.798v-3.797c0-13.903 8.72-25.828 20.971-30.587-2.621-5.133-5.564-10.053-8.934-14.705-13.642.375-24.608 11.55-24.608 25.293V89.3h-11.288c-13.963 0-25.304 11.336-25.304 25.293v11.229l-11.341.16c-14.016 0-25.358 11.337-25.358 25.293v11.283H71.232c-13.963 0-25.304 11.336-25.304 25.293v11.282H34.64c-13.963 0-25.304 11.337-25.304 25.293v.695c4.654 3.262 9.415 6.096 14.337 8.663 4.494-12.887 16.691-22.138 31.028-22.138z" fill="url(#paint2_radial)"/><path d="M74.762 231.645h3.799v-3.797c0-18.074 14.711-32.779 32.793-32.779h3.798v-3.796c0-18.074 14.712-32.779 32.794-32.779l3.905-.054v-3.903c0-18.074 14.711-32.779 32.793-32.779h3.799v-3.797c0-9.625 4.172-18.287 10.806-24.276-1.712-6.791-3.905-13.315-6.634-19.518-9.736 3.53-16.691 12.887-16.691 23.795v11.283h-11.287c-13.963 0-25.304 11.336-25.304 25.293v11.229l-11.342.161c-14.016 0-25.357 11.336-25.357 25.292v11.283H91.346c-13.962 0-25.304 11.336-25.304 25.293v11.283H54.755c-11.342 0-21.025 7.539-24.18 17.86a117.906 117.906 0 0 0 19.098 6.416c5.991-7.112 14.978-11.71 25.09-11.71z" fill="#022169"/><path d="M74.762 231.645h3.799v-3.797c0-18.074 14.711-32.779 32.793-32.779h3.798v-3.796c0-18.074 14.712-32.779 32.794-32.779l3.905-.054v-3.903c0-18.074 14.711-32.779 32.793-32.779h3.799v-3.797c0-9.625 4.172-18.287 10.806-24.276-1.712-6.791-3.905-13.315-6.634-19.518-9.736 3.53-16.691 12.887-16.691 23.795v11.283h-11.287c-13.963 0-25.304 11.336-25.304 25.293v11.229l-11.342.161c-14.016 0-25.357 11.336-25.357 25.292v11.283H91.346c-13.962 0-25.304 11.336-25.304 25.293v11.283H54.755c-11.342 0-21.025 7.539-24.18 17.86a117.906 117.906 0 0 0 19.098 6.416c5.991-7.112 14.978-11.71 25.09-11.71z" fill="url(#paint3_radial)"/><path d="M200.265 149.617c-11.822 2.139-20.81 12.513-20.81 24.919v11.229l-11.341.16c-14.016 0-25.357 11.337-25.357 25.293v11.283h-11.288c-12.679 0-23.218 9.358-25.037 21.549 2.996-.695 5.992-1.443 8.988-2.352 15.835-4.866 29.904-12.353 42.155-22.406 3.263-8.395 9.897-15.079 18.242-18.448.428-.534.803-1.016 1.231-1.55 11.555-14.812 19.312-31.389 23.217-49.677z" fill="#022169"/><path d="M200.265 149.617c-11.822 2.139-20.81 12.513-20.81 24.919v11.229l-11.341.16c-14.016 0-25.357 11.337-25.357 25.293v11.283h-11.288c-12.679 0-23.218 9.358-25.037 21.549 2.996-.695 5.992-1.443 8.988-2.352 15.835-4.866 29.904-12.353 42.155-22.406 3.263-8.395 9.897-15.079 18.242-18.448.428-.534.803-1.016 1.231-1.55 11.555-14.812 19.312-31.389 23.217-49.677z" fill="url(#paint4_radial)"/><path d="M-44 .214v22.672c2.782-10.694 10.753-19.25 21.024-22.78h-19.42c-.427 0-.908.054-1.604.108z" fill="#022169"/><path d="M-44 .214v22.672c2.782-10.694 10.753-19.25 21.024-22.78h-19.42c-.427 0-.908.054-1.604.108z" fill="url(#paint5_radial)"/><path d="M-37.58 31.068V42.35H-44v16.255c4.547-2.352 9.683-3.743 15.193-3.743h3.798v-3.796c0-18.074 14.712-32.78 32.794-32.78l3.905-.053v-3.85c0-5.133 1.177-10 3.317-14.384C9.71 0 4.414 0-.882.053v5.562l-11.341.16c-13.963 0-25.357 11.336-25.357 25.293z" fill="#022169"/><path d="M-37.58 31.068V42.35H-44v16.255c4.547-2.352 9.683-3.743 15.193-3.743h3.798v-3.796c0-18.074 14.712-32.78 32.794-32.78l3.905-.053v-3.85c0-5.133 1.177-10 3.317-14.384C9.71 0 4.414 0-.882.053v5.562l-11.341.16c-13.963 0-25.357 11.336-25.357 25.293z" fill="url(#paint6_radial)"/><path d="M34.693 191.647h3.799v-3.796c0-18.074 14.711-32.779 32.793-32.779h3.798v-3.797c0-18.074 14.712-32.779 32.794-32.779l3.905-.053v-3.85c0-18.074 14.712-32.78 32.793-32.78h3.799v-3.796c0-16.042 11.555-29.41 26.801-32.244a125.376 125.376 0 0 0-12.518-13.101h-1.498c-13.962 0-25.304 11.336-25.304 25.293v11.282h-11.287c-13.963 0-25.304 11.337-25.304 25.293v11.23l-11.341.16c-14.017 0-25.358 11.336-25.358 25.293v11.282H51.277c-13.962 0-25.303 11.337-25.303 25.293v11.283H14.686c-13.963 0-25.304 11.336-25.304 25.293v3.422c2.942 3.155 6.098 6.149 9.469 9.037 1.123.962 2.247 1.925 3.423 2.834 2.194-15.828 15.889-28.02 32.42-28.02z" fill="#022169"/><path d="M34.693 191.647h3.799v-3.796c0-18.074 14.711-32.779 32.793-32.779h3.798v-3.797c0-18.074 14.712-32.779 32.794-32.779l3.905-.053v-3.85c0-18.074 14.712-32.78 32.793-32.78h3.799v-3.796c0-16.042 11.555-29.41 26.801-32.244a125.376 125.376 0 0 0-12.518-13.101h-1.498c-13.962 0-25.304 11.336-25.304 25.293v11.282h-11.287c-13.963 0-25.304 11.337-25.304 25.293v11.23l-11.341.16c-14.017 0-25.358 11.336-25.358 25.293v11.282H51.277c-13.962 0-25.303 11.337-25.303 25.293v11.283H14.686c-13.963 0-25.304 11.336-25.304 25.293v3.422c2.942 3.155 6.098 6.149 9.469 9.037 1.123.962 2.247 1.925 3.423 2.834 2.194-15.828 15.889-28.02 32.42-28.02z" fill="url(#paint7_radial)"/><path d="M-5.375 151.596h3.798v-3.797c0-18.074 14.711-32.779 32.793-32.779h3.798v-3.796c0-18.074 14.712-32.78 32.794-32.78l3.905-.053v-3.85c0-18.074 14.712-32.779 32.793-32.779h3.799v-3.796c0-12.513 7.008-23.368 17.333-28.93-7.757-3.154-15.889-5.453-24.288-6.897a25.208 25.208 0 0 0-5.563 15.828V29.25H84.499c-13.963 0-25.304 11.336-25.304 25.292v11.23l-11.341.16c-14.017 0-25.358 11.336-25.358 25.293v11.283H11.208c-13.962 0-25.303 11.336-25.303 25.292v11.23h-11.288a25.116 25.116 0 0 0-16.638 6.256 189.853 189.853 0 0 0 1.605 7.54c1.445 5.989 3.317 11.71 5.51 17.218 5.35-10.909 16.584-18.448 29.53-18.448z" fill="#022169"/><path d="M-5.375 151.596h3.798v-3.797c0-18.074 14.711-32.779 32.793-32.779h3.798v-3.796c0-18.074 14.712-32.78 32.794-32.78l3.905-.053v-3.85c0-18.074 14.712-32.779 32.793-32.779h3.799v-3.796c0-12.513 7.008-23.368 17.333-28.93-7.757-3.154-15.889-5.453-24.288-6.897a25.208 25.208 0 0 0-5.563 15.828V29.25H84.499c-13.963 0-25.304 11.336-25.304 25.292v11.23l-11.341.16c-14.017 0-25.358 11.336-25.358 25.293v11.283H11.208c-13.962 0-25.303 11.336-25.303 25.292v11.23h-11.288a25.116 25.116 0 0 0-16.638 6.256 189.853 189.853 0 0 0 1.605 7.54c1.445 5.989 3.317 11.71 5.51 17.218 5.35-10.909 16.584-18.448 29.53-18.448z" fill="url(#paint8_radial)"/><path d="M-41.593 111.545v-3.797c0-18.074 14.712-32.779 32.794-32.779h3.798v-3.85c0-18.074 14.712-32.779 32.793-32.779l3.906-.053v-3.85c0-18.074 14.711-32.78 32.793-32.78h3.798V.108C53.471 0 38.6 0 23.727 0c-2.836 4.064-4.494 9.037-4.494 14.384v11.23l-11.341.16c-14.016 0-25.358 11.336-25.358 25.293v11.282h-11.341c-5.67 0-10.913 1.872-15.193 5.08v44.116h2.407z" fill="#022169"/><path d="M-41.593 111.545v-3.797c0-18.074 14.712-32.779 32.794-32.779h3.798v-3.85c0-18.074 14.712-32.779 32.793-32.779l3.906-.053v-3.85c0-18.074 14.711-32.78 32.793-32.78h3.798V.108C53.471 0 38.6 0 23.727 0c-2.836 4.064-4.494 9.037-4.494 14.384v11.23l-11.341.16c-14.016 0-25.358 11.336-25.358 25.293v11.282h-11.341c-5.67 0-10.913 1.872-15.193 5.08v44.116h2.407z" fill="url(#paint9_radial)"/><path d="M-21.585 131.543v-3.796c0-18.074 14.712-32.779 32.794-32.779h3.798v-3.797c0-18.074 14.711-32.779 32.793-32.779l3.905-.053v-3.85c0-18.074 14.712-32.779 32.794-32.779h3.798v-3.797A32.677 32.677 0 0 1 93.005.963C89.153.588 85.195.374 81.235.32c-1.818 0-3.637-.054-5.51-.054V9.09H64.438c-13.963 0-25.304 11.337-25.304 25.293v11.23l-11.342.16c-14.016 0-25.357 11.336-25.357 25.292v11.283H-8.799c-13.963 0-25.304 11.337-25.304 25.293v11.283h-9.843v5.347c0 4.171.267 8.342.695 12.513 5.136-3.369 11.288-5.294 17.868-5.294h3.798v.053z" fill="#022169"/><path d="M-21.585 131.543v-3.796c0-18.074 14.712-32.779 32.794-32.779h3.798v-3.797c0-18.074 14.711-32.779 32.793-32.779l3.905-.053v-3.85c0-18.074 14.712-32.779 32.794-32.779h3.798v-3.797A32.677 32.677 0 0 1 93.005.963C89.153.588 85.195.374 81.235.32c-1.818 0-3.637-.054-5.51-.054V9.09H64.438c-13.963 0-25.304 11.337-25.304 25.293v11.23l-11.342.16c-14.016 0-25.357 11.336-25.357 25.292v11.283H-8.799c-13.963 0-25.304 11.337-25.304 25.293v11.283h-9.843v5.347c0 4.171.267 8.342.695 12.513 5.136-3.369 11.288-5.294 17.868-5.294h3.798v.053z" fill="url(#paint10_radial)"/><defs><radialGradient id="paint0_radial" cx="0" cy="0" r="1" gradientUnits="userSpaceOnUse" gradientTransform="rotate(44.992 -22 -53.123) scale(349.396 349.301)"><stop stop-color="#fff"/><stop offset="0" stop-color="#fff" stop-opacity=".4"/><stop offset=".961" stop-color="#fff" stop-opacity="0"/></radialGradient><radialGradient id="paint1_radial" cx="0" cy="0" r="1" gradientUnits="userSpaceOnUse" gradientTransform="rotate(44.992 -22 -53.123) scale(349.396 349.301)"><stop stop-color="#fff"/><stop offset="0" stop-color="#fff" stop-opacity=".4"/><stop offset=".961" stop-color="#fff" stop-opacity="0"/></radialGradient><radialGradient id="paint2_radial" cx="0" cy="0" r="1" gradientUnits="userSpaceOnUse" gradientTransform="rotate(44.992 -22 -53.123) scale(349.396 349.301)"><stop stop-color="#fff"/><stop offset="0" stop-color="#fff" stop-opacity=".4"/><stop offset=".961" stop-color="#fff" stop-opacity="0"/></radialGradient><radialGradient id="paint3_radial" cx="0" cy="0" r="1" gradientUnits="userSpaceOnUse" gradientTransform="rotate(44.992 -22 -53.123) scale(349.396 349.301)"><stop stop-color="#fff"/><stop offset="0" stop-color="#fff" stop-opacity=".4"/><stop offset=".961" stop-color="#fff" stop-opacity="0"/></radialGradient><radialGradient id="paint4_radial" cx="0" cy="0" r="1" gradientUnits="userSpaceOnUse" gradientTransform="rotate(44.992 -22 -53.123) scale(349.396 349.301)"><stop stop-color="#fff"/><stop offset="0" stop-color="#fff" stop-opacity=".4"/><stop offset=".961" stop-color="#fff" stop-opacity="0"/></radialGradient><radialGradient id="paint5_radial" cx="0" cy="0" r="1" gradientUnits="userSpaceOnUse" gradientTransform="rotate(44.992 -22 -53.123) scale(349.396 349.301)"><stop stop-color="#fff"/><stop offset="0" stop-color="#fff" stop-opacity=".4"/><stop offset=".961" stop-color="#fff" stop-opacity="0"/></radialGradient><radialGradient id="paint6_radial" cx="0" cy="0" r="1" gradientUnits="userSpaceOnUse" gradientTransform="rotate(44.992 -22 -53.123) scale(349.396 349.301)"><stop stop-color="#fff"/><stop offset="0" stop-color="#fff" stop-opacity=".4"/><stop offset=".961" stop-color="#fff" stop-opacity="0"/></radialGradient><radialGradient id="paint7_radial" cx="0" cy="0" r="1" gradientUnits="userSpaceOnUse" gradientTransform="rotate(44.992 -22 -53.123) scale(349.396 349.301)"><stop stop-color="#fff"/><stop offset="0" stop-color="#fff" stop-opacity=".4"/><stop offset=".961" stop-color="#fff" stop-opacity="0"/></radialGradient><radialGradient id="paint8_radial" cx="0" cy="0" r="1" gradientUnits="userSpaceOnUse" gradientTransform="rotate(44.992 -22 -53.123) scale(349.396 349.301)"><stop stop-color="#fff"/><stop offset="0" stop-color="#fff" stop-opacity=".4"/><stop offset=".961" stop-color="#fff" stop-opacity="0"/></radialGradient><radialGradient id="paint9_radial" cx="0" cy="0" r="1" gradientUnits="userSpaceOnUse" gradientTransform="rotate(44.992 -22 -53.123) scale(349.396 349.301)"><stop stop-color="#fff"/><stop offset="0" stop-color="#fff" stop-opacity=".4"/><stop offset=".961" stop-color="#fff" stop-opacity="0"/></radialGradient><radialGradient id="paint10_radial" cx="0" cy="0" r="1" gradientUnits="userSpaceOnUse" gradientTransform="rotate(44.992 -22 -53.123) scale(349.396 349.301)"><stop stop-color="#fff"/><stop offset="0" stop-color="#fff" stop-opacity=".4"/><stop offset=".961" stop-color="#fff" stop-opacity="0"/></radialGradient></defs></svg>