<svg width="247" height="247" fill="none" xmlns="http://www.w3.org/2000/svg"><path d="M142.675 245.601c1.177-17.004 15.407-30.533 32.74-30.533h3.799v-3.797c0-18.073 14.711-32.778 32.793-32.778l3.905-.054v-3.85c0-17.058 13.053-31.068 29.691-32.672 1.979-13.208 1.872-26.309-.428-39.356a25.164 25.164 0 0 0-5.189 15.347v11.283h-11.288c-13.963 0-25.304 11.336-25.304 25.292v11.23l-11.341.16c-14.016 0-25.358 11.336-25.358 25.293v11.282h-11.287c-13.963 0-25.304 11.337-25.304 25.293v11.283h-11.342c-6.259 0-11.983 2.299-16.423 6.042a120.78 120.78 0 0 0 14.016 1.605c8.881.695 17.654.267 26.32-1.07z" fill="#549141"/><path d="M142.675 245.601c1.177-17.004 15.407-30.533 32.74-30.533h3.799v-3.797c0-18.073 14.711-32.778 32.793-32.778l3.905-.054v-3.85c0-17.058 13.053-31.068 29.691-32.672 1.979-13.208 1.872-26.309-.428-39.356a25.164 25.164 0 0 0-5.189 15.347v11.283h-11.288c-13.963 0-25.304 11.336-25.304 25.292v11.23l-11.341.16c-14.016 0-25.358 11.336-25.358 25.293v11.282h-11.287c-13.963 0-25.304 11.337-25.304 25.293v11.283h-11.342c-6.259 0-11.983 2.299-16.423 6.042a120.78 120.78 0 0 0 14.016 1.605c8.881.695 17.654.267 26.32-1.07z" fill="url(#paint0_radial)"/><path d="M58.686 171.595h3.798v-3.797c0-18.074 14.712-32.779 32.794-32.779h3.798v-3.796c0-18.074 14.711-32.78 32.793-32.78l3.905-.053v-3.85c0-18.074 14.712-32.779 32.794-32.779h3.798v-3.796c0-15.828 11.288-29.09 26.213-32.138-6.205-4.812-12.678-8.983-19.472-12.459-11.074 2.727-19.313 12.727-19.313 24.598v11.283h-11.287c-13.963 0-25.304 11.336-25.304 25.292v11.23l-11.342.16c-14.016 0-25.357 11.336-25.357 25.293v11.229H75.216c-13.962 0-25.304 11.336-25.304 25.293v11.283H38.625c-12.519 0-22.897 9.09-24.93 21.014a118.676 118.676 0 0 0 12.518 19.518c2.3-15.774 15.996-27.966 32.473-27.966z" fill="#549141"/><path d="M58.686 171.595h3.798v-3.797c0-18.074 14.712-32.779 32.794-32.779h3.798v-3.796c0-18.074 14.711-32.78 32.793-32.78l3.905-.053v-3.85c0-18.074 14.712-32.779 32.794-32.779h3.798v-3.796c0-15.828 11.288-29.09 26.213-32.138-6.205-4.812-12.678-8.983-19.472-12.459-11.074 2.727-19.313 12.727-19.313 24.598v11.283h-11.287c-13.963 0-25.304 11.336-25.304 25.292v11.23l-11.342.16c-14.016 0-25.357 11.336-25.357 25.293v11.229H75.216c-13.962 0-25.304 11.336-25.304 25.293v11.283H38.625c-12.519 0-22.897 9.09-24.93 21.014a118.676 118.676 0 0 0 12.518 19.518c2.3-15.774 15.996-27.966 32.473-27.966z" fill="url(#paint1_radial)"/><path d="M98.701 211.646h3.798v-3.797c0-18.073 14.712-32.779 32.794-32.779h3.798v-3.796c0-18.074 14.712-32.779 32.793-32.779l3.906-.053v-3.851c0-18.073 14.711-32.778 32.793-32.778h3.798v-3.797c0-13.903 8.72-25.828 20.971-30.587-2.621-5.133-5.564-10.053-8.934-14.705-13.642.375-24.608 11.55-24.608 25.293V89.3h-11.288c-13.963 0-25.304 11.336-25.304 25.293v11.229l-11.341.16c-14.016 0-25.358 11.337-25.358 25.293v11.283h-11.287c-13.963 0-25.304 11.336-25.304 25.293v11.282H78.64c-13.963 0-25.304 11.337-25.304 25.293v.695c4.654 3.262 9.416 6.096 14.337 8.663 4.494-12.887 16.691-22.138 31.028-22.138z" fill="#549141"/><path d="M98.701 211.646h3.798v-3.797c0-18.073 14.712-32.779 32.794-32.779h3.798v-3.796c0-18.074 14.712-32.779 32.793-32.779l3.906-.053v-3.851c0-18.073 14.711-32.778 32.793-32.778h3.798v-3.797c0-13.903 8.72-25.828 20.971-30.587-2.621-5.133-5.564-10.053-8.934-14.705-13.642.375-24.608 11.55-24.608 25.293V89.3h-11.288c-13.963 0-25.304 11.336-25.304 25.293v11.229l-11.341.16c-14.016 0-25.358 11.337-25.358 25.293v11.283h-11.287c-13.963 0-25.304 11.336-25.304 25.293v11.282H78.64c-13.963 0-25.304 11.337-25.304 25.293v.695c4.654 3.262 9.416 6.096 14.337 8.663 4.494-12.887 16.691-22.138 31.028-22.138z" fill="url(#paint2_radial)"/><path d="M118.762 231.645h3.799v-3.797c0-18.074 14.711-32.779 32.793-32.779h3.798v-3.796c0-18.074 14.712-32.779 32.794-32.779l3.905-.054v-3.903c0-18.074 14.711-32.779 32.793-32.779h3.799v-3.797c0-9.625 4.172-18.287 10.806-24.276-1.712-6.791-3.905-13.315-6.634-19.518-9.736 3.53-16.691 12.887-16.691 23.795v11.283h-11.287c-13.963 0-25.304 11.336-25.304 25.293v11.229l-11.342.161c-14.016 0-25.357 11.336-25.357 25.292v11.283h-11.288c-13.962 0-25.304 11.336-25.304 25.293v11.283H98.755c-11.342 0-21.024 7.539-24.18 17.86a117.906 117.906 0 0 0 19.097 6.416c5.992-7.112 14.979-11.71 25.09-11.71z" fill="#549141"/><path d="M118.762 231.645h3.799v-3.797c0-18.074 14.711-32.779 32.793-32.779h3.798v-3.796c0-18.074 14.712-32.779 32.794-32.779l3.905-.054v-3.903c0-18.074 14.711-32.779 32.793-32.779h3.799v-3.797c0-9.625 4.172-18.287 10.806-24.276-1.712-6.791-3.905-13.315-6.634-19.518-9.736 3.53-16.691 12.887-16.691 23.795v11.283h-11.287c-13.963 0-25.304 11.336-25.304 25.293v11.229l-11.342.161c-14.016 0-25.357 11.336-25.357 25.292v11.283h-11.288c-13.962 0-25.304 11.336-25.304 25.293v11.283H98.755c-11.342 0-21.024 7.539-24.18 17.86a117.906 117.906 0 0 0 19.097 6.416c5.992-7.112 14.979-11.71 25.09-11.71z" fill="url(#paint3_radial)"/><path d="M244.265 149.617c-11.822 2.139-20.81 12.513-20.81 24.919v11.229l-11.341.16c-14.016 0-25.357 11.337-25.357 25.293v11.283h-11.288c-12.679 0-23.218 9.358-25.037 21.549 2.996-.695 5.992-1.443 8.988-2.352 15.835-4.866 29.904-12.353 42.155-22.406 3.263-8.395 9.897-15.079 18.242-18.448.428-.534.803-1.016 1.231-1.55 11.555-14.812 19.312-31.389 23.217-49.677z" fill="#549141"/><path d="M244.265 149.617c-11.822 2.139-20.81 12.513-20.81 24.919v11.229l-11.341.16c-14.016 0-25.357 11.337-25.357 25.293v11.283h-11.288c-12.679 0-23.218 9.358-25.037 21.549 2.996-.695 5.992-1.443 8.988-2.352 15.835-4.866 29.904-12.353 42.155-22.406 3.263-8.395 9.897-15.079 18.242-18.448.428-.534.803-1.016 1.231-1.55 11.555-14.812 19.312-31.389 23.217-49.677z" fill="url(#paint4_radial)"/><path d="M0 .214v22.672C2.782 12.192 10.753 3.636 21.024.106H1.604C1.178.107.696.16 0 .215z" fill="#549141"/><path d="M0 .214v22.672C2.782 12.192 10.753 3.636 21.024.106H1.604C1.178.107.696.16 0 .215z" fill="url(#paint5_radial)"/><path d="M6.42 31.068V42.35H0v16.255c4.547-2.352 9.683-3.743 15.193-3.743h3.798v-3.796c0-18.074 14.712-32.78 32.794-32.78l3.905-.053v-3.85c0-5.133 1.177-10 3.317-14.384-5.296 0-10.593 0-15.889.053v5.562l-11.341.16C17.814 5.775 6.42 17.111 6.42 31.068z" fill="#549141"/><path d="M6.42 31.068V42.35H0v16.255c4.547-2.352 9.683-3.743 15.193-3.743h3.798v-3.796c0-18.074 14.712-32.78 32.794-32.78l3.905-.053v-3.85c0-5.133 1.177-10 3.317-14.384-5.296 0-10.593 0-15.889.053v5.562l-11.341.16C17.814 5.775 6.42 17.111 6.42 31.068z" fill="url(#paint6_radial)"/><path d="M78.693 191.647h3.799v-3.796c0-18.074 14.711-32.779 32.793-32.779h3.798v-3.797c0-18.074 14.712-32.779 32.794-32.779l3.905-.053v-3.85c0-18.074 14.712-32.78 32.793-32.78h3.799v-3.796c0-16.042 11.555-29.41 26.801-32.244a125.376 125.376 0 0 0-12.518-13.101h-1.498c-13.962 0-25.304 11.336-25.304 25.293v11.282h-11.287c-13.963 0-25.304 11.337-25.304 25.293v11.23l-11.341.16c-14.017 0-25.358 11.336-25.358 25.293v11.282H95.277c-13.962 0-25.303 11.337-25.303 25.293v11.283H58.686c-13.963 0-25.304 11.336-25.304 25.293v3.422c2.942 3.155 6.098 6.149 9.469 9.037 1.123.962 2.247 1.925 3.424 2.834 2.193-15.828 15.888-28.02 32.418-28.02z" fill="#549141"/><path d="M78.693 191.647h3.799v-3.796c0-18.074 14.711-32.779 32.793-32.779h3.798v-3.797c0-18.074 14.712-32.779 32.794-32.779l3.905-.053v-3.85c0-18.074 14.712-32.78 32.793-32.78h3.799v-3.796c0-16.042 11.555-29.41 26.801-32.244a125.376 125.376 0 0 0-12.518-13.101h-1.498c-13.962 0-25.304 11.336-25.304 25.293v11.282h-11.287c-13.963 0-25.304 11.337-25.304 25.293v11.23l-11.341.16c-14.017 0-25.358 11.336-25.358 25.293v11.282H95.277c-13.962 0-25.303 11.337-25.303 25.293v11.283H58.686c-13.963 0-25.304 11.336-25.304 25.293v3.422c2.942 3.155 6.098 6.149 9.469 9.037 1.123.962 2.247 1.925 3.424 2.834 2.193-15.828 15.888-28.02 32.418-28.02z" fill="url(#paint7_radial)"/><path d="M38.624 151.596h3.799v-3.797c0-18.074 14.711-32.779 32.793-32.779h3.798v-3.796c0-18.074 14.712-32.78 32.794-32.78l3.905-.053v-3.85c0-18.074 14.712-32.779 32.793-32.779h3.799v-3.796c0-12.513 7.008-23.368 17.333-28.93-7.757-3.154-15.889-5.453-24.288-6.897a25.208 25.208 0 0 0-5.563 15.828V29.25h-11.288c-13.963 0-25.304 11.336-25.304 25.292v11.23l-11.341.16c-14.016 0-25.358 11.336-25.358 25.293v11.283H55.208c-13.962 0-25.303 11.336-25.303 25.292v11.23H18.617a25.115 25.115 0 0 0-16.638 6.256 189.693 189.693 0 0 0 1.605 7.54c1.445 5.989 3.317 11.71 5.51 17.218 5.35-10.909 16.584-18.448 29.53-18.448z" fill="#549141"/><path d="M38.624 151.596h3.799v-3.797c0-18.074 14.711-32.779 32.793-32.779h3.798v-3.796c0-18.074 14.712-32.78 32.794-32.78l3.905-.053v-3.85c0-18.074 14.712-32.779 32.793-32.779h3.799v-3.796c0-12.513 7.008-23.368 17.333-28.93-7.757-3.154-15.889-5.453-24.288-6.897a25.208 25.208 0 0 0-5.563 15.828V29.25h-11.288c-13.963 0-25.304 11.336-25.304 25.292v11.23l-11.341.16c-14.016 0-25.358 11.336-25.358 25.293v11.283H55.208c-13.962 0-25.303 11.336-25.303 25.292v11.23H18.617a25.115 25.115 0 0 0-16.638 6.256 189.693 189.693 0 0 0 1.605 7.54c1.445 5.989 3.317 11.71 5.51 17.218 5.35-10.909 16.584-18.448 29.53-18.448z" fill="url(#paint8_radial)"/><path d="M2.407 111.545v-3.797c0-18.074 14.712-32.779 32.794-32.779h3.798v-3.85c0-18.074 14.712-32.779 32.793-32.779l3.906-.053v-3.85c0-18.074 14.711-32.78 32.793-32.78h3.798V.108C97.471 0 82.599 0 67.727 0c-2.836 4.064-4.494 9.037-4.494 14.384v11.23l-11.341.16c-14.016 0-25.358 11.336-25.358 25.293v11.282H15.193C9.523 62.35 4.28 64.222 0 67.43v44.116h2.407z" fill="#549141"/><path d="M2.407 111.545v-3.797c0-18.074 14.712-32.779 32.794-32.779h3.798v-3.85c0-18.074 14.712-32.779 32.793-32.779l3.906-.053v-3.85c0-18.074 14.711-32.78 32.793-32.78h3.798V.108C97.471 0 82.599 0 67.727 0c-2.836 4.064-4.494 9.037-4.494 14.384v11.23l-11.341.16c-14.016 0-25.358 11.336-25.358 25.293v11.282H15.193C9.523 62.35 4.28 64.222 0 67.43v44.116h2.407z" fill="url(#paint9_radial)"/><path d="M22.415 131.543v-3.796c0-18.074 14.712-32.779 32.794-32.779h3.798v-3.797c0-18.074 14.711-32.779 32.793-32.779l3.905-.053v-3.85c0-18.074 14.712-32.779 32.794-32.779h3.798v-3.797a32.675 32.675 0 0 1 4.708-16.95A142.045 142.045 0 0 0 125.236.32c-1.819 0-3.638-.054-5.511-.054V9.09h-11.287c-13.963 0-25.304 11.337-25.304 25.293v11.23l-11.342.16c-14.016 0-25.357 11.336-25.357 25.292v11.283H35.201c-13.963 0-25.304 11.337-25.304 25.293v11.283H.054v5.347c0 4.171.267 8.342.695 12.513 5.136-3.369 11.288-5.294 17.868-5.294h3.798v.053z" fill="#549141"/><path d="M22.415 131.543v-3.796c0-18.074 14.712-32.779 32.794-32.779h3.798v-3.797c0-18.074 14.711-32.779 32.793-32.779l3.905-.053v-3.85c0-18.074 14.712-32.779 32.794-32.779h3.798v-3.797a32.675 32.675 0 0 1 4.708-16.95A142.045 142.045 0 0 0 125.236.32c-1.819 0-3.638-.054-5.511-.054V9.09h-11.287c-13.963 0-25.304 11.337-25.304 25.293v11.23l-11.342.16c-14.016 0-25.357 11.336-25.357 25.292v11.283H35.201c-13.963 0-25.304 11.337-25.304 25.293v11.283H.054v5.347c0 4.171.267 8.342.695 12.513 5.136-3.369 11.288-5.294 17.868-5.294h3.798v.053z" fill="url(#paint10_radial)"/><defs><radialGradient id="paint0_radial" cx="0" cy="0" r="1" gradientUnits="userSpaceOnUse" gradientTransform="rotate(44.992) scale(349.396 349.301)"><stop stop-color="#fff"/><stop offset="0" stop-color="#fff" stop-opacity=".4"/><stop offset=".961" stop-color="#fff" stop-opacity="0"/></radialGradient><radialGradient id="paint1_radial" cx="0" cy="0" r="1" gradientUnits="userSpaceOnUse" gradientTransform="rotate(44.992) scale(349.396 349.301)"><stop stop-color="#fff"/><stop offset="0" stop-color="#fff" stop-opacity=".4"/><stop offset=".961" stop-color="#fff" stop-opacity="0"/></radialGradient><radialGradient id="paint2_radial" cx="0" cy="0" r="1" gradientUnits="userSpaceOnUse" gradientTransform="rotate(44.992) scale(349.396 349.301)"><stop stop-color="#fff"/><stop offset="0" stop-color="#fff" stop-opacity=".4"/><stop offset=".961" stop-color="#fff" stop-opacity="0"/></radialGradient><radialGradient id="paint3_radial" cx="0" cy="0" r="1" gradientUnits="userSpaceOnUse" gradientTransform="rotate(44.992) scale(349.396 349.301)"><stop stop-color="#fff"/><stop offset="0" stop-color="#fff" stop-opacity=".4"/><stop offset=".961" stop-color="#fff" stop-opacity="0"/></radialGradient><radialGradient id="paint4_radial" cx="0" cy="0" r="1" gradientUnits="userSpaceOnUse" gradientTransform="rotate(44.992) scale(349.396 349.301)"><stop stop-color="#fff"/><stop offset="0" stop-color="#fff" stop-opacity=".4"/><stop offset=".961" stop-color="#fff" stop-opacity="0"/></radialGradient><radialGradient id="paint5_radial" cx="0" cy="0" r="1" gradientUnits="userSpaceOnUse" gradientTransform="rotate(44.992) scale(349.396 349.301)"><stop stop-color="#fff"/><stop offset="0" stop-color="#fff" stop-opacity=".4"/><stop offset=".961" stop-color="#fff" stop-opacity="0"/></radialGradient><radialGradient id="paint6_radial" cx="0" cy="0" r="1" gradientUnits="userSpaceOnUse" gradientTransform="rotate(44.992) scale(349.396 349.301)"><stop stop-color="#fff"/><stop offset="0" stop-color="#fff" stop-opacity=".4"/><stop offset=".961" stop-color="#fff" stop-opacity="0"/></radialGradient><radialGradient id="paint7_radial" cx="0" cy="0" r="1" gradientUnits="userSpaceOnUse" gradientTransform="rotate(44.992) scale(349.396 349.301)"><stop stop-color="#fff"/><stop offset="0" stop-color="#fff" stop-opacity=".4"/><stop offset=".961" stop-color="#fff" stop-opacity="0"/></radialGradient><radialGradient id="paint8_radial" cx="0" cy="0" r="1" gradientUnits="userSpaceOnUse" gradientTransform="rotate(44.992) scale(349.396 349.301)"><stop stop-color="#fff"/><stop offset="0" stop-color="#fff" stop-opacity=".4"/><stop offset=".961" stop-color="#fff" stop-opacity="0"/></radialGradient><radialGradient id="paint9_radial" cx="0" cy="0" r="1" gradientUnits="userSpaceOnUse" gradientTransform="rotate(44.992) scale(349.396 349.301)"><stop stop-color="#fff"/><stop offset="0" stop-color="#fff" stop-opacity=".4"/><stop offset=".961" stop-color="#fff" stop-opacity="0"/></radialGradient><radialGradient id="paint10_radial" cx="0" cy="0" r="1" gradientUnits="userSpaceOnUse" gradientTransform="rotate(44.992) scale(349.396 349.301)"><stop stop-color="#fff"/><stop offset="0" stop-color="#fff" stop-opacity=".4"/><stop offset=".961" stop-color="#fff" stop-opacity="0"/></radialGradient></defs></svg>