<svg width="45" height="44" fill="none" xmlns="http://www.w3.org/2000/svg"><path d="M44.5 0H0v44h44.5V0z" fill="#0076B2"/><path d="M11.362 16.973h4.563V31h-4.563V16.973zM13.645 10c1.458 0 2.642 1.133 2.642 2.528 0 1.396-1.184 2.528-2.642 2.528-1.464 0-2.645-1.132-2.645-2.528C11 11.133 12.18 10 13.645 10zm5.14 6.973h4.37v1.918h.063c.608-1.103 2.095-2.266 4.313-2.266 4.616 0 5.47 2.904 5.47 6.682V31h-4.559v-6.82c0-1.627-.03-3.72-2.37-3.72-2.371 0-2.733 1.773-2.733 3.603V31h-4.554V16.973z" fill="#fff"/></svg>