<svg width="512" height="618" fill="none" xmlns="http://www.w3.org/2000/svg"><path d="M256.187 617.487c-1.04-.925-1.817-1.549-2.518-2.249-60.401-60.414-121.265-120.417-181.063-181.384C27.93 388.292 4.196 332.798.767 269.023c-2.876-53.396 9.985-103.025 38.08-148.49a255.217 255.217 0 0 1 79.289-80.192 255.269 255.269 0 0 1 106.114-38.2c53.655-6.548 104.46 2.845 152.415 28.18a249.204 249.204 0 0 1 70.29 55.484c38.368 43.358 59.689 93.891 63.965 151.599 3.954 54.154-8.328 104.683-36.327 151.284a244.4 244.4 0 0 1-36.598 46.876 114408.153 114408.153 0 0 1-181.807 181.923z" fill="#022169"/><path d="M256.187 617.487c-1.04-.925-1.817-1.549-2.518-2.249-60.401-60.414-121.265-120.417-181.063-181.384C27.93 388.292 4.196 332.798.767 269.023c-2.876-53.396 9.985-103.025 38.08-148.49a255.217 255.217 0 0 1 79.289-80.192 255.269 255.269 0 0 1 106.114-38.2c53.655-6.548 104.46 2.845 152.415 28.18a249.204 249.204 0 0 1 70.29 55.484c38.368 43.358 59.689 93.891 63.965 151.599 3.954 54.154-8.328 104.683-36.327 151.284a244.4 244.4 0 0 1-36.598 46.876 114408.153 114408.153 0 0 1-181.807 181.923z" fill="url(#paint0_linear)" fill-opacity=".2"/><defs><linearGradient id="paint0_linear" x1="256.813" y1="618.675" x2="257.503" y2="-108.089" gradientUnits="userSpaceOnUse"><stop stop-color="#fff"/><stop offset="0" stop-color="#fff"/><stop offset=".961" stop-color="#fff" stop-opacity="0"/></linearGradient></defs></svg>