<svg width="106" height="106" fill="none" xmlns="http://www.w3.org/2000/svg"><g fill="#fff"><path d="M0 .092v9.89c5.44 0 9.87-4.429 9.87-9.867v-.07H.712C.505.046.298.07 0 .093z"/><path d="M13.083.115C13.083 7.32 7.207 13.194 0 13.194v8.26c11.775 0 21.346-9.568 21.346-21.34v-.09c-2.755 0-5.509 0-8.263.023v.069z"/><path d="M24.56.115c0 13.538-11.018 24.552-24.56 24.552v8.26c18.087 0 32.822-14.73 32.822-32.812V0h-8.263v.115z"/><path d="M36.035.115C36.035 19.986 19.877 36.14 0 36.14v8.26c24.421 0 44.298-19.87 44.298-44.285V.023C41.544.023 38.79 0 36.035 0v.115zm69.408 45.341a42.47 42.47 0 0 0-.849-4.405 54.192 54.192 0 0 0-2.938-8.995 103.11 103.11 0 0 1-3.512 9.523 105.8 105.8 0 0 1-22.837 33.845c-9.8 9.775-21.185 17.462-33.855 22.831a100.91 100.91 0 0 1-9.433 3.465 51.214 51.214 0 0 0 13.473 3.741c26.831-11.611 48.383-33.18 59.951-60.005z"/><path d="M99.568 27.719a51.523 51.523 0 0 0-7.69-10.624 93.266 93.266 0 0 1-5.806 19.39c-4.706 11.128-11.43 21.11-20.015 29.692-8.584 8.582-18.569 15.305-29.7 20.009a92.063 92.063 0 0 1-19.258 5.782c.414.39.827.757 1.263 1.125a53.109 53.109 0 0 0 9.388 6.54c34.75-9.707 62.178-37.15 71.818-71.914zM83.455 83.524c-9.227 9.225-19.74 16.751-31.353 22.464 5.532.115 10.948-.619 16.25-2.248 10.72-3.282 19.556-9.385 26.441-18.197 5.601-7.159 9.113-15.236 10.536-24.23.482-3.099.711-6.196.665-9.271-5.715 11.657-13.29 22.212-22.539 31.482zM55.774.138l-1.996-.07C51.688.047 49.6.024 47.51.024v.069c0 26.181-21.3 47.498-47.511 47.498v5.76c0 .826.023 1.675.069 2.501C30.779 55.828 55.75 30.84 55.774.138z"/><path d="M89.078 14.296c-.206-.207-.436-.39-.642-.597a57.257 57.257 0 0 0-6.909-5.324 80.215 80.215 0 0 1-6.037 23.612 81.747 81.747 0 0 1-17.558 26.044A81.77 81.77 0 0 1 31.88 75.585a80.545 80.545 0 0 1-23.526 6.012 51.636 51.636 0 0 0 5.921 7.549c38.354-6.104 68.72-36.485 74.802-74.85z"/><path d="M78.474 6.54a50.631 50.631 0 0 0-8.056-3.626c-.689 17.76-7.942 34.373-20.588 47.017C37.229 62.528 20.68 69.756 2.984 70.49c.987 2.822 2.157 5.507 3.557 8.054 38.24-3.167 68.812-33.777 71.933-72.005z"/><path d="M67.228 1.927A51.212 51.212 0 0 0 58.988.39c-.07 15.65-6.197 30.358-17.283 41.418-11.063 11.06-25.73 17.187-41.36 17.278.252 2.18.642 4.36 1.17 6.517.138.574.298 1.147.459 1.721C37.55 66.27 66.287 37.494 67.228 1.927z"/></g></svg>