<?xml version="1.0" encoding="UTF-8" ?>
<!DOCTYPE svg PUBLIC "-//W3C//DTD SVG 1.1//EN" "http://www.w3.org/Graphics/SVG/1.1/DTD/svg11.dtd">
<svg width="13pt" height="48pt" viewBox="0 0 13 48" version="1.1" xmlns="http://www.w3.org/2000/svg">
<g id="#1b3060c7">
<path fill="#1b3060" opacity="0.78" d=" M 3.11 0.00 L 9.36 0.00 C 9.91 1.86 10.13 3.79 10.09 5.72 C 10.86 6.68 11.65 7.64 12.44 8.59 C 12.03 9.30 11.61 10.02 11.20 10.73 C 10.60 9.10 9.61 7.65 8.44 6.37 C 8.22 5.92 7.77 5.03 7.55 4.58 C 7.05 4.59 6.04 4.61 5.54 4.63 C 3.55 6.99 1.37 9.63 1.46 12.91 C 1.16 19.67 1.81 26.43 1.71 33.19 C 1.95 37.65 1.27 42.28 2.92 46.55 C 4.72 44.81 7.23 45.12 9.05 46.66 C 9.22 44.79 9.52 42.93 9.99 41.11 C 10.50 41.98 11.52 43.72 12.03 44.59 L 9.98 45.35 C 10.74 45.14 12.24 44.73 12.99 44.52 C 12.31 46.36 11.01 47.52 9.12 48.00 L 6.94 48.00 C 6.36 46.40 5.80 46.40 5.26 48.00 L 2.59 48.00 C 1.97 46.51 1.11 45.12 0.00 43.95 L 0.00 10.27 C 0.81 8.67 1.71 7.13 2.68 5.63 C 2.93 3.76 3.06 1.88 3.11 0.00 M 3.68 2.67 C 5.37 2.97 7.08 2.89 8.78 2.88 C 8.50 2.49 7.94 1.71 7.66 1.32 C 6.26 1.52 4.60 1.33 3.68 2.67 Z" />
<path fill="#1b3060" opacity="0.78" d=" M 11.50 11.99 C 11.87 11.73 12.62 11.20 13.00 10.94 L 13.00 44.14 C 12.65 43.83 11.94 43.21 11.58 42.90 C 11.42 32.60 11.60 22.29 11.50 11.99 Z" />
<path fill="#1b3060" opacity="0.78" d=" M 1.84 15.18 C 4.65 15.06 8.13 14.37 10.11 16.96 C 13.02 20.18 9.32 25.85 5.15 24.28 C 1.39 22.96 1.80 18.38 1.84 15.18 M 3.56 16.80 C 3.76 18.81 3.16 21.55 5.35 22.69 C 7.91 24.23 10.80 20.37 9.03 18.15 C 7.94 16.17 5.38 17.04 3.56 16.80 Z" />
</g>
</svg>
