<?xml version="1.0" encoding="UTF-8" ?>
<!DOCTYPE svg PUBLIC "-//W3C//DTD SVG 1.1//EN" "http://www.w3.org/Graphics/SVG/1.1/DTD/svg11.dtd">
<svg width="16pt" height="59pt" viewBox="0 0 16 59" version="1.1" xmlns="http://www.w3.org/2000/svg">
<g id="#203a73ed">
<path fill="#203a73" opacity="0.93" d=" M 4.88 0.00 L 10.44 0.00 C 11.92 1.80 11.44 4.21 11.57 6.34 C 13.60 7.86 15.04 9.93 16.00 12.26 L 16.00 55.96 C 14.50 56.78 13.06 57.73 11.89 59.00 L 8.97 59.00 C 8.93 57.26 5.95 57.01 6.35 59.00 L 4.74 59.00 C 2.31 58.07 0.47 55.95 0.73 53.20 C 1.03 52.82 1.63 52.06 1.93 51.69 C 2.05 53.44 2.08 55.35 3.24 56.79 C 4.92 57.96 6.46 56.41 7.97 55.77 C 9.01 56.53 10.06 57.28 11.10 58.04 C 11.29 57.25 11.67 55.67 11.86 54.88 C 12.43 55.31 13.56 56.18 14.13 56.61 C 16.03 52.10 14.59 47.03 14.75 42.29 C 14.44 34.87 14.64 27.43 14.62 20.00 C 14.57 16.84 14.87 13.50 13.53 10.54 C 12.29 8.66 10.27 7.38 9.26 5.31 C 8.26 5.25 7.26 5.19 6.25 5.14 C 6.10 5.67 5.79 6.73 5.64 7.26 C 2.27 8.75 1.15 12.53 1.25 15.93 C 1.32 23.46 1.51 30.98 1.62 38.51 C 1.08 39.80 0.54 41.09 -0.00 42.39 L 0.00 12.60 C 0.78 10.14 2.03 7.82 4.15 6.27 C 4.13 4.16 4.12 2.00 4.88 0.00 M 5.75 1.55 C 3.92 4.75 8.61 3.60 10.18 3.93 C 10.93 0.81 7.80 1.27 5.75 1.55 Z" />
<path fill="#203a73" opacity="0.93" d=" M 2.22 18.34 C 4.24 17.29 6.83 17.96 9.06 17.98 C 13.61 18.39 15.47 25.10 12.05 28.03 C 9.17 31.24 3.25 29.59 2.47 25.33 C 2.17 23.05 1.42 20.54 2.22 18.34 M 3.52 19.09 C 3.61 22.08 2.86 26.22 6.05 27.91 C 9.56 29.84 13.88 25.56 12.08 22.04 C 10.83 18.46 6.49 19.17 3.52 19.09 Z" />
</g>
<g id="#15274c9d">
<path fill="#15274c" opacity="0.62" d=" M 1.62 38.51 C 2.14 42.88 2.07 47.29 1.93 51.69 C 1.63 52.06 1.03 52.82 0.73 53.20 L 0.00 54.18 L 0.00 42.39 C 0.54 41.09 1.08 39.80 1.62 38.51 Z" />
<path fill="#15274c" opacity="0.62" d=" M 13.98 42.79 C 14.17 42.67 14.56 42.42 14.75 42.29 C 14.59 47.03 16.03 52.10 14.13 56.61 C 13.56 56.18 12.43 55.31 11.86 54.88 C 11.90 53.13 12.86 52.16 14.66 52.22 C 14.75 49.06 14.73 45.88 13.98 42.79 Z" />
</g>
</svg>
