<?xml version="1.0" encoding="UTF-8" ?>
<!DOCTYPE svg PUBLIC "-//W3C//DTD SVG 1.1//EN" "http://www.w3.org/Graphics/SVG/1.1/DTD/svg11.dtd">
<svg width="69pt" height="74pt" viewBox="0 0 69 74" version="1.1" xmlns="http://www.w3.org/2000/svg">
<g id="#da9aa1e0">
<path fill="#da9aa1" opacity="0.88" d=" M 41.33 0.00 L 44.27 0.00 C 46.16 0.83 48.01 1.75 49.88 2.64 C 51.36 1.83 52.87 -0.57 54.65 0.97 C 55.43 2.99 55.72 5.25 57.02 7.04 C 58.86 9.33 61.90 10.09 63.96 12.12 C 65.26 14.55 64.53 17.40 64.54 20.01 C 64.23 19.55 63.62 18.64 63.31 18.19 C 63.02 16.36 63.00 14.48 62.43 12.71 C 60.35 11.07 57.71 10.15 55.92 8.14 C 54.62 6.40 54.09 4.25 53.36 2.24 C 52.29 2.89 51.24 3.58 50.10 4.10 C 47.67 3.45 45.44 2.20 42.97 1.69 C 40.77 1.56 38.61 2.13 36.44 2.40 C 34.79 2.28 33.15 2.13 31.51 2.00 C 34.77 1.28 38.03 0.52 41.33 0.00 Z" />
</g>
<g id="#205643ff">
<path fill="#205643" opacity="1.00" d=" M 18.79 7.15 C 21.85 3.34 26.97 2.62 31.51 2.00 C 33.15 2.13 34.79 2.28 36.44 2.40 C 39.81 3.21 43.80 2.77 46.55 5.18 C 38.98 4.71 31.05 1.82 23.76 5.43 C 22.10 5.99 20.43 6.53 18.79 7.15 Z" />
<path fill="#205643" opacity="1.00" d=" M 23.91 8.18 C 26.13 6.92 28.57 6.14 31.13 6.00 C 30.23 6.70 29.33 7.39 28.42 8.07 C 28.81 9.89 29.21 11.70 29.61 13.51 C 29.29 13.59 28.66 13.75 28.35 13.84 C 27.94 12.14 27.54 10.44 27.13 8.74 C 26.32 8.60 24.72 8.32 23.91 8.18 Z" />
<path fill="#205643" opacity="1.00" d=" M 32.26 5.96 C 34.42 5.63 37.78 5.73 36.92 8.85 C 35.28 10.03 33.19 10.89 33.10 13.25 C 31.70 11.08 32.38 8.38 32.26 5.96 M 34.07 7.25 C 33.61 8.63 34.10 9.08 35.54 8.62 C 35.98 7.24 35.49 6.79 34.07 7.25 Z" />
<path fill="#205643" opacity="1.00" d=" M 39.23 11.82 C 37.65 9.31 41.08 4.95 43.68 7.09 C 45.66 8.36 44.83 10.68 44.52 12.55 C 42.84 12.88 40.17 13.81 39.23 11.82 M 40.46 11.46 C 41.53 11.60 42.62 11.67 43.71 11.66 C 43.39 10.52 44.02 7.76 42.00 8.17 C 40.25 7.97 40.10 10.26 40.46 11.46 Z" />
<path fill="#205643" opacity="1.00" d=" M 12.75 9.71 C 14.25 8.79 15.86 6.49 17.84 7.92 C 16.97 8.59 16.09 9.26 15.21 9.92 C 13.73 10.16 12.92 11.01 12.78 12.50 L 12.51 12.56 L 12.25 12.77 C 9.12 14.41 6.87 17.32 5.45 20.50 C 4.40 22.91 3.90 25.64 2.01 27.60 C 2.56 20.30 7.00 13.98 12.75 9.71 Z" />
<path fill="#205643" opacity="1.00" d=" M 48.04 9.47 C 49.87 9.20 51.68 8.83 53.45 8.28 C 57.47 10.77 60.49 14.47 63.31 18.19 C 63.62 18.64 64.23 19.55 64.54 20.01 C 66.02 23.62 67.95 27.12 68.41 31.06 C 68.17 31.35 67.69 31.94 67.45 32.24 C 67.04 30.39 66.50 28.57 65.76 26.83 C 62.96 27.67 60.18 28.61 57.29 29.16 C 59.43 27.20 62.26 26.41 64.99 25.68 C 64.64 24.81 64.28 23.93 63.93 23.06 C 61.58 24.57 59.20 26.02 56.72 27.29 C 57.66 25.64 58.63 24.02 59.57 22.37 C 58.52 22.63 56.41 23.13 55.36 23.39 C 54.69 21.71 54.07 20.01 53.45 18.31 C 52.36 18.08 51.28 17.85 50.19 17.62 C 50.09 17.18 49.90 16.29 49.80 15.84 C 48.12 15.78 46.50 15.37 44.98 14.68 C 45.98 12.93 47.00 11.19 48.04 9.47 M 52.03 16.48 C 53.68 15.40 55.49 14.53 57.49 14.38 C 56.88 17.05 55.97 19.64 54.98 22.20 C 56.86 21.07 58.75 19.98 60.69 18.96 C 60.59 19.99 60.38 22.06 60.27 23.10 C 61.24 22.51 63.39 22.65 63.25 21.06 C 62.70 20.73 61.60 20.06 61.04 19.72 C 60.62 14.96 55.91 12.40 52.90 9.27 C 51.96 11.50 49.49 14.54 52.03 16.48 M 49.27 11.29 C 49.79 11.79 49.79 11.79 49.27 11.29 M 47.58 13.18 C 47.09 14.53 47.57 15.02 49.02 14.64 C 49.51 13.29 49.03 12.80 47.58 13.18 Z" />
<path fill="#205643" opacity="1.00" d=" M 21.63 7.52 C 23.51 9.79 24.81 12.45 25.74 15.23 C 24.28 14.42 23.06 12.92 21.30 12.80 C 21.38 13.96 21.53 15.12 21.68 16.27 C 19.85 17.65 18.04 19.06 16.22 20.46 C 14.81 18.96 13.38 17.47 11.95 15.99 C 13.26 14.61 14.73 13.40 16.16 12.15 L 15.41 13.57 C 14.89 14.54 14.37 15.51 13.84 16.48 C 15.29 15.79 16.73 15.11 18.18 14.44 C 17.31 15.81 16.42 17.17 15.56 18.55 C 17.13 17.70 18.70 16.84 20.27 15.98 C 19.48 14.14 18.66 12.31 17.94 10.44 C 18.04 10.34 18.25 10.15 18.35 10.05 C 19.47 10.84 20.60 11.63 21.73 12.40 C 21.70 11.18 21.65 8.74 21.63 7.52 Z" />
<path fill="#205643" opacity="1.00" d=" M 28.37 18.62 C 29.01 17.35 29.26 15.43 30.98 15.24 C 34.70 14.44 38.14 16.90 41.90 16.77 C 43.99 21.69 45.15 26.95 46.86 32.01 C 48.96 38.39 49.45 45.16 51.55 51.54 C 45.84 53.26 40.38 55.68 34.79 57.74 C 31.25 56.87 25.64 56.56 25.27 51.94 C 23.03 41.97 20.65 32.03 18.10 22.15 C 21.28 20.37 24.99 19.90 28.37 18.62 M 30.09 18.24 C 32.00 19.50 34.13 20.09 36.26 19.02 C 34.86 16.66 32.19 17.87 30.09 18.24 M 26.72 23.86 C 27.38 26.20 27.95 28.60 29.05 30.78 C 33.39 27.83 37.59 24.68 42.07 21.92 C 41.93 21.25 41.65 19.91 41.51 19.24 C 36.45 20.31 31.44 21.72 26.72 23.86 M 23.83 22.51 C 26.15 22.40 28.54 22.07 30.22 20.32 C 28.00 20.53 25.09 20.13 23.83 22.51 M 20.04 23.32 C 22.63 33.63 24.67 44.09 27.54 54.33 C 29.74 55.01 31.95 55.67 34.18 56.24 C 30.56 46.63 29.11 36.41 25.97 26.66 C 25.41 28.24 24.89 29.83 24.34 31.41 C 21.87 29.33 22.29 25.59 20.04 23.32 M 23.13 24.14 C 21.97 25.00 23.09 27.63 24.49 26.47 C 25.66 25.59 24.56 22.99 23.13 24.14 M 39.91 27.82 C 40.38 27.05 41.31 25.52 41.78 24.75 C 41.66 26.78 42.49 28.09 44.28 28.66 C 43.82 26.76 43.17 24.92 42.41 23.13 C 41.27 24.36 37.81 25.73 39.91 27.82 M 36.28 26.46 C 36.62 29.17 38.19 31.80 37.39 34.57 C 36.50 32.57 35.77 30.51 35.09 28.43 C 34.14 28.98 33.19 29.54 32.25 30.09 C 32.03 31.81 31.79 33.53 31.59 35.25 C 32.87 34.77 34.15 34.32 35.44 33.87 C 34.57 36.38 32.24 36.94 30.06 35.44 C 30.30 36.98 30.54 38.52 30.79 40.06 C 34.04 37.50 37.55 35.28 40.66 32.54 C 41.75 31.95 42.84 31.36 43.94 30.77 C 42.77 28.97 41.09 30.69 39.79 31.19 C 39.68 28.93 38.23 27.39 36.28 26.46 M 44.47 32.23 C 39.78 34.99 35.33 38.19 31.22 41.76 C 32.80 46.50 33.99 51.37 35.73 56.07 C 40.05 53.50 45.55 53.00 49.56 50.23 C 48.16 44.24 47.55 38.02 45.34 32.24 C 45.12 32.24 44.69 32.23 44.47 32.23 Z" />
<path fill="#205643" opacity="1.00" d=" M 5.11 25.74 C 5.46 25.78 6.16 25.85 6.51 25.88 C 8.84 26.12 11.08 26.89 12.79 28.52 C 11.29 28.36 9.79 28.20 8.29 28.02 C 9.22 29.54 10.23 31.02 11.25 32.48 C 9.12 31.84 6.97 31.27 4.82 30.71 C 4.53 30.64 3.96 30.48 3.67 30.40 C 3.13 30.25 2.04 29.95 1.49 29.80 L 2.26 32.42 L 0.42 32.86 C 0.47 31.44 0.53 30.01 0.58 28.59 C 2.07 28.86 3.58 29.11 5.08 29.38 C 5.62 29.43 6.72 29.55 7.26 29.61 C 8.22 28.29 6.61 26.27 5.23 27.54 L 5.11 25.74 Z" />
<path fill="#205643" opacity="1.00" d=" M 66.99 35.41 C 67.48 37.05 68.04 38.65 68.55 40.28 C 67.59 44.90 67.29 50.63 63.13 53.65 C 64.34 49.98 66.18 46.46 66.48 42.53 C 66.18 42.64 65.59 42.86 65.30 42.97 C 65.24 42.58 65.13 41.79 65.08 41.40 C 65.80 41.67 66.51 41.96 67.23 42.25 C 67.08 39.97 66.99 37.69 66.99 35.41 Z" />
<path fill="#205643" opacity="1.00" d=" M 3.33 37.43 L 4.07 37.40 C 4.18 38.10 4.39 39.49 4.50 40.18 L 4.04 40.95 C 3.79 40.79 3.29 40.47 3.04 40.31 C 3.12 39.59 3.26 38.15 3.33 37.43 Z" />
<path fill="#205643" opacity="1.00" d=" M 50.89 52.68 C 52.53 54.23 54.12 55.84 55.67 57.47 C 55.49 57.91 55.11 58.80 54.92 59.24 C 53.97 58.11 53.03 56.98 52.08 55.85 C 52.18 57.74 52.29 59.63 52.35 61.52 C 50.29 59.71 48.45 57.66 46.86 55.42 C 48.11 55.92 49.36 56.43 50.60 56.95 C 50.69 55.52 50.79 54.10 50.89 52.68 Z" />
<path fill="#205643" opacity="1.00" d=" M 56.49 60.38 C 58.70 58.15 60.73 55.73 63.07 53.63 C 61.86 57.74 58.34 60.46 55.69 63.63 L 54.70 62.21 C 55.32 61.62 55.91 61.01 56.49 60.38 Z" />
<path fill="#205643" opacity="1.00" d=" M 44.93 58.47 C 45.44 57.99 46.47 57.03 46.99 56.56 C 46.64 57.69 46.28 58.81 45.91 59.94 C 47.17 61.21 48.38 62.54 49.24 64.12 C 47.85 63.42 46.47 62.68 45.11 61.92 C 45.20 62.98 45.39 65.10 45.49 66.16 C 44.05 64.72 43.40 62.76 42.68 60.91 C 43.17 60.63 44.16 60.09 44.65 59.81 C 44.72 59.48 44.86 58.81 44.93 58.47 Z" />
<path fill="#205643" opacity="1.00" d=" M 28.73 60.63 C 30.68 59.55 32.06 61.64 33.10 62.95 C 31.57 62.54 30.05 62.07 28.53 61.62 C 28.39 62.96 28.37 64.31 28.49 65.65 C 30.04 65.16 31.61 64.56 33.27 64.71 C 31.97 65.58 30.72 66.72 29.12 66.99 C 26.24 66.33 25.79 61.50 28.73 60.63 Z" />
<path fill="#205643" opacity="1.00" d=" M 36.27 60.29 C 40.02 58.09 42.72 64.39 39.38 66.42 C 35.82 69.06 32.12 61.83 36.27 60.29 M 35.55 61.70 C 35.89 63.04 36.32 64.36 36.84 65.65 C 38.80 65.70 39.67 64.76 39.42 62.82 C 39.12 60.68 36.96 61.71 35.55 61.70 Z" />
<path fill="#205643" opacity="1.00" d=" M 28.32 69.33 C 34.67 69.80 41.23 69.32 47.01 66.45 C 47.54 66.62 48.61 66.96 49.14 67.14 C 48.19 67.93 47.27 68.76 46.32 69.56 L 47.60 67.99 C 44.08 69.05 40.56 70.09 36.97 70.87 C 35.03 70.45 33.03 70.52 31.11 70.98 C 30.72 70.77 29.94 70.34 29.55 70.12 L 28.32 69.33 Z" />
</g>
<g id="#fca838ff">
<path fill="#fca838" opacity="1.00" d=" M 36.44 2.40 C 38.61 2.13 40.77 1.56 42.97 1.69 C 45.44 2.20 47.67 3.45 50.10 4.10 C 51.24 3.58 52.29 2.89 53.36 2.24 C 54.09 4.25 54.62 6.40 55.92 8.14 C 57.71 10.15 60.35 11.07 62.43 12.71 C 63.00 14.48 63.02 16.36 63.31 18.19 C 60.49 14.47 57.47 10.77 53.45 8.28 C 51.68 8.83 49.87 9.20 48.04 9.47 C 47.00 11.19 45.98 12.93 44.98 14.68 C 46.50 15.37 48.12 15.78 49.80 15.84 C 49.90 16.29 50.09 17.18 50.19 17.62 C 51.28 17.85 52.36 18.08 53.45 18.31 C 54.07 20.01 54.69 21.71 55.36 23.39 C 56.41 23.13 58.52 22.63 59.57 22.37 C 58.63 24.02 57.66 25.64 56.72 27.29 C 59.20 26.02 61.58 24.57 63.93 23.06 C 64.28 23.93 64.64 24.81 64.99 25.68 C 62.26 26.41 59.43 27.20 57.29 29.16 C 60.18 28.61 62.96 27.67 65.76 26.83 C 66.16 30.24 64.73 33.24 63.13 36.13 C 63.67 41.48 62.80 47.11 59.39 51.43 C 57.82 53.22 56.42 55.18 55.67 57.47 C 54.12 55.84 52.53 54.23 50.89 52.68 C 50.79 54.10 50.69 55.52 50.60 56.95 C 49.36 56.43 48.11 55.92 46.86 55.42 C 48.45 57.66 50.29 59.71 52.35 61.52 C 52.29 59.63 52.18 57.74 52.08 55.85 C 53.03 56.98 53.97 58.11 54.92 59.24 C 53.20 61.18 51.24 62.89 49.59 64.89 C 49.48 65.45 49.26 66.58 49.14 67.14 C 48.61 66.96 47.54 66.62 47.01 66.45 C 41.23 69.32 34.67 69.80 28.32 69.33 C 27.02 68.50 25.73 67.67 24.44 66.83 C 21.83 62.32 15.85 62.08 12.97 57.88 C 10.18 54.47 7.80 50.68 6.40 46.48 C 8.35 45.87 10.23 45.09 12.09 44.25 C 11.27 44.12 9.64 43.87 8.82 43.74 C 9.48 42.57 10.15 41.39 10.80 40.21 C 9.32 40.99 7.85 41.78 6.38 42.58 C 5.79 42.17 4.63 41.36 4.04 40.95 L 4.50 40.18 C 6.35 40.09 8.20 40.01 10.06 39.93 C 10.15 37.87 10.23 35.82 10.30 33.76 C 8.59 33.79 6.88 33.82 5.17 33.93 C 5.09 33.13 4.91 31.52 4.82 30.71 C 6.97 31.27 9.12 31.84 11.25 32.48 C 10.23 31.02 9.22 29.54 8.29 28.02 C 9.79 28.20 11.29 28.36 12.79 28.52 C 11.08 26.89 8.84 26.12 6.51 25.88 C 6.76 25.11 7.24 23.55 7.49 22.77 C 8.42 23.93 9.53 25.19 11.14 25.28 C 13.51 24.83 15.60 23.53 17.72 22.46 C 16.63 21.46 15.24 21.10 13.79 21.13 C 12.69 20.07 11.59 19.01 10.53 17.92 C 10.88 17.43 11.60 16.47 11.95 15.99 C 13.38 17.47 14.81 18.96 16.22 20.46 C 18.04 19.06 19.85 17.65 21.68 16.27 C 21.53 15.12 21.38 13.96 21.30 12.80 C 23.06 12.92 24.28 14.42 25.74 15.23 C 24.81 12.45 23.51 9.79 21.63 7.52 C 21.65 8.74 21.70 11.18 21.73 12.40 C 20.60 11.63 19.47 10.84 18.35 10.05 C 20.14 8.50 21.95 6.97 23.76 5.43 C 31.05 1.82 38.98 4.71 46.55 5.18 C 43.80 2.77 39.81 3.21 36.44 2.40 M 48.08 5.45 C 47.43 6.82 49.74 8.12 50.87 7.46 C 51.45 6.10 49.21 4.77 48.08 5.45 M 23.91 8.18 C 24.72 8.32 26.32 8.60 27.13 8.74 C 27.54 10.44 27.94 12.14 28.35 13.84 C 28.66 13.75 29.29 13.59 29.61 13.51 C 29.21 11.70 28.81 9.89 28.42 8.07 C 29.33 7.39 30.23 6.70 31.13 6.00 C 28.57 6.14 26.13 6.92 23.91 8.18 M 32.26 5.96 C 32.38 8.38 31.70 11.08 33.10 13.25 C 33.19 10.89 35.28 10.03 36.92 8.85 C 37.78 5.73 34.42 5.63 32.26 5.96 M 39.23 11.82 C 40.17 13.81 42.84 12.88 44.52 12.55 C 44.83 10.68 45.66 8.36 43.68 7.09 C 41.08 4.95 37.65 9.31 39.23 11.82 M 28.37 18.62 C 24.99 19.90 21.28 20.37 18.10 22.15 C 20.65 32.03 23.03 41.97 25.27 51.94 C 25.64 56.56 31.25 56.87 34.79 57.74 C 40.38 55.68 45.84 53.26 51.55 51.54 C 49.45 45.16 48.96 38.39 46.86 32.01 C 45.15 26.95 43.99 21.69 41.90 16.77 C 38.14 16.90 34.70 14.44 30.98 15.24 C 29.26 15.43 29.01 17.35 28.37 18.62 M 44.93 58.47 C 43.37 56.23 40.04 59.91 42.68 60.91 C 43.40 62.76 44.05 64.72 45.49 66.16 C 45.39 65.10 45.20 62.98 45.11 61.92 C 46.47 62.68 47.85 63.42 49.24 64.12 C 48.38 62.54 47.17 61.21 45.91 59.94 C 46.28 58.81 46.64 57.69 46.99 56.56 C 46.47 57.03 45.44 57.99 44.93 58.47 M 28.73 60.63 C 25.79 61.50 26.24 66.33 29.12 66.99 C 30.72 66.72 31.97 65.58 33.27 64.71 C 31.61 64.56 30.04 65.16 28.49 65.65 C 28.37 64.31 28.39 62.96 28.53 61.62 C 30.05 62.07 31.57 62.54 33.10 62.95 C 32.06 61.64 30.68 59.55 28.73 60.63 M 36.27 60.29 C 32.12 61.83 35.82 69.06 39.38 66.42 C 42.72 64.39 40.02 58.09 36.27 60.29 Z" />
<path fill="#fca838" opacity="1.00" d=" M 34.07 7.25 C 35.49 6.79 35.98 7.24 35.54 8.62 C 34.10 9.08 33.61 8.63 34.07 7.25 Z" />
<path fill="#fca838" opacity="1.00" d=" M 52.03 16.48 C 49.49 14.54 51.96 11.50 52.90 9.27 C 55.91 12.40 60.62 14.96 61.04 19.72 C 61.60 20.06 62.70 20.73 63.25 21.06 C 63.39 22.65 61.24 22.51 60.27 23.10 C 60.38 22.06 60.59 19.99 60.69 18.96 C 58.75 19.98 56.86 21.07 54.98 22.20 C 55.97 19.64 56.88 17.05 57.49 14.38 C 55.49 14.53 53.68 15.40 52.03 16.48 Z" />
<path fill="#fca838" opacity="1.00" d=" M 20.04 23.32 C 22.29 25.59 21.87 29.33 24.34 31.41 C 24.89 29.83 25.41 28.24 25.97 26.66 C 29.11 36.41 30.56 46.63 34.18 56.24 C 31.95 55.67 29.74 55.01 27.54 54.33 C 24.67 44.09 22.63 33.63 20.04 23.32 Z" />
<path fill="#fca838" opacity="1.00" d=" M 44.47 32.23 C 44.69 32.23 45.12 32.24 45.34 32.24 C 47.55 38.02 48.16 44.24 49.56 50.23 C 45.55 53.00 40.05 53.50 35.73 56.07 C 33.99 51.37 32.80 46.50 31.22 41.76 C 35.33 38.19 39.78 34.99 44.47 32.23 Z" />
</g>
<g id="#596b41ff">
<path fill="#596b41" opacity="1.00" d=" M 48.08 5.45 C 49.21 4.77 51.45 6.10 50.87 7.46 C 49.74 8.12 47.43 6.82 48.08 5.45 Z" />
</g>
<g id="#bc9291ee">
<path fill="#bc9291" opacity="0.93" d=" M 18.79 7.15 C 20.43 6.53 22.10 5.99 23.76 5.43 C 21.95 6.97 20.14 8.50 18.35 10.05 C 18.25 10.15 18.04 10.34 17.94 10.44 C 17.34 11.01 16.75 11.58 16.16 12.15 C 14.73 13.40 13.26 14.61 11.95 15.99 C 11.60 16.47 10.88 17.43 10.53 17.92 C 11.59 19.01 12.69 20.07 13.79 21.13 C 13.44 21.10 12.75 21.05 12.40 21.02 C 11.50 20.71 10.61 20.39 9.73 20.04 C 8.71 20.43 7.69 20.82 6.67 21.20 C 7.65 17.85 10.96 15.95 12.25 12.77 L 12.54 12.65 L 12.78 12.50 C 14.19 12.16 15.00 11.31 15.21 9.92 C 16.09 9.26 16.97 8.59 17.84 7.92 C 18.07 7.72 18.55 7.34 18.79 7.15 Z" />
</g>
<g id="#f8a639ff">
<path fill="#f8a639" opacity="1.00" d=" M 40.46 11.46 C 40.10 10.26 40.25 7.97 42.00 8.17 C 44.02 7.76 43.39 10.52 43.71 11.66 C 42.62 11.67 41.53 11.60 40.46 11.46 Z" />
<path fill="#f8a639" opacity="1.00" d=" M 16.16 12.15 C 16.75 11.58 17.34 11.01 17.94 10.44 C 18.66 12.31 19.48 14.14 20.27 15.98 C 18.70 16.84 17.13 17.70 15.56 18.55 C 16.42 17.17 17.31 15.81 18.18 14.44 C 16.73 15.11 15.29 15.79 13.84 16.48 C 14.37 15.51 14.89 14.54 15.41 13.57 L 16.16 12.15 Z" />
<path fill="#f8a639" opacity="1.00" d=" M 30.09 18.24 C 32.19 17.87 34.86 16.66 36.26 19.02 C 34.13 20.09 32.00 19.50 30.09 18.24 Z" />
<path fill="#f8a639" opacity="1.00" d=" M 36.28 26.46 C 38.23 27.39 39.68 28.93 39.79 31.19 C 41.09 30.69 42.77 28.97 43.94 30.77 C 42.84 31.36 41.75 31.95 40.66 32.54 C 37.55 35.28 34.04 37.50 30.79 40.06 C 30.54 38.52 30.30 36.98 30.06 35.44 C 32.24 36.94 34.57 36.38 35.44 33.87 C 34.15 34.32 32.87 34.77 31.59 35.25 C 31.79 33.53 32.03 31.81 32.25 30.09 C 33.19 29.54 34.14 28.98 35.09 28.43 C 35.77 30.51 36.50 32.57 37.39 34.57 C 38.19 31.80 36.62 29.17 36.28 26.46 Z" />
<path fill="#f8a639" opacity="1.00" d=" M 35.55 61.70 C 36.96 61.71 39.12 60.68 39.42 62.82 C 39.67 64.76 38.80 65.70 36.84 65.65 C 36.32 64.36 35.89 63.04 35.55 61.70 Z" />
</g>
<g id="#32282c45">
<path fill="#32282c" opacity="0.27" d=" M 12.78 12.50 C 12.92 11.01 13.73 10.16 15.21 9.92 C 15.00 11.31 14.19 12.16 12.78 12.50 Z" />
</g>
<g id="#c9933cff">
<path fill="#c9933c" opacity="1.00" d=" M 49.27 11.29 C 49.79 11.79 49.79 11.79 49.27 11.29 Z" />
</g>
<g id="#db9a3bff">
<path fill="#db9a3b" opacity="1.00" d=" M 47.58 13.18 C 49.03 12.80 49.51 13.29 49.02 14.64 C 47.57 15.02 47.09 14.53 47.58 13.18 Z" />
<path fill="#db9a3b" opacity="1.00" d=" M 23.83 22.51 C 25.09 20.13 28.00 20.53 30.22 20.32 C 28.54 22.07 26.15 22.40 23.83 22.51 Z" />
<path fill="#db9a3b" opacity="1.00" d=" M 39.91 27.82 C 37.81 25.73 41.27 24.36 42.41 23.13 C 43.17 24.92 43.82 26.76 44.28 28.66 C 42.49 28.09 41.66 26.78 41.78 24.75 C 41.31 25.52 40.38 27.05 39.91 27.82 Z" />
<path fill="#db9a3b" opacity="1.00" d=" M 3.29 34.89 C 3.76 34.65 4.70 34.17 5.17 33.93 C 6.88 33.82 8.59 33.79 10.30 33.76 C 10.23 35.82 10.15 37.87 10.06 39.93 C 8.20 40.01 6.35 40.09 4.50 40.18 C 4.39 39.49 4.18 38.10 4.07 37.40 L 3.33 37.43 C 3.32 36.79 3.30 35.52 3.29 34.89 Z" />
</g>
<g id="#faa838ff">
<path fill="#faa838" opacity="1.00" d=" M 26.72 23.86 C 31.44 21.72 36.45 20.31 41.51 19.24 C 41.65 19.91 41.93 21.25 42.07 21.92 C 37.59 24.68 33.39 27.83 29.05 30.78 C 27.95 28.60 27.38 26.20 26.72 23.86 Z" />
</g>
<g id="#e9a23cff">
<path fill="#e9a23c" opacity="1.00" d=" M 6.67 21.20 C 7.69 20.82 8.71 20.43 9.73 20.04 C 10.61 20.39 11.50 20.71 12.40 21.02 C 12.75 21.05 13.44 21.10 13.79 21.13 C 15.24 21.10 16.63 21.46 17.72 22.46 C 15.60 23.53 13.51 24.83 11.14 25.28 C 9.53 25.19 8.42 23.93 7.49 22.77 L 7.07 22.00 L 6.67 21.20 Z" />
<path fill="#e9a23c" opacity="1.00" d=" M 5.23 27.54 C 6.61 26.27 8.22 28.29 7.26 29.61 C 6.72 29.55 5.62 29.43 5.08 29.38 C 5.11 28.92 5.19 28.00 5.23 27.54 Z" />
</g>
<g id="#ba8d91d6">
<path fill="#ba8d91" opacity="0.84" d=" M 5.11 25.74 C 4.88 24.34 5.28 22.02 7.07 22.00 L 7.49 22.77 C 7.24 23.55 6.76 25.11 6.51 25.88 C 6.16 25.85 5.46 25.78 5.11 25.74 Z" />
</g>
<g id="#b58d3cff">
<path fill="#b58d3c" opacity="1.00" d=" M 23.13 24.14 C 24.56 22.99 25.66 25.59 24.49 26.47 C 23.09 27.63 21.97 25.00 23.13 24.14 Z" />
</g>
<g id="#d2969fde">
<path fill="#d2969f" opacity="0.87" d=" M 65.76 26.83 C 66.50 28.57 67.04 30.39 67.45 32.24 L 67.03 32.77 C 64.46 35.00 63.90 38.27 65.08 41.40 C 65.13 41.79 65.24 42.58 65.30 42.97 C 63.98 45.81 62.35 48.53 61.71 51.63 C 58.57 53.54 57.36 57.01 56.49 60.38 C 55.91 61.01 55.32 61.62 54.70 62.21 C 54.22 62.58 53.27 63.34 52.79 63.71 C 51.70 64.03 50.63 64.42 49.59 64.89 C 51.24 62.89 53.20 61.18 54.92 59.24 C 55.11 58.80 55.49 57.91 55.67 57.47 C 56.42 55.18 57.82 53.22 59.39 51.43 C 62.80 47.11 63.67 41.48 63.13 36.13 C 64.73 33.24 66.16 30.24 65.76 26.83 Z" />
</g>
<g id="#b78594bf">
<path fill="#b78594" opacity="0.75" d=" M 3.67 30.40 C 3.96 30.48 4.53 30.64 4.82 30.71 C 4.91 31.52 5.09 33.13 5.17 33.93 C 4.70 34.17 3.76 34.65 3.29 34.89 C 3.13 33.36 3.25 31.87 3.67 30.40 Z" />
</g>
<g id="#16392ca6">
<path fill="#16392c" opacity="0.65" d=" M 68.41 31.06 L 69.00 30.32 L 69.00 41.69 L 68.55 40.28 C 68.04 38.65 67.48 37.05 66.99 35.41 C 67.00 34.75 67.02 33.43 67.03 32.77 L 67.45 32.24 C 67.69 31.94 68.17 31.35 68.41 31.06 Z" />
</g>
<g id="#204c3cdf">
<path fill="#204c3c" opacity="0.87" d=" M 0.00 33.64 C 2.36 37.33 1.72 41.90 3.16 45.89 C 5.00 51.15 7.41 56.70 12.44 59.65 C 15.22 63.67 20.35 64.69 24.44 66.83 C 25.73 67.67 27.02 68.50 28.32 69.33 L 29.55 70.12 C 28.79 70.01 27.28 69.80 26.52 69.69 C 23.76 68.32 20.87 67.28 18.05 66.05 C 8.14 60.92 1.34 50.74 0.00 39.68 L 0.00 33.64 Z" />
</g>
<g id="#426245fb">
<path fill="#426245" opacity="1.00" d=" M 3.04 40.31 C 3.29 40.47 3.79 40.79 4.04 40.95 C 4.63 41.36 5.79 42.17 6.38 42.58 C 7.85 41.78 9.32 40.99 10.80 40.21 C 10.15 41.39 9.48 42.57 8.82 43.74 C 9.64 43.87 11.27 44.12 12.09 44.25 C 10.23 45.09 8.35 45.87 6.40 46.48 C 5.98 46.41 5.14 46.27 4.72 46.20 C 4.59 45.91 4.34 45.32 4.22 45.02 C 6.88 45.63 5.80 42.22 3.74 43.48 C 3.57 42.69 3.22 41.10 3.04 40.31 Z" />
</g>
<g id="#ae8684da">
<path fill="#ae8684" opacity="0.85" d=" M 3.74 43.48 C 5.80 42.22 6.88 45.63 4.22 45.02 C 4.10 44.64 3.86 43.86 3.74 43.48 Z" />
</g>
<g id="#d59ba0ec">
<path fill="#d59ba0" opacity="0.93" d=" M 4.72 46.20 C 5.14 46.27 5.98 46.41 6.40 46.48 C 7.80 50.68 10.18 54.47 12.97 57.88 C 15.85 62.08 21.83 62.32 24.44 66.83 C 20.35 64.69 15.22 63.67 12.44 59.65 C 9.53 55.36 6.42 51.17 4.72 46.20 Z" />
</g>
<g id="#897c3eff">
<path fill="#897c3e" opacity="1.00" d=" M 42.68 60.91 C 40.04 59.91 43.37 56.23 44.93 58.47 C 44.86 58.81 44.72 59.48 44.65 59.81 C 44.16 60.09 43.17 60.63 42.68 60.91 Z" />
</g>
<g id="#385747da">
<path fill="#385747" opacity="0.85" d=" M 49.59 64.89 C 50.63 64.42 51.70 64.03 52.79 63.71 C 52.58 65.65 50.66 66.40 49.14 67.14 C 49.26 66.58 49.48 65.45 49.59 64.89 Z" />
</g>
<g id="#cc93a1da">
<path fill="#cc93a1" opacity="0.85" d=" M 36.97 70.87 C 40.56 70.09 44.08 69.05 47.60 67.99 L 46.32 69.56 C 43.23 72.37 38.77 72.07 34.96 73.09 C 31.63 74.02 28.95 71.51 26.52 69.69 C 27.28 69.80 28.79 70.01 29.55 70.12 C 29.94 70.34 30.72 70.77 31.11 70.98 C 32.83 72.63 35.29 72.49 36.97 70.87 Z" />
</g>
<g id="#f9aa61ff">
<path fill="#f9aa61" opacity="1.00" d=" M 31.11 70.98 C 33.03 70.52 35.03 70.45 36.97 70.87 C 35.29 72.49 32.83 72.63 31.11 70.98 Z" />
</g>
</svg>
