<?xml version="1.0" encoding="UTF-8" ?>
<!DOCTYPE svg PUBLIC "-//W3C//DTD SVG 1.1//EN" "http://www.w3.org/Graphics/SVG/1.1/DTD/svg11.dtd">
<svg width="18pt" height="65pt" viewBox="0 0 18 65" version="1.1" xmlns="http://www.w3.org/2000/svg">
<g id="#1c3264ce">
<path fill="#1c3264" opacity="0.81" d=" M 5.68 0.00 L 11.72 0.00 C 12.01 1.81 12.21 3.63 12.43 5.44 C 14.96 7.53 17.01 10.16 18.00 13.32 L 18.00 61.48 C 16.43 62.94 14.60 64.10 12.66 65.00 L 9.79 65.00 C 9.73 63.93 9.20 63.22 8.19 62.89 C 7.31 63.39 6.65 64.09 6.21 65.00 L 5.02 65.00 C 1.69 64.07 0.80 60.73 0.01 57.79 C 0.63 57.78 1.87 57.76 2.49 57.75 C 1.81 59.68 2.56 61.77 4.15 62.97 C 5.73 62.67 7.23 62.03 8.81 61.75 C 10.09 62.34 11.22 63.20 12.42 63.93 C 13.38 61.41 14.34 58.88 15.40 56.40 C 15.40 58.49 15.38 60.57 15.49 62.66 C 17.02 58.95 16.52 54.89 16.55 50.99 C 16.50 39.99 16.58 29.00 16.52 18.00 C 16.44 15.12 16.44 11.87 14.43 9.57 C 12.77 7.60 10.82 5.91 8.96 4.14 C 6.07 6.78 2.38 9.26 1.65 13.41 C 0.71 18.90 1.45 24.49 1.45 30.03 C 1.49 38.66 1.43 47.30 1.50 55.93 C 1.13 56.22 0.38 56.80 0.00 57.09 L 0.00 14.51 C 0.34 10.76 2.62 7.76 5.30 5.33 C 5.40 3.55 5.53 1.78 5.68 0.00 M 6.61 2.97 C 8.20 2.98 9.79 2.94 11.38 2.85 C 10.44 1.02 7.12 0.64 6.61 2.97 Z" />
<path fill="#1c3264" opacity="0.81" d=" M 1.85 18.03 C 5.84 18.40 11.00 16.52 13.94 20.13 C 17.28 23.43 15.81 29.90 11.36 31.37 C 7.76 32.91 3.18 30.52 2.39 26.69 C 1.78 23.85 1.89 20.92 1.85 18.03 M 3.52 19.39 C 3.54 23.13 3.16 27.36 6.31 30.04 C 8.24 29.96 10.55 30.64 12.14 29.20 C 15.02 27.08 14.95 22.08 11.84 20.20 C 9.33 18.72 6.28 19.44 3.52 19.39 Z" />
</g>
</svg>
