<?xml version="1.0" encoding="UTF-8" ?>
<!DOCTYPE svg PUBLIC "-//W3C//DTD SVG 1.1//EN" "http://www.w3.org/Graphics/SVG/1.1/DTD/svg11.dtd">
<svg width="77pt" height="74pt" viewBox="0 0 77 74" version="1.1" xmlns="http://www.w3.org/2000/svg">
<g id="#025a35ff">
<path fill="#025a35" opacity="1.00" d=" M 33.43 0.00 L 38.66 0.00 C 46.01 1.04 53.60 2.86 59.67 7.34 C 65.78 12.62 70.94 19.30 73.23 27.15 C 72.72 27.37 71.70 27.81 71.20 28.03 C 69.15 22.52 66.71 16.89 62.09 13.02 C 60.85 13.56 59.60 14.09 58.36 14.61 C 58.33 15.11 58.27 16.09 58.24 16.58 C 60.06 16.37 62.00 15.29 63.76 16.24 C 65.04 18.14 62.74 19.94 62.05 21.66 C 64.89 20.70 67.71 21.30 69.37 23.99 C 67.18 25.86 64.64 27.51 61.62 27.26 C 62.97 25.87 64.42 24.58 65.91 23.34 C 64.38 23.54 62.83 23.99 61.28 23.74 C 59.28 21.18 56.83 18.89 55.50 15.88 C 54.76 15.64 53.29 15.15 52.56 14.90 C 53.98 13.29 55.32 11.58 56.95 10.18 C 58.44 10.76 59.85 11.51 61.31 12.15 C 57.12 6.81 50.33 4.78 44.01 3.23 C 37.24 1.41 30.14 2.56 23.44 4.10 C 23.59 3.68 23.90 2.83 24.05 2.41 C 26.93 0.85 30.28 0.65 33.43 0.00 Z" />
<path fill="#025a35" opacity="1.00" d=" M 2.77 22.88 C 5.63 13.33 14.27 6.41 23.24 2.84 C 21.29 6.57 17.05 8.01 14.08 10.75 C 8.97 14.27 6.22 19.84 3.92 25.39 C 1.92 26.37 2.66 23.77 2.77 22.88 Z" />
<path fill="#025a35" opacity="1.00" d=" M 29.71 9.15 C 29.79 7.31 28.35 4.66 30.73 3.72 C 31.31 5.14 31.86 6.57 32.38 8.01 C 31.95 4.61 35.07 2.70 38.16 3.73 C 37.98 5.88 37.84 8.03 37.79 10.19 C 33.65 9.84 29.79 11.43 25.74 11.83 C 23.30 10.80 23.71 7.81 23.48 5.66 C 25.39 5.90 26.28 7.38 26.74 9.05 C 26.36 7.67 26.31 6.29 26.62 4.94 C 28.69 5.11 28.67 7.77 29.71 9.15 Z" />
<path fill="#025a35" opacity="1.00" d=" M 40.92 6.26 C 42.72 5.39 44.57 4.59 46.54 4.18 C 45.88 6.84 45.19 9.50 44.39 12.12 C 42.75 10.44 42.85 7.77 40.92 6.26 Z" />
<path fill="#025a35" opacity="1.00" d=" M 47.74 13.35 C 48.22 10.56 49.87 8.23 51.73 6.17 C 52.16 6.69 53.01 7.71 53.44 8.22 C 54.87 8.18 56.02 8.67 56.87 9.71 C 55.76 10.26 54.66 10.80 53.55 11.33 C 53.09 12.70 52.60 14.07 52.10 15.43 C 51.78 14.59 51.15 12.92 50.83 12.09 C 49.80 12.52 48.77 12.94 47.74 13.35 Z" />
<path fill="#025a35" opacity="1.00" d=" M 20.03 10.21 C 20.27 9.34 20.75 7.60 20.99 6.73 C 22.67 8.74 24.16 10.96 24.71 13.58 C 23.54 13.05 22.39 12.52 21.24 11.96 C 21.19 13.40 20.97 14.89 19.71 15.79 C 16.71 18.44 14.15 21.54 12.45 25.18 C 11.85 24.92 10.64 24.41 10.03 24.16 C 8.99 23.51 7.99 22.79 6.99 22.09 C 8.10 20.20 9.18 18.28 10.22 16.35 C 10.80 16.51 11.94 16.84 12.52 17.01 C 12.29 14.98 12.56 12.95 13.77 11.25 C 16.05 11.60 17.51 13.47 19.08 14.96 C 18.16 13.11 17.16 11.25 16.92 9.16 C 17.96 9.49 19.00 9.84 20.03 10.21 Z" />
<path fill="#025a35" opacity="1.00" d=" M 37.23 14.00 C 38.75 13.67 39.56 15.47 38.57 16.52 C 33.41 23.19 28.99 31.34 30.05 40.06 C 32.06 39.91 34.08 39.71 35.99 39.02 C 43.08 36.67 50.51 34.98 58.02 35.18 C 59.65 35.22 60.34 36.80 58.79 37.69 C 50.73 41.32 41.18 41.31 33.96 46.80 C 30.84 48.91 28.38 51.77 25.88 54.54 C 25.48 54.41 24.66 54.15 24.25 54.02 C 23.92 44.54 24.13 34.66 27.76 25.75 C 29.73 21.04 33.06 16.93 37.23 14.00 M 27.49 34.72 C 26.74 39.69 26.57 44.71 26.62 49.73 C 33.02 43.49 41.33 39.78 50.06 38.23 C 43.43 38.15 37.48 41.70 30.99 42.41 C 27.11 42.09 27.91 37.47 27.49 34.72 Z" />
<path fill="#025a35" opacity="1.00" d=" M 35.40 26.53 C 39.04 25.10 43.89 27.75 43.38 31.98 C 43.44 36.98 36.56 39.02 33.29 35.71 C 30.49 33.03 31.72 27.73 35.40 26.53 M 36.48 28.53 C 34.16 29.12 33.10 32.35 34.89 34.06 C 37.01 36.66 42.13 34.24 41.08 30.87 C 40.85 28.81 38.22 28.04 36.48 28.53 Z" />
<path fill="#025a35" opacity="1.00" d=" M 0.00 35.23 C 0.51 32.14 -0.36 27.66 3.17 26.20 C 3.02 27.22 2.72 29.26 2.57 30.28 C 1.65 37.14 1.49 45.11 6.35 50.64 C 6.28 51.42 6.15 52.98 6.09 53.76 C 2.25 50.47 0.82 45.41 0.00 40.61 L 0.00 35.23 Z" />
<path fill="#025a35" opacity="1.00" d=" M 71.24 29.48 C 71.68 29.26 72.56 28.83 73.01 28.61 C 73.69 32.74 74.33 36.92 74.17 41.12 C 73.68 41.35 72.70 41.83 72.21 42.07 C 71.88 37.88 71.32 33.69 71.24 29.48 Z" />
<path fill="#025a35" opacity="1.00" d=" M 71.20 43.27 C 73.74 42.40 72.47 45.47 72.25 46.81 C 69.77 55.74 64.09 64.62 55.12 68.06 C 50.28 70.02 45.42 72.18 40.13 72.50 C 28.49 73.72 16.28 68.86 8.93 59.69 C 10.21 59.42 11.56 59.43 12.50 60.45 C 16.01 63.26 19.40 66.45 23.88 67.62 L 23.80 67.80 C 33.94 72.41 45.89 70.37 55.55 65.49 C 64.21 61.44 69.06 52.18 71.20 43.27 Z" />
<path fill="#025a35" opacity="1.00" d=" M 25.65 57.96 C 27.40 55.37 28.79 51.84 31.97 50.81 C 34.38 52.44 35.99 55.37 36.78 58.12 C 33.35 59.40 29.07 59.43 25.65 57.96 M 29.11 56.50 C 30.73 56.55 32.35 56.58 33.97 56.58 C 33.34 55.62 32.70 54.66 31.96 53.78 C 30.49 54.02 29.86 55.41 29.11 56.50 Z" />
<path fill="#025a35" opacity="1.00" d=" M 5.08 54.25 C 7.48 53.32 10.05 56.50 9.70 58.56 C 7.24 59.74 6.39 55.74 5.08 54.25 Z" />
<path fill="#025a35" opacity="1.00" d=" M 13.93 58.94 C 15.54 56.92 17.35 55.08 19.37 53.47 C 19.28 54.82 19.18 56.16 19.07 57.51 C 20.29 57.20 21.50 56.89 22.72 56.60 C 21.49 58.71 20.02 60.68 18.33 62.44 C 17.96 62.30 17.20 62.00 16.82 61.86 C 17.41 60.96 17.61 59.98 17.43 58.93 C 16.87 59.30 15.74 60.04 15.18 60.40 C 14.87 60.04 14.24 59.30 13.93 58.94 Z" />
<path fill="#025a35" opacity="1.00" d=" M 54.58 56.51 C 57.39 53.10 60.89 58.94 60.27 61.69 C 59.18 60.89 58.17 60.01 57.22 59.06 C 57.85 62.03 55.74 65.88 52.34 64.45 C 52.01 66.17 50.78 65.95 49.48 65.41 C 49.38 65.93 49.19 66.99 49.10 67.51 C 46.36 66.21 45.78 62.95 46.02 60.22 C 46.75 60.30 48.22 60.45 48.95 60.53 C 49.52 59.95 50.65 58.79 51.22 58.20 C 52.47 59.48 53.69 60.80 54.90 62.12 C 54.59 60.28 52.76 58.07 54.58 56.51 Z" />
<path fill="#025a35" opacity="1.00" d=" M 19.60 62.47 C 21.35 60.68 23.20 57.49 26.17 58.80 C 26.53 61.41 25.76 64.00 24.57 66.30 C 22.82 64.96 20.90 64.00 18.65 63.98 C 18.89 63.60 19.36 62.84 19.60 62.47 Z" />
<path fill="#025a35" opacity="1.00" d=" M 28.14 63.75 C 29.34 62.90 30.43 61.67 31.98 61.49 C 33.07 61.95 34.08 62.58 35.13 63.14 C 36.13 61.22 37.73 62.76 38.87 63.37 C 40.05 62.68 41.39 60.78 42.88 62.04 C 44.84 63.63 44.95 67.27 42.79 68.79 C 41.74 68.71 40.71 68.52 39.70 68.21 C 39.68 67.45 39.65 65.93 39.64 65.16 C 39.05 66.93 38.52 69.78 35.99 69.28 C 33.51 68.92 34.05 65.37 34.18 63.69 C 33.84 63.79 33.18 64.00 32.84 64.10 C 32.49 65.98 32.57 68.55 30.33 69.26 C 30.09 67.21 30.48 64.73 28.14 63.75 Z" />
</g>
<g id="#c1dfcbff">
<path fill="#c1dfcb" opacity="1.00" d=" M 23.24 2.84 C 23.44 2.73 23.85 2.51 24.05 2.41 C 23.90 2.83 23.59 3.68 23.44 4.10 C 30.14 2.56 37.24 1.41 44.01 3.23 C 50.33 4.78 57.12 6.81 61.31 12.15 C 59.85 11.51 58.44 10.76 56.95 10.18 C 55.32 11.58 53.98 13.29 52.56 14.90 C 53.29 15.15 54.76 15.64 55.50 15.88 C 56.83 18.89 59.28 21.18 61.28 23.74 C 62.83 23.99 64.38 23.54 65.91 23.34 C 64.42 24.58 62.97 25.87 61.62 27.26 C 64.64 27.51 67.18 25.86 69.37 23.99 C 67.71 21.30 64.89 20.70 62.05 21.66 C 62.74 19.94 65.04 18.14 63.76 16.24 C 62.00 15.29 60.06 16.37 58.24 16.58 C 58.27 16.09 58.33 15.11 58.36 14.61 C 59.60 14.09 60.85 13.56 62.09 13.02 C 66.71 16.89 69.15 22.52 71.20 28.03 C 71.70 27.81 72.72 27.37 73.23 27.15 C 75.02 32.74 75.76 38.59 77.00 44.31 L 77.00 46.76 C 76.24 49.40 74.58 51.83 74.36 54.59 C 75.09 55.82 75.98 56.96 76.69 58.22 C 75.03 59.98 72.15 59.76 70.44 61.53 C 67.66 63.45 67.29 66.98 65.69 69.69 C 64.28 70.58 62.50 70.33 60.92 70.59 C 56.69 70.92 52.71 72.52 48.65 73.61 L 50.03 74.00 L 45.65 74.00 C 43.89 73.21 42.03 72.75 40.13 72.50 C 45.42 72.18 50.28 70.02 55.12 68.06 C 64.09 64.62 69.77 55.74 72.25 46.81 C 72.47 45.47 73.74 42.40 71.20 43.27 C 69.06 52.18 64.21 61.44 55.55 65.49 C 45.89 70.37 33.94 72.41 23.80 67.80 L 23.88 67.62 C 24.05 67.29 24.39 66.63 24.57 66.30 C 25.76 64.00 26.53 61.41 26.17 58.80 C 23.20 57.49 21.35 60.68 19.60 62.47 L 18.33 62.44 C 20.02 60.68 21.49 58.71 22.72 56.60 C 21.50 56.89 20.29 57.20 19.07 57.51 C 19.18 56.16 19.28 54.82 19.37 53.47 C 17.35 55.08 15.54 56.92 13.93 58.94 C 11.75 55.86 8.93 53.36 6.35 50.64 C 1.49 45.11 1.65 37.14 2.57 30.28 C 2.71 31.51 2.86 32.73 3.01 33.96 C 4.83 30.35 6.99 26.87 10.03 24.16 C 10.64 24.41 11.85 24.92 12.45 25.18 C 14.15 21.54 16.71 18.44 19.71 15.79 C 20.97 14.89 21.19 13.40 21.24 11.96 C 22.39 12.52 23.54 13.05 24.71 13.58 C 24.16 10.96 22.67 8.74 20.99 6.73 C 20.75 7.60 20.27 9.34 20.03 10.21 C 19.00 9.84 17.96 9.49 16.92 9.16 C 17.16 11.25 18.16 13.11 19.08 14.96 C 17.51 13.47 16.05 11.60 13.77 11.25 L 14.08 10.75 C 17.05 8.01 21.29 6.57 23.24 2.84 M 29.71 9.15 C 28.67 7.77 28.69 5.11 26.62 4.94 C 26.31 6.29 26.36 7.67 26.74 9.05 C 26.28 7.38 25.39 5.90 23.48 5.66 C 23.71 7.81 23.30 10.80 25.74 11.83 C 29.79 11.43 33.65 9.84 37.79 10.19 C 37.84 8.03 37.98 5.88 38.16 3.73 C 35.07 2.70 31.95 4.61 32.38 8.01 C 31.86 6.57 31.31 5.14 30.73 3.72 C 28.35 4.66 29.79 7.31 29.71 9.15 M 40.92 6.26 C 42.85 7.77 42.75 10.44 44.39 12.12 C 45.19 9.50 45.88 6.84 46.54 4.18 C 44.57 4.59 42.72 5.39 40.92 6.26 M 47.74 13.35 C 48.77 12.94 49.80 12.52 50.83 12.09 C 51.15 12.92 51.78 14.59 52.10 15.43 C 52.60 14.07 53.09 12.70 53.55 11.33 C 54.66 10.80 55.76 10.26 56.87 9.71 C 56.02 8.67 54.87 8.18 53.44 8.22 C 53.01 7.71 52.16 6.69 51.73 6.17 C 49.87 8.23 48.22 10.56 47.74 13.35 M 37.23 14.00 C 33.06 16.93 29.73 21.04 27.76 25.75 C 24.13 34.66 23.92 44.54 24.25 54.02 C 24.66 54.15 25.48 54.41 25.88 54.54 C 28.38 51.77 30.84 48.91 33.96 46.80 C 41.18 41.31 50.73 41.32 58.79 37.69 C 60.34 36.80 59.65 35.22 58.02 35.18 C 50.51 34.98 43.08 36.67 35.99 39.02 C 34.08 39.71 32.06 39.91 30.05 40.06 C 28.99 31.34 33.41 23.19 38.57 16.52 C 39.56 15.47 38.75 13.67 37.23 14.00 M 35.40 26.53 C 31.72 27.73 30.49 33.03 33.29 35.71 C 36.56 39.02 43.44 36.98 43.38 31.98 C 43.89 27.75 39.04 25.10 35.40 26.53 M 71.24 29.48 C 71.32 33.69 71.88 37.88 72.21 42.07 C 72.70 41.83 73.68 41.35 74.17 41.12 C 74.33 36.92 73.69 32.74 73.01 28.61 C 72.56 28.83 71.68 29.26 71.24 29.48 M 25.65 57.96 C 29.07 59.43 33.35 59.40 36.78 58.12 C 35.99 55.37 34.38 52.44 31.97 50.81 C 28.79 51.84 27.40 55.37 25.65 57.96 M 54.58 56.51 C 52.76 58.07 54.59 60.28 54.90 62.12 C 53.69 60.80 52.47 59.48 51.22 58.20 C 50.65 58.79 49.52 59.95 48.95 60.53 C 48.22 60.45 46.75 60.30 46.02 60.22 C 45.78 62.95 46.36 66.21 49.10 67.51 C 49.19 66.99 49.38 65.93 49.48 65.41 C 50.78 65.95 52.01 66.17 52.34 64.45 C 55.74 65.88 57.85 62.03 57.22 59.06 C 58.17 60.01 59.18 60.89 60.27 61.69 C 60.89 58.94 57.39 53.10 54.58 56.51 M 28.14 63.75 C 30.48 64.73 30.09 67.21 30.33 69.26 C 32.57 68.55 32.49 65.98 32.84 64.10 C 33.18 64.00 33.84 63.79 34.18 63.69 C 34.05 65.37 33.51 68.92 35.99 69.28 C 38.52 69.78 39.05 66.93 39.64 65.16 C 39.65 65.93 39.68 67.45 39.70 68.21 C 40.71 68.52 41.74 68.71 42.79 68.79 C 44.95 67.27 44.84 63.63 42.88 62.04 C 41.39 60.78 40.05 62.68 38.87 63.37 C 37.73 62.76 36.13 61.22 35.13 63.14 C 34.08 62.58 33.07 61.95 31.98 61.49 C 30.43 61.67 29.34 62.90 28.14 63.75 Z" />
<path fill="#c1dfcb" opacity="1.00" d=" M 36.48 28.53 C 38.22 28.04 40.85 28.81 41.08 30.87 C 42.13 34.24 37.01 36.66 34.89 34.06 C 33.10 32.35 34.16 29.12 36.48 28.53 Z" />
<path fill="#c1dfcb" opacity="1.00" d=" M 27.49 34.72 C 27.91 37.47 27.11 42.09 30.99 42.41 C 37.48 41.70 43.43 38.15 50.06 38.23 C 41.33 39.78 33.02 43.49 26.62 49.73 C 26.57 44.71 26.74 39.69 27.49 34.72 Z" />
<path fill="#c1dfcb" opacity="1.00" d=" M 29.11 56.50 C 29.86 55.41 30.49 54.02 31.96 53.78 C 32.70 54.66 33.34 55.62 33.97 56.58 C 32.35 56.58 30.73 56.55 29.11 56.50 Z" />
<path fill="#c1dfcb" opacity="1.00" d=" M 15.18 60.40 C 15.74 60.04 16.87 59.30 17.43 58.93 C 17.61 59.98 17.41 60.96 16.82 61.86 C 16.41 61.49 15.59 60.77 15.18 60.40 Z" />
</g>
</svg>
