<?xml version="1.0" encoding="UTF-8" ?>
<!DOCTYPE svg PUBLIC "-//W3C//DTD SVG 1.1//EN" "http://www.w3.org/Graphics/SVG/1.1/DTD/svg11.dtd">
<svg width="21pt" height="71pt" viewBox="0 0 21 71" version="1.1" xmlns="http://www.w3.org/2000/svg">
<g id="#1f3972eb">
<path fill="#1f3972" opacity="0.92" d=" M 7.47 0.00 L 13.66 0.00 C 13.86 1.88 14.04 3.76 14.23 5.64 C 17.50 7.51 19.90 10.50 21.00 14.11 L 21.00 61.85 C 20.76 63.81 20.53 65.80 19.83 67.66 C 18.31 69.24 16.17 70.01 14.25 71.00 L 12.69 71.00 C 11.86 70.36 11.03 69.70 10.20 69.04 C 8.26 69.64 6.19 71.38 4.15 70.12 C 0.24 67.93 0.80 62.77 0.24 58.97 C 1.01 54.87 1.64 50.75 1.98 46.59 C 2.02 52.08 1.53 57.58 2.02 63.06 C 2.24 65.34 2.86 67.97 5.08 69.11 C 6.87 68.84 8.52 68.05 10.28 67.70 C 11.72 68.35 13.14 69.06 14.54 69.80 C 15.63 67.25 16.43 64.57 17.70 62.10 C 17.62 64.30 17.46 66.49 17.34 68.69 C 19.71 65.65 19.30 61.68 19.35 58.06 C 19.22 47.04 19.47 36.02 19.50 25.00 C 19.47 21.27 19.98 17.48 19.18 13.80 C 18.32 9.62 14.16 7.68 11.35 4.95 C 10.79 4.90 9.66 4.81 9.09 4.77 C 8.84 5.21 8.34 6.10 8.09 6.55 C 6.05 7.99 3.63 9.27 2.53 11.64 C 1.23 14.23 1.41 17.22 1.37 20.03 C 1.47 24.79 1.57 29.56 1.58 34.32 C 0.86 37.70 0.09 41.09 0.00 44.56 L 0.00 14.48 C 0.82 10.68 3.33 7.66 6.58 5.65 C 6.86 3.76 7.11 1.87 7.47 0.00 M 8.55 2.14 C 8.65 3.64 12.31 3.68 12.38 2.14 C 11.37 1.26 9.56 1.27 8.55 2.14 Z" />
<path fill="#1f3972" opacity="0.92" d=" M 2.47 23.00 C 6.92 23.37 12.26 21.71 15.95 25.02 C 19.81 28.29 19.10 35.23 14.61 37.58 C 10.68 40.08 4.72 38.28 3.11 33.84 C 2.05 30.33 2.54 26.61 2.47 23.00 M 3.98 24.26 C 3.99 27.14 3.70 30.06 4.25 32.91 C 5.60 37.04 11.38 38.83 14.64 35.81 C 18.02 33.51 17.86 27.79 14.43 25.62 C 11.37 23.50 7.45 24.45 3.98 24.26 Z" />
</g>
<g id="#15264c9d">
<path fill="#15264c" opacity="0.62" d=" M 1.58 34.32 C 1.98 38.40 2.14 42.50 1.98 46.59 C 1.64 50.75 1.01 54.87 0.24 58.97 L 0.00 57.29 L 0.00 44.56 C 0.09 41.09 0.86 37.70 1.58 34.32 Z" />
</g>
</svg>
