<?xml version="1.0" encoding="UTF-8" ?>
<!DOCTYPE svg PUBLIC "-//W3C//DTD SVG 1.1//EN" "http://www.w3.org/Graphics/SVG/1.1/DTD/svg11.dtd">
<svg width="46pt" height="83pt" viewBox="0 0 46 83" version="1.1" xmlns="http://www.w3.org/2000/svg">
<g id="#182c58b6">
<path fill="#182c58" opacity="0.71" d=" M 17.76 0.00 L 27.87 0.00 C 28.34 3.76 28.22 7.55 27.95 11.32 C 31.14 17.15 38.71 17.44 43.17 21.81 C 44.44 23.41 45.12 25.38 46.00 27.19 L 46.00 31.40 C 44.18 35.15 44.40 39.30 46.00 43.07 L 46.00 46.41 C 45.16 49.19 44.72 52.07 44.82 54.98 C 44.99 60.38 44.22 65.94 46.00 71.16 L 46.00 76.64 C 43.43 81.03 38.48 82.70 33.62 83.00 L 12.90 83.00 C 12.98 82.59 13.13 81.78 13.20 81.38 C 20.78 81.78 28.41 81.92 35.96 81.01 C 38.95 80.67 42.38 79.72 43.86 76.82 C 45.17 74.73 44.37 72.20 44.22 69.92 C 30.13 72.25 15.66 72.72 1.59 69.99 C 1.40 72.48 0.62 75.30 2.42 77.43 C 4.66 80.74 9.07 81.01 12.68 81.00 C 11.99 81.56 11.30 82.13 10.60 82.70 C 6.25 82.33 2.03 80.47 0.00 76.40 L 0.00 71.19 C 1.76 65.97 1.02 60.42 1.18 55.01 C 1.28 52.17 0.82 49.34 0.00 46.62 L 0.00 42.98 C 1.59 39.29 1.84 35.21 0.00 31.55 L 0.00 27.24 C 1.17 24.85 1.90 21.85 4.39 20.45 C 9.01 17.54 14.95 16.22 18.04 11.34 C 17.79 7.56 17.72 3.78 17.76 0.00 M 19.04 1.19 C 19.02 3.13 19.01 5.06 19.00 7.00 C 21.67 7.00 24.33 7.00 27.00 7.00 C 26.99 5.06 26.97 3.13 26.95 1.19 C 24.32 1.18 21.68 1.18 19.04 1.19 M 19.34 8.51 C 19.36 9.56 19.37 10.60 19.39 11.64 C 21.78 11.73 24.17 11.76 26.57 11.74 C 26.58 10.68 26.60 9.61 26.61 8.55 C 24.19 8.54 21.77 8.51 19.34 8.51 M 18.61 13.06 C 15.21 19.28 5.79 18.49 2.52 24.90 C 16.16 25.07 29.80 25.05 43.44 24.91 C 40.06 18.68 30.91 19.08 27.40 13.07 C 24.47 13.10 21.54 13.09 18.61 13.06 M 1.89 26.34 C 1.74 28.24 1.60 30.14 1.43 32.03 C 15.80 32.19 30.19 32.19 44.56 32.03 C 44.40 30.12 44.26 28.21 44.11 26.31 C 30.04 26.39 15.97 26.32 1.89 26.34 M 3.01 33.88 C 3.00 35.90 3.00 37.92 3.00 39.94 C 16.33 40.65 29.68 41.04 43.00 39.92 C 43.00 37.90 43.00 35.89 42.99 33.88 C 29.66 33.87 16.34 33.87 3.01 33.88 M 2.08 41.25 C 2.01 43.29 0.36 46.29 2.56 47.62 C 16.33 49.23 30.23 48.68 44.03 47.75 C 44.41 45.66 44.41 43.53 44.13 41.43 C 39.43 41.73 34.74 42.12 30.03 42.02 C 20.71 41.89 11.36 42.41 2.08 41.25 M 2.70 49.02 C 2.73 55.59 2.60 62.17 2.79 68.75 C 16.09 71.05 29.72 70.53 43.03 68.72 C 43.21 62.15 43.10 55.56 43.12 48.99 C 33.81 50.45 24.39 49.91 15.01 50.02 C 10.89 50.04 6.79 49.53 2.70 49.02 Z" />
<path fill="#182c58" opacity="0.71" d=" M 15.00 52.00 C 19.63 52.15 25.76 50.73 28.71 55.39 C 32.08 59.82 28.61 67.12 23.01 67.07 C 19.56 67.60 16.20 65.14 15.13 61.93 C 14.77 58.64 15.04 55.31 15.00 52.00 M 16.17 53.46 C 16.24 57.31 15.23 62.57 19.28 64.83 C 22.73 67.25 27.92 64.58 28.39 60.52 C 28.97 57.99 27.06 55.94 25.73 54.03 C 22.57 53.58 19.37 53.44 16.17 53.46 Z" />
</g>
</svg>
