<?xml version="1.0" encoding="UTF-8" ?>
<!DOCTYPE svg PUBLIC "-//W3C//DTD SVG 1.1//EN" "http://www.w3.org/Graphics/SVG/1.1/DTD/svg11.dtd">
<svg width="76pt" height="69pt" viewBox="0 0 76 69" version="1.1" xmlns="http://www.w3.org/2000/svg">
<g id="#1b632ff9">
<path fill="#1b632f" opacity="0.98" d=" M 31.67 0.00 L 36.15 0.00 C 41.11 1.03 46.42 1.84 50.45 5.17 C 45.86 4.37 41.59 2.25 36.93 1.79 C 32.81 1.13 28.81 2.73 24.71 2.87 C 26.90 1.63 29.26 0.73 31.67 0.00 Z" />
<path fill="#1b632f" opacity="0.98" d=" M 20.05 3.12 C 21.52 2.75 22.99 2.41 24.48 2.11 C 23.45 4.10 21.24 4.47 19.30 5.05 C 19.48 4.56 19.86 3.60 20.05 3.12 Z" />
<path fill="#1b632f" opacity="0.98" d=" M 1.49 24.63 C 3.62 15.74 10.30 8.06 18.63 4.40 C 15.11 8.24 10.55 11.04 7.62 15.42 C 2.72 21.15 1.95 29.01 1.44 36.22 L 2.59 35.11 C 2.35 35.50 1.87 36.28 1.63 36.67 C 1.82 37.75 2.19 39.90 2.38 40.98 C 2.09 41.22 1.51 41.71 1.22 41.95 C 0.92 41.29 0.31 39.97 0.00 39.31 L 0.00 30.88 C 0.43 28.78 0.92 26.70 1.49 24.63 Z" />
<path fill="#1b632f" opacity="0.98" d=" M 26.83 6.76 C 27.33 6.38 28.32 5.61 28.82 5.22 C 29.56 5.36 31.03 5.64 31.77 5.78 C 32.07 7.65 32.36 9.52 32.66 11.40 C 31.07 11.66 29.48 11.92 27.88 12.17 C 27.56 11.69 26.92 10.73 26.60 10.25 C 26.97 9.65 27.71 8.47 28.08 7.87 C 26.55 7.86 25.01 7.85 23.47 7.83 C 24.59 9.67 25.57 11.60 26.43 13.57 C 25.17 12.76 23.92 11.92 22.68 11.07 C 22.46 12.58 22.25 14.10 22.04 15.61 C 21.07 14.02 20.13 12.42 19.25 10.79 C 19.05 10.40 18.64 9.61 18.43 9.21 C 20.39 10.00 21.88 9.13 22.88 7.42 C 24.19 7.20 25.51 6.98 26.83 6.76 Z" />
<path fill="#1b632f" opacity="0.98" d=" M 42.88 5.79 L 43.97 5.91 C 43.89 6.42 43.72 7.45 43.64 7.96 C 44.63 7.89 46.62 7.76 47.62 7.69 C 46.58 8.50 45.55 9.31 44.50 10.12 C 44.62 11.01 44.86 12.81 44.99 13.70 C 46.57 11.71 48.21 9.76 50.04 7.98 C 49.73 9.00 49.13 11.04 48.83 12.06 C 50.05 11.74 52.49 11.11 53.72 10.79 C 52.32 13.39 50.75 15.99 48.25 17.66 C 48.75 16.35 49.29 15.06 49.84 13.76 C 48.65 14.13 47.45 14.49 46.25 14.85 C 45.33 14.42 44.40 13.99 43.48 13.55 C 43.41 12.87 43.26 11.51 43.19 10.83 C 42.15 11.61 41.11 12.39 40.06 13.15 C 40.86 10.64 41.74 8.16 42.88 5.79 Z" />
<path fill="#1b632f" opacity="0.98" d=" M 50.47 5.63 C 56.60 7.10 60.48 12.43 63.60 17.49 C 64.62 21.20 67.43 24.73 66.42 28.74 C 63.57 23.07 62.30 16.34 57.43 11.89 C 55.21 9.69 52.64 7.88 50.47 5.63 Z" />
<path fill="#1b632f" opacity="0.98" d=" M 15.02 10.76 C 15.82 11.28 16.61 11.81 17.39 12.34 C 18.60 13.62 19.74 14.97 20.89 16.30 C 20.01 16.12 18.24 15.77 17.36 15.59 C 15.11 15.79 17.80 19.06 16.87 20.00 C 15.75 18.75 14.61 17.51 13.51 16.24 C 13.11 15.76 12.30 14.80 11.90 14.32 C 12.82 14.24 14.66 14.09 15.58 14.02 C 15.44 13.20 15.16 11.57 15.02 10.76 Z" />
<path fill="#1b632f" opacity="0.98" d=" M 51.88 20.08 C 50.02 17.86 52.66 13.94 55.47 14.65 C 57.77 15.01 58.97 18.51 56.63 19.74 C 56.37 18.87 55.84 17.14 55.57 16.28 C 53.52 15.33 52.94 17.51 52.64 19.07 C 53.86 19.59 55.08 20.13 56.26 20.72 C 54.79 20.82 52.92 21.58 51.88 20.08 Z" />
<path fill="#1b632f" opacity="0.98" d=" M 26.62 20.54 C 31.43 18.21 36.91 17.75 42.19 17.73 C 42.10 18.21 41.92 19.17 41.83 19.65 C 43.46 19.55 45.38 18.91 46.76 20.14 C 51.55 23.93 52.34 31.22 49.49 36.43 C 47.52 40.25 45.44 44.86 40.98 46.23 C 39.44 46.99 37.86 46.01 36.35 45.69 C 35.98 45.99 35.24 46.59 34.87 46.90 C 28.45 45.62 22.61 41.24 19.88 35.25 C 18.74 32.72 17.41 30.28 15.97 27.92 C 19.70 25.71 22.96 22.83 26.62 20.54 M 25.79 22.78 C 23.39 24.37 22.56 27.26 21.26 29.67 C 21.12 28.91 20.82 27.40 20.67 26.64 C 19.76 27.08 18.85 27.52 17.93 27.96 C 18.88 29.58 19.79 31.21 20.76 32.82 C 20.98 32.22 21.42 31.02 21.64 30.42 C 23.92 29.78 21.44 33.08 21.01 33.53 C 21.66 33.61 22.96 33.77 23.61 33.85 C 23.43 34.96 23.00 35.99 22.32 36.92 C 23.32 37.91 24.33 38.89 25.35 39.85 C 25.70 38.05 24.39 35.31 26.74 34.48 C 26.59 35.09 26.28 36.31 26.12 36.93 C 26.34 37.40 26.79 38.34 27.01 38.80 C 26.66 39.35 25.97 40.43 25.62 40.97 C 28.14 42.73 30.92 44.04 33.79 45.13 C 33.02 43.09 31.95 41.10 31.86 38.87 C 32.16 38.86 32.76 38.83 33.06 38.82 L 33.47 39.56 L 34.10 40.23 C 34.03 38.75 33.86 37.21 32.87 36.04 C 32.42 30.22 35.34 25.09 39.30 21.11 C 36.56 23.09 33.82 25.45 32.88 28.84 C 31.91 31.34 32.77 34.23 31.74 36.65 C 31.53 36.59 31.12 36.46 30.91 36.40 C 29.51 29.74 32.99 23.51 37.97 19.36 C 33.83 20.02 29.32 20.24 25.79 22.78 M 38.91 23.89 C 39.63 26.19 40.44 28.49 41.85 30.47 C 42.81 27.23 43.56 23.93 44.13 20.61 C 42.25 21.47 40.51 22.59 38.91 23.89 M 43.90 29.33 C 45.37 27.97 47.11 26.76 48.07 24.96 C 48.39 23.35 46.61 22.52 45.82 21.43 C 44.99 24.01 44.33 26.65 43.90 29.33 M 34.69 31.89 C 36.75 32.10 38.80 32.31 40.85 32.52 C 39.75 30.09 38.70 27.63 37.62 25.18 C 36.24 27.22 35.20 29.47 34.69 31.89 M 48.57 27.04 C 46.69 28.89 45.04 30.94 43.31 32.93 C 45.35 32.81 48.70 34.30 49.58 31.54 C 49.96 30.17 50.39 27.48 48.57 27.04 M 34.90 33.98 C 34.03 35.67 35.35 37.53 35.54 39.26 C 37.39 37.83 38.86 36.00 40.00 33.96 C 38.31 33.89 36.59 33.65 34.90 33.98 M 43.04 34.32 C 43.83 36.28 44.68 38.21 45.57 40.13 C 46.61 38.40 47.63 36.65 48.64 34.90 C 46.77 34.69 44.90 34.50 43.04 34.32 M 36.48 42.02 C 36.68 43.45 37.89 44.36 38.78 45.37 C 39.99 42.69 40.41 39.75 40.37 36.82 C 38.88 38.38 37.13 39.88 36.48 42.02 M 42.09 37.06 C 41.78 39.53 41.46 42.00 41.17 44.48 C 42.26 43.70 43.48 43.05 44.32 41.98 C 44.50 40.06 42.93 38.62 42.09 37.06 Z" />
<path fill="#1b632f" opacity="0.98" d=" M 55.96 22.88 C 57.40 22.33 58.87 20.74 60.50 21.56 C 61.78 22.35 61.68 24.05 62.13 25.31 C 59.75 26.13 57.48 27.74 54.85 27.48 C 56.75 25.95 59.21 25.01 60.56 22.87 C 58.06 23.31 54.09 26.09 53.48 21.88 C 54.10 22.13 55.34 22.63 55.96 22.88 Z" />
<path fill="#1b632f" opacity="0.98" d=" M 8.59 29.18 C 7.95 27.84 7.34 26.47 7.11 24.99 C 9.36 25.38 11.60 25.88 13.81 26.48 C 12.71 26.77 11.60 27.04 10.49 27.30 C 10.55 28.48 10.61 29.67 10.65 30.85 C 11.07 31.53 11.48 32.22 11.88 32.92 C 9.52 32.62 7.20 32.08 4.88 31.54 C 5.24 31.00 5.94 29.93 6.29 29.40 C 6.87 29.34 8.02 29.24 8.59 29.18 Z" />
<path fill="#1b632f" opacity="0.98" d=" M 58.43 28.66 C 61.24 26.73 65.53 31.18 62.32 33.38 C 59.25 36.67 53.84 30.74 58.43 28.66 M 58.37 30.32 C 56.95 32.70 60.73 33.52 61.89 31.77 C 62.46 29.62 59.68 29.77 58.37 30.32 Z" />
<path fill="#1b632f" opacity="0.98" d=" M 66.24 29.37 C 68.19 28.54 68.70 32.78 66.94 33.22 C 65.43 32.76 65.37 30.44 66.24 29.37 Z" />
<path fill="#1b632f" opacity="0.98" d=" M 24.45 31.36 C 27.11 28.42 27.20 34.97 24.40 32.96 C 24.41 32.56 24.44 31.76 24.45 31.36 Z" />
<path fill="#1b632f" opacity="0.98" d=" M 28.20 33.12 C 29.58 32.59 30.01 33.05 29.50 34.51 C 28.11 35.05 27.68 34.58 28.20 33.12 Z" />
<path fill="#1b632f" opacity="0.98" d=" M 4.62 35.12 C 7.16 34.63 9.73 34.32 12.32 34.27 C 11.47 35.70 9.74 35.82 8.32 36.27 C 9.42 36.89 10.51 37.51 11.59 38.17 C 11.87 38.72 12.42 39.82 12.70 40.37 L 12.85 41.01 C 11.97 43.09 7.61 42.86 8.73 45.80 C 10.90 45.01 14.12 43.43 15.04 46.62 C 14.07 46.46 13.11 46.29 12.16 46.12 C 10.38 47.04 8.13 48.10 7.11 45.61 C 4.66 43.17 9.10 42.28 10.54 41.07 C 10.69 38.50 6.14 40.53 4.53 39.93 C 5.69 39.31 6.85 38.72 8.03 38.15 C 6.88 37.15 5.74 36.15 4.62 35.12 Z" />
<path fill="#1b632f" opacity="0.98" d=" M 63.05 34.64 C 63.78 36.98 63.28 39.42 62.79 41.76 C 62.23 40.80 61.68 39.84 61.14 38.87 C 59.30 38.47 57.45 38.07 55.77 37.20 C 58.39 36.68 62.24 38.27 63.05 34.64 Z" />
<path fill="#1b632f" opacity="0.98" d=" M 66.28 34.23 L 67.74 34.34 C 67.59 42.71 63.72 50.39 58.84 56.98 C 55.55 61.38 50.16 63.19 45.74 66.14 C 41.52 67.06 37.10 68.76 32.81 67.19 C 28.62 68.03 24.33 66.98 20.52 65.23 C 22.38 65.15 24.25 65.12 26.12 65.16 C 29.37 65.99 32.74 66.07 36.05 66.52 C 42.15 65.94 47.89 63.48 53.03 60.21 C 57.60 57.30 60.37 52.41 62.83 47.74 C 65.03 43.57 65.95 38.90 66.28 34.23 Z" />
<path fill="#1b632f" opacity="0.98" d=" M 28.48 39.35 C 27.98 37.98 27.48 36.54 28.96 35.51 C 29.39 37.92 29.78 40.33 29.97 42.76 C 28.81 41.94 28.52 40.67 28.48 39.35 Z" />
<path fill="#1b632f" opacity="0.98" d=" M 53.94 45.62 C 54.90 43.75 55.33 40.88 57.94 40.75 C 59.74 41.88 59.06 44.48 59.64 46.29 C 59.81 45.18 60.16 42.97 60.34 41.86 C 61.21 43.08 62.44 44.68 61.15 46.10 C 59.37 48.71 56.19 46.11 53.94 45.62 M 57.24 43.23 C 57.83 43.73 57.83 43.73 57.24 43.23 Z" />
<path fill="#1b632f" opacity="0.98" d=" M 1.26 43.66 C 1.74 43.75 2.71 43.91 3.19 43.99 C 3.80 51.67 10.08 56.60 15.66 60.99 C 14.16 60.84 12.49 60.81 11.34 59.67 C 6.92 56.10 3.33 51.38 1.45 46.00 L 1.26 43.66 Z" />
<path fill="#1b632f" opacity="0.98" d=" M 29.32 47.35 C 32.52 46.45 32.84 51.82 29.82 51.93 C 27.32 51.85 26.77 47.78 29.32 47.35 M 29.30 49.25 C 29.84 49.83 29.84 49.83 29.30 49.25 Z" />
<path fill="#1b632f" opacity="0.98" d=" M 36.09 49.02 C 38.42 47.62 41.09 50.33 39.63 52.61 C 37.20 54.88 33.75 51.36 36.09 49.02 M 37.25 50.32 C 35.67 53.26 40.59 50.53 37.25 50.32 Z" />
<path fill="#1b632f" opacity="0.98" d=" M 32.53 52.65 C 33.78 52.46 35.43 53.57 35.07 54.97 C 35.49 57.12 32.51 58.42 31.26 56.80 C 29.80 55.54 30.44 52.70 32.53 52.65 M 31.95 54.23 C 31.49 55.89 32.05 56.43 33.64 55.84 C 34.09 54.18 33.53 53.65 31.95 54.23 Z" />
<path fill="#1b632f" opacity="0.98" d=" M 25.27 54.31 C 28.14 53.06 30.49 56.95 27.79 58.73 C 24.88 60.10 22.60 56.01 25.27 54.31 M 26.27 56.27 C 26.83 56.86 26.83 56.86 26.27 56.27 Z" />
<path fill="#1b632f" opacity="0.98" d=" M 38.33 56.59 C 39.58 55.15 41.99 56.38 41.99 58.10 C 42.34 59.55 40.92 60.87 39.51 60.47 C 37.55 60.48 36.94 57.61 38.33 56.59 M 39.28 57.99 C 39.78 58.61 39.78 58.61 39.28 57.99 Z" />
<path fill="#1b632f" opacity="0.98" d=" M 31.25 59.29 C 34.51 56.92 36.68 63.54 33.00 63.87 C 30.33 64.82 28.61 60.25 31.25 59.29 M 32.11 60.27 C 30.63 60.64 31.43 63.00 32.83 62.44 C 34.30 62.05 33.50 59.73 32.11 60.27 Z" />
<path fill="#1b632f" opacity="0.98" d=" M 15.96 61.25 C 17.39 61.74 18.82 62.22 20.24 62.72 C 19.40 64.62 16.89 64.53 16.09 62.63 C 16.05 62.28 15.99 61.59 15.96 61.25 Z" />
</g>
<g id="#ffe800ff">
<path fill="#ffe800" opacity="1.00" d=" M 31.77 5.78 C 35.47 5.54 39.19 5.19 42.88 5.79 C 41.74 8.16 40.86 10.64 40.06 13.15 C 41.11 12.39 42.15 11.61 43.19 10.83 C 43.26 11.51 43.41 12.87 43.48 13.55 C 44.40 13.99 45.33 14.42 46.25 14.85 C 47.45 14.49 48.65 14.13 49.84 13.76 C 49.29 15.06 48.75 16.35 48.25 17.66 C 50.75 15.99 52.32 13.39 53.72 10.79 C 52.49 11.11 50.05 11.74 48.83 12.06 C 49.13 11.04 49.73 9.00 50.04 7.98 C 48.21 9.76 46.57 11.71 44.99 13.70 C 44.86 12.81 44.62 11.01 44.50 10.12 C 45.55 9.31 46.58 8.50 47.62 7.69 C 46.62 7.76 44.63 7.89 43.64 7.96 C 43.72 7.45 43.89 6.42 43.97 5.91 C 48.97 6.56 53.03 9.72 57.43 11.89 C 62.30 16.34 63.57 23.07 66.42 28.74 C 67.43 24.73 64.62 21.20 63.60 17.49 C 68.26 21.99 70.56 28.16 73.06 33.99 C 74.37 37.18 73.55 40.64 72.62 43.80 C 73.76 44.73 74.89 45.68 76.00 46.64 L 76.00 47.25 C 73.71 48.89 70.89 49.95 69.24 52.34 C 68.07 54.41 68.08 56.91 67.00 59.02 C 64.47 60.47 61.43 60.73 58.80 61.99 C 54.50 63.54 50.64 67.20 45.74 66.14 C 50.16 63.19 55.55 61.38 58.84 56.98 C 63.72 50.39 67.59 42.71 67.74 34.34 L 66.28 34.23 C 65.95 38.90 65.03 43.57 62.83 47.74 C 60.37 52.41 57.60 57.30 53.03 60.21 C 47.89 63.48 42.15 65.94 36.05 66.52 C 32.74 66.07 29.37 65.99 26.12 65.16 C 26.28 62.39 22.20 62.63 20.24 62.72 C 18.82 62.22 17.39 61.74 15.96 61.25 L 15.66 60.99 C 10.08 56.60 3.80 51.67 3.19 43.99 C 2.71 43.91 1.74 43.75 1.26 43.66 L 1.45 46.00 C 0.97 44.70 0.71 43.28 1.22 41.95 C 1.51 41.71 2.09 41.22 2.38 40.98 C 2.19 39.90 1.82 37.75 1.63 36.67 C 1.87 36.28 2.35 35.50 2.59 35.11 C 3.37 33.93 4.13 32.73 4.88 31.54 C 7.20 32.08 9.52 32.62 11.88 32.92 C 11.48 32.22 11.07 31.53 10.65 30.85 C 10.61 29.67 10.55 28.48 10.49 27.30 C 11.60 27.04 12.71 26.77 13.81 26.48 C 11.60 25.88 9.36 25.38 7.11 24.99 C 7.34 26.47 7.95 27.84 8.59 29.18 C 8.02 29.24 6.87 29.34 6.29 29.40 C 6.35 28.19 6.39 26.98 6.40 25.76 C 7.18 24.32 7.93 22.86 8.63 21.38 L 9.61 21.82 C 9.56 21.10 9.47 19.65 9.42 18.93 C 11.03 18.44 12.29 17.34 13.51 16.24 C 14.61 17.51 15.75 18.75 16.87 20.00 C 17.80 19.06 15.11 15.79 17.36 15.59 C 18.24 15.77 20.01 16.12 20.89 16.30 C 19.74 14.97 18.60 13.62 17.39 12.34 C 17.86 11.95 18.79 11.18 19.25 10.79 C 20.13 12.42 21.07 14.02 22.04 15.61 C 22.25 14.10 22.46 12.58 22.68 11.07 C 23.92 11.92 25.17 12.76 26.43 13.57 C 25.57 11.60 24.59 9.67 23.47 7.83 C 25.01 7.85 26.55 7.86 28.08 7.87 C 27.71 8.47 26.97 9.65 26.60 10.25 C 26.92 10.73 27.56 11.69 27.88 12.17 C 29.48 11.92 31.07 11.66 32.66 11.40 C 32.36 9.52 32.07 7.65 31.77 5.78 M 51.88 20.08 C 52.92 21.58 54.79 20.82 56.26 20.72 C 55.08 20.13 53.86 19.59 52.64 19.07 C 52.94 17.51 53.52 15.33 55.57 16.28 C 55.84 17.14 56.37 18.87 56.63 19.74 C 58.97 18.51 57.77 15.01 55.47 14.65 C 52.66 13.94 50.02 17.86 51.88 20.08 M 26.62 20.54 C 22.96 22.83 19.70 25.71 15.97 27.92 C 17.41 30.28 18.74 32.72 19.88 35.25 C 22.61 41.24 28.45 45.62 34.87 46.90 C 35.24 46.59 35.98 45.99 36.35 45.69 C 37.86 46.01 39.44 46.99 40.98 46.23 C 45.44 44.86 47.52 40.25 49.49 36.43 C 52.34 31.22 51.55 23.93 46.76 20.14 C 45.38 18.91 43.46 19.55 41.83 19.65 C 41.92 19.17 42.10 18.21 42.19 17.73 C 36.91 17.75 31.43 18.21 26.62 20.54 M 55.96 22.88 C 55.34 22.63 54.10 22.13 53.48 21.88 C 54.09 26.09 58.06 23.31 60.56 22.87 C 59.21 25.01 56.75 25.95 54.85 27.48 C 57.48 27.74 59.75 26.13 62.13 25.31 C 61.68 24.05 61.78 22.35 60.50 21.56 C 58.87 20.74 57.40 22.33 55.96 22.88 M 58.43 28.66 C 53.84 30.74 59.25 36.67 62.32 33.38 C 65.53 31.18 61.24 26.73 58.43 28.66 M 66.24 29.37 C 65.37 30.44 65.43 32.76 66.94 33.22 C 68.70 32.78 68.19 28.54 66.24 29.37 M 4.62 35.12 C 5.74 36.15 6.88 37.15 8.03 38.15 C 6.85 38.72 5.69 39.31 4.53 39.93 C 6.14 40.53 10.69 38.50 10.54 41.07 C 9.10 42.28 4.66 43.17 7.11 45.61 C 8.13 48.10 10.38 47.04 12.16 46.12 C 13.11 46.29 14.07 46.46 15.04 46.62 C 14.12 43.43 10.90 45.01 8.73 45.80 C 7.61 42.86 11.97 43.09 12.85 41.01 L 12.70 40.37 C 12.42 39.82 11.87 38.72 11.59 38.17 C 10.51 37.51 9.42 36.89 8.32 36.27 C 9.74 35.82 11.47 35.70 12.32 34.27 C 9.73 34.32 7.16 34.63 4.62 35.12 M 63.05 34.64 C 62.24 38.27 58.39 36.68 55.77 37.20 C 57.45 38.07 59.30 38.47 61.14 38.87 C 61.68 39.84 62.23 40.80 62.79 41.76 C 63.28 39.42 63.78 36.98 63.05 34.64 M 53.94 45.62 C 56.19 46.11 59.37 48.71 61.15 46.10 C 62.44 44.68 61.21 43.08 60.34 41.86 C 60.16 42.97 59.81 45.18 59.64 46.29 C 59.06 44.48 59.74 41.88 57.94 40.75 C 55.33 40.88 54.90 43.75 53.94 45.62 M 29.32 47.35 C 26.77 47.78 27.32 51.85 29.82 51.93 C 32.84 51.82 32.52 46.45 29.32 47.35 M 36.09 49.02 C 33.75 51.36 37.20 54.88 39.63 52.61 C 41.09 50.33 38.42 47.62 36.09 49.02 M 32.53 52.65 C 30.44 52.70 29.80 55.54 31.26 56.80 C 32.51 58.42 35.49 57.12 35.07 54.97 C 35.43 53.57 33.78 52.46 32.53 52.65 M 25.27 54.31 C 22.60 56.01 24.88 60.10 27.79 58.73 C 30.49 56.95 28.14 53.06 25.27 54.31 M 38.33 56.59 C 36.94 57.61 37.55 60.48 39.51 60.47 C 40.92 60.87 42.34 59.55 41.99 58.10 C 41.99 56.38 39.58 55.15 38.33 56.59 M 31.25 59.29 C 28.61 60.25 30.33 64.82 33.00 63.87 C 36.68 63.54 34.51 56.92 31.25 59.29 Z" />
<path fill="#ffe800" opacity="1.00" d=" M 25.79 22.78 C 29.32 20.24 33.83 20.02 37.97 19.36 C 32.99 23.51 29.51 29.74 30.91 36.40 C 31.12 36.46 31.53 36.59 31.74 36.65 C 32.77 34.23 31.91 31.34 32.88 28.84 C 33.82 25.45 36.56 23.09 39.30 21.11 C 35.34 25.09 32.42 30.22 32.87 36.04 C 33.86 37.21 34.03 38.75 34.10 40.23 L 33.47 39.56 L 33.06 38.82 C 32.76 38.83 32.16 38.86 31.86 38.87 C 31.95 41.10 33.02 43.09 33.79 45.13 C 30.92 44.04 28.14 42.73 25.62 40.97 C 25.97 40.43 26.66 39.35 27.01 38.80 C 26.79 38.34 26.34 37.40 26.12 36.93 C 26.28 36.31 26.59 35.09 26.74 34.48 C 24.39 35.31 25.70 38.05 25.35 39.85 C 24.33 38.89 23.32 37.91 22.32 36.92 C 23.00 35.99 23.43 34.96 23.61 33.85 C 22.96 33.77 21.66 33.61 21.01 33.53 C 21.44 33.08 23.92 29.78 21.64 30.42 C 21.42 31.02 20.98 32.22 20.76 32.82 C 19.79 31.21 18.88 29.58 17.93 27.96 C 18.85 27.52 19.76 27.08 20.67 26.64 C 20.82 27.40 21.12 28.91 21.26 29.67 C 22.56 27.26 23.39 24.37 25.79 22.78 M 24.45 31.36 C 24.44 31.76 24.41 32.56 24.40 32.96 C 27.20 34.97 27.11 28.42 24.45 31.36 M 28.20 33.12 C 27.68 34.58 28.11 35.05 29.50 34.51 C 30.01 33.05 29.58 32.59 28.20 33.12 M 28.48 39.35 C 28.52 40.67 28.81 41.94 29.97 42.76 C 29.78 40.33 29.39 37.92 28.96 35.51 C 27.48 36.54 27.98 37.98 28.48 39.35 Z" />
<path fill="#ffe800" opacity="1.00" d=" M 38.91 23.89 C 40.51 22.59 42.25 21.47 44.13 20.61 C 43.56 23.93 42.81 27.23 41.85 30.47 C 40.44 28.49 39.63 26.19 38.91 23.89 Z" />
<path fill="#ffe800" opacity="1.00" d=" M 43.90 29.33 C 44.33 26.65 44.99 24.01 45.82 21.43 C 46.61 22.52 48.39 23.35 48.07 24.96 C 47.11 26.76 45.37 27.97 43.90 29.33 Z" />
<path fill="#ffe800" opacity="1.00" d=" M 34.69 31.89 C 35.20 29.47 36.24 27.22 37.62 25.18 C 38.70 27.63 39.75 30.09 40.85 32.52 C 38.80 32.31 36.75 32.10 34.69 31.89 Z" />
<path fill="#ffe800" opacity="1.00" d=" M 48.57 27.04 C 50.39 27.48 49.96 30.17 49.58 31.54 C 48.70 34.30 45.35 32.81 43.31 32.93 C 45.04 30.94 46.69 28.89 48.57 27.04 Z" />
<path fill="#ffe800" opacity="1.00" d=" M 58.37 30.32 C 59.68 29.77 62.46 29.62 61.89 31.77 C 60.73 33.52 56.95 32.70 58.37 30.32 Z" />
<path fill="#ffe800" opacity="1.00" d=" M 34.90 33.98 C 36.59 33.65 38.31 33.89 40.00 33.96 C 38.86 36.00 37.39 37.83 35.54 39.26 C 35.35 37.53 34.03 35.67 34.90 33.98 Z" />
<path fill="#ffe800" opacity="1.00" d=" M 43.04 34.32 C 44.90 34.50 46.77 34.69 48.64 34.90 C 47.63 36.65 46.61 38.40 45.57 40.13 C 44.68 38.21 43.83 36.28 43.04 34.32 Z" />
<path fill="#ffe800" opacity="1.00" d=" M 36.48 42.02 C 37.13 39.88 38.88 38.38 40.37 36.82 C 40.41 39.75 39.99 42.69 38.78 45.37 C 37.89 44.36 36.68 43.45 36.48 42.02 Z" />
<path fill="#ffe800" opacity="1.00" d=" M 42.09 37.06 C 42.93 38.62 44.50 40.06 44.32 41.98 C 43.48 43.05 42.26 43.70 41.17 44.48 C 41.46 42.00 41.78 39.53 42.09 37.06 Z" />
<path fill="#ffe800" opacity="1.00" d=" M 57.24 43.23 C 57.83 43.73 57.83 43.73 57.24 43.23 Z" />
<path fill="#ffe800" opacity="1.00" d=" M 29.30 49.25 C 29.84 49.83 29.84 49.83 29.30 49.25 Z" />
<path fill="#ffe800" opacity="1.00" d=" M 37.25 50.32 C 40.59 50.53 35.67 53.26 37.25 50.32 Z" />
<path fill="#ffe800" opacity="1.00" d=" M 31.95 54.23 C 33.53 53.65 34.09 54.18 33.64 55.84 C 32.05 56.43 31.49 55.89 31.95 54.23 Z" />
<path fill="#ffe800" opacity="1.00" d=" M 26.27 56.27 C 26.83 56.86 26.83 56.86 26.27 56.27 Z" />
<path fill="#ffe800" opacity="1.00" d=" M 39.28 57.99 C 39.78 58.61 39.78 58.61 39.28 57.99 Z" />
<path fill="#ffe800" opacity="1.00" d=" M 32.11 60.27 C 33.50 59.73 34.30 62.05 32.83 62.44 C 31.43 63.00 30.63 60.64 32.11 60.27 Z" />
</g>
</svg>
