<?xml version="1.0" encoding="UTF-8" ?>
<!DOCTYPE svg PUBLIC "-//W3C//DTD SVG 1.1//EN" "http://www.w3.org/Graphics/SVG/1.1/DTD/svg11.dtd">
<svg width="70pt" height="65pt" viewBox="0 0 70 65" version="1.1" xmlns="http://www.w3.org/2000/svg">
<g id="#084d2fd7">
<path fill="#084d2f" opacity="0.84" d=" M 28.53 0.00 L 37.49 0.00 C 33.59 1.71 29.28 1.88 25.23 3.02 C 21.01 4.19 17.87 7.43 14.11 9.49 C 17.37 3.66 24.01 1.59 30.06 0.02 L 28.53 0.00 Z" />
<path fill="#084d2f" opacity="0.84" d=" M 38.64 0.11 C 42.87 0.86 47.33 1.44 50.96 3.92 C 54.58 6.43 57.80 9.45 61.10 12.35 C 64.04 10.88 67.05 9.56 70.00 8.10 L 70.00 9.29 C 67.39 10.95 64.62 12.33 61.89 13.76 C 64.15 18.58 67.01 23.43 67.04 28.92 C 67.16 35.22 67.07 42.01 63.56 47.51 C 59.97 52.94 55.78 58.72 49.22 60.68 C 53.07 56.69 58.07 53.79 61.02 48.95 C 67.77 38.62 67.16 24.67 60.64 14.37 C 57.26 16.35 54.01 18.55 50.93 20.97 C 53.26 22.59 56.57 23.67 57.44 26.67 C 58.37 29.31 57.50 32.46 55.14 34.04 C 47.49 39.72 38.85 43.84 30.76 48.82 C 28.14 46.27 25.77 43.48 23.52 40.59 C 18.85 43.15 14.28 45.90 9.72 48.65 C 11.92 52.22 14.53 55.65 18.09 57.98 C 22.02 60.73 26.90 61.40 31.31 63.04 C 21.88 64.18 13.04 57.65 8.65 49.67 C 5.74 51.08 2.83 52.49 0.00 54.07 L 0.00 52.71 C 2.38 51.22 4.85 49.87 7.28 48.48 C 3.44 40.25 1.18 30.58 4.72 21.83 C 5.96 19.20 6.71 15.38 9.63 14.25 C 8.48 18.31 5.94 21.85 5.13 26.03 C 3.49 33.29 5.63 40.69 8.39 47.40 C 13.11 44.99 17.62 42.21 22.18 39.52 C 20.29 37.39 18.20 35.15 17.91 32.17 C 17.69 30.50 17.09 28.14 18.91 27.13 C 23.06 24.50 27.92 23.35 32.42 21.49 C 35.94 20.24 39.30 18.33 43.05 17.84 C 45.38 18.05 47.44 19.26 49.69 19.77 C 53.16 17.80 56.23 15.20 59.68 13.17 C 53.92 7.37 47.04 1.73 38.41 1.67 L 38.64 0.11 M 34.98 21.98 C 29.59 24.14 23.96 25.79 18.91 28.74 C 21.31 31.45 23.77 34.11 26.38 36.62 C 27.81 35.93 29.24 35.24 30.70 34.59 C 29.70 35.91 28.66 37.19 27.62 38.48 C 31.23 40.47 34.57 36.31 37.98 35.33 C 37.51 34.99 36.57 34.30 36.10 33.96 C 39.66 31.75 43.04 29.27 46.34 26.70 C 45.70 26.15 45.07 25.60 44.44 25.05 C 44.29 26.86 43.09 27.64 41.40 27.80 C 41.40 28.02 41.40 28.47 41.39 28.69 C 40.62 29.05 39.09 29.76 38.32 30.12 C 36.27 28.84 34.36 27.33 32.92 25.37 C 33.97 25.10 36.07 24.57 37.11 24.31 L 37.11 26.31 L 37.83 26.12 C 37.83 25.48 37.82 24.19 37.82 23.54 C 40.76 22.78 43.88 19.96 46.89 22.04 C 48.71 22.90 48.68 25.06 48.25 26.72 C 49.40 25.55 50.58 24.42 51.68 23.21 C 50.66 22.83 49.64 22.46 48.61 22.11 C 47.05 20.72 45.31 18.97 43.01 19.33 C 40.22 19.82 37.62 21.00 34.98 21.98 M 45.23 23.21 C 45.80 23.77 45.80 23.77 45.23 23.21 M 53.12 23.86 C 51.86 25.20 50.60 26.55 49.39 27.94 C 48.88 27.92 47.84 27.89 47.32 27.87 C 44.03 30.28 40.69 32.63 37.57 35.25 C 43.90 32.69 49.42 28.65 55.49 25.58 C 54.70 25.01 53.91 24.43 53.12 23.86 M 40.21 24.97 C 40.37 28.29 43.21 23.47 40.21 24.97 M 29.85 40.95 C 30.44 42.83 31.05 44.70 31.66 46.58 C 38.96 42.27 46.46 38.26 53.52 33.56 C 55.97 32.24 56.04 29.38 56.14 26.95 C 47.28 31.44 39.01 37.02 29.85 40.95 M 19.21 32.01 C 20.06 34.93 21.88 38.20 25.33 38.31 C 23.55 35.97 21.47 33.88 19.21 32.01 M 24.63 38.67 C 25.81 41.18 27.55 43.35 29.49 45.31 C 29.03 42.48 28.00 39.05 24.63 38.67 Z" />
<path fill="#084d2f" opacity="0.84" d=" M 23.57 6.68 C 25.91 5.52 28.42 4.80 30.93 4.13 C 28.49 6.47 29.36 9.68 29.80 12.63 C 27.70 11.66 27.92 9.13 27.33 7.23 C 26.08 7.06 24.83 6.87 23.57 6.68 Z" />
<path fill="#084d2f" opacity="0.84" d=" M 32.76 11.66 C 32.69 8.75 31.89 5.42 33.87 2.92 C 34.03 4.59 34.15 6.26 34.23 7.93 C 35.38 6.38 36.65 4.91 38.08 3.59 C 38.67 6.52 38.40 9.52 37.62 12.39 C 36.93 10.66 36.86 8.81 36.84 6.97 C 35.77 8.77 34.64 10.60 32.76 11.66 Z" />
<path fill="#084d2f" opacity="0.84" d=" M 41.10 4.40 C 43.34 5.07 45.71 5.68 47.36 7.47 C 46.31 7.38 45.27 7.29 44.23 7.19 C 43.47 9.36 42.58 11.50 41.10 13.28 C 41.08 10.50 43.44 6.95 40.36 5.04 C 40.54 4.88 40.91 4.56 41.10 4.40 Z" />
<path fill="#084d2f" opacity="0.84" d=" M 21.41 7.40 C 22.78 6.40 23.84 8.28 24.87 8.83 C 23.92 8.91 22.02 9.06 21.08 9.14 C 21.05 9.79 21.00 11.10 20.98 11.75 C 21.81 12.19 22.65 12.64 23.49 13.08 C 24.26 11.85 25.04 10.63 25.87 9.44 C 25.90 11.15 26.20 13.90 23.91 14.32 C 20.10 15.54 17.34 8.66 21.41 7.40 Z" />
<path fill="#084d2f" opacity="0.84" d=" M 48.21 8.03 C 48.78 7.79 49.91 7.32 50.47 7.08 C 49.95 8.11 49.43 9.14 48.90 10.16 C 49.62 10.87 50.35 11.58 51.07 12.28 C 51.07 13.05 51.05 14.59 51.05 15.36 C 48.71 15.43 46.47 14.82 44.98 12.94 C 46.07 11.31 47.14 9.67 48.21 8.03 M 47.37 12.16 C 46.62 13.33 48.58 14.68 49.53 13.81 C 50.26 12.64 48.32 11.27 47.37 12.16 Z" />
<path fill="#084d2f" opacity="0.84" d=" M 10.25 12.81 C 10.43 10.71 12.57 9.77 14.23 9.00 C 13.17 10.41 12.40 12.97 10.25 12.81 Z" />
<path fill="#084d2f" opacity="0.84" d=" M 14.66 11.42 C 17.86 12.12 19.87 14.80 21.73 17.26 C 20.59 17.80 19.52 18.44 18.51 19.19 C 17.80 18.84 16.39 18.14 15.69 17.79 C 16.36 18.69 17.71 20.48 18.38 21.37 C 16.94 21.21 15.50 21.04 14.06 20.85 C 15.22 21.90 16.33 22.99 17.32 24.20 C 15.01 23.37 12.60 22.51 10.80 20.79 C 8.92 18.77 12.68 18.79 13.92 18.96 C 13.22 17.62 12.46 16.27 12.58 14.69 C 14.37 15.51 16.13 16.41 17.86 17.35 C 18.38 16.95 18.89 16.55 19.40 16.14 C 17.66 14.74 16.06 13.17 14.66 11.42 Z" />
<path fill="#084d2f" opacity="0.84" d=" M 25.45 25.65 C 26.12 26.31 27.45 27.64 28.12 28.30 C 28.58 27.79 29.04 27.27 29.49 26.75 C 30.12 27.12 31.39 27.87 32.02 28.24 L 31.73 25.32 C 33.68 27.69 38.05 30.22 35.99 33.74 L 35.33 32.95 C 34.38 31.14 32.70 29.94 31.13 28.71 C 30.63 29.08 30.12 29.45 29.62 29.83 C 31.08 30.83 33.66 30.91 34.12 32.97 C 34.11 33.32 34.10 34.03 34.10 34.39 C 33.47 33.95 32.21 33.08 31.58 32.65 C 30.39 33.18 29.19 33.72 27.99 34.24 C 25.83 32.24 23.58 30.20 22.36 27.46 C 25.06 28.92 26.88 31.88 30.09 32.33 C 28.43 30.18 26.40 28.25 25.45 25.65 Z" />
<path fill="#084d2f" opacity="0.84" d=" M 13.40 26.49 C 14.28 28.23 14.35 30.16 13.92 32.04 C 11.78 33.48 8.95 32.11 6.55 32.14 C 6.50 30.01 6.63 27.82 8.39 26.31 C 8.35 27.45 8.27 29.73 8.23 30.87 C 8.64 30.91 9.45 30.97 9.85 31.01 C 9.85 30.12 9.83 28.33 9.83 27.44 L 10.84 27.58 C 11.25 28.92 11.67 30.26 12.16 31.57 C 12.57 29.88 12.98 28.19 13.40 26.49 Z" />
<path fill="#084d2f" opacity="0.84" d=" M 6.27 36.50 C 8.96 34.80 12.15 34.49 15.24 34.26 C 13.73 35.51 11.87 36.67 11.76 38.85 C 12.79 38.66 14.87 38.27 15.91 38.08 C 13.99 40.88 10.15 40.40 7.25 41.19 C 8.38 40.13 9.54 39.11 10.55 37.93 C 9.28 37.12 7.85 36.64 6.27 36.50 Z" />
<path fill="#084d2f" opacity="0.84" d=" M 52.50 44.92 C 53.28 43.42 54.09 41.95 54.91 40.47 C 57.62 40.66 58.55 42.72 57.99 45.18 C 58.48 46.26 58.97 47.35 59.46 48.43 C 58.52 47.82 56.64 46.60 55.70 46.00 C 55.83 48.26 56.94 51.96 53.91 52.76 C 51.20 53.76 49.70 50.90 48.13 49.31 C 48.13 50.02 48.12 51.45 48.11 52.16 C 49.53 53.20 51.17 54.19 51.64 56.02 C 50.13 55.30 48.67 54.49 47.20 53.70 C 47.52 55.21 47.84 56.73 48.09 58.26 C 46.55 56.54 45.27 54.63 43.99 52.73 C 43.34 55.46 43.03 58.81 39.90 59.86 C 40.18 59.04 40.72 57.39 41.00 56.57 C 40.25 55.06 39.04 53.87 37.97 52.60 C 38.03 55.66 38.41 58.71 38.64 61.76 C 36.99 60.34 34.92 59.73 32.92 58.99 C 32.26 56.59 31.54 53.31 33.72 51.46 C 33.94 53.63 34.02 55.82 34.07 58.00 C 34.58 58.00 35.60 58.00 36.11 58.00 C 36.32 55.95 36.16 53.81 36.94 51.87 C 38.97 51.64 40.48 52.93 41.75 54.30 C 42.19 52.75 42.54 51.05 43.98 50.07 C 44.54 50.69 45.66 51.92 46.22 52.54 C 46.43 49.54 48.98 47.88 51.12 46.23 C 52.41 46.03 53.70 45.77 54.84 45.11 L 52.50 44.92 M 55.06 42.56 C 54.55 44.21 55.09 44.74 56.70 44.17 C 57.22 42.53 56.68 41.99 55.06 42.56 M 51.17 48.02 C 49.19 49.42 52.98 53.19 53.97 50.81 C 55.82 49.39 52.03 45.40 51.17 48.02 Z" />
<path fill="#084d2f" opacity="0.84" d=" M 37.31 64.37 C 40.31 61.32 45.04 61.27 48.93 60.04 C 45.97 63.20 41.31 63.52 37.31 64.37 Z" />
<path fill="#084d2f" opacity="0.84" d=" M 31.02 63.91 C 32.47 62.26 35.39 61.74 36.67 63.90 C 34.79 64.02 32.90 64.02 31.02 63.91 Z" />
</g>
</svg>
