<?xml version="1.0" encoding="UTF-8" ?>
<!DOCTYPE svg PUBLIC "-//W3C//DTD SVG 1.1//EN" "http://www.w3.org/Graphics/SVG/1.1/DTD/svg11.dtd">
<svg width="37pt" height="73pt" viewBox="0 0 37 73" version="1.1" xmlns="http://www.w3.org/2000/svg">
<g id="#192e5bbd">
<path fill="#192e5b" opacity="0.74" d=" M 12.91 0.00 L 22.99 0.00 C 23.98 1.69 24.14 3.66 24.47 5.54 C 24.07 5.92 23.25 6.69 22.85 7.07 C 29.37 10.87 35.64 16.86 35.99 24.88 C 36.11 38.94 35.86 53.01 36.09 67.08 C 31.57 72.45 23.91 73.47 17.32 73.00 L 12.71 73.00 C 19.38 70.02 28.54 73.16 33.88 67.02 C 35.50 64.80 34.32 61.95 34.00 59.52 C 34.21 59.10 34.63 58.28 34.84 57.86 C 34.60 57.36 34.14 56.36 33.90 55.86 C 34.33 54.29 34.39 52.67 34.07 51.08 C 34.25 50.56 34.63 49.53 34.81 49.01 C 34.51 48.52 33.89 47.53 33.58 47.04 C 33.90 46.56 34.54 45.60 34.85 45.13 C 34.57 44.57 34.00 43.45 33.72 42.89 C 33.90 42.47 34.26 41.63 34.44 41.20 C 34.32 39.67 34.27 38.14 34.41 36.61 C 34.27 36.10 33.99 35.09 33.86 34.58 C 34.16 33.79 34.47 33.00 34.78 32.20 C 34.59 31.78 34.20 30.94 34.01 30.52 C 36.73 21.32 30.01 12.52 22.10 8.57 C 21.97 7.57 21.83 6.58 21.70 5.58 C 19.30 5.61 16.89 5.62 14.49 5.63 C 14.12 7.90 12.76 9.66 10.75 10.76 C 5.71 13.87 1.96 19.22 1.44 25.19 C 1.34 28.57 1.94 31.91 2.08 35.28 C 1.56 35.04 0.52 34.57 0.00 34.33 L 0.00 29.13 C -1.67 19.62 5.25 12.08 12.59 7.43 C 11.54 5.02 11.56 2.29 12.91 0.00 M 13.69 1.57 C 13.54 2.15 13.23 3.30 13.08 3.88 C 16.39 4.00 19.70 4.04 23.01 3.94 C 22.18 -0.24 16.76 1.81 13.69 1.57 Z" />
<path fill="#192e5b" opacity="0.74" d=" M 6.91 24.87 C 14.24 23.99 21.76 24.00 29.10 24.86 C 29.62 26.85 29.94 28.90 29.88 30.97 C 29.79 39.00 29.88 47.03 29.85 55.06 C 29.99 56.90 29.19 59.46 26.92 59.38 C 21.95 59.71 16.97 59.40 11.99 59.53 C 9.85 59.46 6.62 59.80 6.19 56.98 C 5.71 51.00 6.14 44.97 6.00 38.97 C 6.20 34.27 5.32 29.41 6.91 24.87 M 8.01 26.05 C 7.46 36.66 7.41 47.36 8.04 57.97 C 14.68 58.00 21.33 58.04 27.97 57.93 C 28.28 47.32 28.27 36.68 27.98 26.06 C 21.32 25.96 14.67 25.98 8.01 26.05 Z" />
<path fill="#192e5b" opacity="0.74" d=" M 0.00 34.74 C 0.33 35.03 0.99 35.61 1.32 35.90 C 1.54 36.66 1.99 38.18 2.22 38.94 C 1.95 39.43 1.42 40.42 1.15 40.91 C 1.46 41.45 2.08 42.54 2.39 43.08 C 2.07 43.53 1.44 44.44 1.12 44.89 C 1.43 45.51 2.04 46.76 2.35 47.38 C 2.04 47.79 1.42 48.60 1.10 49.01 C 1.38 49.60 1.94 50.80 2.22 51.39 C 1.86 52.20 1.51 53.02 1.15 53.83 C 1.45 54.30 2.04 55.24 2.34 55.70 C 2.05 56.24 1.47 57.32 1.18 57.86 C 1.39 58.35 1.82 59.31 2.03 59.80 C 1.73 61.52 1.46 63.25 1.21 64.98 C 0.91 65.26 0.30 65.81 0.00 66.08 L 0.00 34.74 Z" />
<path fill="#192e5b" opacity="0.74" d=" M 0.48 68.31 C 0.94 67.68 1.41 67.06 1.89 66.44 C 3.72 69.96 8.05 70.92 11.69 70.98 C 10.99 71.53 10.30 72.08 9.60 72.63 C 6.25 71.94 3.24 70.29 0.48 68.31 Z" />
</g>
</svg>
