<?xml version="1.0" encoding="UTF-8" ?>
<!DOCTYPE svg PUBLIC "-//W3C//DTD SVG 1.1//EN" "http://www.w3.org/Graphics/SVG/1.1/DTD/svg11.dtd">
<svg width="32pt" height="78pt" viewBox="0 0 32 78" version="1.1" xmlns="http://www.w3.org/2000/svg">
<g id="#1b3060c6">
<path fill="#1b3060" opacity="0.78" d=" M 11.34 0.00 L 20.86 0.00 C 21.96 2.15 22.49 4.71 21.20 6.91 C 25.97 12.49 30.15 18.79 32.00 25.98 L 32.00 42.92 C 31.90 43.06 31.70 43.32 31.60 43.45 L 32.00 43.38 L 32.00 54.64 L 31.90 54.72 C 31.92 54.78 31.97 54.90 32.00 54.96 L 32.00 67.14 C 30.81 64.85 30.62 62.21 29.84 59.78 C 31.01 57.98 31.02 55.83 29.57 54.18 C 30.99 52.54 30.55 50.48 30.29 48.53 C 30.53 44.83 30.50 41.10 30.17 37.41 C 31.35 30.57 30.65 23.07 26.79 17.14 C 24.54 13.07 21.12 9.77 19.11 5.55 C 16.96 5.52 14.81 5.52 12.66 5.51 C 9.71 11.77 4.06 16.60 2.43 23.54 C 2.85 25.42 1.47 25.70 0.26 25.46 C 1.89 18.38 6.14 12.30 10.81 6.88 C 9.41 4.81 9.52 1.79 11.34 0.00 M 12.06 1.66 C 11.88 2.23 11.52 3.39 11.34 3.96 C 14.42 4.04 17.49 4.04 20.56 3.96 C 20.40 3.38 20.08 2.23 19.92 1.66 C 17.33 1.15 14.65 1.22 12.06 1.66 Z" />
<path fill="#1b3060" opacity="0.78" d=" M 0.00 26.87 C 1.88 30.02 1.02 33.89 1.84 37.34 C 1.67 38.59 1.49 39.83 1.32 41.08 C 0.99 41.34 0.33 41.87 0.00 42.13 L 0.00 26.87 Z" />
<path fill="#1b3060" opacity="0.78" d=" M 6.24 34.01 C 12.15 34.64 19.49 32.01 24.13 36.91 C 29.19 41.43 28.12 50.89 21.96 53.95 C 16.34 57.39 8.18 53.95 6.65 47.56 C 5.74 43.10 6.35 38.52 6.24 34.01 M 7.65 35.19 C 7.74 39.10 7.31 43.06 8.01 46.93 C 9.05 52.06 15.25 55.54 20.09 53.28 C 25.56 51.19 27.95 43.65 24.13 39.01 C 20.40 33.74 13.17 35.41 7.65 35.19 Z" />
<path fill="#1b3060" opacity="0.78" d=" M 0.00 43.79 C 0.32 44.09 0.97 44.70 1.29 45.01 C 1.42 45.88 1.68 47.63 1.81 48.51 C 1.28 50.41 1.18 52.41 2.32 54.14 C 2.05 54.86 1.50 56.30 1.23 57.02 C 0.92 57.29 0.31 57.83 0.00 58.10 L 0.00 43.79 Z" />
<path fill="#1b3060" opacity="0.78" d=" M 0.00 59.95 C 0.84 59.47 1.68 59.01 2.52 58.54 C 1.71 60.62 1.27 62.79 1.26 65.03 C 0.95 65.27 0.32 65.73 0.00 65.96 L 0.00 59.95 Z" />
<path fill="#1b3060" opacity="0.78" d=" M 0.14 67.62 C 0.72 67.72 1.87 67.90 2.44 67.99 C 1.32 71.66 4.27 75.62 7.95 76.11 C 13.27 76.97 18.77 76.94 24.11 76.18 C 27.79 75.82 30.19 72.02 29.78 68.50 C 30.43 68.54 31.07 68.59 31.71 68.65 C 31.34 73.12 28.49 76.84 24.10 78.00 L 9.08 78.00 C 6.91 77.35 4.54 76.77 2.95 75.04 C 1.05 73.06 0.89 70.13 0.14 67.62 Z" />
</g>
</svg>
