<?xml version="1.0" encoding="UTF-8" ?>
<!DOCTYPE svg PUBLIC "-//W3C//DTD SVG 1.1//EN" "http://www.w3.org/Graphics/SVG/1.1/DTD/svg11.dtd">
<svg width="74pt" height="67pt" viewBox="0 0 74 67" version="1.1" xmlns="http://www.w3.org/2000/svg">
<g id="#055b33fe">
<path fill="#055b33" opacity="1.00" d=" M 36.37 0.00 L 46.19 0.00 C 46.69 0.47 47.69 1.42 48.20 1.90 C 52.03 2.48 55.44 4.36 58.84 6.11 C 58.81 6.67 58.76 7.79 58.74 8.36 C 55.62 5.69 52.04 3.43 47.85 3.04 L 47.22 2.81 C 44.08 0.87 40.26 0.98 36.77 1.67 C 32.31 2.59 27.44 2.87 23.66 5.68 C 16.35 11.03 9.82 18.55 8.42 27.76 C 8.08 27.76 7.41 27.75 7.07 27.74 C 7.95 25.02 8.75 22.26 9.63 19.54 C 10.10 18.25 10.61 16.97 11.04 15.67 C 12.90 15.21 14.16 13.56 14.31 11.67 C 14.40 11.60 14.56 11.46 14.64 11.39 C 17.67 8.84 20.67 6.26 23.61 3.62 C 27.75 2.03 32.00 0.75 36.37 0.00 Z" />
<path fill="#055b33" opacity="1.00" d=" M 35.01 2.71 C 36.21 3.39 37.41 4.08 38.60 4.79 C 40.24 4.20 41.87 3.60 43.51 3.03 C 43.48 4.02 43.41 6.01 43.38 7.00 C 44.59 6.28 45.79 5.54 46.98 4.80 C 48.25 5.18 49.53 5.55 50.80 5.92 C 50.95 7.47 51.09 9.02 51.25 10.57 C 47.30 10.35 43.95 7.85 39.95 7.84 C 37.16 6.88 35.44 9.68 33.94 11.49 C 34.32 8.57 34.69 5.64 35.01 2.71 Z" />
<path fill="#055b33" opacity="1.00" d=" M 31.62 5.80 C 31.98 5.30 32.70 4.30 33.05 3.80 C 33.14 6.47 33.33 9.17 32.86 11.81 C 31.20 14.18 29.23 11.45 27.83 10.32 C 25.93 11.96 23.89 13.42 21.79 14.80 C 21.37 16.13 20.81 17.39 19.21 17.44 C 19.21 17.90 19.21 18.80 19.21 19.25 C 17.89 18.33 16.28 17.68 15.36 16.30 C 16.34 15.30 17.34 14.32 18.36 13.37 C 18.73 13.72 19.47 14.44 19.84 14.79 C 19.71 13.55 19.58 12.30 19.44 11.05 C 19.88 10.54 20.74 9.52 21.18 9.01 C 24.23 8.08 27.17 6.81 30.03 5.39 C 30.43 5.50 31.22 5.70 31.62 5.80 M 29.12 8.36 C 28.74 9.73 29.24 10.26 30.65 9.96 C 31.04 8.59 30.53 8.06 29.12 8.36 M 23.24 10.27 C 23.85 10.70 23.85 10.70 23.24 10.27 Z" />
<path fill="#055b33" opacity="1.00" d=" M 51.00 11.61 C 51.62 10.24 51.31 8.10 52.95 7.46 C 55.74 8.73 57.76 11.15 60.00 13.17 C 59.85 13.54 59.53 14.28 59.38 14.66 C 60.57 14.54 61.77 14.42 62.97 14.31 C 63.31 14.77 63.98 15.70 64.31 16.16 C 62.89 17.47 61.48 18.80 60.08 20.12 C 59.38 18.71 58.69 17.30 58.03 15.88 C 55.78 14.31 53.44 12.86 51.00 11.61 Z" />
<path fill="#055b33" opacity="1.00" d=" M 59.58 8.94 C 60.21 9.18 61.46 9.68 62.09 9.92 C 67.80 15.12 71.64 22.31 72.26 30.07 C 72.07 32.01 71.77 33.94 71.34 35.84 C 70.90 37.24 70.84 38.66 71.18 40.10 C 70.47 42.02 69.76 43.94 68.93 45.82 C 68.47 46.77 68.07 47.74 67.73 48.74 C 67.38 49.45 66.66 50.87 66.30 51.58 C 65.26 53.10 64.20 54.60 63.31 56.22 C 61.55 55.93 60.18 57.28 59.69 58.87 C 55.46 62.07 50.59 64.54 45.27 65.24 C 48.23 62.66 52.31 62.13 55.58 60.08 C 55.01 59.96 53.87 59.70 53.30 59.57 C 54.89 59.17 56.61 59.09 58.01 58.14 C 65.95 52.26 69.80 42.55 70.55 32.94 C 71.31 23.74 66.56 14.73 59.58 8.94 Z" />
<path fill="#055b33" opacity="1.00" d=" M 40.31 9.40 C 42.39 11.49 43.42 14.28 44.49 16.96 C 49.25 21.76 52.50 28.47 52.50 35.31 C 54.76 35.13 54.31 37.38 54.21 38.92 C 53.13 47.38 42.92 53.32 35.05 49.90 C 29.62 47.70 25.80 41.89 26.28 36.00 C 26.42 32.94 28.22 30.36 29.66 27.77 C 33.26 21.68 36.61 15.43 40.31 9.40 M 28.67 32.75 C 25.98 37.79 28.70 44.14 33.05 47.27 C 37.91 50.88 45.52 50.07 49.17 45.10 C 46.04 46.71 42.30 47.75 39.02 45.92 C 32.78 43.64 31.77 35.02 35.12 29.99 C 37.77 26.17 40.53 22.33 42.19 17.95 C 43.14 15.79 41.43 13.83 40.63 11.93 C 36.58 18.83 32.18 25.55 28.67 32.75 M 43.20 18.26 C 41.59 21.21 46.53 18.43 43.20 18.26 M 43.31 22.46 C 44.53 22.68 45.79 22.72 46.98 23.12 C 46.80 24.82 46.42 26.49 46.12 28.17 C 47.56 27.03 47.94 25.29 47.90 23.53 C 47.56 22.96 46.87 21.82 46.53 21.25 C 45.45 21.66 44.38 22.05 43.31 22.46 M 42.19 25.23 C 42.78 25.70 42.78 25.70 42.19 25.23 M 44.31 33.25 C 43.58 31.08 43.23 27.97 40.96 26.92 C 37.02 28.65 41.66 33.08 44.31 33.25 M 45.85 32.59 C 46.93 31.79 48.01 30.96 49.10 30.15 C 48.90 33.10 45.66 34.38 44.73 37.06 C 47.13 36.95 49.32 35.67 50.73 33.77 C 51.78 31.57 50.34 29.22 49.55 27.19 C 47.05 27.29 46.75 30.79 45.85 32.59 M 37.34 33.96 C 38.68 36.26 41.25 37.40 43.71 38.04 C 43.68 37.37 43.61 36.03 43.57 35.36 C 41.52 33.84 39.43 32.24 38.37 29.84 C 38.00 31.20 36.93 32.50 37.34 33.96 M 44.31 43.80 C 48.33 43.44 50.75 39.70 51.07 35.97 C 47.88 37.58 44.17 39.63 44.31 43.80 M 36.06 35.91 C 36.21 39.14 37.72 42.72 41.22 43.44 C 42.98 43.27 42.86 41.61 42.74 40.27 C 40.92 38.28 38.44 37.08 36.06 35.91 Z" />
<path fill="#055b33" opacity="1.00" d=" M 8.36 44.78 C 7.89 39.71 5.67 34.22 7.67 29.31 C 8.71 36.27 8.29 43.92 12.57 49.92 C 13.42 51.15 14.45 52.31 15.92 52.76 C 15.68 53.22 15.21 54.14 14.97 54.60 C 11.88 51.97 10.44 47.92 7.19 45.46 L 8.79 46.24 L 8.36 44.78 Z" />
<path fill="#055b33" opacity="1.00" d=" M 23.24 52.61 C 24.96 51.86 26.66 51.08 28.34 50.23 C 29.35 50.78 30.36 51.32 31.36 51.88 C 30.54 52.00 28.90 52.25 28.08 52.37 C 28.09 52.67 28.13 53.28 28.15 53.58 C 29.76 53.66 31.38 53.76 33.00 53.86 C 32.74 55.52 32.47 57.18 32.17 58.84 C 28.97 57.90 25.57 57.12 22.88 55.05 C 22.97 54.44 23.15 53.22 23.24 52.61 M 24.33 53.28 C 23.79 54.91 24.34 55.46 25.97 54.95 C 26.50 53.31 25.95 52.76 24.33 53.28 M 29.10 55.06 C 28.61 56.67 29.18 57.19 30.81 56.64 C 31.31 55.01 30.74 54.49 29.10 55.06 Z" />
<path fill="#055b33" opacity="1.00" d=" M 51.25 55.81 C 51.36 52.23 54.93 51.13 57.59 49.77 C 57.44 50.69 57.29 51.61 57.15 52.53 C 57.80 52.70 59.10 53.03 59.75 53.20 C 59.52 53.66 59.08 54.58 58.86 55.04 C 58.03 54.82 57.19 54.59 56.36 54.37 C 56.14 54.93 55.70 56.05 55.48 56.61 C 54.74 55.34 54.00 54.07 53.24 52.81 C 53.41 54.54 53.62 56.26 53.83 57.99 C 53.41 58.04 52.57 58.15 52.15 58.20 C 51.57 58.26 50.41 58.37 49.83 58.42 C 49.33 56.74 48.92 55.04 48.52 53.34 C 49.44 54.15 50.35 54.98 51.25 55.81 Z" />
<path fill="#055b33" opacity="1.00" d=" M 32.07 59.31 C 33.25 57.90 34.12 55.92 35.84 55.15 C 36.44 55.52 37.65 56.24 38.25 56.60 C 39.30 55.99 40.36 55.38 41.41 54.78 C 42.57 56.47 42.79 58.49 42.30 60.48 C 41.73 60.56 40.58 60.74 40.01 60.83 C 39.18 60.40 38.38 59.92 37.57 59.46 C 36.33 59.56 35.08 59.66 33.83 59.76 C 33.43 60.19 32.61 61.04 32.21 61.46 C 32.08 62.42 31.95 63.37 31.83 64.33 C 33.77 64.19 35.71 64.08 37.66 63.98 L 37.73 65.73 C 29.97 65.97 22.54 62.62 17.01 57.30 C 16.52 56.81 16.47 56.11 16.32 55.47 C 20.86 58.69 25.37 62.07 30.70 63.90 C 31.01 62.72 31.33 61.55 31.68 60.38 C 31.78 60.12 31.97 59.58 32.07 59.31 Z" />
<path fill="#055b33" opacity="1.00" d=" M 44.11 55.38 C 45.40 55.35 46.69 55.31 47.98 55.27 C 47.96 56.71 47.94 58.15 47.92 59.59 L 46.97 59.80 C 48.19 57.65 44.35 58.21 46.12 59.93 C 45.66 60.00 44.74 60.13 44.28 60.19 C 44.23 58.59 44.17 56.98 44.11 55.38 Z" />
<path fill="#055b33" opacity="1.00" d=" M 39.37 66.00 C 40.25 64.07 42.49 64.55 44.16 64.16 C 44.27 66.88 41.02 65.62 39.37 66.00 Z" />
</g>
<g id="#8fbdb7ea">
<path fill="#8fbdb7" opacity="0.92" d=" M 36.77 1.67 C 40.26 0.98 44.08 0.87 47.22 2.81 C 43.72 2.58 40.25 2.09 36.77 1.67 Z" />
<path fill="#8fbdb7" opacity="0.92" d=" M 47.85 3.04 C 52.04 3.43 55.62 5.69 58.74 8.36 L 59.58 8.94 C 66.56 14.73 71.31 23.74 70.55 32.94 C 70.76 26.73 67.87 21.05 64.31 16.16 C 63.98 15.70 63.31 14.77 62.97 14.31 C 58.46 9.90 53.66 5.65 47.85 3.04 Z" />
<path fill="#8fbdb7" opacity="0.92" d=" M 12.62 10.65 C 15.97 7.87 19.38 4.92 23.61 3.62 C 20.67 6.26 17.67 8.84 14.64 11.39 C 14.56 11.46 14.40 11.60 14.31 11.67 C 12.19 11.82 11.33 13.86 11.04 15.67 C 10.61 16.97 10.10 18.25 9.63 19.54 C 6.18 22.31 2.20 25.49 1.44 30.11 C 2.20 35.53 3.33 41.65 8.36 44.78 L 8.79 46.24 L 7.19 45.46 C 2.64 42.90 1.40 37.61 0.52 32.89 L 0.00 34.09 L 0.00 27.13 L 0.07 28.00 C 1.98 24.99 4.08 22.07 6.81 19.75 C 9.86 17.45 9.62 12.97 12.62 10.65 Z" />
<path fill="#8fbdb7" opacity="0.92" d=" M 72.26 30.07 C 73.33 35.03 73.96 40.47 70.72 44.80 C 72.13 46.13 73.23 47.83 72.48 49.83 C 70.30 49.93 68.11 50.26 66.30 51.58 C 66.66 50.87 67.38 49.45 67.73 48.74 C 68.47 48.72 69.94 48.66 70.68 48.63 C 72.07 47.50 70.03 46.04 68.93 45.82 C 69.76 43.94 70.47 42.02 71.18 40.10 C 72.34 39.04 73.08 36.73 71.34 35.84 C 71.77 33.94 72.07 32.01 72.26 30.07 Z" />
<path fill="#8fbdb7" opacity="0.92" d=" M 12.57 49.92 C 16.31 50.95 19.98 52.40 22.88 55.05 C 25.57 57.12 28.97 57.90 32.17 58.84 L 32.07 59.31 C 31.97 59.58 31.78 60.12 31.68 60.38 C 28.50 59.17 25.39 57.77 22.09 56.89 C 20.48 54.91 18.56 53.13 15.92 52.76 C 14.45 52.31 13.42 51.15 12.57 49.92 Z" />
<path fill="#8fbdb7" opacity="0.92" d=" M 59.69 58.87 C 60.18 57.28 61.55 55.93 63.31 56.22 C 62.92 57.92 61.42 58.95 59.69 58.87 Z" />
<path fill="#8fbdb7" opacity="0.92" d=" M 52.15 58.20 C 52.57 58.15 53.41 58.04 53.83 57.99 C 54.87 58.03 56.97 58.10 58.01 58.14 C 56.61 59.09 54.89 59.17 53.30 59.57 C 48.96 60.21 44.19 63.58 40.01 60.83 C 40.58 60.74 41.73 60.56 42.30 60.48 C 42.80 60.41 43.79 60.26 44.28 60.19 C 44.74 60.13 45.66 60.00 46.12 59.93 L 46.97 59.80 L 47.92 59.59 C 49.34 59.17 50.74 58.66 52.15 58.20 Z" />
</g>
<g id="#b9c700ff">
<path fill="#b9c700" opacity="1.00" d=" M 23.66 5.68 C 27.44 2.87 32.31 2.59 36.77 1.67 C 40.25 2.09 43.72 2.58 47.22 2.81 L 47.85 3.04 C 53.66 5.65 58.46 9.90 62.97 14.31 C 61.77 14.42 60.57 14.54 59.38 14.66 C 59.53 14.28 59.85 13.54 60.00 13.17 C 57.76 11.15 55.74 8.73 52.95 7.46 C 51.31 8.10 51.62 10.24 51.00 11.61 C 53.44 12.86 55.78 14.31 58.03 15.88 C 58.69 17.30 59.38 18.71 60.08 20.12 C 61.48 18.80 62.89 17.47 64.31 16.16 C 67.87 21.05 70.76 26.73 70.55 32.94 C 69.80 42.55 65.95 52.26 58.01 58.14 C 56.97 58.10 54.87 58.03 53.83 57.99 C 53.62 56.26 53.41 54.54 53.24 52.81 C 54.00 54.07 54.74 55.34 55.48 56.61 C 55.70 56.05 56.14 54.93 56.36 54.37 C 57.19 54.59 58.03 54.82 58.86 55.04 C 59.08 54.58 59.52 53.66 59.75 53.20 C 59.10 53.03 57.80 52.70 57.15 52.53 C 57.29 51.61 57.44 50.69 57.59 49.77 C 54.93 51.13 51.36 52.23 51.25 55.81 C 50.35 54.98 49.44 54.15 48.52 53.34 C 48.92 55.04 49.33 56.74 49.83 58.42 C 50.41 58.37 51.57 58.26 52.15 58.20 C 50.74 58.66 49.34 59.17 47.92 59.59 C 47.94 58.15 47.96 56.71 47.98 55.27 C 46.69 55.31 45.40 55.35 44.11 55.38 C 44.17 56.98 44.23 58.59 44.28 60.19 C 43.79 60.26 42.80 60.41 42.30 60.48 C 42.79 58.49 42.57 56.47 41.41 54.78 C 40.36 55.38 39.30 55.99 38.25 56.60 C 37.65 56.24 36.44 55.52 35.84 55.15 C 34.12 55.92 33.25 57.90 32.07 59.31 L 32.17 58.84 C 32.47 57.18 32.74 55.52 33.00 53.86 C 31.38 53.76 29.76 53.66 28.15 53.58 C 28.13 53.28 28.09 52.67 28.08 52.37 C 28.90 52.25 30.54 52.00 31.36 51.88 C 30.36 51.32 29.35 50.78 28.34 50.23 C 26.66 51.08 24.96 51.86 23.24 52.61 C 23.15 53.22 22.97 54.44 22.88 55.05 C 19.98 52.40 16.31 50.95 12.57 49.92 C 8.29 43.92 8.71 36.27 7.67 29.31 C 5.67 34.22 7.89 39.71 8.36 44.78 C 3.33 41.65 2.20 35.53 1.44 30.11 C 2.20 25.49 6.18 22.31 9.63 19.54 C 8.75 22.26 7.95 25.02 7.07 27.74 C 7.41 27.75 8.08 27.76 8.42 27.76 C 9.82 18.55 16.35 11.03 23.66 5.68 M 35.01 2.71 C 34.69 5.64 34.32 8.57 33.94 11.49 C 35.44 9.68 37.16 6.88 39.95 7.84 C 43.95 7.85 47.30 10.35 51.25 10.57 C 51.09 9.02 50.95 7.47 50.80 5.92 C 49.53 5.55 48.25 5.18 46.98 4.80 C 45.79 5.54 44.59 6.28 43.38 7.00 C 43.41 6.01 43.48 4.02 43.51 3.03 C 41.87 3.60 40.24 4.20 38.60 4.79 C 37.41 4.08 36.21 3.39 35.01 2.71 M 31.62 5.80 C 31.22 5.70 30.43 5.50 30.03 5.39 C 27.17 6.81 24.23 8.08 21.18 9.01 C 20.74 9.52 19.88 10.54 19.44 11.05 C 19.58 12.30 19.71 13.55 19.84 14.79 C 19.47 14.44 18.73 13.72 18.36 13.37 C 17.34 14.32 16.34 15.30 15.36 16.30 C 16.28 17.68 17.89 18.33 19.21 19.25 C 19.21 18.80 19.21 17.90 19.21 17.44 C 20.81 17.39 21.37 16.13 21.79 14.80 C 23.89 13.42 25.93 11.96 27.83 10.32 C 29.23 11.45 31.20 14.18 32.86 11.81 C 33.33 9.17 33.14 6.47 33.05 3.80 C 32.70 4.30 31.98 5.30 31.62 5.80 M 40.31 9.40 C 36.61 15.43 33.26 21.68 29.66 27.77 C 28.22 30.36 26.42 32.94 26.28 36.00 C 25.80 41.89 29.62 47.70 35.05 49.90 C 42.92 53.32 53.13 47.38 54.21 38.92 C 54.31 37.38 54.76 35.13 52.50 35.31 C 52.50 28.47 49.25 21.76 44.49 16.96 C 43.42 14.28 42.39 11.49 40.31 9.40 Z" />
<path fill="#b9c700" opacity="1.00" d=" M 29.12 8.36 C 30.53 8.06 31.04 8.59 30.65 9.96 C 29.24 10.26 28.74 9.73 29.12 8.36 Z" />
<path fill="#b9c700" opacity="1.00" d=" M 23.24 10.27 C 23.85 10.70 23.85 10.70 23.24 10.27 Z" />
<path fill="#b9c700" opacity="1.00" d=" M 14.31 11.67 C 14.40 11.60 14.56 11.46 14.64 11.39 C 14.56 11.46 14.40 11.60 14.31 11.67 Z" />
<path fill="#b9c700" opacity="1.00" d=" M 11.04 15.67 C 11.33 13.86 12.19 11.82 14.31 11.67 C 14.16 13.56 12.90 15.21 11.04 15.67 Z" />
<path fill="#b9c700" opacity="1.00" d=" M 28.67 32.75 C 32.18 25.55 36.58 18.83 40.63 11.93 C 41.43 13.83 43.14 15.79 42.19 17.95 C 40.53 22.33 37.77 26.17 35.12 29.99 C 31.77 35.02 32.78 43.64 39.02 45.92 C 42.30 47.75 46.04 46.71 49.17 45.10 C 45.52 50.07 37.91 50.88 33.05 47.27 C 28.70 44.14 25.98 37.79 28.67 32.75 Z" />
<path fill="#b9c700" opacity="1.00" d=" M 43.20 18.26 C 46.53 18.43 41.59 21.21 43.20 18.26 Z" />
<path fill="#b9c700" opacity="1.00" d=" M 43.31 22.46 C 44.38 22.05 45.45 21.66 46.53 21.25 C 46.87 21.82 47.56 22.96 47.90 23.53 C 47.94 25.29 47.56 27.03 46.12 28.17 C 46.42 26.49 46.80 24.82 46.98 23.12 C 45.79 22.72 44.53 22.68 43.31 22.46 Z" />
<path fill="#b9c700" opacity="1.00" d=" M 42.19 25.23 C 42.78 25.70 42.78 25.70 42.19 25.23 Z" />
<path fill="#b9c700" opacity="1.00" d=" M 44.31 33.25 C 41.66 33.08 37.02 28.65 40.96 26.92 C 43.23 27.97 43.58 31.08 44.31 33.25 Z" />
<path fill="#b9c700" opacity="1.00" d=" M 45.85 32.59 C 46.75 30.79 47.05 27.29 49.55 27.19 C 50.34 29.22 51.78 31.57 50.73 33.77 C 49.32 35.67 47.13 36.95 44.73 37.06 C 45.66 34.38 48.90 33.10 49.10 30.15 C 48.01 30.96 46.93 31.79 45.85 32.59 Z" />
<path fill="#b9c700" opacity="1.00" d=" M 37.34 33.96 C 36.93 32.50 38.00 31.20 38.37 29.84 C 39.43 32.24 41.52 33.84 43.57 35.36 C 43.61 36.03 43.68 37.37 43.71 38.04 C 41.25 37.40 38.68 36.26 37.34 33.96 Z" />
<path fill="#b9c700" opacity="1.00" d=" M 44.31 43.80 C 44.17 39.63 47.88 37.58 51.07 35.97 C 50.75 39.70 48.33 43.44 44.31 43.80 Z" />
<path fill="#b9c700" opacity="1.00" d=" M 71.34 35.84 C 73.08 36.73 72.34 39.04 71.18 40.10 C 70.84 38.66 70.90 37.24 71.34 35.84 Z" />
<path fill="#b9c700" opacity="1.00" d=" M 36.06 35.91 C 38.44 37.08 40.92 38.28 42.74 40.27 C 42.86 41.61 42.98 43.27 41.22 43.44 C 37.72 42.72 36.21 39.14 36.06 35.91 Z" />
<path fill="#b9c700" opacity="1.00" d=" M 68.93 45.82 C 70.03 46.04 72.07 47.50 70.68 48.63 C 69.94 48.66 68.47 48.72 67.73 48.74 C 68.07 47.74 68.47 46.77 68.93 45.82 Z" />
<path fill="#b9c700" opacity="1.00" d=" M 24.33 53.28 C 25.95 52.76 26.50 53.31 25.97 54.95 C 24.34 55.46 23.79 54.91 24.33 53.28 Z" />
<path fill="#b9c700" opacity="1.00" d=" M 29.10 55.06 C 30.74 54.49 31.31 55.01 30.81 56.64 C 29.18 57.19 28.61 56.67 29.10 55.06 Z" />
<path fill="#b9c700" opacity="1.00" d=" M 46.12 59.93 C 44.35 58.21 48.19 57.65 46.97 59.80 L 46.12 59.93 Z" />
</g>
</svg>
