<?xml version="1.0" encoding="UTF-8" ?>
<!DOCTYPE svg PUBLIC "-//W3C//DTD SVG 1.1//EN" "http://www.w3.org/Graphics/SVG/1.1/DTD/svg11.dtd">
<svg width="157pt" height="157pt" viewBox="0 0 157 157" version="1.1" xmlns="http://www.w3.org/2000/svg">
<g id="#5a6990df">
<path fill="#5a6990" opacity="0.87" d=" M 0.00 0.00 L 4.37 0.00 C 2.85 1.46 1.40 2.99 0.00 4.56 L 0.00 0.00 Z" />
</g>
<g id="#5e72a0ff">
<path fill="#5e72a0" opacity="1.00" d=" M 10.81 0.00 L 10.83 0.00 C 16.45 5.57 22.12 11.10 27.42 16.97 C 29.27 15.24 31.06 13.45 32.86 11.69 C 33.34 11.83 34.30 12.11 34.77 12.25 C 33.39 13.92 32.14 15.72 31.36 17.75 C 29.92 21.54 26.53 24.01 24.19 27.19 C 19.77 22.73 15.29 18.32 10.88 13.84 C 7.19 17.36 3.60 20.99 0.00 24.61 L 0.00 11.05 C 3.52 7.29 7.39 3.86 10.81 0.00 Z" />
</g>
<g id="#596e9dff">
<path fill="#596e9d" opacity="1.00" d=" M 17.47 0.00 L 38.67 0.00 C 34.16 2.23 31.36 6.78 27.61 10.04 C 24.15 6.77 20.90 3.29 17.47 0.00 Z" />
</g>
<g id="#516798ff">
<path fill="#516798" opacity="1.00" d=" M 44.32 0.00 L 44.76 0.00 C 49.20 5.26 54.38 9.86 59.18 14.79 C 58.82 16.78 58.36 18.76 57.76 20.70 C 57.96 20.94 58.37 21.44 58.58 21.69 C 57.31 22.55 56.05 23.41 54.78 24.27 C 51.33 20.78 47.79 17.38 44.42 13.80 C 38.60 19.14 33.17 24.90 27.57 30.48 C 26.44 29.39 25.31 28.30 24.19 27.19 C 26.53 24.01 29.92 21.54 31.36 17.75 C 32.14 15.72 33.39 13.92 34.77 12.25 C 34.30 12.11 33.34 11.83 32.86 11.69 C 36.61 7.72 40.68 4.07 44.32 0.00 Z" />
</g>
<g id="#496094ff">
<path fill="#496094" opacity="1.00" d=" M 50.78 0.00 L 71.30 0.00 C 68.01 3.49 64.69 6.95 61.17 10.20 C 57.71 6.79 54.44 3.19 50.78 0.00 Z" />
</g>
<g id="#445b90ff">
<path fill="#445b90" opacity="1.00" d=" M 77.30 0.00 L 78.52 0.00 C 80.03 2.70 82.58 4.58 84.69 6.79 C 84.66 9.66 83.49 12.29 82.32 14.85 C 82.82 16.21 83.43 17.59 83.13 19.08 C 81.42 17.39 79.70 15.70 77.99 14.00 C 72.40 19.58 66.84 25.18 61.24 30.74 C 59.08 28.59 56.93 26.44 54.78 24.27 C 56.05 23.41 57.31 22.55 58.58 21.69 C 58.37 21.44 57.96 20.94 57.76 20.70 C 58.36 18.76 58.82 16.78 59.18 14.79 C 59.94 15.52 60.71 16.25 61.47 16.97 C 66.59 11.39 72.52 6.51 77.30 0.66 L 77.30 0.00 Z" />
</g>
<g id="#3b538bff">
<path fill="#3b538b" opacity="1.00" d=" M 85.01 0.35 C 90.70 0.79 96.40 1.72 101.81 3.59 C 99.53 5.85 97.26 8.12 94.96 10.37 C 91.57 7.10 88.19 3.82 85.01 0.35 Z" />
</g>
<g id="#385089ff">
<path fill="#385089" opacity="1.00" d=" M 94.94 17.22 C 98.87 13.22 102.88 9.30 106.80 5.29 C 110.66 6.80 114.41 8.60 117.98 10.72 C 118.07 12.91 118.45 15.09 119.49 17.05 C 118.62 17.49 117.76 17.93 116.89 18.37 C 115.27 16.96 114.00 14.77 111.93 14.09 C 106.08 19.50 100.65 25.37 94.93 30.92 C 91.00 26.98 87.02 23.08 83.13 19.08 C 83.43 17.59 82.82 16.21 82.32 14.85 C 83.49 12.29 84.66 9.66 84.69 6.79 C 88.19 10.18 91.40 13.86 94.94 17.22 Z" />
</g>
<g id="#2b4581ff">
<path fill="#2b4581" opacity="1.00" d=" M 117.98 10.72 C 124.44 14.45 130.10 19.36 135.50 24.47 C 133.49 26.64 131.43 28.76 129.32 30.82 C 125.19 26.65 121.00 22.55 116.89 18.37 C 117.76 17.93 118.62 17.49 119.49 17.05 C 118.45 15.09 118.07 12.91 117.98 10.72 Z" />
</g>
<g id="#506697ff">
<path fill="#506697" opacity="1.00" d=" M 0.00 31.52 C 3.60 27.78 7.35 24.17 11.01 20.48 C 16.44 26.11 22.06 31.55 27.47 37.21 C 33.22 31.82 38.72 26.16 44.23 20.53 C 47.76 23.74 51.02 27.23 54.44 30.57 C 53.48 31.15 52.53 31.74 51.58 32.33 C 51.62 32.91 51.65 33.48 51.68 34.06 C 49.98 34.73 48.74 36.09 47.60 37.47 C 46.50 36.37 45.39 35.28 44.28 34.19 C 38.73 39.78 33.13 45.31 27.60 50.92 C 21.97 45.39 16.42 39.77 10.81 34.22 C 7.36 37.60 3.96 41.03 0.59 44.49 L 0.00 44.29 L 0.00 31.52 Z" />
</g>
<g id="#41598fff">
<path fill="#41598f" opacity="1.00" d=" M 63.83 34.85 C 68.52 30.07 73.26 25.34 78.02 20.63 C 82.89 25.26 87.53 30.11 92.30 34.83 C 91.32 36.60 90.52 38.47 90.09 40.45 C 89.25 41.61 88.40 42.76 87.52 43.90 C 84.36 40.71 81.19 37.54 78.00 34.38 C 72.38 39.93 66.87 45.59 61.21 51.10 C 56.70 46.54 52.13 42.02 47.60 37.47 C 48.74 36.09 49.98 34.73 51.68 34.06 C 51.65 33.48 51.62 32.91 51.58 32.33 C 52.53 31.74 53.48 31.15 54.44 30.57 C 56.63 32.68 58.61 35.02 60.98 36.95 C 62.22 36.83 62.91 35.55 63.83 34.85 Z" />
</g>
<g id="#344c86ff">
<path fill="#344c86" opacity="1.00" d=" M 94.97 37.44 C 100.75 31.86 106.34 26.09 112.06 20.46 C 113.85 22.24 115.65 24.03 117.44 25.82 C 116.61 29.22 115.40 32.54 113.53 35.53 C 113.17 35.16 112.43 34.43 112.06 34.06 C 106.34 39.78 100.63 45.50 94.92 51.21 C 92.41 48.82 89.95 46.37 87.52 43.90 C 88.40 42.76 89.25 41.61 90.09 40.45 C 90.52 38.47 91.32 36.60 92.30 34.83 C 93.19 35.70 94.08 36.57 94.97 37.44 Z" />
</g>
<g id="#27417fff">
<path fill="#27417f" opacity="1.00" d=" M 117.44 25.82 C 121.39 29.76 125.34 33.72 129.29 37.67 C 132.48 34.55 135.61 31.37 138.79 28.23 C 140.78 30.75 142.67 33.34 144.45 36.01 C 139.47 41.09 134.33 46.01 129.45 51.18 C 123.90 46.21 118.86 40.72 113.53 35.53 C 115.40 32.54 116.61 29.22 117.44 25.82 Z" />
</g>
<g id="#4d6396ff">
<path fill="#4d6396" opacity="1.00" d=" M 0.00 51.90 C 3.61 48.20 7.27 44.54 10.99 40.95 C 16.47 46.52 22.04 52.00 27.53 57.56 C 27.29 57.76 26.82 58.15 26.58 58.35 C 25.82 58.38 25.05 58.40 24.28 58.41 C 23.73 59.00 23.18 59.60 22.63 60.20 C 20.97 60.55 19.31 60.90 17.65 61.25 C 15.43 59.02 13.19 56.82 10.96 54.61 C 7.26 58.20 3.60 61.82 0.00 65.50 L 0.00 51.90 Z" />
</g>
<g id="#465d92ff">
<path fill="#465d92" opacity="1.00" d=" M 27.53 57.56 C 33.25 52.06 38.63 46.21 44.48 40.84 C 49.41 46.04 54.55 51.04 59.62 56.10 C 58.36 59.27 55.08 60.70 52.55 62.68 C 49.87 59.99 47.17 57.33 44.54 54.59 C 39.39 59.44 34.50 64.56 29.48 69.54 C 28.73 70.19 27.69 71.73 26.76 70.32 C 23.61 67.41 20.72 64.24 17.65 61.25 C 19.31 60.90 20.97 60.55 22.63 60.20 C 23.18 59.60 23.73 59.00 24.28 58.41 C 25.05 58.40 25.82 58.38 26.58 58.35 C 26.82 58.15 27.29 57.76 27.53 57.56 Z" />
</g>
<g id="#2f4883ff">
<path fill="#2f4883" opacity="1.00" d=" M 95.17 57.71 C 100.77 52.05 106.45 46.47 112.03 40.80 C 116.86 45.31 121.39 50.12 126.11 54.75 C 124.13 57.37 122.07 59.93 119.94 62.43 C 117.31 59.77 114.67 57.13 111.99 54.53 C 106.27 60.17 100.64 65.89 94.94 71.54 C 92.23 68.86 89.53 66.16 86.84 63.46 C 87.50 63.24 88.81 62.81 89.46 62.59 C 90.80 60.59 92.29 58.67 94.19 57.17 L 95.17 57.71 Z" />
</g>
<g id="#213c7bff">
<path fill="#213c7b" opacity="1.00" d=" M 129.34 57.98 C 135.27 52.27 140.89 46.24 146.92 40.63 C 151.36 47.39 153.72 55.30 155.38 63.15 C 152.25 60.41 149.45 57.32 146.38 54.52 C 140.75 60.34 134.96 66.00 129.25 71.74 C 126.14 68.64 123.03 65.54 119.94 62.43 C 122.07 59.93 124.13 57.37 126.11 54.75 C 127.19 55.82 128.26 56.90 129.34 57.98 Z" />
</g>
<g id="#3c538bff">
<path fill="#3c538b" opacity="1.00" d=" M 61.24 57.73 C 66.85 52.18 72.40 46.57 78.00 41.01 C 83.42 46.37 88.75 51.83 94.19 57.17 C 92.29 58.67 90.80 60.59 89.46 62.59 C 88.81 62.81 87.50 63.24 86.84 63.46 C 83.91 60.51 80.99 57.56 77.99 54.68 C 72.28 60.13 66.95 65.98 61.10 71.29 C 58.28 68.39 55.40 65.54 52.55 62.68 C 55.08 60.70 58.36 59.27 59.62 56.10 C 60.02 56.50 60.84 57.32 61.24 57.73 Z" />
</g>
<g id="#1c3878ff">
<path fill="#1c3878" opacity="1.00" d=" M 129.18 78.24 C 135.16 72.74 140.67 66.74 146.56 61.14 C 149.88 64.53 153.23 67.91 156.64 71.21 C 156.76 72.51 156.91 73.82 157.00 75.12 L 157.00 84.91 C 153.45 81.66 150.07 78.24 146.72 74.79 C 140.86 80.40 135.15 86.15 129.52 91.99 C 126.93 89.60 124.43 87.10 121.97 84.58 C 123.75 83.15 125.56 81.76 127.44 80.46 C 126.62 79.13 126.18 77.71 127.31 76.35 C 127.77 76.82 128.71 77.77 129.18 78.24 Z" />
</g>
<g id="#435a90ff">
<path fill="#435a90" opacity="1.00" d=" M 0.00 72.14 C 3.60 68.52 7.21 64.92 10.81 61.30 C 16.43 66.86 21.90 72.56 27.64 77.99 C 30.10 80.38 26.30 80.78 24.67 81.36 C 24.31 81.12 23.94 80.88 23.58 80.65 C 22.30 81.74 20.91 82.68 19.39 83.40 C 16.60 80.59 13.80 77.79 11.00 75.00 C 7.44 78.50 4.01 82.13 0.32 85.50 C 0.19 83.93 0.08 82.37 0.00 80.81 L 0.00 72.14 Z" />
</g>
<g id="#3f568cff">
<path fill="#3f568c" opacity="1.00" d=" M 27.64 77.99 C 33.05 72.29 38.72 66.84 44.24 61.25 C 49.64 66.58 54.95 72.01 60.34 77.34 C 59.77 78.27 59.19 79.20 58.62 80.14 C 56.29 80.54 54.75 82.22 53.82 84.32 C 50.69 81.17 47.58 78.00 44.37 74.94 C 38.86 80.58 33.23 86.09 27.69 91.69 C 24.93 88.92 22.16 86.15 19.39 83.40 C 20.91 82.68 22.30 81.74 23.58 80.65 C 23.94 80.88 24.31 81.12 24.67 81.36 C 26.30 80.78 30.10 80.38 27.64 77.99 Z" />
</g>
<g id="#364e87ff">
<path fill="#364e87" opacity="1.00" d=" M 61.54 77.98 C 67.04 72.47 72.53 66.95 78.05 61.45 C 82.55 65.89 86.97 70.41 91.48 74.84 C 91.64 77.47 90.25 80.00 87.80 81.06 C 87.40 81.60 86.61 82.67 86.21 83.21 C 83.50 80.49 80.79 77.78 78.07 75.07 C 72.48 80.64 66.90 86.22 61.32 91.82 C 58.82 89.32 56.32 86.82 53.82 84.32 C 54.75 82.22 56.29 80.54 58.62 80.14 C 59.19 79.20 59.77 78.27 60.34 77.34 C 60.64 77.50 61.24 77.82 61.54 77.98 Z" />
</g>
<g id="#2a4480ff">
<path fill="#2a4480" opacity="1.00" d=" M 95.04 78.32 C 100.78 72.63 106.47 66.88 112.20 61.18 C 117.21 66.26 122.30 71.26 127.31 76.35 C 126.18 77.71 126.62 79.13 127.44 80.46 C 125.56 81.76 123.75 83.15 121.97 84.58 C 118.75 81.35 115.49 78.17 112.36 74.85 C 106.37 80.34 100.83 86.31 95.00 91.99 C 92.06 89.07 89.14 86.14 86.21 83.21 C 86.61 82.67 87.40 81.60 87.80 81.06 C 90.25 80.00 91.64 77.47 91.48 74.84 C 92.66 76.01 93.85 77.16 95.04 78.32 Z" />
</g>
<g id="#374f88ff">
<path fill="#374f88" opacity="1.00" d=" M 1.08 91.32 C 4.56 88.43 7.25 84.35 11.05 82.04 C 16.61 87.34 22.03 92.82 27.36 98.37 C 33.39 93.17 38.46 86.94 44.53 81.78 C 49.69 87.37 55.42 92.41 60.45 98.11 C 57.74 99.76 55.36 101.90 52.87 103.86 C 50.00 101.01 47.17 98.11 44.26 95.30 C 38.79 100.94 33.11 106.37 27.66 112.03 C 21.98 106.65 16.59 100.96 10.97 95.51 C 8.31 97.31 6.61 101.20 3.48 101.78 C 2.44 98.36 1.64 94.86 1.08 91.32 Z" />
</g>
<g id="#2e4783ff">
<path fill="#2e4783" opacity="1.00" d=" M 61.76 98.14 C 67.19 92.80 72.37 87.16 78.03 82.08 C 83.53 87.39 89.17 92.66 94.17 98.47 C 91.98 100.71 89.77 102.97 86.97 104.46 C 83.99 101.48 81.01 98.48 78.01 95.52 C 72.33 101.01 66.94 106.80 61.15 112.17 C 58.41 109.38 55.62 106.64 52.87 103.86 C 55.36 101.90 57.74 99.76 60.45 98.11 C 60.78 98.12 61.44 98.13 61.76 98.14 Z" />
<path fill="#2e4783" opacity="1.00" d=" M 44.36 102.07 C 49.43 106.95 54.33 112.00 59.32 116.97 C 59.07 117.59 58.56 118.85 58.30 119.48 C 55.59 120.39 52.78 121.04 49.90 121.12 C 47.92 119.53 46.26 117.60 44.52 115.76 C 38.65 121.02 33.26 126.81 27.69 132.38 C 23.16 128.21 18.92 123.72 14.54 119.39 C 13.06 118.08 11.92 115.89 9.62 116.14 C 8.10 113.37 6.78 110.50 5.48 107.62 C 7.25 105.72 9.07 103.88 10.93 102.07 C 16.55 107.62 22.05 113.29 27.73 118.79 C 33.25 113.20 38.88 107.70 44.36 102.07 Z" />
</g>
<g id="#243f7dff">
<path fill="#243f7d" opacity="1.00" d=" M 100.28 93.34 C 104.23 89.58 107.82 85.43 111.97 81.89 C 115.61 84.49 118.36 88.20 121.70 91.19 C 120.21 94.27 116.95 95.49 114.52 97.62 C 113.71 96.84 112.90 96.06 112.09 95.28 C 106.33 100.82 100.97 106.82 94.98 112.10 C 91.96 109.98 89.68 106.96 86.97 104.46 C 89.77 102.97 91.98 100.71 94.17 98.47 C 96.79 97.61 98.30 95.10 100.28 93.34 Z" />
<path fill="#243f7d" opacity="1.00" d=" M 28.18 138.81 C 33.42 133.23 39.03 128.01 44.31 122.46 C 50.01 127.90 55.58 133.48 61.02 139.18 C 57.90 141.20 54.20 141.87 50.60 142.48 C 48.52 140.35 46.41 138.25 44.24 136.22 C 41.52 138.99 38.76 141.73 36.01 144.47 C 33.28 142.75 30.71 140.80 28.18 138.81 Z" />
</g>
<g id="#173375ff">
<path fill="#173375" opacity="1.00" d=" M 129.25 98.74 C 134.93 93.01 140.74 87.41 146.31 81.56 C 149.64 84.48 152.76 87.65 155.77 90.90 C 155.65 94.70 154.36 98.35 153.42 102.00 C 151.11 99.74 148.82 97.45 146.56 95.13 C 140.83 100.77 135.09 106.40 129.54 112.21 C 124.11 107.83 119.55 102.45 114.52 97.62 C 116.95 95.49 120.21 94.27 121.70 91.19 C 124.21 93.70 126.73 96.22 129.25 98.74 Z" />
</g>
<g id="#112e72ff">
<path fill="#112e72" opacity="1.00" d=" M 146.36 102.02 C 148.15 103.64 149.88 105.31 151.56 107.04 C 149.88 110.34 149.59 115.26 145.53 116.56 C 139.99 121.84 134.71 127.40 129.23 132.74 C 125.12 128.51 120.79 124.50 116.81 120.15 C 117.99 120.38 119.19 120.57 120.38 120.76 C 120.47 120.48 120.64 119.90 120.73 119.62 C 122.59 118.57 124.12 117.09 125.39 115.39 C 126.79 116.43 127.81 118.72 129.61 118.82 C 135.26 113.30 140.86 107.70 146.36 102.02 Z" />
</g>
<g id="#26407eff">
<path fill="#26407e" opacity="1.00" d=" M 61.29 118.99 C 67.00 113.51 72.49 107.81 78.13 102.26 C 82.71 106.87 87.35 111.43 91.90 116.08 C 90.16 117.61 88.38 119.08 86.53 120.47 C 86.38 121.59 86.23 122.70 86.09 123.81 C 83.41 121.51 81.14 118.78 78.52 116.43 C 77.46 115.81 76.78 117.52 75.98 117.97 C 71.11 122.90 66.23 127.82 61.27 132.65 C 57.51 128.78 53.53 125.12 49.90 121.12 C 52.78 121.04 55.59 120.39 58.30 119.48 C 58.56 118.85 59.07 117.59 59.32 116.97 C 59.98 117.64 60.63 118.31 61.29 118.99 Z" />
</g>
<g id="#1d3979ff">
<path fill="#1d3979" opacity="1.00" d=" M 94.98 119.03 C 100.66 113.35 106.30 107.65 112.01 102.01 C 116.47 106.47 120.93 110.93 125.39 115.39 C 124.12 117.09 122.59 118.57 120.73 119.62 C 120.64 119.90 120.47 120.48 120.38 120.76 C 119.19 120.57 117.99 120.38 116.81 120.15 C 115.09 118.87 113.89 116.94 112.00 115.90 C 106.02 121.20 100.64 127.18 94.88 132.74 C 91.93 129.81 89.01 126.87 86.07 123.95 L 86.09 123.81 C 86.23 122.70 86.38 121.59 86.53 120.47 C 88.38 119.08 90.16 117.61 91.90 116.08 C 92.92 117.06 93.95 118.04 94.98 119.03 Z" />
<path fill="#1d3979" opacity="1.00" d=" M 61.02 139.18 C 67.10 134.11 72.25 128.01 78.05 122.62 C 82.90 127.32 87.62 132.13 92.38 136.91 C 90.08 139.23 87.42 141.11 84.58 142.70 C 82.42 140.56 80.27 138.41 78.13 136.26 C 72.44 141.82 66.95 147.61 61.16 153.07 C 57.68 149.51 54.13 146.00 50.60 142.48 C 54.20 141.87 57.90 141.20 61.02 139.18 Z" />
</g>
<g id="#153274ff">
<path fill="#153274" opacity="1.00" d=" M 95.01 139.45 C 100.73 133.83 106.35 128.11 112.04 122.46 C 117.60 127.93 123.07 133.48 128.59 138.98 C 126.09 141.04 123.47 142.95 120.78 144.75 C 117.85 141.87 114.98 138.95 112.06 136.07 C 106.30 141.60 100.93 147.62 94.95 152.88 C 91.27 149.73 88.07 146.05 84.58 142.70 C 87.42 141.11 90.08 139.23 92.38 136.91 C 93.25 137.76 94.13 138.60 95.01 139.45 Z" />
</g>
<g id="#1f3a7aff">
<path fill="#1f3a7a" opacity="1.00" d=" M 40.14 147.01 C 41.50 145.54 42.96 144.14 44.53 142.89 C 47.71 146.47 51.38 149.58 54.50 153.22 C 49.48 151.78 44.63 149.68 40.14 147.01 Z" />
</g>
<g id="#102d71ff">
<path fill="#102d71" opacity="1.00" d=" M 101.26 153.73 C 104.75 150.13 108.19 146.47 111.90 143.10 C 113.72 143.70 115.07 145.51 116.06 147.12 C 111.74 150.32 106.26 151.78 101.26 153.73 Z" />
</g>
<g id="#163275ff">
<path fill="#163275" opacity="1.00" d=" M 65.16 155.91 C 69.38 151.54 73.72 147.30 78.00 143.01 C 82.33 147.34 86.69 151.64 90.97 156.03 C 87.92 156.42 84.88 156.84 81.81 157.00 L 75.20 157.00 C 71.84 156.78 68.50 156.33 65.16 155.91 Z" />
</g>
</svg>
