<?xml version="1.0" encoding="UTF-8" ?>
<!DOCTYPE svg PUBLIC "-//W3C//DTD SVG 1.1//EN" "http://www.w3.org/Graphics/SVG/1.1/DTD/svg11.dtd">
<svg width="247pt" height="247pt" viewBox="0 0 247 247" version="1.1" xmlns="http://www.w3.org/2000/svg">
<g id="#324b85ff">
<path fill="#324b85" opacity="1.00" d=" M 0.00 0.00 L 20.85 0.00 C 10.86 3.81 2.83 12.33 0.00 22.68 L 0.00 0.00 Z" />
<path fill="#324b85" opacity="1.00" d=" M 43.20 0.00 L 59.02 0.00 C 56.21 5.64 55.54 12.00 55.75 18.22 C 47.37 17.89 38.63 19.68 31.96 25.03 C 22.70 31.83 18.11 43.60 18.98 54.91 C 12.45 54.57 5.85 55.58 0.00 58.61 L 0.00 42.33 C 2.10 42.32 4.21 42.31 6.31 42.30 C 6.36 37.84 6.15 33.36 6.49 28.90 C 7.16 19.96 13.03 11.59 21.28 8.02 C 28.04 4.78 35.74 5.96 42.98 5.57 C 43.03 3.71 43.08 1.85 43.20 0.00 Z" />
<path fill="#324b85" opacity="1.00" d=" M 67.64 0.00 L 113.06 0.00 C 111.25 2.08 108.47 1.61 106.03 1.85 C 96.58 2.35 87.57 7.47 82.06 15.11 C 77.10 21.71 75.24 30.09 75.75 38.23 C 66.94 37.95 57.79 40.01 50.95 45.84 C 42.30 52.76 38.18 64.10 38.98 74.99 C 27.86 74.06 16.28 78.54 9.45 87.51 C 3.94 94.16 2.03 102.97 2.32 111.45 C 1.74 111.48 0.58 111.56 0.00 111.59 L 0.00 67.30 C 7.56 61.37 17.47 62.24 26.46 62.33 C 26.52 57.64 26.27 52.93 26.68 48.25 C 27.57 39.15 33.88 30.86 42.41 27.57 C 49.00 24.83 56.28 25.98 63.21 25.57 C 63.18 16.92 62.17 7.40 67.64 0.00 Z" />
<path fill="#324b85" opacity="1.00" d=" M 119.74 0.21 C 125.45 0.27 131.15 0.41 136.84 0.92 C 133.36 7.28 131.91 14.51 132.20 21.73 C 120.54 20.77 108.38 25.82 101.75 35.63 C 96.91 42.13 95.26 50.39 95.75 58.36 C 85.05 57.61 73.88 61.50 66.92 69.86 C 60.91 76.71 58.42 85.99 58.98 94.99 C 47.61 94.02 35.77 98.77 29.00 108.09 C 23.79 114.66 22.05 123.24 22.31 131.46 C 14.74 131.02 7.21 132.76 0.67 136.62 C 0.40 132.98 0.09 129.34 0.00 125.69 L 0.00 118.87 C 3.29 118.87 6.58 118.87 9.87 118.86 C 10.09 111.83 8.92 104.42 11.88 97.78 C 15.03 89.98 22.43 84.20 30.68 82.74 C 35.86 81.96 41.12 82.47 46.34 82.34 C 46.37 77.89 46.20 73.44 46.51 69.00 C 47.15 60.33 52.60 52.13 60.50 48.41 C 67.43 44.69 75.54 45.97 83.08 45.57 C 83.14 41.00 82.88 36.42 83.25 31.86 C 84.05 22.68 90.36 14.23 98.95 10.89 C 105.54 8.16 112.82 9.30 119.74 9.11 C 119.74 6.15 119.74 3.18 119.74 0.21 Z" />
<path fill="#324b85" opacity="1.00" d=" M 145.19 2.09 C 153.40 3.70 161.72 5.49 169.31 9.13 C 162.42 13.15 156.73 19.44 154.16 27.06 C 152.46 31.75 152.17 36.79 152.23 41.73 C 140.58 40.82 128.45 45.86 121.77 55.60 C 116.94 62.11 115.25 70.39 115.76 78.37 C 107.88 78.09 99.71 79.52 93.23 84.26 C 83.23 90.87 78.04 103.19 78.99 114.99 C 68.36 114.23 57.27 118.13 50.37 126.44 C 44.24 133.24 41.90 142.62 42.36 151.62 C 34.65 151.20 26.62 152.69 20.25 157.24 C 15.47 160.36 11.86 164.90 9.09 169.83 C 5.79 161.92 3.54 153.61 1.94 145.20 C 5.95 141.98 10.76 139.61 15.94 139.17 C 20.57 138.80 25.23 139.08 29.88 138.99 C 29.97 133.94 29.58 128.86 30.19 123.83 C 31.70 113.32 40.58 104.42 51.07 102.84 C 56.17 102.13 61.35 102.62 66.48 102.48 C 66.61 97.35 66.15 92.19 66.83 87.09 C 68.38 76.20 78.00 67.22 88.89 66.09 C 93.66 65.66 98.45 66.00 103.23 65.71 C 103.26 61.48 103.13 57.24 103.25 53.00 C 103.70 42.02 112.30 32.00 123.07 29.83 C 128.56 28.75 134.19 29.39 139.74 29.24 C 139.86 24.12 139.42 18.96 140.11 13.87 C 140.69 9.55 142.82 5.67 145.19 2.09 Z" />
<path fill="#324b85" opacity="1.00" d=" M 159.88 36.05 C 160.48 25.79 168.14 16.47 177.98 13.67 C 179.47 13.11 180.75 14.38 182.05 14.90 C 187.80 18.05 193.21 21.75 198.45 25.69 C 188.71 27.98 180.01 34.56 175.67 43.64 C 172.78 49.18 172.16 55.54 172.35 61.70 C 162.29 61.07 151.80 64.41 144.89 71.95 C 137.94 78.77 135.16 88.82 135.73 98.36 C 126.44 97.88 116.69 100.40 109.87 106.99 C 101.97 113.88 98.26 124.65 99.11 134.98 C 90.13 134.49 80.73 136.82 73.93 142.94 C 65.65 149.87 61.62 160.94 62.48 171.61 C 54.73 171.16 46.69 172.72 40.26 177.25 C 32.74 182.20 27.75 190.39 26.12 199.19 C 21.13 193.34 17.20 186.65 13.61 179.88 C 15.27 172.09 20.27 164.91 27.62 161.55 C 34.49 157.98 42.44 159.21 49.88 159.00 C 49.95 154.32 49.67 149.63 50.06 144.96 C 51.11 133.67 60.72 123.80 72.05 122.65 C 76.85 122.28 81.67 122.59 86.48 122.48 C 86.62 117.34 86.15 112.16 86.85 107.05 C 88.45 96.20 98.00 87.22 108.88 86.10 C 113.66 85.66 118.46 86.01 123.25 85.71 C 123.29 81.17 123.09 76.63 123.32 72.10 C 124.20 61.09 133.19 51.35 144.11 49.64 C 149.28 48.89 154.53 49.36 159.74 49.26 C 159.81 44.86 159.59 40.44 159.88 36.05 Z" />
<path fill="#324b85" opacity="1.00" d=" M 182.55 46.62 C 186.86 37.72 196.57 32.43 206.32 32.46 C 210.89 36.56 215.20 40.97 219.11 45.71 C 209.83 47.61 201.38 53.39 196.74 61.71 C 193.05 67.70 192.03 74.88 192.37 81.80 C 182.80 81.16 172.79 84.00 165.94 90.93 C 158.37 97.86 155.05 108.40 155.71 118.48 C 146.00 117.83 135.81 120.78 128.94 127.91 C 121.57 134.81 118.32 145.17 119.10 155.10 C 109.40 154.36 99.28 157.43 92.39 164.46 C 85.08 171.35 81.75 181.68 82.48 191.59 C 74.00 191.12 65.21 193.17 58.51 198.55 C 51.87 203.57 47.68 211.27 46.14 219.37 C 41.48 215.95 37.31 211.94 33.33 207.76 C 32.37 197.42 37.58 186.66 47.01 181.96 C 54.01 177.94 62.32 179.39 70.01 179.13 C 70.28 172.54 69.11 165.68 71.42 159.34 C 74.59 150.22 83.39 143.33 93.05 142.61 C 97.57 142.34 102.10 142.57 106.62 142.51 C 106.68 138.04 106.50 133.57 106.69 129.10 C 107.26 119.13 114.65 110.14 124.11 107.16 C 130.29 105.11 136.89 106.20 143.27 105.72 C 143.31 101.17 143.07 96.61 143.39 92.06 C 144.22 82.37 151.24 73.62 160.45 70.55 C 166.72 68.47 173.40 69.51 179.87 69.23 C 180.12 61.68 178.76 53.56 182.55 46.62 Z" />
<path fill="#324b85" opacity="1.00" d=" M 202.20 67.27 C 206.12 58.76 214.97 53.14 224.25 52.59 C 227.73 57.18 230.53 62.23 233.30 67.26 C 226.02 70.47 219.57 75.86 216.00 83.06 C 212.84 88.71 212.12 95.31 212.33 101.68 C 202.78 101.23 192.77 103.98 185.93 110.93 C 178.37 117.85 175.06 128.40 175.70 138.48 C 165.74 137.78 155.29 140.97 148.41 148.43 C 141.35 155.30 138.38 165.42 139.09 175.10 C 129.40 174.34 119.31 177.42 112.41 184.42 C 105.09 191.32 101.74 201.66 102.47 211.58 C 93.10 211.01 83.30 213.73 76.46 220.38 C 72.41 224.00 69.63 228.74 67.52 233.69 C 62.60 231.13 57.91 228.18 53.29 225.14 C 53.04 215.11 59.15 205.31 68.37 201.32 C 75.08 198.12 82.70 199.39 89.87 199.16 C 90.06 193.07 89.26 186.83 90.93 180.88 C 93.54 171.38 102.23 163.84 112.06 162.79 C 116.86 162.28 121.70 162.59 126.51 162.51 C 126.65 157.35 126.16 152.15 126.87 147.02 C 128.55 136.25 138.01 127.28 148.86 126.20 C 153.66 125.80 158.48 125.91 163.29 125.87 C 163.53 119.18 162.32 112.19 164.83 105.79 C 167.46 98.51 173.69 92.66 181.08 90.40 C 187.15 88.66 193.53 89.42 199.75 89.29 C 199.93 81.93 198.87 74.12 202.20 67.27 Z" />
<path fill="#324b85" opacity="1.00" d=" M 221.68 88.71 C 224.21 81.97 229.96 76.94 236.41 74.03 C 239.20 80.36 241.97 86.93 242.90 93.81 C 235.42 100.94 231.49 111.37 232.48 121.69 C 222.62 121.03 212.32 124.17 205.41 131.43 C 198.23 138.38 195.07 148.63 195.82 158.47 C 185.82 157.72 175.32 161.01 168.43 168.49 C 161.38 175.36 158.48 185.43 159.08 195.09 C 149.15 194.29 138.85 197.62 131.93 204.93 C 124.83 211.77 121.92 221.90 122.45 231.57 C 111.59 230.72 100.57 235.05 93.49 243.38 C 87.02 241.71 80.66 239.64 74.55 236.94 C 77.48 227.61 86.10 220.17 95.92 219.29 C 100.62 218.98 105.34 219.25 110.05 219.16 C 110.16 213.73 109.65 208.26 110.55 202.87 C 112.49 192.17 122.17 183.44 133.02 182.63 C 137.56 182.36 142.10 182.59 146.64 182.52 C 146.70 178.05 146.48 173.56 146.76 169.09 C 147.43 159.65 153.97 150.96 162.84 147.67 C 169.37 144.96 176.55 146.24 183.41 145.71 C 183.46 141.17 183.24 136.63 183.50 132.09 C 184.32 120.78 193.86 110.87 205.10 109.52 C 210.02 109.01 214.98 109.43 219.91 109.22 C 220.03 102.39 219.09 95.24 221.68 88.71 Z" />
<path fill="#324b85" opacity="1.00" d=" M 240.07 129.30 C 240.04 120.25 238.89 110.12 245.18 102.66 C 246.10 108.23 246.66 113.86 247.00 119.49 L 247.00 129.07 C 246.58 133.30 246.11 137.53 245.66 141.76 C 234.23 142.98 223.63 150.31 218.89 160.84 C 216.20 166.29 215.76 172.46 215.75 178.44 C 205.99 177.75 195.86 180.90 188.93 187.97 C 181.69 194.91 178.47 205.19 179.19 215.07 C 169.21 214.29 158.87 217.61 151.93 224.97 C 146.33 230.43 143.34 237.98 142.46 245.65 C 137.82 246.23 133.17 246.73 128.50 247.00 L 121.52 247.00 C 115.09 246.61 108.64 246.16 102.30 245.01 C 106.06 242.30 110.26 239.91 114.95 239.35 C 120.00 238.79 125.11 239.14 130.18 239.06 C 130.26 234.05 129.91 229.01 130.44 224.01 C 131.86 212.82 141.79 203.44 153.04 202.63 C 157.61 202.36 162.19 202.59 166.76 202.54 C 166.82 198.03 166.60 193.51 166.85 189.00 C 167.49 179.93 173.56 171.55 181.92 168.03 C 188.66 164.95 196.25 166.07 203.42 165.72 C 203.48 160.85 203.14 155.95 203.67 151.10 C 204.69 142.30 210.94 134.45 219.06 131.09 C 225.72 128.31 233.07 129.55 240.07 129.30 Z" />
<path fill="#324b85" opacity="1.00" d=" M 225.90 163.85 C 229.14 156.38 236.37 151.29 244.19 149.53 C 240.37 168.01 232.05 185.61 220.14 200.24 C 215.28 203.13 210.12 205.85 206.62 210.49 C 203.49 213.65 202.90 218.65 199.13 221.22 C 184.80 232.24 167.99 240.22 150.28 243.93 C 151.92 236.32 156.45 229.19 163.49 225.56 C 170.55 221.42 178.97 222.73 186.76 222.55 C 187.00 215.91 185.93 208.99 188.29 202.61 C 191.07 194.75 198.02 188.56 206.13 186.66 C 211.86 185.44 217.75 186.07 223.56 185.74 C 223.80 178.44 222.41 170.63 225.90 163.85 Z" />
</g>
</svg>
