<?xml version="1.0" encoding="UTF-8" ?>
<!DOCTYPE svg PUBLIC "-//W3C//DTD SVG 1.1//EN" "http://www.w3.org/Graphics/SVG/1.1/DTD/svg11.dtd">
<svg width="218pt" height="218pt" viewBox="0 0 218 218" version="1.1" xmlns="http://www.w3.org/2000/svg">
<g id="#324b86ff">
<path fill="#324b86" opacity="1.00" d=" M 0.00 0.00 L 21.61 0.00 C 23.27 3.93 24.61 7.97 26.16 11.94 C 17.46 15.25 8.71 18.44 0.00 21.70 L 0.00 0.00 Z" />
<path fill="#324b86" opacity="1.00" d=" M 28.59 0.00 L 46.84 0.00 C 50.04 8.63 53.40 17.20 56.39 25.91 C 37.56 32.78 18.84 39.95 0.00 46.80 L 0.00 28.66 C 11.47 24.36 22.94 20.05 34.45 15.85 C 32.56 10.55 30.65 5.25 28.59 0.00 Z" />
<path fill="#324b86" opacity="1.00" d=" M 53.78 0.00 L 72.02 0.00 C 77.04 13.20 81.83 26.49 86.83 39.70 C 57.92 50.58 28.93 61.23 0.00 72.06 L 0.00 53.93 C 21.59 45.73 43.28 37.76 64.94 29.73 C 61.15 19.85 57.66 9.85 53.78 0.00 Z" />
<path fill="#324b86" opacity="1.00" d=" M 78.95 0.00 L 90.84 0.00 C 92.98 0.03 95.11 0.08 97.25 0.12 C 103.83 17.98 110.63 35.77 117.03 53.69 C 77.99 68.14 38.98 82.66 0.00 97.23 L 0.00 79.09 C 31.69 67.14 63.50 55.48 95.24 43.66 C 89.86 29.09 84.48 14.52 78.95 0.00 Z" />
<path fill="#324b86" opacity="1.00" d=" M 104.24 0.10 C 110.42 0.12 116.61 0.21 122.75 0.95 C 130.88 23.21 139.37 45.34 147.36 67.66 C 98.45 85.75 49.61 104.01 0.73 122.16 C 0.49 119.96 0.22 117.77 0.00 115.57 L 0.00 104.23 C 41.84 88.70 83.63 73.02 125.51 57.63 C 118.63 38.38 111.26 19.30 104.24 0.10 Z" />
<path fill="#324b86" opacity="1.00" d=" M 130.23 2.05 C 137.21 3.46 144.06 5.52 150.66 8.20 C 159.59 32.63 168.74 56.98 177.75 81.38 C 120.61 102.82 63.35 123.95 6.16 145.27 C 4.29 139.90 2.91 134.37 1.76 128.81 C 53.09 109.60 104.48 90.57 155.88 71.53 C 147.61 48.27 138.65 25.25 130.23 2.05 Z" />
<path fill="#324b86" opacity="1.00" d=" M 159.17 12.22 C 167.76 16.87 175.81 22.54 182.96 29.20 C 183.83 29.96 184.23 31.08 184.65 32.11 C 192.45 53.12 200.20 74.15 208.11 95.12 C 145.98 118.57 83.62 141.43 21.41 164.68 C 19.71 165.34 17.96 165.88 16.21 166.43 C 13.39 161.52 10.57 156.58 8.59 151.25 C 63.75 130.91 118.82 110.31 173.96 89.88 C 178.07 88.31 182.26 86.92 186.31 85.17 C 177.23 60.87 168.11 36.57 159.17 12.22 Z" />
<path fill="#324b86" opacity="1.00" d=" M 196.11 43.81 C 208.34 59.46 215.21 78.84 217.58 98.44 C 217.11 98.27 216.18 97.91 215.72 97.74 C 215.48 95.17 214.31 92.85 213.45 90.46 C 207.68 74.91 201.85 59.37 196.11 43.81 Z" />
<path fill="#324b86" opacity="1.00" d=" M 216.08 98.52 C 216.58 99.11 217.09 99.71 217.59 100.31 C 217.74 101.99 217.90 103.67 218.00 105.35 L 218.00 112.63 C 217.90 114.08 217.76 115.52 217.64 116.96 C 158.63 138.84 99.66 160.87 40.65 182.77 C 37.81 183.78 35.05 185.09 32.11 185.80 C 27.41 182.08 24.01 177.01 20.22 172.42 C 25.70 170.00 31.42 168.18 37.00 166.01 C 94.59 144.57 152.18 123.14 209.79 101.75 C 211.93 100.82 214.62 100.53 216.08 98.52 Z" />
<path fill="#324b86" opacity="1.00" d=" M 37.46 191.03 C 97.20 168.70 157.07 146.70 216.78 124.28 C 215.90 130.98 214.43 137.63 212.09 143.97 C 191.84 151.82 171.36 159.15 151.04 166.83 C 118.70 178.79 86.43 190.98 54.06 202.81 C 47.98 199.98 42.58 195.42 37.46 191.03 Z" />
<path fill="#324b86" opacity="1.00" d=" M 65.16 205.89 C 113.08 188.12 160.97 170.26 208.90 152.50 C 205.14 160.72 200.81 169.08 194.67 175.71 C 159.01 189.08 123.29 202.37 87.55 215.54 C 78.65 214.57 70.08 211.02 61.90 207.42 C 62.96 206.86 64.04 206.32 65.16 205.89 Z" />
<path fill="#324b86" opacity="1.00" d=" M 100.78 218.00 C 129.03 207.10 157.52 196.83 185.86 186.17 C 167.30 204.96 141.65 216.07 115.40 218.00 L 100.78 218.00 Z" />
</g>
</svg>
