<?xml version="1.0" encoding="UTF-8" ?>
<!DOCTYPE svg PUBLIC "-//W3C//DTD SVG 1.1//EN" "http://www.w3.org/Graphics/SVG/1.1/DTD/svg11.dtd">
<svg width="45pt" height="44pt" viewBox="0 0 45 44" version="1.1" xmlns="http://www.w3.org/2000/svg">
<g id="#dc4b3eff">
<path fill="#dc4b3e" opacity="1.00" d=" M 0.00 0.00 L 44.00 0.00 C 44.00 14.67 44.00 29.33 44.00 44.00 L 0.00 44.00 L 0.00 0.00 M 8.43 18.99 C 5.97 25.42 12.57 32.50 19.15 30.85 C 23.93 30.16 26.51 25.26 26.12 20.76 C 23.16 20.74 20.21 20.75 17.26 20.76 C 17.25 21.50 17.23 22.97 17.23 23.71 C 19.05 23.79 20.87 23.88 22.70 23.98 C 21.58 25.73 20.18 27.68 17.85 27.65 C 13.48 28.30 9.74 22.94 12.26 19.16 C 13.91 15.86 18.26 15.76 21.08 17.54 C 21.87 16.73 22.65 15.90 23.40 15.06 C 18.53 11.24 10.56 12.99 8.43 18.99 M 31.73 18.12 C 31.74 18.76 31.75 20.05 31.76 20.70 C 31.10 20.73 29.78 20.79 29.13 20.82 C 29.12 21.43 29.12 22.66 29.12 23.27 C 29.76 23.26 31.05 23.24 31.70 23.23 C 31.73 23.89 31.79 25.21 31.82 25.87 C 32.44 25.87 33.69 25.88 34.31 25.88 C 34.34 25.24 34.40 23.94 34.42 23.29 C 35.07 23.27 36.36 23.24 37.00 23.22 C 37.00 22.61 37.00 21.38 37.00 20.76 C 36.34 20.76 35.03 20.75 34.37 20.75 C 34.36 20.09 34.35 18.78 34.34 18.12 C 33.69 18.12 32.38 18.12 31.73 18.12 Z" />
</g>
<g id="#6e241e7f">
<path fill="#6e241e" opacity="0.50" d=" M 44.00 0.00 L 45.00 0.00 L 45.00 44.00 L 44.00 44.00 C 44.00 29.33 44.00 14.67 44.00 0.00 Z" />
</g>
<g id="#ffffffff">
<path fill="#ffffff" opacity="1.00" d=" M 8.43 18.99 C 10.56 12.99 18.53 11.24 23.40 15.06 C 22.65 15.90 21.87 16.73 21.08 17.54 C 18.26 15.76 13.91 15.86 12.26 19.16 C 9.74 22.94 13.48 28.30 17.85 27.65 C 20.18 27.68 21.58 25.73 22.70 23.98 C 20.87 23.88 19.05 23.79 17.23 23.71 C 17.23 22.97 17.25 21.50 17.26 20.76 C 20.21 20.75 23.16 20.74 26.12 20.76 C 26.51 25.26 23.93 30.16 19.15 30.85 C 12.57 32.50 5.97 25.42 8.43 18.99 Z" />
<path fill="#ffffff" opacity="1.00" d=" M 31.73 18.12 C 32.38 18.12 33.69 18.12 34.34 18.12 C 34.35 18.78 34.36 20.09 34.37 20.75 C 35.03 20.75 36.34 20.76 37.00 20.76 C 37.00 21.38 37.00 22.61 37.00 23.22 C 36.36 23.24 35.07 23.27 34.42 23.29 C 34.40 23.94 34.34 25.24 34.31 25.88 C 33.69 25.88 32.44 25.87 31.82 25.87 C 31.79 25.21 31.73 23.89 31.70 23.23 C 31.05 23.24 29.76 23.26 29.12 23.27 C 29.12 22.66 29.12 21.43 29.13 20.82 C 29.78 20.79 31.10 20.73 31.76 20.70 C 31.75 20.05 31.74 18.76 31.73 18.12 Z" />
</g>
</svg>
