<?xml version="1.0" encoding="UTF-8" ?>
<!DOCTYPE svg PUBLIC "-//W3C//DTD SVG 1.1//EN" "http://www.w3.org/Graphics/SVG/1.1/DTD/svg11.dtd">
<svg width="23pt" height="24pt" viewBox="0 0 23 24" version="1.1" xmlns="http://www.w3.org/2000/svg">
<g id="#d6d6d6ff">
<path fill="#d6d6d6" opacity="1.00" d=" M 4.53 0.00 L 18.15 0.00 C 20.59 0.43 22.31 2.33 23.00 4.63 L 23.00 19.16 C 22.58 21.53 20.75 23.16 18.60 24.00 L 5.07 24.00 C 2.66 23.50 0.44 21.67 0.36 19.05 C 0.13 14.38 0.17 9.70 0.32 5.03 C 0.26 2.49 2.43 0.89 4.53 0.00 M 17.02 3.99 C 16.02 5.41 16.86 7.23 18.73 6.74 C 20.59 5.67 19.07 2.73 17.02 3.99 M 8.71 7.68 C 5.52 9.78 5.89 15.10 9.38 16.70 C 12.88 18.79 17.65 15.09 16.67 11.19 C 16.33 7.51 11.66 5.35 8.71 7.68 Z" />
</g>
</svg>
