<?xml version="1.0" encoding="UTF-8" ?>
<!DOCTYPE svg PUBLIC "-//W3C//DTD SVG 1.1//EN" "http://www.w3.org/Graphics/SVG/1.1/DTD/svg11.dtd">
<svg width="72pt" height="70pt" viewBox="0 0 72 70" version="1.1" xmlns="http://www.w3.org/2000/svg">
<g id="#d0e5cfff">
<path fill="#d0e5cf" opacity="1.00" d=" M 38.08 0.00 L 42.39 0.00 C 44.10 0.80 45.74 1.76 47.28 2.88 C 47.29 3.32 47.32 4.22 47.34 4.66 C 51.23 5.91 54.66 9.47 58.95 8.64 C 60.19 9.21 61.27 10.05 62.43 10.77 C 62.65 11.33 63.10 12.45 63.33 13.02 C 62.77 13.31 62.20 13.54 61.59 13.71 C 61.46 11.64 59.61 10.68 57.97 9.97 C 59.39 13.33 62.73 15.37 64.52 18.53 C 67.41 23.55 69.91 29.52 68.45 35.38 C 68.91 35.26 69.83 35.01 70.30 34.89 C 70.35 34.29 70.47 33.09 70.53 32.48 C 70.82 34.67 71.27 36.83 71.51 39.03 C 71.41 41.55 69.54 43.53 68.97 45.93 C 69.59 47.42 71.85 48.83 70.67 50.57 C 68.36 51.27 65.93 51.74 63.97 53.26 C 66.71 48.08 69.56 42.78 69.60 36.75 C 69.03 37.33 68.45 37.89 67.87 38.46 C 66.88 45.84 63.43 53.06 57.56 57.78 C 54.80 59.93 52.17 62.83 48.44 62.99 C 49.07 63.51 49.70 64.02 50.35 64.51 L 50.60 64.71 C 45.57 68.68 37.63 71.43 32.20 66.72 C 32.92 66.71 34.37 66.69 35.10 66.68 C 35.01 66.35 34.83 65.69 34.74 65.36 C 30.97 65.16 27.05 65.18 23.60 63.42 C 19.62 61.83 16.64 58.59 12.79 56.79 C 13.73 58.55 15.23 59.90 16.50 61.41 C 12.85 59.85 10.94 55.94 7.08 54.71 C 5.95 51.70 5.62 48.13 2.98 45.96 C 1.40 44.51 0.71 42.43 0.00 40.47 L 0.00 37.19 C 0.18 36.36 0.55 34.69 0.74 33.86 C 1.18 33.75 2.07 33.53 2.51 33.42 L 2.83 33.51 C 3.72 38.16 3.36 43.13 5.41 47.51 C 6.93 50.80 8.97 54.02 12.14 55.94 C 11.33 52.78 8.34 50.80 7.13 47.80 C 4.21 42.53 5.62 36.13 3.67 30.68 C 3.40 31.18 2.88 32.16 2.61 32.66 C 0.62 31.70 0.69 28.92 0.33 27.02 C -0.03 22.46 5.33 20.72 6.27 16.59 C 8.17 10.12 14.64 6.17 20.92 4.89 C 12.43 10.69 4.36 18.96 3.50 29.74 C 5.45 29.31 4.76 26.97 4.98 25.52 C 7.08 23.18 7.50 19.85 9.61 17.50 C 13.65 12.55 18.08 7.38 24.28 5.17 C 30.83 3.02 37.92 1.85 44.71 3.60 C 44.77 3.28 44.89 2.63 44.95 2.30 C 42.96 1.72 40.88 1.64 38.83 1.49 L 38.52 0.92 L 38.08 0.00 M 27.55 7.62 C 25.95 9.51 27.69 12.06 28.51 13.98 C 28.71 13.31 29.12 11.96 29.32 11.29 C 29.77 10.98 30.68 10.37 31.13 10.06 C 31.30 7.90 29.30 7.31 27.55 7.62 M 31.90 13.14 C 32.79 12.56 33.49 11.79 34.01 10.83 C 34.80 11.42 35.48 12.12 36.05 12.94 C 37.03 12.43 38.07 12.30 39.16 12.53 C 39.72 11.20 39.74 9.46 40.95 8.52 C 40.87 10.04 40.82 11.57 40.81 13.09 C 41.74 12.48 42.66 11.86 43.58 11.23 C 41.80 14.84 48.54 15.73 48.06 12.07 C 46.53 11.11 45.56 9.88 46.52 8.08 C 44.81 8.15 44.03 10.10 44.13 11.60 C 43.30 10.66 41.82 9.71 42.66 8.18 C 42.40 6.65 40.25 7.22 39.16 7.01 C 38.83 8.46 38.74 10.00 37.98 11.32 C 35.98 11.22 36.06 8.33 34.91 7.04 C 31.80 6.62 32.35 11.09 31.90 13.14 M 24.03 8.50 C 23.99 9.22 23.91 10.68 23.87 11.41 C 22.94 10.80 21.95 10.29 20.90 9.90 C 21.03 11.62 22.50 12.40 23.81 13.17 C 23.65 13.65 23.32 14.60 23.15 15.08 C 23.57 15.10 24.42 15.16 24.84 15.19 C 25.49 13.18 26.22 9.74 24.03 8.50 M 47.86 16.24 C 49.01 15.76 50.16 15.25 51.29 14.72 C 51.10 15.38 50.71 16.70 50.52 17.36 C 51.94 18.53 53.23 20.25 55.35 19.59 C 55.01 20.23 54.32 21.50 53.98 22.13 C 56.25 21.65 58.51 20.00 59.37 17.82 C 58.59 17.83 57.03 17.86 56.25 17.87 C 56.61 16.98 57.54 16.02 56.54 15.21 C 55.93 15.79 54.73 16.97 54.12 17.56 C 53.59 17.00 53.06 16.44 52.51 15.89 C 53.67 15.23 54.46 14.25 54.89 12.96 C 53.76 13.17 52.68 13.54 51.66 14.09 C 51.83 13.05 52.14 12.05 52.59 11.09 C 50.13 11.38 48.76 14.19 47.86 16.24 M 15.92 14.77 C 16.62 14.77 18.01 14.78 18.71 14.78 C 19.54 15.79 20.38 16.80 21.22 17.79 C 22.98 15.81 18.34 14.00 20.39 11.45 C 18.55 12.01 17.26 13.48 15.92 14.77 M 37.63 24.04 C 34.42 23.74 30.97 23.52 28.04 25.11 C 21.59 28.02 18.21 36.09 20.34 42.76 C 21.50 46.06 24.57 47.99 27.51 49.53 C 28.87 51.47 30.21 54.05 32.99 53.93 C 40.19 53.62 47.30 48.90 49.80 42.04 C 51.35 37.16 48.16 32.73 45.11 29.27 C 46.92 28.68 48.77 28.19 50.55 27.51 C 51.80 26.38 50.09 24.90 49.15 24.31 C 47.30 24.92 45.60 25.93 43.73 26.50 C 44.24 24.30 45.45 21.87 44.37 19.65 C 43.28 17.94 41.69 16.61 40.69 14.83 C 36.00 14.76 34.58 21.09 37.63 24.04 M 13.65 16.70 C 13.88 18.98 15.82 20.62 15.93 22.92 C 14.10 22.20 12.46 20.43 10.32 20.83 C 11.13 21.78 11.78 22.82 12.26 23.97 C 11.52 23.86 10.03 23.64 9.29 23.53 C 9.88 25.96 13.05 26.07 15.03 26.86 C 14.80 25.61 13.80 24.84 12.92 24.03 C 13.67 23.99 15.18 23.93 15.93 23.90 C 16.35 22.45 17.88 21.31 16.99 19.68 C 18.21 19.43 19.87 19.76 20.44 18.29 C 18.22 17.60 15.96 16.99 13.65 16.70 M 55.45 23.08 C 56.71 24.03 56.98 25.54 57.22 27.00 C 59.01 26.21 60.85 25.49 62.51 24.44 C 64.21 23.90 63.45 21.11 62.03 20.80 C 59.62 20.69 57.48 21.97 55.45 23.08 M 59.49 42.54 C 61.03 43.78 63.20 43.65 65.06 44.02 C 63.40 42.84 62.73 40.99 62.66 39.02 C 60.48 37.66 58.27 40.65 59.49 42.54 M 56.63 46.89 C 54.41 48.00 52.87 50.05 52.84 52.59 L 50.96 51.79 C 50.30 53.75 51.31 56.88 52.92 58.11 C 53.01 57.36 53.18 55.85 53.27 55.09 C 54.09 55.14 55.73 55.25 56.55 55.30 L 56.27 54.21 C 55.66 54.02 54.45 53.64 53.85 53.45 C 53.88 52.39 53.92 51.32 53.97 50.26 C 55.92 50.79 57.14 52.62 59.09 53.11 C 59.15 50.73 54.93 50.07 56.72 47.46 C 57.81 48.14 58.89 48.83 59.96 49.54 C 62.80 49.18 63.39 45.28 60.77 44.16 C 58.62 42.46 56.66 44.75 56.63 46.89 M 8.18 46.52 C 9.03 47.32 10.13 47.69 11.26 47.94 C 11.22 48.73 11.14 50.31 11.11 51.10 C 13.25 49.66 14.74 47.38 15.39 44.90 C 12.93 45.17 10.54 45.79 8.18 46.52 M 15.36 49.19 C 14.45 50.33 11.99 51.34 12.86 53.08 C 14.80 51.01 19.65 53.02 17.84 56.03 C 18.47 59.08 23.68 58.19 23.15 54.98 C 23.47 51.90 19.12 53.15 18.60 50.49 C 18.17 49.14 16.56 47.72 15.36 49.19 M 43.20 56.21 C 42.93 56.68 42.38 57.62 42.11 58.09 C 40.34 53.77 34.23 59.41 32.14 55.93 C 30.98 57.94 29.79 59.94 28.91 62.10 C 30.09 62.10 31.14 61.65 32.05 60.73 C 32.43 61.27 33.19 62.34 33.57 62.88 C 35.72 61.78 33.06 59.14 33.09 57.53 C 33.81 57.69 35.27 58.00 36.00 58.16 C 37.04 59.65 35.90 62.18 37.87 62.99 C 38.23 61.21 37.08 58.42 39.18 57.50 C 40.99 57.57 40.26 59.93 40.95 61.07 C 41.68 63.15 43.54 60.63 43.23 59.36 C 43.61 59.96 44.37 61.17 44.75 61.77 C 46.70 60.70 44.67 58.22 44.52 56.71 C 45.37 56.65 47.07 56.54 47.92 56.48 L 47.47 58.09 L 46.08 58.54 C 46.68 60.88 49.99 59.76 50.60 58.02 C 50.23 56.66 49.27 55.53 48.43 54.43 C 46.11 53.28 45.47 56.97 43.20 56.21 M 23.04 58.87 C 24.11 60.50 26.19 60.85 27.88 61.49 C 28.43 59.61 29.39 57.72 29.11 55.70 C 28.12 56.17 27.13 56.63 26.13 57.10 C 26.13 56.48 26.12 55.23 26.11 54.61 C 23.85 54.57 23.47 57.19 23.04 58.87 M 42.76 66.25 C 44.52 66.26 46.23 65.85 47.94 65.46 C 47.95 64.96 47.97 63.96 47.98 63.47 C 46.40 64.50 43.55 64.20 42.76 66.25 M 36.79 66.93 C 38.30 66.90 39.81 66.85 41.32 66.77 C 41.18 64.57 37.13 64.99 36.79 66.93 Z" />
<path fill="#d0e5cf" opacity="1.00" d=" M 45.24 12.27 C 45.96 12.78 45.96 12.78 45.24 12.27 Z" />
<path fill="#d0e5cf" opacity="1.00" d=" M 37.21 19.93 C 37.21 18.20 38.89 16.79 40.60 17.30 C 42.68 18.89 44.20 21.61 42.73 24.15 C 41.51 22.02 42.01 18.21 38.92 17.84 C 39.68 19.98 40.58 22.08 41.11 24.30 C 39.21 23.59 37.62 21.94 37.21 19.93 Z" />
<path fill="#d0e5cf" opacity="1.00" d=" M 60.34 22.17 C 60.86 22.85 60.86 22.85 60.34 22.17 Z" />
<path fill="#d0e5cf" opacity="1.00" d=" M 29.24 26.13 C 32.98 24.44 38.21 24.79 40.99 28.05 C 40.93 28.72 40.83 30.06 40.78 30.74 C 41.50 30.63 42.94 30.42 43.66 30.32 C 47.12 33.00 49.85 37.59 48.21 42.02 C 45.82 48.07 39.51 52.21 33.09 52.60 C 31.63 52.39 29.76 51.82 29.44 50.14 C 29.75 48.78 31.13 47.84 30.90 46.36 C 29.40 46.95 27.82 48.66 26.14 47.55 C 23.57 45.42 20.72 42.52 21.00 38.90 C 21.25 33.64 24.13 28.12 29.24 26.13 M 22.97 37.96 C 22.92 39.34 21.87 42.72 24.30 42.43 C 24.18 38.12 24.62 32.92 28.55 30.30 C 29.80 29.30 32.49 29.25 31.84 27.06 C 26.88 28.33 23.65 33.08 22.97 37.96 M 25.10 42.77 C 25.47 42.80 26.21 42.86 26.58 42.88 C 26.59 40.25 27.20 37.69 27.77 35.13 C 24.82 35.78 25.54 40.38 25.10 42.77 M 45.54 34.48 C 46.68 38.27 45.90 42.02 43.73 45.23 C 46.30 45.09 47.29 42.04 47.41 39.87 C 47.33 38.06 48.12 34.85 45.54 34.48 Z" />
<path fill="#d0e5cf" opacity="1.00" d=" M 58.38 45.32 C 59.70 44.07 62.17 46.40 60.77 47.72 C 59.36 48.81 57.30 46.71 58.38 45.32 Z" />
<path fill="#d0e5cf" opacity="1.00" d=" M 16.24 50.21 C 16.86 50.82 16.86 50.82 16.24 50.21 Z" />
<path fill="#d0e5cf" opacity="1.00" d=" M 19.38 54.17 C 22.50 51.49 22.25 58.60 19.30 55.90 C 19.32 55.47 19.36 54.60 19.38 54.17 Z" />
<path fill="#d0e5cf" opacity="1.00" d=" M 55.93 61.46 C 57.02 59.30 59.32 58.33 61.17 56.97 C 60.64 59.53 58.56 61.29 55.93 61.46 Z" />
<path fill="#d0e5cf" opacity="1.00" d=" M 16.55 61.44 C 20.55 62.89 24.05 65.47 28.22 66.54 C 23.50 67.99 19.68 64.43 16.55 61.44 Z" />
</g>
<g id="#11603dfe">
<path fill="#11603d" opacity="1.00" d=" M 20.92 4.89 C 26.48 2.41 32.59 1.96 38.52 0.92 L 38.83 1.49 C 40.88 1.64 42.96 1.72 44.95 2.30 C 44.89 2.63 44.77 3.28 44.71 3.60 C 37.92 1.85 30.83 3.02 24.28 5.17 C 18.08 7.38 13.65 12.55 9.61 17.50 C 7.50 19.85 7.08 23.18 4.98 25.52 C 4.76 26.97 5.45 29.31 3.50 29.74 C 4.36 18.96 12.43 10.69 20.92 4.89 Z" />
<path fill="#11603d" opacity="1.00" d=" M 47.28 2.88 C 51.07 4.99 55.11 6.62 58.95 8.64 C 54.66 9.47 51.23 5.91 47.34 4.66 C 47.32 4.22 47.29 3.32 47.28 2.88 Z" />
<path fill="#11603d" opacity="1.00" d=" M 27.55 7.62 C 29.30 7.31 31.30 7.90 31.13 10.06 C 30.68 10.37 29.77 10.98 29.32 11.29 C 29.12 11.96 28.71 13.31 28.51 13.98 C 27.69 12.06 25.95 9.51 27.55 7.62 Z" />
<path fill="#11603d" opacity="1.00" d=" M 31.90 13.14 C 32.35 11.09 31.80 6.62 34.91 7.04 C 36.06 8.33 35.98 11.22 37.98 11.32 C 38.74 10.00 38.83 8.46 39.16 7.01 C 40.25 7.22 42.40 6.65 42.66 8.18 C 41.82 9.71 43.30 10.66 44.13 11.60 C 44.03 10.10 44.81 8.15 46.52 8.08 C 45.56 9.88 46.53 11.11 48.06 12.07 C 48.54 15.73 41.80 14.84 43.58 11.23 C 42.66 11.86 41.74 12.48 40.81 13.09 C 40.82 11.57 40.87 10.04 40.95 8.52 C 39.74 9.46 39.72 11.20 39.16 12.53 C 38.07 12.30 37.03 12.43 36.05 12.94 C 35.48 12.12 34.80 11.42 34.01 10.83 C 33.49 11.79 32.79 12.56 31.90 13.14 M 45.24 12.27 C 45.96 12.78 45.96 12.78 45.24 12.27 Z" />
<path fill="#11603d" opacity="1.00" d=" M 24.03 8.50 C 26.22 9.74 25.49 13.18 24.84 15.19 C 24.42 15.16 23.57 15.10 23.15 15.08 C 23.32 14.60 23.65 13.65 23.81 13.17 C 22.50 12.40 21.03 11.62 20.90 9.90 C 21.95 10.29 22.94 10.80 23.87 11.41 C 23.91 10.68 23.99 9.22 24.03 8.50 Z" />
<path fill="#11603d" opacity="1.00" d=" M 57.97 9.97 C 59.61 10.68 61.46 11.64 61.59 13.71 C 62.20 13.54 62.77 13.31 63.33 13.02 C 66.42 19.22 70.39 25.28 70.53 32.48 C 70.47 33.09 70.35 34.29 70.30 34.89 C 69.83 35.01 68.91 35.26 68.45 35.38 C 69.91 29.52 67.41 23.55 64.52 18.53 C 62.73 15.37 59.39 13.33 57.97 9.97 Z" />
<path fill="#11603d" opacity="1.00" d=" M 47.86 16.24 C 48.76 14.19 50.13 11.38 52.59 11.09 C 52.14 12.05 51.83 13.05 51.66 14.09 C 52.68 13.54 53.76 13.17 54.89 12.96 C 54.46 14.25 53.67 15.23 52.51 15.89 C 53.06 16.44 53.59 17.00 54.12 17.56 C 54.73 16.97 55.93 15.79 56.54 15.21 C 57.54 16.02 56.61 16.98 56.25 17.87 C 57.03 17.86 58.59 17.83 59.37 17.82 C 58.51 20.00 56.25 21.65 53.98 22.13 C 54.32 21.50 55.01 20.23 55.35 19.59 C 53.23 20.25 51.94 18.53 50.52 17.36 C 50.71 16.70 51.10 15.38 51.29 14.72 C 50.16 15.25 49.01 15.76 47.86 16.24 Z" />
<path fill="#11603d" opacity="1.00" d=" M 15.92 14.77 C 17.26 13.48 18.55 12.01 20.39 11.45 C 18.34 14.00 22.98 15.81 21.22 17.79 C 20.38 16.80 19.54 15.79 18.71 14.78 C 18.01 14.78 16.62 14.77 15.92 14.77 Z" />
<path fill="#11603d" opacity="1.00" d=" M 37.63 24.04 C 34.58 21.09 36.00 14.76 40.69 14.83 C 41.69 16.61 43.28 17.94 44.37 19.65 C 45.45 21.87 44.24 24.30 43.73 26.50 C 45.60 25.93 47.30 24.92 49.15 24.31 C 50.09 24.90 51.80 26.38 50.55 27.51 C 48.77 28.19 46.92 28.68 45.11 29.27 C 48.16 32.73 51.35 37.16 49.80 42.04 C 47.30 48.90 40.19 53.62 32.99 53.93 C 30.21 54.05 28.87 51.47 27.51 49.53 C 24.57 47.99 21.50 46.06 20.34 42.76 C 18.21 36.09 21.59 28.02 28.04 25.11 C 30.97 23.52 34.42 23.74 37.63 24.04 M 37.21 19.93 C 37.62 21.94 39.21 23.59 41.11 24.30 C 40.58 22.08 39.68 19.98 38.92 17.84 C 42.01 18.21 41.51 22.02 42.73 24.15 C 44.20 21.61 42.68 18.89 40.60 17.30 C 38.89 16.79 37.21 18.20 37.21 19.93 M 29.24 26.13 C 24.13 28.12 21.25 33.64 21.00 38.90 C 20.72 42.52 23.57 45.42 26.14 47.55 C 27.82 48.66 29.40 46.95 30.90 46.36 C 31.13 47.84 29.75 48.78 29.44 50.14 C 29.76 51.82 31.63 52.39 33.09 52.60 C 39.51 52.21 45.82 48.07 48.21 42.02 C 49.85 37.59 47.12 33.00 43.66 30.32 C 42.94 30.42 41.50 30.63 40.78 30.74 C 40.83 30.06 40.93 28.72 40.99 28.05 C 38.21 24.79 32.98 24.44 29.24 26.13 Z" />
<path fill="#11603d" opacity="1.00" d=" M 13.65 16.70 C 15.96 16.99 18.22 17.60 20.44 18.29 C 19.87 19.76 18.21 19.43 16.99 19.68 C 17.88 21.31 16.35 22.45 15.93 23.90 C 15.18 23.93 13.67 23.99 12.92 24.03 C 13.80 24.84 14.80 25.61 15.03 26.86 C 13.05 26.07 9.88 25.96 9.29 23.53 C 10.03 23.64 11.52 23.86 12.26 23.97 C 11.78 22.82 11.13 21.78 10.32 20.83 C 12.46 20.43 14.10 22.20 15.93 22.92 C 15.82 20.62 13.88 18.98 13.65 16.70 Z" />
<path fill="#11603d" opacity="1.00" d=" M 55.45 23.08 C 57.48 21.97 59.62 20.69 62.03 20.80 C 63.45 21.11 64.21 23.90 62.51 24.44 C 60.85 25.49 59.01 26.21 57.22 27.00 C 56.98 25.54 56.71 24.03 55.45 23.08 M 60.34 22.17 C 60.86 22.85 60.86 22.85 60.34 22.17 Z" />
<path fill="#11603d" opacity="1.00" d=" M 22.97 37.96 C 23.65 33.08 26.88 28.33 31.84 27.06 C 32.49 29.25 29.80 29.30 28.55 30.30 C 24.62 32.92 24.18 38.12 24.30 42.43 C 21.87 42.72 22.92 39.34 22.97 37.96 Z" />
<path fill="#11603d" opacity="1.00" d=" M 2.61 32.66 C 2.88 32.16 3.40 31.18 3.67 30.68 C 5.62 36.13 4.21 42.53 7.13 47.80 C 8.34 50.80 11.33 52.78 12.14 55.94 C 8.97 54.02 6.93 50.80 5.41 47.51 C 3.36 43.13 3.72 38.16 2.83 33.51 L 2.51 33.42 C 2.54 33.23 2.59 32.85 2.61 32.66 Z" />
<path fill="#11603d" opacity="1.00" d=" M 25.10 42.77 C 25.54 40.38 24.82 35.78 27.77 35.13 C 27.20 37.69 26.59 40.25 26.58 42.88 C 26.21 42.86 25.47 42.80 25.10 42.77 Z" />
<path fill="#11603d" opacity="1.00" d=" M 45.54 34.48 C 48.12 34.85 47.33 38.06 47.41 39.87 C 47.29 42.04 46.30 45.09 43.73 45.23 C 45.90 42.02 46.68 38.27 45.54 34.48 Z" />
<path fill="#11603d" opacity="1.00" d=" M 67.87 38.46 C 68.45 37.89 69.03 37.33 69.60 36.75 C 69.56 42.78 66.71 48.08 63.97 53.26 C 63.01 54.47 62.06 55.70 61.17 56.97 C 59.32 58.33 57.02 59.30 55.93 61.46 C 53.94 62.22 52.12 63.34 50.35 64.51 C 49.70 64.02 49.07 63.51 48.44 62.99 C 52.17 62.83 54.80 59.93 57.56 57.78 C 63.43 53.06 66.88 45.84 67.87 38.46 Z" />
<path fill="#11603d" opacity="1.00" d=" M 59.49 42.54 C 58.27 40.65 60.48 37.66 62.66 39.02 C 62.73 40.99 63.40 42.84 65.06 44.02 C 63.20 43.65 61.03 43.78 59.49 42.54 Z" />
<path fill="#11603d" opacity="1.00" d=" M 56.63 46.89 C 56.66 44.75 58.62 42.46 60.77 44.16 C 63.39 45.28 62.80 49.18 59.96 49.54 C 58.89 48.83 57.81 48.14 56.72 47.46 C 54.93 50.07 59.15 50.73 59.09 53.11 C 57.14 52.62 55.92 50.79 53.97 50.26 C 53.92 51.32 53.88 52.39 53.85 53.45 C 54.45 53.64 55.66 54.02 56.27 54.21 L 56.55 55.30 C 55.73 55.25 54.09 55.14 53.27 55.09 C 53.18 55.85 53.01 57.36 52.92 58.11 C 51.31 56.88 50.30 53.75 50.96 51.79 L 52.84 52.59 C 52.87 50.05 54.41 48.00 56.63 46.89 M 58.38 45.32 C 57.30 46.71 59.36 48.81 60.77 47.72 C 62.17 46.40 59.70 44.07 58.38 45.32 Z" />
<path fill="#11603d" opacity="1.00" d=" M 8.18 46.52 C 10.54 45.79 12.93 45.17 15.39 44.90 C 14.74 47.38 13.25 49.66 11.11 51.10 C 11.14 50.31 11.22 48.73 11.26 47.94 C 10.13 47.69 9.03 47.32 8.18 46.52 Z" />
<path fill="#11603d" opacity="1.00" d=" M 15.36 49.19 C 16.56 47.72 18.17 49.14 18.60 50.49 C 19.12 53.15 23.47 51.90 23.15 54.98 C 23.68 58.19 18.47 59.08 17.84 56.03 C 19.65 53.02 14.80 51.01 12.86 53.08 C 11.99 51.34 14.45 50.33 15.36 49.19 M 16.24 50.21 C 16.86 50.82 16.86 50.82 16.24 50.21 M 19.38 54.17 C 19.36 54.60 19.32 55.47 19.30 55.90 C 22.25 58.60 22.50 51.49 19.38 54.17 Z" />
<path fill="#11603d" opacity="1.00" d=" M 43.20 56.21 C 45.47 56.97 46.11 53.28 48.43 54.43 C 49.27 55.53 50.23 56.66 50.60 58.02 C 49.99 59.76 46.68 60.88 46.08 58.54 L 47.47 58.09 L 47.92 56.48 C 47.07 56.54 45.37 56.65 44.52 56.71 C 44.67 58.22 46.70 60.70 44.75 61.77 C 44.37 61.17 43.61 59.96 43.23 59.36 C 43.54 60.63 41.68 63.15 40.95 61.07 C 40.26 59.93 40.99 57.57 39.18 57.50 C 37.08 58.42 38.23 61.21 37.87 62.99 C 35.90 62.18 37.04 59.65 36.00 58.16 C 35.27 58.00 33.81 57.69 33.09 57.53 C 33.06 59.14 35.72 61.78 33.57 62.88 C 33.19 62.34 32.43 61.27 32.05 60.73 C 31.14 61.65 30.09 62.10 28.91 62.10 C 29.79 59.94 30.98 57.94 32.14 55.93 C 34.23 59.41 40.34 53.77 42.11 58.09 C 42.38 57.62 42.93 56.68 43.20 56.21 Z" />
<path fill="#11603d" opacity="1.00" d=" M 23.04 58.87 C 23.47 57.19 23.85 54.57 26.11 54.61 C 26.12 55.23 26.13 56.48 26.13 57.10 C 27.13 56.63 28.12 56.17 29.11 55.70 C 29.39 57.72 28.43 59.61 27.88 61.49 C 26.19 60.85 24.11 60.50 23.04 58.87 Z" />
<path fill="#11603d" opacity="1.00" d=" M 12.79 56.79 C 16.64 58.59 19.62 61.83 23.60 63.42 C 27.05 65.18 30.97 65.16 34.74 65.36 C 34.83 65.69 35.01 66.35 35.10 66.68 C 34.37 66.69 32.92 66.71 32.20 66.72 C 30.87 66.65 29.55 66.60 28.22 66.54 C 24.05 65.47 20.55 62.89 16.55 61.44 C 16.54 61.44 16.51 61.42 16.50 61.41 C 15.23 59.90 13.73 58.55 12.79 56.79 Z" />
<path fill="#11603d" opacity="1.00" d=" M 42.76 66.25 C 43.55 64.20 46.40 64.50 47.98 63.47 C 47.97 63.96 47.95 64.96 47.94 65.46 C 46.23 65.85 44.52 66.26 42.76 66.25 Z" />
<path fill="#11603d" opacity="1.00" d=" M 36.79 66.93 C 37.13 64.99 41.18 64.57 41.32 66.77 C 39.81 66.85 38.30 66.90 36.79 66.93 Z" />
</g>
</svg>
