<?xml version="1.0" encoding="UTF-8" ?>
<!DOCTYPE svg PUBLIC "-//W3C//DTD SVG 1.1//EN" "http://www.w3.org/Graphics/SVG/1.1/DTD/svg11.dtd">
<svg width="24pt" height="24pt" viewBox="0 0 24 24" version="1.1" xmlns="http://www.w3.org/2000/svg">
<g id="#002169ff">
<path fill="#002169" opacity="1.00" d=" M 0.60 2.13 C 0.98 1.71 1.75 0.87 2.13 0.45 C 5.88 3.15 8.84 6.83 12.39 9.79 C 15.50 6.58 18.87 3.63 21.99 0.44 C 22.50 0.55 23.50 0.78 24.00 0.90 L 24.00 3.80 L 23.33 2.89 C 20.67 6.17 17.40 8.89 14.55 12.00 C 17.64 15.20 20.91 18.40 24.00 21.47 L 24.00 23.25 C 23.39 23.17 22.18 23.02 21.58 22.95 C 14.54 16.08 6.93 9.62 0.60 2.13 Z" />
<path fill="#002169" opacity="1.00" d=" M 6.43 15.32 C 8.38 14.14 9.91 16.97 8.02 17.99 C 5.64 19.60 4.35 24.10 1.02 23.27 C 0.19 19.73 4.87 18.10 6.43 15.32 Z" />
</g>
</svg>
