<?xml version="1.0" encoding="UTF-8" ?>
<!DOCTYPE svg PUBLIC "-//W3C//DTD SVG 1.1//EN" "http://www.w3.org/Graphics/SVG/1.1/DTD/svg11.dtd">
<svg width="25pt" height="24pt" viewBox="0 0 25 24" version="1.1" xmlns="http://www.w3.org/2000/svg">
<g id="#153274ff">
<path fill="#153274" opacity="1.00" d=" M 0.00 3.69 C 0.90 2.19 1.92 0.23 3.97 0.35 C 8.99 0.10 14.03 0.22 19.05 0.26 C 21.30 0.03 23.83 1.60 23.88 4.01 C 24.13 9.33 24.15 14.68 23.87 20.00 C 23.86 22.14 21.75 23.08 20.17 24.00 L 0.00 24.00 L 0.00 3.69 M 14.31 5.15 C 12.59 6.62 13.41 9.53 11.44 10.88 C 13.47 13.94 12.88 17.66 12.85 21.13 C 14.11 21.11 15.37 21.11 16.63 21.13 C 16.57 18.48 16.66 15.84 16.63 13.20 C 18.57 13.20 19.26 11.91 19.38 10.18 C 18.68 10.15 17.28 10.11 16.58 10.09 C 16.63 9.45 16.71 8.17 16.75 7.53 C 17.41 7.52 18.73 7.49 19.38 7.47 C 19.38 6.75 19.38 5.32 19.38 4.60 C 17.69 4.76 15.97 4.74 14.31 5.15 Z" />
</g>
</svg>
