<?xml version="1.0" encoding="UTF-8" ?>
<!DOCTYPE svg PUBLIC "-//W3C//DTD SVG 1.1//EN" "http://www.w3.org/Graphics/SVG/1.1/DTD/svg11.dtd">
<svg width="45pt" height="44pt" viewBox="0 0 45 44" version="1.1" xmlns="http://www.w3.org/2000/svg">
<g id="#0076b2ff">
<path fill="#0076b2" opacity="1.00" d=" M 0.00 0.00 L 45.00 0.00 L 45.00 44.00 L 0.00 44.00 L 0.00 0.00 M 12.27 10.36 C 11.14 10.93 10.46 12.69 11.37 13.74 C 12.24 15.83 16.23 15.36 16.21 12.97 C 16.78 10.84 13.99 9.09 12.27 10.36 M 11.37 17.01 C 11.38 21.67 11.38 26.33 11.37 30.99 C 12.87 30.99 14.38 30.99 15.88 31.00 C 15.87 26.33 15.87 21.67 15.88 17.00 C 14.38 17.00 12.87 17.01 11.37 17.01 M 18.75 16.91 C 18.75 21.61 18.75 26.30 18.75 31.00 C 20.30 31.00 21.85 31.00 23.39 31.00 C 23.41 27.92 23.03 24.77 23.74 21.74 C 24.50 19.81 27.88 19.96 28.25 22.09 C 28.72 25.03 28.49 28.02 28.48 30.97 C 29.98 30.98 31.48 30.99 32.99 31.02 C 32.91 27.15 33.42 23.16 32.45 19.38 C 30.98 15.80 25.75 15.86 23.40 18.51 C 23.15 16.05 20.29 17.36 18.75 16.91 Z" />
</g>
<g id="#ffffffff">
<path fill="#ffffff" opacity="1.00" d=" M 12.27 10.36 C 13.99 9.09 16.78 10.84 16.21 12.97 C 16.23 15.36 12.24 15.83 11.37 13.74 C 10.46 12.69 11.14 10.93 12.27 10.36 Z" />
<path fill="#ffffff" opacity="1.00" d=" M 11.37 17.01 C 12.87 17.01 14.38 17.00 15.88 17.00 C 15.87 21.67 15.87 26.33 15.88 31.00 C 14.38 30.99 12.87 30.99 11.37 30.99 C 11.38 26.33 11.38 21.67 11.37 17.01 Z" />
<path fill="#ffffff" opacity="1.00" d=" M 18.75 16.91 C 20.29 17.36 23.15 16.05 23.40 18.51 C 25.75 15.86 30.98 15.80 32.45 19.38 C 33.42 23.16 32.91 27.15 32.99 31.02 C 31.48 30.99 29.98 30.98 28.48 30.97 C 28.49 28.02 28.72 25.03 28.25 22.09 C 27.88 19.96 24.50 19.81 23.74 21.74 C 23.03 24.77 23.41 27.92 23.39 31.00 C 21.85 31.00 20.30 31.00 18.75 31.00 C 18.75 26.30 18.75 21.61 18.75 16.91 Z" />
</g>
</svg>
