<?xml version="1.0" encoding="UTF-8" ?>
<!DOCTYPE svg PUBLIC "-//W3C//DTD SVG 1.1//EN" "http://www.w3.org/Graphics/SVG/1.1/DTD/svg11.dtd">
<svg width="45pt" height="44pt" viewBox="0 0 45 44" version="1.1" xmlns="http://www.w3.org/2000/svg">
<g id="#55aceeff">
<path fill="#55acee" opacity="1.00" d=" M 0.00 0.00 L 45.00 0.00 L 45.00 44.00 L 0.00 44.00 L 0.00 0.00 M 24.98 14.00 C 23.35 15.01 23.38 17.08 22.92 18.72 C 19.14 18.13 15.92 16.06 12.85 13.92 C 13.10 15.66 13.38 17.39 13.67 19.12 C 13.46 19.57 13.03 20.49 12.82 20.94 C 13.81 21.82 14.79 22.70 15.76 23.60 C 15.42 23.91 14.75 24.53 14.41 24.84 C 15.95 25.82 17.49 26.79 19.03 27.75 C 16.70 28.34 14.38 28.93 12.05 29.52 C 16.82 31.16 22.44 31.90 26.80 28.82 C 31.20 26.30 32.31 21.10 33.40 16.57 C 33.68 15.68 33.87 14.77 34.00 13.85 C 30.95 14.74 27.70 11.63 24.98 14.00 Z" />
</g>
<g id="#ffffffff">
<path fill="#ffffff" opacity="1.00" d=" M 24.98 14.00 C 27.70 11.63 30.95 14.74 34.00 13.85 C 33.87 14.77 33.68 15.68 33.40 16.57 C 32.31 21.10 31.20 26.30 26.80 28.82 C 22.44 31.90 16.82 31.16 12.05 29.52 C 14.38 28.93 16.70 28.34 19.03 27.75 C 17.49 26.79 15.95 25.82 14.41 24.84 C 14.75 24.53 15.42 23.91 15.76 23.60 C 14.79 22.70 13.81 21.82 12.82 20.94 C 13.03 20.49 13.46 19.57 13.67 19.12 C 13.38 17.39 13.10 15.66 12.85 13.92 C 15.92 16.06 19.14 18.13 22.92 18.72 C 23.38 17.08 23.35 15.01 24.98 14.00 Z" />
</g>
</svg>
