<?xml version="1.0" encoding="UTF-8" ?>
<!DOCTYPE svg PUBLIC "-//W3C//DTD SVG 1.1//EN" "http://www.w3.org/Graphics/SVG/1.1/DTD/svg11.dtd">
<svg width="20pt" height="20pt" viewBox="0 0 20 20" version="1.1" xmlns="http://www.w3.org/2000/svg">
<g id="#c4c4c4ff">
<path fill="#c4c4c4" opacity="1.00" d=" M 0.61 0.00 L 3.32 0.00 L 2.14 0.36 C 4.69 2.64 7.11 5.06 9.50 7.50 C 11.87 5.03 14.55 2.83 16.51 0.00 L 17.76 0.00 C 18.05 0.55 18.63 1.64 18.92 2.18 C 16.49 4.66 14.02 7.11 11.57 9.57 C 14.05 12.05 16.52 14.52 18.99 17.00 C 18.50 17.50 17.50 18.50 17.00 19.00 C 14.52 16.52 12.05 14.05 9.58 11.57 C 7.13 13.99 4.70 16.44 2.25 18.87 C 1.69 18.62 0.56 18.11 0.00 17.86 L 0.00 16.41 C 2.93 14.61 5.00 11.81 7.50 9.51 C 5.02 6.99 2.49 4.53 0.00 2.01 L 0.00 0.72 L 0.65 0.60 L 0.61 0.00 Z" />
</g>
</svg>
